<?xml version="1.0" encoding="UTF-8" standalone="no"?>
<svg
   xmlns:dc="http://purl.org/dc/elements/1.1/"
   xmlns:cc="http://creativecommons.org/ns#"
   xmlns:rdf="http://www.w3.org/1999/02/22-rdf-syntax-ns#"
   xmlns:svg="http://www.w3.org/2000/svg"
   xmlns="http://www.w3.org/2000/svg"
   id="svg870"
   version="1.1"
   viewBox="0 0 2000.678 297.029">
  <metadata
     id="metadata876">
    <rdf:RDF>
      <cc:Work
         rdf:about="">
        <dc:format>image/svg+xml</dc:format>
        <dc:type
           rdf:resource="http://purl.org/dc/dcmitype/StillImage" />
        <dc:title></dc:title>
      </cc:Work>
    </rdf:RDF>
  </metadata>
  <defs
     id="defs874" />
  <path
     id="path868"
     d="M835.901 286.737c-1.495-.696-1.999-1.712-1.98-3.992.017-2.04.5-3.113 1.666-3.7 1.486-.75 2.5-1.005 4.192-1.052 4.344-.12 7.223-1.09 9.539-3.214.577-.53 1.337-1.175 1.688-1.434 1.894-1.4 3.336-3.175 3.772-4.642.172-.579.63-1.468 1.018-1.977l.706-.925.129-5.948c.07-3.272.246-7.08.389-8.464.143-1.383.26-4.684.26-7.336 0-9.76-.307-30.354-.54-36.156-.21-5.235-.36-20.201-.465-46.111-.018-4.267.08-9.18.221-11.11.26-3.552.361-17.406.154-20.96a86.475 86.475 0 00-.326-3.844c-.116-1.019-.306-3-.424-4.401-.316-3.753-.417-4.57-1.024-8.312a38.54 38.54 0 01-.322-2.725c-.237-3.18-.504-5.437-.805-6.812-.177-.807-.52-2.694-.76-4.192-.51-3.157-.5-3.11-.93-5.016-.533-2.367-.98-2.85-3.948-4.28-5.233-2.52-4.74-2.362-7.82-2.491l-2.788-.117-1.323-1.478-1.323-1.478-.143-1.961c-.08-1.08-.236-2.075-.349-2.212-.278-.34-.532-2.51-.357-3.06.245-.772 1.121-1.054 2.864-.923 1.041.08 2.127.007 3.233-.214 2.575-.515 5.094-.771 6.59-.669 1.303.09 8.696-.428 9.025-.632.087-.053 3.115-.153 6.728-.22 3.613-.067 7.324-.206 8.246-.307.923-.102 2.81-.32 4.192-.484 1.679-.2 3.806-.27 6.393-.21 5.292.123 5.132.085 5.774 1.353.627 1.238.89 1.38 1.742.939 1.003-.519 1.588-.415 2.31.408.755.859.968 1.521.91 2.825-.08 1.845-.15 11.738-.081 11.738.038 0 1.264-1.241 2.724-2.758 1.555-1.615 3.22-3.122 4.018-3.635.75-.483 2.306-1.616 3.458-2.518 3.96-3.1 7.043-4.836 11.11-6.255 2.125-.741 3.438-1.05 5.973-1.4 1.787-.248 4.083-.629 5.103-.846 1.02-.218 3.425-.546 5.345-.728 1.92-.182 4.103-.404 4.852-.493 2.187-.26 8.782-.07 9.658.277.413.164 1.46.397 2.328.518.868.12 2.24.458 3.049.75.808.291 1.63.53 1.824.53.558 0 4.845 1.029 7.036 1.688 1.095.33 2.227.663 2.515.739.288.076 1.296.504 2.24.951.945.448 1.82.814 1.946.814.127 0 .426.333.667.741.24.408.74.868 1.109 1.022.369.154 1.16.843 1.758 1.53.597.687 2.038 2.09 3.202 3.118 1.163 1.027 2.6 2.468 3.194 3.203 1.55 1.917 5.368 7.236 6.573 9.16.86 1.37 2.548 4.96 3.346 7.111.514 1.384 1.112 2.82 1.33 3.193.219.373.537 1.127.707 1.677.293.946.775 2.267 1.78 4.877.244.634.444 1.37.444 1.638 0 .267.11.691.246.943.292.541 1.398 4.453 1.64 5.803.094.518.37 1.744.616 2.724.394 1.578 1.625 7.566 1.993 9.697.075.433.308 2.76.52 5.17.343 3.926.353 4.652.094 6.967-.158 1.422-.28 4.424-.27 6.672.014 3.464-.048 4.332-.406 5.697-.232.885-.486 2.3-.563 3.144a23.734 23.734 0 01-.527 3.05 36.098 36.098 0 00-.627 3.248c-.132.953-.513 2.865-.847 4.249-.333 1.383-.66 2.94-.728 3.458-.253 1.974-.589 3.12-1.657 5.66-.606 1.44-1.16 2.86-1.23 3.155-.07.295-.556 1.187-1.078 1.982-.522.795-.95 1.557-.95 1.694s-.427 1.01-.95 1.941c-.524.931-1.06 2.002-1.192 2.381-.325.937-1.545 3.022-2.364 4.042-.37.461-.746 1.074-.835 1.363-.295.953-1.202 2.609-1.813 3.309-.33.378-.848 1.18-1.15 1.781-.302.601-.717 1.253-.922 1.449-.317.301-.982 1.245-3.14 4.457-.578.86-3.24 3.967-3.95 4.611-.387.35-1.095 1.02-1.573 1.49-1.087 1.068-2.015 1.736-3.49 2.508-.633.333-1.67 1.086-2.305 1.675-.634.589-1.671 1.315-2.305 1.614-.634.3-2.04 1.068-3.122 1.709-1.083.64-2.45 1.32-3.04 1.513-.588.192-2.374.861-3.969 1.487-1.632.641-3.662 1.272-4.646 1.444-.96.167-2.172.493-2.692.723-.52.23-1.73.515-2.69.635s-2.83.37-4.155.555c-3.898.547-7.526.395-11.842-.494-1.43-.294-3.141-.837-3.563-1.13-.348-.242-2.244-.785-3.23-.925-.508-.072-1.593-.402-2.41-.733-1.626-.658-4.152-1.479-4.552-1.479-.14 0-1.204-.46-2.367-1.023-1.162-.562-2.347-1.094-2.632-1.181-.285-.087-2.52-1.17-4.967-2.406-2.447-1.236-4.76-2.372-5.141-2.526a11.81 11.81 0 01-1.474-.763c-.43-.266-.867-.484-.971-.484-.261 0-.407 1.404-.739 7.126-.496 8.561-.511 9.707-.18 13.833.098 1.21.105 3.333.017 4.716-.092 1.444-.074 3.228.042 4.187.112.92.204 3.136.204 4.925 0 1.79.094 3.818.206 4.507.113.688.261 3.33.33 5.868.126 4.656.446 7.111 1.095 8.39.649 1.28 1.965 2.839 2.723 3.226.429.22 1.216.88 1.75 1.468.847.935 1.071 1.07 1.781 1.071.495 0 1.14.203 1.65.518.462.284 1.123.519 1.47.523.346.01.959.106 1.362.228 1.454.44 4.963.917 6.81.928 1.475.01 2.013.095 2.463.397.317.213.58.4.585.416.034.115.662 3.308.755 3.835.093.529.028.71-.324.898-.242.13-.44.372-.44.538 0 .5-.84.874-2.83 1.263-2.95.576-4.602.655-14.566.697-5.13.022-11.8.073-14.82.115-4.033.055-5.844 0-6.813-.205-2.357-.5-5.173-.597-6.278-.215-.567.196-1.666.34-2.62.342-.903 0-2.557.034-3.674.07-1.118.035-2.58-.023-3.25-.13-.669-.108-2.195-.183-3.39-.167-1.197.015-2.677-.076-3.291-.203-.867-.18-1.9-.157-4.638.105-1.937.185-3.663.385-3.835.445-.173.06-1.55.191-3.06.293-1.51.101-2.972.236-3.249.3-.286.068-.866-.05-1.342-.272zm88.568-70.765c1.22-.022 2.354-.123 2.518-.224.164-.101 1.383-.247 2.709-.323 1.326-.077 2.741-.24 3.145-.363 1.77-.54 2.868-.972 3.386-1.33.306-.212.78-.385 1.054-.385.807 0 3.812-3.295 5.544-6.078 1.95-3.135 4.593-9.037 6.062-13.536.861-2.639 1.29-4.507 1.654-7.215.194-1.44.441-3.072.549-3.626.107-.553.195-1.508.195-2.122 0-.614.184-2.236.409-3.605.225-1.37.518-3.385.651-4.48.134-1.095.477-3.076.761-4.402.717-3.335.852-3.993.967-4.716.16-1.007.757-4.507.988-5.786.141-.79.142-1.685 0-2.725-.116-.852-.258-2.587-.314-3.855-.057-1.268-.199-2.919-.315-3.668-.116-.75-.352-2.353-.523-3.563a96.653 96.653 0 00-.512-3.25c-.167-.884-.438-5.57-.94-16.243-.051-1.095-.184-2.274-.296-2.62-.111-.346-.304-1.148-.428-1.782-.51-2.608-.858-3.978-1.487-5.868a209.86 209.86 0 01-.989-3.04 22.79 22.79 0 00-.913-2.312c-.323-.696-.683-1.951-.8-2.79-.116-.84-.361-1.756-.545-2.037-.184-.28-.649-1.289-1.033-2.24-.384-.951-1.147-2.372-1.697-3.157-.549-.784-1.179-1.9-1.399-2.48-.304-.8-.901-1.551-2.491-3.131-1.15-1.144-2.14-2.079-2.2-2.079-.059 0-.471-.23-.916-.51-.445-.282-1.41-.763-2.144-1.07a86.674 86.674 0 01-3.45-1.586c-1.162-.564-2.362-1.026-2.666-1.026-.304 0-.957-.18-1.45-.398-1.157-.515-3.818-.925-4.305-.664-1.823.977-5.389 2.292-7.176 2.645-1.007.2-3.46 1.568-5.03 2.808a17.432 17.432 0 00-5.053 6.387 31.57 31.57 0 01-1.43 2.636c-.46.75-1.226 2.046-1.701 2.881-.476.836-.945 1.568-1.042 1.628-.097.06-.564 1.1-1.038 2.31a86.03 86.03 0 01-1.659 3.927 88.911 88.911 0 00-1.02 2.266c-.376.921-1.522 5.814-2.155 9.206-.226 1.21-.551 2.86-.722 3.668-.171.807-.364 2.269-.43 3.249-.064.98-.245 2.394-.4 3.144-.627 3.013-.728 3.962-.625 5.897.059 1.111-.03 3.422-.197 5.135-.167 1.714-.314 3.917-.327 4.897-.012.98-.204 2.914-.427 4.297-.811 5.037-.917 6.933-.912 16.349.005 9.202.086 10.625.898 15.93.106.69.25 1.767.32 2.39.07.623.257 1.384.415 1.69.159.307.34 1.14.402 1.852.063.71.294 1.648.513 2.082.22.433.469 1.119.554 1.522.085.403.369 1.205.632 1.782 1.793 3.93 2.26 4.82 3 5.708.457.55 1.03 1.396 1.273 1.882.243.486.81 1.287 1.259 1.782 4.534 4.989 4.378 4.847 7.88 7.154 2.05 1.35 3.08 1.861 5.765 2.86.738.274 6.244.632 7.017.456.229-.051 1.415-.112 2.636-.135zm156.349 14.045a580.2 580.2 0 00-5.555-1.143 185.444 185.444 0 01-4.506-.963 171.5 171.5 0 00-4.297-.92c-3.068-.605-4.289-.955-6.338-1.814-1.01-.424-2.308-.902-2.884-1.062-.576-.16-2.18-.822-3.563-1.47-7.134-3.346-8.972-4.354-10.795-5.922a27.864 27.864 0 00-2.41-1.814c-1.98-1.296-10.14-9.23-11.428-11.111a62.4 62.4 0 00-1.676-2.293c-.901-1.172-1.302-1.797-2.35-3.668l-1.003-1.782c-.707-1.252-2.015-5.118-2.908-8.594-.356-1.383-.89-3.41-1.188-4.506-.297-1.095-.616-2.416-.708-2.934-.092-.52-.359-1.65-.592-2.516-.234-.864-.49-2.043-.571-2.62-.081-.576-.386-2.085-.678-3.353-.464-2.014-.535-2.823-.557-6.393-.063-9.985.628-17.825 2.19-24.837.524-2.348.875-4.118 1.457-7.336.25-1.384.592-2.893.76-3.354.679-1.87 1.398-4.285 1.748-5.869.588-2.662.828-3.44 1.703-5.501a79.955 79.955 0 001.368-3.458c.457-1.274 2.093-4.71 4.134-8.68.246-.479 1.12-1.94 1.941-3.249.822-1.307 1.66-2.707 1.864-3.11.203-.404.592-1.001.864-1.327.272-.326.495-.676.495-.778 0-.535 2.145-3.65 3.458-5.022.827-.865 2.521-2.657 3.764-3.983 1.243-1.325 2.922-3.05 3.73-3.833 1.39-1.345 1.52-1.42 2.371-1.376.683.035 1.095-.088 1.701-.508a8.82 8.82 0 011.735-.882c.513-.181 1.37-.609 1.901-.95.532-.341 1.29-.73 1.686-.862.395-.133 1.178-.567 1.74-.964.561-.397 1.552-.86 2.2-1.029.65-.169 1.573-.537 2.053-.818.48-.282 1.376-.613 1.991-.736.615-.123 1.307-.304 1.537-.402.992-.423 6.99-2.303 7.756-2.43 1.096-.184 2.989-.664 3.249-.825.675-.417 5.685-1.415 7.964-1.587 1.441-.108 3.31-.29 4.155-.405 1.959-.266 3.506-.265 6.64.007 1.383.119 3.93.308 5.659.42 4.753.311 9.71.887 12.68 1.474 1.759.347 2.665.672 5.626 2.016.846.384 1.578.698 1.626.698.238 0 6.43 3.715 7.525 4.516 1.62 1.183 7.82 7.25 9.631 9.422.769.923 2.145 2.873 3.057 4.335 1.554 2.489 5.182 9.623 6.695 13.167.635 1.486 1.691 4.808 1.967 6.183.069.346.263 1.26.43 2.031.169.772.302 2.281.297 3.354-.01 2.07.052 2.762.664 7.4.212 1.615.542 4.916.73 7.337.19 2.42.504 5.109.699 5.973.654 2.906.37 5.615-.68 6.486-.181.15-.329.433-.329.63 0 .196-.212.554-.472.795-.5.466-1.072.483-4.916.15-2.686-.232-6.577-.011-12.742.724-.807.096-2.505.128-3.773.07-2.636-.118-2.97-.12-12.471-.068-10.215.055-10.606.048-15.196-.274-2.306-.161-4.522-.303-4.926-.315-.403-.011-2.384-.163-4.401-.337-4.701-.405-17.643-.693-26.494-.59l-6.896.081-.65.52-.886.71c-.416.336-.113 10.478.366 12.26.122.453.258 2.245.3 3.982.043 1.737.176 3.487.296 3.89s.222 1.299.227 1.991c0 .693.094 1.636.198 2.098.506 2.246.897 4.061 1.039 4.82.086.461.768 2.49 1.516 4.507.748 2.017 1.481 4.092 1.629 4.61.34 1.195 1.188 3.24 1.74 4.193.233.403.803 1.44 1.267 2.305.463.865 1.466 2.421 2.228 3.459.761 1.037 1.565 2.17 1.786 2.515.22.346.832 1.16 1.359 1.81a56.67 56.67 0 011.899 2.515c.517.734 2.168 2.565 3.668 4.068 2.459 2.465 2.913 2.824 4.613 3.645 1.038.501 2.5 1.217 3.25 1.592.748.374 2.022.892 2.829 1.15.807.26 1.871.6 2.365.758a7.135 7.135 0 001.803.287c.497 0 1.178.092 1.512.204.826.277 4.866.67 8.017.777 1.916.066 3.005 0 4.192-.261a68.066 68.066 0 013.175-.6c.865-.138 1.761-.35 1.992-.471.23-.122 1.079-.286 1.886-.366.928-.09 1.79-.325 2.348-.637.485-.27 1.38-.658 1.988-.86a18.869 18.869 0 002.083-.858c.538-.27 1.111-.491 1.274-.491.397 0 2.875-1.257 3.641-1.847.337-.26 1.273-.998 2.08-1.64.807-.643 1.901-1.39 2.432-1.658.933-.474 2.605-2.215 3.452-3.594.225-.367.739-.889 1.14-1.158.403-.269 1.014-.952 1.36-1.518.346-.566 1.152-1.601 1.791-2.3.639-.7 1.44-1.649 1.78-2.11.34-.46 1.148-1.357 1.796-1.991 1.524-1.492 3.045-4.308 3.437-6.364.347-1.82.844-2.35 1.986-2.12.406.081.974.136 1.262.121 2.245-.116 2.421-.084 4.087.753.923.463 1.983.96 2.357 1.106 1.021.398 1.548 1.414 1.573 3.03.01.744-.078 1.476-.198 1.627-.12.151-.384.785-.588 1.408-.428 1.314-1.344 2.853-3.225 5.422-.737 1.006-1.463 2.112-1.615 2.457-.151.346-.895 1.32-1.652 2.164-.757.844-1.681 2.106-2.053 2.806l-.97 1.819c-.309.58-1.019 1.706-2.588 4.11-.526.808-1.681 2.175-2.567 3.04-.885.864-1.93 2.067-2.323 2.672-.392.605-.793 1.1-.89 1.1-.099 0-.595.424-1.104.942-.508.518-1.034.943-1.167.943-.371 0-2.741 1.172-4.263 2.103-.749.458-1.503.834-1.677.834-.173 0-.961.326-1.751.724-.79.398-1.874.789-2.41.868-.536.08-1.258.356-1.604.614-1.102.821-1.946 1.149-3.296 1.28-.723.07-1.54.267-1.815.44-.275.172-1.313.394-2.306.494-3.132.315-5.336.726-6.311 1.178-1.342.621-2.462.896-3.668.9-.577 0-1.436.14-1.91.305-1.394.486-6.054.808-12.448.861l-5.973.05-3.25-.687zm1.467-94.292c11.365-.153 21.368-.175 24.418-.054 1.614.065 4.066.048 5.45-.036l2.515-.154.018-2.515c.02-2.795.186-4.219.632-5.408.26-.695.259-.953-.014-2.003-.2-.773-.308-2.144-.3-3.82.01-1.84-.081-2.86-.302-3.446-.552-1.46-1.562-4.969-1.93-6.702a25.509 25.509 0 00-2.086-5.973c-.375-.75-.803-1.834-.95-2.41-.37-1.45-1.227-3.228-2.626-5.45-.653-1.038-1.564-2.635-2.024-3.55-1.388-2.758-3.335-5.033-5.4-6.31-.955-.591-1.513-.894-5.978-3.246-1.384-.73-2.796-1.556-3.14-1.84-.563-.464-.754-.501-1.99-.393-.852.074-2.08.405-3.254.878a69.594 69.594 0 01-3.04 1.144c-2.366.792-4.497 1.692-5.703 2.41-.684.408-1.327.741-1.428.741-.243 0-1.26.696-2.898 1.983-1.833 1.44-3.2 3.243-4.229 5.574-.48 1.089-.978 2.168-1.106 2.399-1.049 1.896-1.852 3.891-2.24 5.564-.253 1.09-.74 2.83-1.081 3.868-1.015 3.08-1.66 5.526-2.051 7.778-.118.679-.408 1.895-.643 2.702-.235.807-.517 2.316-.625 3.353-.109 1.038-.39 2.633-.624 3.545-.235.912-.427 2.28-.427 3.04 0 .76-.102 1.713-.227 2.115-.303.975-.503 3.139-.43 4.637.033.652.354.798 3.067 1.39 2.026.443 1.9.442 20.646.19zm620.322 92.133c-.055-.056-1.779-.093-3.83-.084-3.94.018-6.94-.241-8.286-.716-.447-.158-1.622-.48-2.61-.714-.99-.235-2.222-.614-2.74-.843-.517-.23-1.083-.417-1.257-.417-.175 0-1.365-.374-2.646-.831-1.281-.458-2.706-.928-3.167-1.045-.462-.117-1.818-.825-3.016-1.574-1.647-1.03-2.463-1.706-3.355-2.78-1.526-1.839-2.957-3.727-2.957-3.903 0-.207-.866-1.912-1.933-3.805-.52-.922-1.193-2.119-1.496-2.659-.303-.54-.69-1.483-.86-2.096-.318-1.145-.915-3.049-1.993-6.354-.338-1.037-.712-2.504-.832-3.258-.119-.755-.36-1.84-.537-2.41-.891-2.88-1.132-9.05-.503-12.881.123-.75.3-1.838.392-2.42.569-3.561 1.329-6.3 2.34-8.436.453-.956 1.01-2.229 1.239-2.83.229-.6 1.051-2.291 1.828-3.759 1.241-2.345 1.73-3.015 4.032-5.534 1.441-1.576 3.404-3.535 4.363-4.353 2.379-2.032 4.72-3.881 4.923-3.89.092-.008.989-.54 1.991-1.19l2.557-1.654c1.558-1.005 4.991-3.01 6.393-3.73 4.06-2.092 8.25-3.104 17.082-4.126 1.902-.22 4.449-.55 5.66-.735 1.21-.184 3.002-.418 3.981-.52.98-.102 3.999-.424 6.708-.716 5.558-.6 6.157-.657 9.956-.957 1.498-.118 3.102-.307 3.563-.419.46-.112 1.404-.212 2.096-.222 1.223-.017 1.934-.116 4.272-.598 1.562-.322 3.489-.511 4.785-.47l1.093.035-.094-16.3c-.098-17.082-.157-18.976-.637-20.565a94.332 94.332 0 01-.845-3.176c-.303-1.21-.812-2.778-1.132-3.484-.656-1.45-3.702-5.01-4.589-5.362-.301-.12-1.02-.432-1.596-.694a23.881 23.881 0 00-2.2-.843c-.635-.2-1.53-.51-1.992-.685-.532-.203-1.833-.352-3.563-.41-2.771-.09-3.961.073-9.588 1.317-1.51.334-5.289 1.768-6.157 2.337-1.25.82-3.502 4.963-4.365 8.034-1.23 4.381-1.592 6.043-1.778 8.174-.134 1.545-.373 2.825-.664 3.564-.25.634-.588 1.86-.752 2.724-.99 5.224-2.175 8.15-4.106 10.126-.628.644-1.414 1.235-1.747 1.314-.334.078-1.266.454-2.073.834-2.33 1.097-3.886 1.304-10.375 1.38-5.757.068-10.145-.081-13.31-.452-3.586-.42-6.429-2.688-7.812-6.233-.624-1.6-.727-1.959-1.095-3.825-.392-1.992-.125-5.766.644-9.101.304-1.32.358-1.465 1.424-3.792.476-1.04.865-1.992.865-2.117 0-.178 1.685-3.177 2.472-4.399.989-1.536 1.553-2.253 2.542-3.237 1.274-1.268 4.215-3.54 5.306-4.1.377-.194 1.203-.701 1.837-1.128.634-.427 1.405-.908 1.713-1.07a92.244 92.244 0 001.767-.976c.663-.375 1.325-.681 1.47-.681.146 0 .32-.089.387-.197.14-.228 8.612-4.442 9.86-4.904l3.132-1.168c1.262-.472 2.466-.857 2.675-.857.21 0 .545-.086.745-.19 1.377-.72 3.925-1.487 4.938-1.487.695 0 1.519-.17 2.122-.436.542-.24 1.11-.388 1.261-.33.152.059 1.63-.025 3.286-.187 3.49-.34 9.173-.38 12.337-.087 1.21.111 4.312.252 6.893.312 4.482.104 6.322.26 8.408.71.518.113 1.98.407 3.249.655 1.268.248 2.777.58 3.353.74.906.25 2.885.64 6.859 1.353 1.263.226 5.22 1.573 6.452 2.197 1.084.548 3.709 2.29 6.27 4.16 1.658 1.21 4.685 3.97 4.862 4.432.044.115.603.648 1.241 1.184 1.012.848 1.357 1.36 2.679 3.982 1.008 1.999 1.618 3.497 1.816 4.464.164.8.68 2.186 1.146 3.08.467.895.849 1.762.849 1.927 0 .166.14.571.313.902.524 1.005.301 1.932-.531 2.21-.42.14.018.716.696.916.82.242 1.115.81 1.42 2.735.341 2.157.755 11.11.58 12.555-.084.692-.204 9.133-.266 18.76-.063 9.625-.161 17.972-.218 18.549-.057.576-.156 2.171-.22 3.544-.062 1.373-.168 2.583-.234 2.69-.216.35-.11 8.614.131 10.22.165 1.093.186 3.23.07 7.02-.542 17.534.117 25.313 2.37 28.01.39.468.71.927.71 1.021 0 .094.364.632.81 1.195.577.73 1.222 1.228 2.252 1.738l1.444.715 4.192.129c3.702.113 4.306.182 5.16.583.533.25 1.064.574 1.182.72.21.259.45 2.273.543 4.56.026.635.209 1.455.407 1.824.513.958.448 1.418-.286 2.036-.57.48-.842.545-2.358.57-2.746.044-3.484.095-5.59.385-3.877.534-8.722 1.263-10.48 1.576-.98.174-3.15.363-4.822.42-1.671.056-4.312.15-5.868.207-7.472.276-11.48.154-15.762-.48-2.355-.348-5.964-3.146-7.468-5.79-.481-.844-.874-1.737-.874-1.983s-.09-.61-.201-.81c-.111-.2-.292-.79-.404-1.308a16.673 16.673 0 00-.55-1.886c-.242-.652-.386-1.927-.467-4.125-.065-1.75-.186-3.293-.27-3.429-.267-.433-.908-.009-1.986 1.317-3.384 4.16-10.909 11.404-13.639 13.128-3.956 2.5-7.76 3.855-13.294 4.737-1.21.193-2.861.483-3.668.644-2.574.515-5.947.747-10.206.705-2.278-.023-4.187-.087-4.243-.143zm17.97-16.31c2.578-.035 4.947-.418 6.12-.99.577-.281 1.548-.617 2.159-.747.91-.194 2.254-.837 4.795-2.296 1.107-.636 4.421-3.432 5.05-4.26.43-.567 1.195-1.555 1.7-2.196 2.123-2.694 3.805-5.627 4.851-8.462.984-2.664 2.005-6.352 2.38-8.594.32-1.91.665-8.566.603-11.633-.08-4.01-.048-14.863.06-19.702l.12-5.45.55-.574c.302-.316.492-.63.424-.699-.193-.192-6.319.644-9.906 1.353-1.152.228-3.18.617-4.506.865-3.09.579-9.497 2.045-10.585 2.423-.46.16-2.178.673-3.815 1.14-3.068.876-7.422 2.856-9.18 4.175-.46.346-1.104.78-1.43.964-1.437.815-3.115 2.294-3.64 3.206-.31.54-.998 1.641-1.528 2.448-.53.807-1.066 1.706-1.191 1.997-.126.291-.485.834-.797 1.205-.482.573-.709.676-1.493.676-.86 0-.925.039-.925.552 0 .318.22.756.516 1.03.776.72.858 1.414.364 3.106-.45 1.539-.718 3.356-1.087 7.364-.278 3.028-.27 9.807.013 11.004.123.518.303 1.618.4 2.444.233 1.99.584 3.637 1.08 5.075.224.648.557 1.84.74 2.646.46 2.03 1.64 5.507 2.017 5.934.171.195.556.844.856 1.442.3.598.772 1.21 1.05 1.362.277.151 1.057.612 1.732 1.023 1.333.812 2.401 1.242 3.093 1.245.242 0 1.331.337 2.42.748 1.09.411 2.457.872 3.04 1.024 1.03.27 1.074.263 1.646-.274.53-.497.755-.553 2.305-.574zm-490.42 15.423c-.23-.1-2.353-.189-4.716-.199-2.363-.01-5.146-.105-6.183-.211-2.85-.292-4.84-.322-9.327-.14-3.305.133-4.506.101-6.273-.167-1.202-.182-2.961-.331-3.91-.331-.948 0-2.993-.14-4.544-.313-3.067-.34-10.606-.488-11.045-.216-.251.154-1.604.253-9.065.658-2.635.143-2.67.139-3.365-.39-.386-.295-1.095-.654-1.577-.798-.482-.145-.92-.413-.975-.598-1.029-3.48-.968-6.04.176-7.46l.506-.63 3.32-.006c3.664-.007 4.719-.216 7.198-1.426 1.64-.8 4.197-3.148 4.813-4.421.502-1.037.874-2.403 1.374-5.046.43-2.28.4-1.83.854-12.786.128-3.106.162-3.6.479-6.917.11-1.152.161-4.17.115-6.707-.047-2.536.02-5.979.147-7.65.468-6.103.524-9.621.214-13.31-.228-2.706-.298-7.496-.293-19.912.01-14.71.042-16.47.36-17.558.273-.934.338-1.839.285-3.982-.093-3.753.241-11.477.518-11.995.124-.231.204-.992.18-1.692-.024-.7.108-1.925.295-2.724.387-1.652.432-4.54.085-5.451-.128-.337-.592-1.084-1.032-1.66-.44-.578-.999-1.445-1.241-1.928-.487-.97-1.27-1.635-2.86-2.43-1.997-1-4.062-1.374-8.38-1.519-1.614-.053-3.827-.212-4.918-.351-1.658-.212-2.09-.347-2.62-.821-.629-.562-.636-.594-.667-2.818-.03-2.206-.017-2.276.707-3.593.952-1.73 1.442-2.045 3.244-2.079.783-.014 1.684-.127 2-.25.658-.254 2.785-.703 3.722-.784.345-.03 1.147-.11 1.781-.177 5.926-.627 8.869-.791 11.214-.625 3.25.23 5.383.16 7.74-.25 1.53-.266 2.719-.303 6.093-.188 2.93.1 4.729.066 5.974-.115.98-.143 3.196-.25 4.925-.239 1.73.011 3.733-.08 4.453-.205 1.838-.317 2.48-.127 3.91 1.16l1.238 1.112.267 2.285c.197 1.685.21 2.67.048 3.753-.4 2.68.505 13.634 1.181 14.31.228.229.526-.27 2.487-4.164 2.41-4.787 2.746-5.278 5.254-7.667 2.987-2.847 5.345-4.376 9.93-6.436.72-.324 1.632-.808 2.027-1.076.395-.268 1.315-.695 2.044-.949 1.353-.47 1.64-.587 3.841-1.56 1.789-.79 3.289-1.301 4.335-1.474.498-.083 1.091-.249 1.32-.368 1.583-.834 7.958-1.463 10.056-.993.485.108 2.192.26 3.793.335 1.6.075 3.279.267 3.729.426.45.159 1.01.289 1.246.289.74 0 2.723.7 3.994 1.41.674.377 1.299.686 1.389.686.514 0 2.183 1.206 2.677 1.934.318.47 1.199 1.525 1.958 2.346 1.351 1.462 1.382 1.522 1.51 2.894.08.842.323 1.761.612 2.301.465.87.48 1.069.47 6.14l-.011 5.24-.77 2.142c-.422 1.179-1.003 2.515-1.29 2.97-.644 1.019-3.696 4.791-4.354 5.38-1.693 1.515-9.905 5.103-11.974 5.23-.672.042-1.71.135-2.305.207-1.438.174-5.005-.526-6.352-1.247-1.57-.84-3.423-2.393-4.068-3.411-.321-.506-.976-1.362-1.456-1.904-.758-.855-1.979-2.59-3.467-4.927-.72-1.132-2.89-3.186-3.662-3.469-.404-.147-1.205-.443-1.782-.656-1.617-.6-2.337-.687-3.52-.428-3.058.67-4.67 2.2-7.177 6.82-.25.461-1.216 1.925-2.146 3.253-1.637 2.336-2.32 3.677-2.88 5.655-.148.519-.901 2.735-1.674 4.925-.774 2.19-1.498 4.454-1.61 5.03a32.939 32.939 0 01-.637 2.516c-.59 1.99-.755 2.67-1.084 4.506-.155.865-.44 2.374-.631 3.354-.192.98-.437 2.253-.545 2.83-.107.576-.305 3.641-.438 6.812-.286 6.757-.28 6.673-.576 10.06-.468 5.377-.703 11.363-.562 14.29.08 1.651.185 7.341.235 12.644.159 17.026.188 18.196.467 18.846.153.358.265 1.533.268 2.83 0 1.22.023 3.629.044 5.353l.038 3.135.838.25c.805.24 2.68 1.171 3.17 1.573.128.106 1.26.318 2.515.473 1.508.185 2.598.442 3.217.758.932.475 4.293.922 6.435.855 1.417-.045 3.411.355 4.81.964 1.98.863 2.15 1.279 2.272 5.567.054 1.898.196 3.708.316 4.022.181.477.128.724-.327 1.5-.3.51-.632.983-.74 1.05-.107.065-2.196.157-4.643.203-6.457.122-8.757.241-9.582.497-.858.266-2.858.276-3.46.018zm701.214-.024c-3.853-.218-8.675-.4-12.576-.476-3.332-.064-4.326-.29-4.936-1.122-.12-.165-.536-.365-.924-.444-1.2-.246-1.444-.838-1.522-3.703-.06-2.206-.126-2.603-.535-3.177-.472-.662-.574-1.22-.337-1.837.276-.72.49-.762 8.502-1.676 2.819-.322 3.549-.58 5.403-1.912.55-.396 1.094-.72 1.208-.72.113 0 .856-.574 1.651-1.275 1.49-1.314 2.635-2.891 3.03-4.175.123-.403.366-3.233.54-6.288.356-6.26.346-5.74.182-9.116-.07-1.453-.03-2.913.093-3.459.217-.952.386-7.352.454-17.188.021-2.94.111-6.382.202-7.65.298-4.173.405-13.722.197-17.585-.271-5.017-.285-16.405-.023-19.304.135-1.504.139-4.165.01-7.65-.205-5.492-.468-8.09-.964-9.512-.156-.446-.284-1.03-.284-1.298 0-.818-1.433-4.914-2.097-5.994-.345-.56-.627-1.113-.627-1.228 0-.114-.367-.95-.814-1.856-.923-1.869-3.03-4.74-4.055-5.523a22.003 22.003 0 01-1.572-1.386c-.487-.474-1.242-1.01-1.677-1.194-1.997-.839-5.202-1.798-6.605-1.976-.849-.107-1.962-.292-2.475-.41-.513-.118-1.992-.217-3.286-.22-2.658-.007-4.162.417-6.194 1.742-2.206 1.438-3.63 2.322-4.467 2.774-1.362.734-2.426 1.44-3.403 2.259-.5.418-1.56 1.102-2.356 1.52-.796.42-1.85 1.152-2.341 1.629-1.812 1.759-4.37 5.125-5.356 7.048a22.687 22.687 0 01-.84 1.467c-.762 1.206-2.083 4.035-2.249 4.82-.167.789-1.428 4.151-1.9 5.066-.45.876-1.545 4.838-1.89 6.843-1.62 9.433-1.743 10.602-1.637 15.445.051 2.305.135 7.493.188 11.528.053 4.035.19 9.27.303 11.633.114 2.363.181 12.172.15 21.798-.069 20.527-.063 20.618 1.82 25.767.551 1.508.837 1.959 1.948 3.069.795.796 1.614 1.402 2.106 1.56.442.143 1.383.528 2.091.855 1.226.566 1.438.596 4.506.619 1.771.013 3.734.011 4.363-.007 2.56-.068 3.167 1.235 2.757 5.922-.232 2.654-.458 3.351-1.286 3.964-.485.358-.706.373-2.62.173-1.15-.12-2.467-.31-2.928-.422-.462-.112-2.725-.253-5.03-.314-4.453-.118-6.18-.296-6.65-.686-.159-.133-.473-.202-.698-.155-.224.047-1.021.227-1.77.398-.813.186-3.603.406-6.917.545-3.055.127-6.545.366-7.755.53-3.163.427-12.714.98-14.735.854-.946-.059-2.945-.17-4.444-.245-1.733-.088-2.893-.244-3.189-.428-.617-.386-1.096-.366-1.572.066-.357.323-.65.333-3.265.113-2.303-.195-9.525-.205-12.642-.018-.889.053-2.137-.68-2.312-1.358-.084-.326-.077-2.031.016-3.79.223-4.232.552-4.733 3.115-4.735 2.016 0 5.948-.421 7.274-.777 3.884-1.042 6.096-3.394 7.472-7.946.658-2.176 1.433-7.585 1.44-10.046 0-.801.095-2.082.206-2.847.372-2.576.651-9.048.656-15.218 0-3.52.087-6.179.198-6.247.29-.18.233-.752-.114-1.136-.537-.594-.387-3.983.286-6.44.298-1.088.72-7.062.74-10.44.02-3.712-.333-18.418-.446-18.61-.054-.092-.14-2.675-.19-5.74-.051-3.066-.138-5.648-.194-5.739-.056-.09-.104-3.45-.107-7.465-.01-11.913-.066-10.71.533-11.264.644-.597.651-.807.055-1.613-.385-.521-.492-1.016-.599-2.77-.07-1.173-.246-2.502-.388-2.953-.142-.45-.214-1.158-.16-1.572.08-.601-.106-1.165-.924-2.805-1.558-3.121-2.797-4.14-6.42-5.275-1.938-.608-5.602-1.37-6.585-1.37-1.312 0-2.054-.376-3.354-1.696-1.532-1.556-1.787-2.272-1.75-4.907.021-1.514.12-2.066.5-2.793.648-1.245 1.376-1.508 4.507-1.63 1.398-.054 3.344-.192 4.324-.308.98-.115 2.819-.257 4.087-.316 1.268-.058 2.871-.196 3.563-.305.692-.11 1.918-.2 2.725-.203.807 0 2.269-.095 3.249-.207.98-.112 3.18-.251 4.888-.31 1.71-.058 3.18-.15 3.27-.206.235-.145 3.541-.328 7.867-.434 5.527-.136 9.32-.29 12.166-.493 2.603-.187 2.93-.13 3.76.644.237.222.82.576 1.296.786.7.31.934.565 1.228 1.334.2.523.303 1.047.23 1.166-.074.118-.027 1.47.105 3.003.294 3.442.257 16.214-.05 16.786-.153.286-.145.473.027.643.287.283.934-.417 2.143-2.316.929-1.459 8.142-9.403 10.324-11.37.455-.41 1.448-1.312 2.206-2.004a64.363 64.363 0 012.106-1.848c.785-.637 6.392-3.497 6.856-3.497.154 0 .634-.18 1.066-.4 2.63-1.342 10.16-3.267 13.536-3.462 2.335-.134 8.916-.415 9.557-.407 2.102.025 6.649.367 7.86.592.807.15 1.938.284 2.515.297.576.013 1.708.168 2.515.344.807.176 1.934.413 2.505.528 1.46.293 6.452 2 7.709 2.637.578.293 1.9 1.115 2.938 1.827a327.8 327.8 0 002.875 1.95c.543.363 2.016 1.708 3.273 2.99 2.054 2.095 2.483 2.675 4.244 5.735 2.748 4.773 5.986 11.425 6.953 14.283.538 1.59.528 2.182-.046 2.792l-.464.494.55.463c.931.786.88.56 1.96 8.678.31 2.329.544 5.773.639 9.391.057 2.19.199 4.69.316 5.554.116.865.261 3.034.321 4.821s.179 4.097.263 5.134c.085 1.036.07 2.357-.03 2.934-.102.577-.222 4.162-.268 7.967-.045 3.804-.186 8.048-.312 9.432-.126 1.383-.276 4.024-.332 5.868-.057 1.845-.184 4.109-.282 5.03-.099.932-.096 3.494.01 5.765.102 2.248.233 7.624.29 11.947.18 13.347.38 16.504 1.097 17.448.11.145.368.718.574 1.273.396 1.073 1.71 2.515 3.16 3.467.463.304 1.17.806 1.572 1.114.542.416 1.08.597 2.093.701.749.077 1.692.218 2.096.314.403.095 2.515.235 4.692.31 2.178.076 4.17.218 4.428.316.257.098.669.503.914.9.543.878.569 1.966.121 4.983-.266 1.799-.428 2.316-.913 2.92-1.066 1.328-1.501 1.463-5.076 1.574-2.854.089-6.245.311-9.532.625-1.191.114-3.835.238-9.306.436-2.018.073-3.999.164-4.402.202-.403.038-2.196.12-3.982.18-1.787.063-4.192.165-5.345.23-3.513.196-17.428.252-20.436.081zm-330.119-.605c-3.067-.233-8.282-.802-9.536-1.04-.577-.11-1.709-.29-2.515-.4-2.162-.295-12.983-.269-16 .04-2.14.218-2.652.215-2.984-.017-.655-.459-.8-.926-.601-1.94a5.34 5.34 0 00-.01-1.883 42.357 42.357 0 01-.387-2.41c-.18-1.368-.16-1.512.295-2.121.64-.857 1.745-1.127 4.636-1.132 2.777-.007 4.902-.562 7.783-2.035 1.475-.755 2.274-1.334 3.259-2.363 1.194-1.246 1.364-1.544 2.002-3.498.438-1.34.656-2.355.584-2.724-.146-.751.537-1.906 1.228-2.08.362-.09.56-.342.7-.89.511-2 .692-3.181.602-3.93-.054-.448.027-1.664.18-2.7.585-3.965.343-17.822-.445-25.44-.618-5.975-.724-7.508-.765-11.033-.087-7.605-.01-10.313.426-15.09.216-2.358.167-9.405-.101-14.693-.129-2.53-.1-3.055.195-3.648.19-.381.346-.903.346-1.16 0-.476-.441-2.075-.968-3.51-.304-.826-.731-3.298-1.231-7.118-.326-2.487-1.357-6.961-2.017-8.752-.234-.634-.692-1.908-1.018-2.83-.858-2.43-1.192-3.146-1.95-4.185l-1.62-2.231c-1.318-1.822-2.288-2.864-3.143-3.378-.404-.243-1.347-.887-2.096-1.432-1.826-1.326-3.78-1.877-6.616-1.865-1.145.007-2.46.09-2.92.188-2.887.615-7.56 2.37-8.909 3.346a60.581 60.581 0 01-2.131 1.452c-3.043 1.97-5.99 4.834-8.984 8.734-2.238 2.913-6.072 8.502-6.072 8.85 0 .116-.179.438-.397.715-.535.681-1.426 3.374-1.585 4.792-.071.634-.218 1.53-.326 1.992-1.503 6.422-1.636 7.267-1.779 11.318-.065 1.844-.197 3.92-.294 4.611-.096.692-.129 1.38-.071 1.53.103.271-.127 2.712-.697 7.378-.162 1.335-.289 4.187-.283 6.393.01 2.19-.103 4.69-.243 5.554-.436 2.704-.288 17.436.24 23.79.125 1.498.261 5.318.302 8.489.041 3.17.168 6.188.281 6.707.114.518.266 1.697.338 2.62.565 7.25.904 9.802 1.46 11.007.44.955 2.812 3.35 3.318 3.35.146 0 .595.172.997.383.402.21 1.438.496 2.302.635 1.479.238 2.827.479 5.03.9.52.099 1.651.278 2.516.398 3.656.507 3.778.648 3.87 4.469.035 1.398.133 3.262.219 4.142l.156 1.6-.728.24c-.4.132-.885.18-1.076.106-.192-.074-.701.035-1.133.24-.99.47-5.623.539-9.378.138-4.764-.51-9.874-.711-18.654-.736-7.144-.02-9.297.04-11.423.324-1.441.192-4.035.455-5.764.583a594.9 594.9 0 00-4.82.374c-3.727.316-21.433-.037-22.218-.443-.668-.345-.93-.822-.937-1.705-.01-.453-.098-1.113-.21-1.467-1.028-3.25-1.075-3.461-.864-3.857.257-.48.672-.665 1.49-.665.33 0 .86-.099 1.179-.22.32-.122 1.575-.356 2.79-.521 1.889-.257 2.492-.443 4.136-1.276 1.501-.761 2.24-1.007 3.354-1.114 2.116-.205 2.95-.738 3.787-2.423.764-1.535 2.124-8.525 2.259-11.608.054-1.224.19-3.027.305-4.007.615-5.282.793-11.673.856-30.706.013-3.918-.338-10.898-.607-12.052-.187-.805-.355-6.284-.344-11.214.01-2.912.156-4.592 1.036-11.633.27-2.162.283-2.894.075-4.192-.139-.864-.259-3.65-.266-6.191-.012-4.099-.057-4.686-.396-5.203-.665-1.016-.91-2.223-.717-3.545.17-1.17.145-1.276-.776-3.144-.524-1.063-1.26-2.5-1.635-3.192a59.641 59.641 0 01-1.492-3.04c-1.642-3.611-3.794-6.736-4.818-6.993-.275-.07-.844-.545-1.264-1.058-1.587-1.936-4.608-3.015-9.667-3.45-1.351-.116-2.183-.084-2.934.113-.577.152-1.252.277-1.5.279-.714.007-4.157 1.188-5.039 1.732-.438.272-1.718.955-2.843 1.52-2.442 1.224-3.558 2.11-5.07 4.02-.623.785-1.905 2.136-2.85 3-.944.865-1.87 1.748-2.059 1.963-1.8 2.06-3.155 3.726-3.557 4.376-.925 1.497-3.38 8.35-3.384 9.45 0 .327-.333 1.953-.737 3.614-.403 1.661-.735 3.47-.738 4.018 0 .549-.15 1.988-.33 3.199-.179 1.21-.406 3.992-.504 6.183-.098 2.19-.226 4.265-.284 4.61-.158.949-.358 5.777-.434 10.48-.037 2.306-.136 5.325-.22 6.708-.085 1.413-.067 2.883.043 3.354.135.581.1 1.449-.111 2.83-.477 3.111-.542 16.216-.104 21.169.189 2.132.365 5.622.391 7.755.027 2.133.156 4.82.288 5.973.131 1.153.378 3.417.547 5.03.7 6.66.897 7.311 3.103 10.326.647.884 1.104 1.243 2.305 1.81.824.388 1.829.776 2.232.862 1.125.24 4.386.528 7.801.69 2.436.116 3.157.218 3.427.489.433.435.86 2.563.908 4.542.034 1.372-.03 1.652-.623 2.688-.364.636-.863 1.235-1.11 1.33-.584.225-8.407.936-8.65.785-.104-.064-1.271.01-2.595.162-4.313.498-19.568.425-25.463-.122a126.698 126.698 0 00-4.401-.319c-1.153-.058-3.51-.181-5.24-.275-1.73-.094-3.993-.12-5.03-.058-2.273.135-4.438.13-14.148-.03-8.228-.137-9.312-.285-10.4-1.42l-.569-.594.236-2.363c.13-1.3.224-2.656.21-3.015-.015-.375.171-.93.44-1.308.68-.955 2-1.259 5.89-1.358 5.03-.127 8.165-1.136 9.558-3.075.427-.595.999-1.166 1.27-1.27.445-.169.491-.312.491-1.546 0-.749.136-1.765.301-2.259.213-.634.303-1.916.306-4.356.01-4.41.202-9.03.443-10.375.103-.577.21-2.416.24-4.088.073-4.255-.208-18.852-.475-24.67-.23-5.005-.324-27.806-.12-29.301.152-1.121.177-14.23.038-20.646-.26-12.035-.296-12.711-.827-15.165-.877-4.058-1.226-4.856-3.17-7.262-.98-1.214-1.363-1.521-2.355-1.893-.652-.244-1.659-.783-2.237-1.199l-1.052-.756-2.255.022c-1.24.011-2.584.13-2.987.263-1.497.494-2.828-.37-2.828-1.837 0-.402.137-1.592.305-2.644.168-1.052.364-2.46.436-3.128.12-1.11.201-1.267.95-1.81.57-.412 1.188-.635 2.027-.731.665-.076 2.481-.316 4.038-.534 1.556-.218 3.63-.49 4.61-.606.98-.116 3.197-.405 4.926-.643 1.73-.237 4.182-.488 5.45-.557 1.268-.069 3.437-.314 4.82-.544 2.808-.467 6.768-.606 17.188-.6 3.573 0 7.008-.078 7.632-.177.971-.155 1.256-.116 1.987.266.723.379.875.576.992 1.284.092.56.024 1.15-.206 1.78-.287.786-.316 1.33-.173 3.25.168 2.264.204 4 .132 6.497-.064 2.25.433 7.077.95 9.222.277 1.153.54 2.332.585 2.62.07.464.136.403.569-.524.268-.576.992-1.82 1.608-2.766.616-.945 1.12-1.83 1.12-1.97 0-.354 7.808-8.067 9.327-9.213 1.55-1.17 2.973-2.092 5.554-3.6 3.838-2.243 7.066-3.472 12.491-4.758 1.488-.352 3.31-.79 4.049-.97 2.938-.721 14.02-.917 17.835-.316.749.118 2.588.353 4.087.521 3.43.386 4.554.608 5.984 1.18.628.252 1.966.728 2.974 1.058 2.876.943 8.847 4.053 10.22 5.323.634.587 1.53 1.344 1.99 1.684 1.25.921 2.432 2.225 4.133 4.556.84 1.152 1.815 2.436 2.167 2.853.867 1.028 1.863 2.639 2.416 3.905.721 1.653.758 1.67 1.74.838 1.21-1.028 1.32-1.143 2.08-2.192.371-.513 1.193-1.341 1.826-1.841.632-.5 1.658-1.354 2.28-1.897.622-.543 1.33-1.125 1.572-1.292.243-.167.549-.45.68-.63.13-.179.787-.702 1.46-1.163.672-.46 1.744-1.34 2.382-1.954.638-.614 1.631-1.427 2.208-1.807.576-.38 1.613-1.203 2.305-1.829 1.571-1.421 2.386-1.993 3.096-2.17.305-.078.66-.267.79-.422.128-.155.856-.49 1.618-.743.763-.254 1.675-.626 2.028-.828.353-.201 1.68-.664 2.948-1.029a127.97 127.97 0 004.82-1.52c2.671-.908 5.158-1.415 6.98-1.422.61 0 2.072-.246 3.248-.542 2.943-.74 6.367-.9 8.983-.42 1.078.198 2.761.505 3.741.683.98.178 2.442.494 3.249.703.807.208 2.363.533 3.458.722 2.884.498 6.114 1.267 7.05 1.68 5.53 2.439 7.922 4.162 12.233 8.811 3.37 3.634 4.703 5.715 5.13 8.01.082.432.422 1.432.757 2.222.336.79.61 1.568.61 1.728 0 .16.32 1.116.71 2.126.819 2.121 1.716 5.115 2.014 6.725.113.614.253 1.192.31 1.285.058.092.247 1.187.422 2.432.175 1.245.412 2.554.526 2.907.114.354.354 3.237.534 6.407.18 3.17.469 6.849.643 8.175.175 1.325.395 3.088.49 3.918.177 1.554.075 3.353-.201 3.524-.086.053-.111.499-.057.99.055.492-.045 1.602-.221 2.467-.229 1.12-.267 1.843-.134 2.515.302 1.526.232 3.185-.19 4.518-.856 2.71-1.078 4.304-1.05 7.534.016 1.729-.09 4.067-.234 5.196-.152 1.189-.205 2.733-.126 3.668.075.889.19 2.465.257 3.502.067 1.038.23 3.537.363 5.555a65.86 65.86 0 01.057 7.545c-.102 2.133-.208 4.82-.236 5.974-.028 1.152-.159 4.03-.291 6.392-.169 3.008-.178 5.133-.032 7.083.15 1.989.14 3.418-.032 4.994l-.241 2.207.54.456c.64.54.896 1.026 1.082 2.056.195 1.082 1.625 3.194 2.685 3.962 2.716 1.972 7.334 3.439 12.494 3.969 3.421.351 3.664.406 4.225.943.364.349.637.868.702 1.336.06.422.213 1.238.342 1.814.171.764.173 1.56.01 2.935-.327 2.718-.397 2.983-.962 3.655l-.51.607-4.346-.098c-2.39-.054-4.722-.137-5.183-.184-.989-.102-6.548-.088-7.755.02-.462.04-4.376.116-8.699.168-4.323.05-9.699.138-11.947.194-2.248.056-5.078.026-6.288-.066zm-304.171-.573c-.772-.06-1.095-.207-1.488-.674-.43-.512-.518-.888-.62-2.661-.064-1.136-.22-2.334-.348-2.662-.376-.972.094-2.183 1.017-2.617.434-.203.774-.527.809-.77.033-.232.374-.635.757-.898.6-.411.817-.451 1.553-.286.522.118 1.574.116 2.705-.007 1.87-.2 2.158-.152 3.4.558.558.319.986.184 1.706-.536.236-.235.692-.403 1.097-.403 1.016 0 2.44-.769 3.359-1.812.442-.502.92-.913 1.061-.913.493 0 1.362-1.164 2.209-2.957.468-.992.852-2.036.852-2.32 0-.284.132-.98.295-1.55.162-.568.356-2.118.432-3.443.075-1.326.286-3.967.467-5.869.2-2.109.355-6.24.396-10.585.037-3.92.164-9.248.284-11.842.12-2.594.177-5.376.125-6.183-.174-2.707-.428-22.355-.38-29.344.027-4.009.152-7.578.294-8.489.345-2.199.323-17.505-.029-20.263-.237-1.864-.228-2.145.09-2.76.224-.433.296-.85.198-1.144-.225-.67-.245-5.84-.03-7.797.101-.922.229-9.835.283-19.807.054-9.972.13-18.508.166-18.969.063-.79-.211-8.621-.381-10.899-.088-1.186-.232-4.088-.517-10.485-.179-4.01-.252-4.58-.82-6.344-.418-1.303-.853-2.201-1.325-2.741a36.42 36.42 0 01-1.248-1.52c-.426-.557-.844-.8-1.887-1.097-.737-.21-1.575-.46-1.864-.555a9.905 9.905 0 00-1.187-.287c-.364-.062-1.528-.452-2.587-.866l-1.924-.752-1.892.212c-1.983.221-2.648.08-3.297-.703-.15-.18-.501-.328-.78-.328-.996 0-1.472-.799-1.636-2.743-.082-.97-.235-2.166-.34-2.657-.246-1.14.163-2.202 1.018-2.644.363-.188 1.498-.369 2.793-.445 3.135-.185 7.126-.678 9.308-1.152 2.813-.61 7.447-1.208 12.157-1.57 2.306-.177 4.743-.43 5.415-.56.759-.147 2.258-.192 3.942-.117 1.716.076 3.81.011 5.676-.176 4.18-.42 14.107-.457 15.88-.06.52.117 1.301.261 1.735.321.486.068.937.3 1.178.605.364.464.386.938.334 7.366-.03 3.78-.164 7.625-.296 8.548-.155 1.076-.225 4.492-.197 9.536.024 4.323-.02 8.285-.098 8.804-.078.518-.182 1.77-.232 2.781a44.935 44.935 0 01-.305 3.354c-.73 5.145-1.17 17.511-.84 23.577.124 2.276.224 5.263.223 6.638 0 2.032.071 2.644.39 3.269.347.68.403 1.449.496 6.722.058 3.274.211 6.507.342 7.184.146.756.252 4.234.275 9.013.034 7.064-.033 10.383-.386 19.31-.063 1.614-.157 4.02-.206 5.345-.05 1.326-.189 3.118-.309 3.982-.579 4.164-.616 14.73-.122 34.689.268 10.798.32 18.065.136 18.832-.107.443-.407 1.033-.668 1.311l-.475.505.613.64.614.64.144 3.603c.201 5.014.318 5.765 1.272 8.214.82 2.106 1.31 2.88 2.644 4.177 2.605 2.534 8.413 4.767 11.452 4.404 1.959-.235 2.922-.179 3.506.204 1.029.674 1.571 1.788 2.042 4.192l.448 2.287-.473.89c-.288.544-.742 1.02-1.166 1.222-.704.336-4.378.703-8.654.866-1.21.046-2.672.148-3.249.227-1.325.181-1.992.227-7.126.49-2.306.117-4.603.312-5.106.432-.58.138-3.442.183-7.86.124-3.82-.052-8.69.01-10.824.122-2.132.12-6.612.24-9.956.268-3.343.028-7.446.162-9.117.3-6.57.536-8.392.634-11.318.605-1.672-.016-3.483-.066-4.026-.108zm-741.566 5.2c-.288-.043-1.703-.162-3.144-.265-2.288-.164-6.263-.795-11.214-1.781-.807-.161-2.08-.522-2.83-.803-.749-.28-1.88-.634-2.514-.785-.634-.151-1.72-.583-2.41-.96-.693-.378-2.013-.87-2.935-1.095-.922-.225-2.384-.754-3.249-1.177-2.7-1.32-5.587-2.928-6.237-3.474-.343-.288-1.179-.88-1.857-1.314-2.583-1.655-4.518-3.06-5.684-4.126a408.512 408.512 0 00-2.646-2.391c-2.189-1.959-2.592-2.392-3.115-3.343-.31-.564-.857-1.103-1.527-1.507-.574-.346-1.469-1.083-1.988-1.639a84.21 84.21 0 00-2.393-2.41c-1.663-1.609-3.376-4.093-3.691-5.355-.361-1.444-.733-2.085-2.21-3.817-1.72-2.015-3.229-4.283-4.218-6.34-.785-1.63-.775-1.516-.438-5.172.053-.576.01-.623-.53-.56-1.512.178-2.393-2.145-1.937-5.109.142-.92.091-1.195-.387-2.11-.367-.701-.611-1.606-.733-2.715-.1-.914-.335-2.21-.522-2.878-.187-.668-.34-1.476-.34-1.796 0-.319-.186-1.28-.414-2.138-.228-.857-.417-2.03-.42-2.606 0-.576-.185-2.274-.403-3.772-.627-4.303-.758-9.111-.335-12.36.195-1.494.301-3.05.236-3.458-.065-.407.02-1.637.187-2.732.167-1.095.305-2.615.307-3.378 0-.762.23-2.413.506-3.668.276-1.254.56-3.125.633-4.156.098-1.4.344-2.487.97-4.297a226.849 226.849 0 001.54-4.622c.736-2.32 1.619-4.84 2.505-7.154.53-1.385 4.587-8.962 5.652-10.558 1.372-2.055 4.335-5.99 5.288-7.021.372-.404.93-1.141 1.238-1.64.973-1.572 3.648-4.166 6.364-6.17 1.443-1.065 3.01-2.277 3.48-2.694 1.748-1.544 4.87-3.431 9.346-5.648 2.495-1.236 5.813-2.481 7.231-2.715 1.733-.285 4.06-.82 6.498-1.491 3.565-.983 3.594-.988 6.676-1.229 1.597-.124 3.624-.366 4.506-.537 1.122-.217 2.895-.304 5.9-.29 2.364.011 5.24-.086 6.393-.216 3.463-.389 10.292-.238 12.89.284.865.174 2.186.549 2.935.832.75.284 2.636.99 4.192 1.568 1.556.578 3.468 1.338 4.248 1.688.78.35 1.771.732 2.202.848.43.116 1.443.647 2.25 1.18.806.533 1.654 1.044 1.885 1.134 1.178.463 4.938 3.179 6.707 4.845.576.543 1.58 1.323 2.231 1.734 1.186.748 3.756 3.568 4.89 5.365.31.492 1.257 1.673 2.104 2.625 1.735 1.95 2.086 2.856 1.471 3.795-.195.298-.323.563-.285.59.038.028.446.188.907.356.634.232 1.131.69 2.036 1.872.659.86 1.26 1.745 1.335 1.967.075.221.443.881.815 1.467 1.337 2.104 2.804 5.076 3.266 6.619.26.865.75 2.327 1.089 3.249.34.922.804 2.426 1.033 3.342.23.916.645 2.116.925 2.668 1.17 2.31 1.382 3.124 1.463 5.623.057 1.78.247 3.095.724 5.03.932 3.781 1.106 5.362.934 8.489a271.397 271.397 0 00-.204 4.32c-.077 2.27-.367 3.012-1.322 3.392-1.135.453-7.506.902-11.57.816-.865-.019-3.93-.025-6.812-.013-2.882.011-5.476.018-5.764.015-.288 0-3.023-.027-6.078-.052-3.055-.025-6.403-.15-7.441-.28-1.134-.14-3.056-.18-4.82-.1-1.634.075-3.632.042-4.507-.074-1.74-.232-12.827-.359-15.3-.176-.865.064-2.563.05-3.774-.031-16.338-1.096-26.43-1.52-27.704-1.162-.426.12-.716.485-1.205 1.52-.596 1.26-.644 1.533-.644 3.643 0 1.4.118 2.676.307 3.301.168.56.44 1.68.602 2.487.162.807.55 2.269.864 3.249.386 1.207.604 2.424.675 3.773.071 1.343.278 2.502.636 3.563.467 1.384.526 1.888.498 4.221-.024 1.988.052 2.877.306 3.563.186.503.42 1.368.52 1.922.117.651.415 1.274.84 1.759.593.674.646.842.523 1.66l-.136.909.807.13c.595.094.93.306 1.27.803.254.37.462.766.462.88 0 .278 1.652 4.306 1.878 4.58.265.32 1.056 2.467 1.056 2.865 0 .188.134.451.296.586.163.135.702 1.208 1.198 2.384.58 1.374 1.223 2.502 1.8 3.157.494.56.899 1.098.899 1.196 0 .483 1.365 2.027 4.807 5.434 2.078 2.057 4.227 4.1 4.777 4.54.55.441 1.564 1.303 2.254 1.916 1.525 1.356 5.182 3.257 7.411 3.853 2.16.578 6.706.727 9.57.315 2.539-.366 6.968-1.344 10.795-2.385 2.491-.677 4.008-1.176 7.771-2.556 2.32-.851 8.194-5.385 11.413-8.807.804-.855 2.142-2.27 2.973-3.144.831-.875 1.963-2.175 2.515-2.89 3.434-4.451 4.08-5.374 4.891-6.98 1.252-2.48 2.135-3.353 3.392-3.353.268 0 .715-.16.994-.354.76-.533 1.784-.361 3.103.52 1.658 1.107 2.764 1.657 3.619 1.798.44.073.992.383 1.352.76.564.588.611.76.62 2.257.01 1.395-.063 1.728-.514 2.388-.288.421-.882 1.411-1.32 2.2-1.771 3.192-2.805 4.877-3.527 5.753-.418.507-.907 1.213-1.087 1.568-.18.355-.876 1.268-1.546 2.029-.67.76-1.595 1.871-2.056 2.469a14.733 14.733 0 01-1.887 1.952c-.576.477-2.646 2.455-4.599 4.397-3.44 3.42-6.33 5.748-8.5 6.846-.52.262-1.237.732-1.594 1.043-.358.312-1.112.784-1.677 1.05-.565.265-2.394 1.14-4.066 1.946-1.671.804-3.51 1.627-4.087 1.829-.576.201-1.52.644-2.096.985-1.501.887-3.985 1.712-6.183 2.054-.519.08-1.689.336-2.6.568-.91.232-1.955.373-2.321.314-.366-.06-1.224.023-1.907.184-.683.16-2.178.293-3.321.295-1.144 0-2.842.137-3.773.301-1.616.285-8.032.567-9.134.402zm-17.082-96.69c7.854-.303 8.496-.308 14.881-.1 10.36.336 18.066.204 25.032-.428 2.009-.183 3.768-.288 3.91-.233.14.054.403-.013.583-.15.482-.364.9-3.469.727-5.382-.078-.865-.192-2.42-.253-3.458-.061-1.038-.347-3.113-.636-4.612-.29-1.498-.676-3.526-.86-4.506a39.341 39.341 0 00-.733-3.144c-.22-.75-.69-2.674-1.045-4.277-.355-1.602-.711-3.017-.793-3.143-.17-.266-.53-1.212-1.083-2.85-.604-1.791-4.4-9.045-5.7-10.893-.742-1.055-3.289-3.15-5.074-4.173-.478-.275-1.2-.712-1.604-.973-.403-.26-1.225-.533-1.826-.607-.602-.074-1.592-.367-2.201-.65-.61-.284-1.3-.517-1.536-.518-.235 0-.99-.15-1.676-.333-1.04-.275-1.443-.288-2.402-.08-1.767.382-2.487.622-4.192 1.397-2.575 1.17-2.779 1.287-4.025 2.32-1.275 1.056-1.847 1.444-4.418 2.992-2.51 1.512-3.923 2.957-5.432 5.556-.531.916-1.034 1.995-1.117 2.398-.083.404-.423 1.274-.755 1.934-.331.66-.835 1.886-1.119 2.725-.283.839-1.045 2.987-1.692 4.773-1.702 4.702-3.581 12.358-4.192 17.083-.574 4.436-.616 4.928-.618 7.231v2.2l1.572.122c.864.066 1.807.093 2.096.06.288-.035 3.07-.16 6.183-.28zM222.646 229.76c-.044-.04-1.306-.135-2.804-.21-2.548-.126-7.236-.904-10.166-1.686-.634-.17-2.945-.643-5.135-1.052-2.19-.41-4.407-.877-4.926-1.04-3.236-1.013-3.377-1.033-7.545-1.057-5.12-.031-9.746.282-11.947.809-.288.069-1.354.32-2.368.557-1.014.238-2.147.576-2.516.753-1.076.513-1.65.158-2.425-1.498-.68-1.454-.797-2.167-.457-2.801.37-.69 1.036-4.512 1.247-7.147.115-1.441.312-4.224.437-6.183.125-1.96.413-6.289.64-9.62.226-3.33.414-7.103.418-8.383.004-1.28.083-2.942.175-3.69.093-.75.107-2.306.033-3.46-.075-1.152-.06-2.755.035-3.562.105-.903.083-2.132-.058-3.193-.21-1.58-.195-1.784.181-2.41.227-.377.473-.943.547-1.258.182-.774.964-1.125 2.853-1.282.865-.071 2.61-.28 3.878-.464 5.06-.734 5.72-.254 6.305 4.586.593 4.908.71 5.706 1.01 6.955.167.692.37 2.2.452 3.354.082 1.152.28 2.356.441 2.674.162.318.529 1.497.816 2.62.524 2.044 1.863 5.123 2.872 6.602.33.482.632 1.347.78 2.229.256 1.512.905 2.783 3.09 6.041 1.681 2.51 1.873 2.718 3.463 3.746.817.529 1.937 1.35 2.49 1.827.922.794 1.763 1.318 4.376 2.727.519.28 1.65.725 2.515.99.865.265 1.935.66 2.378.88.649.321 1.058.372 2.096.263 1.21-.127 3.026.092 6.11.738.577.12 2.746.259 4.821.307 3.537.083 4.211.034 8.175-.593 1.377-.218 3.807-.815 4.401-1.08.346-.156 1.525-.651 2.62-1.102 2.455-1.01 3.65-1.745 5.078-3.12 1.245-1.2 2.456-3.424 2.951-5.418.172-.692.462-1.777.646-2.41.38-1.316.458-5.323.14-7.145-.11-.624-.297-1.803-.416-2.62-.224-1.537-1.13-4.49-1.601-5.222-.149-.23-.66-1.315-1.137-2.41-.477-1.096-1.127-2.322-1.443-2.725a40.07 40.07 0 01-1.274-1.759c-.804-1.18-3.134-3.448-4.946-4.817l-1.77-1.336c-.289-.217-1.279-.8-2.201-1.297-.922-.497-1.866-1.072-2.096-1.278-.467-.418-7.665-4.06-8.489-4.295-.288-.083-2.11-.936-4.05-1.897s-3.732-1.81-3.983-1.888c-.25-.078-1.116-.452-1.923-.832-.807-.38-1.892-.849-2.41-1.043-.519-.194-1.368-.517-1.887-.718-.518-.2-1.132-.434-1.362-.519-.23-.085-1.22-.515-2.2-.957-.98-.441-2.151-.917-2.602-1.058-.45-.14-1.347-.516-1.991-.834a60.021 60.021 0 00-2.43-1.118c-1.941-.832-8.249-4.11-10.144-5.27-3.074-1.883-4.162-2.768-7.468-6.072-1.964-1.963-3.962-4.088-4.439-4.722-2.044-2.72-4.526-8.35-5.097-11.565-.096-.54-.414-1.884-.708-2.989-.295-1.105-.734-3.352-.978-4.993-.38-2.556-.422-3.498-.3-6.549.172-4.27.308-5.456 1.033-8.996.742-3.628 2.211-7.894 3.687-10.706 1.966-3.748 2.314-4.367 2.845-5.069.278-.367.505-.724.505-.793 0-.07.62-.948 1.376-1.953 2.348-3.118 6.752-6.904 9.748-8.38 1.645-.81 4.716-1.99 6.168-2.367.346-.09 1.525-.414 2.62-.72 1.095-.305 2.51-.647 3.144-.759.634-.112 1.624-.295 2.2-.406 2.994-.577 9.305-1.526 11.424-1.719 1.325-.12 6.089-.21 10.584-.2 9.026.02 10.536.16 18.55 1.728a70.96 70.96 0 003.668.618c.807.103 2.363.333 3.458.51 1.597.26 2.44.282 4.252.113 1.243-.115 2.61-.345 3.04-.51.428-.165 1.517-.449 2.42-.63.903-.18 2.082-.552 2.62-.824.996-.504 1.489-.658 4.172-1.304 1.417-.341 1.566-.343 2.244-.02 1.172.56 1.458 1.366 1.278 3.603-.084 1.042-.19 5.857-.235 10.698-.046 4.842-.166 9.464-.267 10.27-.102.808-.118 2.175-.037 3.04.088.94.043 2.371-.111 3.563a165.46 165.46 0 00-.491 4.402 2150.7 2150.7 0 01-.546 5.554c-.173 1.73-.314 4.354-.313 5.832 0 2.669 0 2.693-.59 3.279-1.094 1.094-3.972 1.383-9.052.908-1.325-.124-2.834-.383-3.353-.577a41.792 41.792 0 00-1.285-.46c-.414-.133-.811-.95-.811-1.67 0-.29-.1-.714-.221-.941-.122-.228-.261-1.627-.31-3.11-.048-1.484-.177-3.107-.287-3.608-.11-.5-.264-1.712-.342-2.692-.111-1.404-.337-2.268-1.063-4.076-.506-1.262-.921-2.414-.921-2.561 0-.147-.184-.624-.41-1.06-.224-.435-.516-1.264-.648-1.84-.132-.576-.436-1.425-.677-1.886-.603-1.157-.84-1.642-1.712-3.5-1.096-2.336-4.099-5.94-6.359-7.63a74.202 74.202 0 01-1.828-1.41c-1.062-.864-3.253-1.974-5.664-2.868-3.603-1.337-5.763-1.834-8.797-2.024-3.368-.212-4.006-.204-7.022.09-2.513.246-3.835.595-7.065 1.868-1.812.714-2.068.896-4.213 2.982-2.2 2.14-2.329 2.316-3.548 4.841-.695 1.441-1.381 2.998-1.524 3.459-.143.46-.586 1.498-.984 2.305-.986 1.997-1.3 3.296-1.443 5.954-.106 1.99-.053 2.545.448 4.65.644 2.704 1.106 3.785 2.33 5.44 1.08 1.464 3.278 3.657 4.366 4.358.462.297 1.93 1.261 3.265 2.143 1.335.882 3.055 1.954 3.824 2.384.768.43 1.45.868 1.515.974.066.106.28.192.474.192.196 0 1.154.47 2.13 1.044.975.574 2.295 1.228 2.933 1.452 5.439 1.914 13.353 5.538 15.952 7.306.856.582 2.925 1.759 4.596 2.615 6.703 3.431 10.008 5.232 11.047 6.02.6.454 1.402.987 1.782 1.183.38.196 1.617 1.05 2.75 1.896 1.134.847 2.139 1.54 2.234 1.54.095 0 .938.613 1.874 1.363.935.749 1.763 1.362 1.84 1.362.52 0 5.023 3.37 6.255 4.681 5.807 6.186 6.898 7.894 9.943 15.565.096.242.43 1.69.743 3.22.53 2.598.56 3.026.453 6.478-.091 2.91-.227 4.165-.637 5.897-2.034 8.589-3.132 11.634-5.456 15.134-.723 1.088-1.864 3.057-2.536 4.374-3.183 6.238-6.67 10.031-12.476 13.574-3.421 2.087-6.177 3.573-7.86 4.24-.922.365-1.775.742-1.894.838-.12.096-1.063.453-2.096.794-1.033.34-2.822.963-3.975 1.384-2.192.8-2.658.923-6.078 1.595-3.586.705-7.196 1.03-11.359 1.025-2.196 0-4.028-.038-4.072-.08zm-104.857-.926c-.628-.142-.824-.366-1.169-1.339-.189-.533-.265-.565-1.1-.452-.674.092-1.255-.013-2.337-.422-1.123-.424-1.814-.543-3.144-.54-1.651 0-3.04-.307-5.55-1.238-1.57-.582-3.237-2.727-3.763-4.844-.765-3.075-1.29-5.488-1.418-6.498-.08-.634-.335-1.577-.569-2.096-.244-.542-.467-1.588-.525-2.462-.055-.836-.177-1.52-.27-1.52-.23 0-2.268 2.038-5.305 5.305-1.37 1.473-3.067 3.118-3.772 3.654a49.937 49.937 0 00-2.525 2.089c-2.427 2.172-9.65 6-12.8 6.782-.577.144-1.165.351-1.308.461-.293.227-4.065 1.286-6.133 1.722-5.31 1.12-12.857 1.712-14.882 1.166-1.05-.283-4.783-.844-7.23-1.087-2.823-.28-8.255-1.493-10.062-2.245-4.569-1.902-8.006-4.653-12.9-10.325-2.027-2.35-4.392-5.71-4.392-6.241 0-.107-.292-.84-.65-1.628a40.453 40.453 0 01-1.025-2.483c-.206-.576-.773-1.944-1.26-3.039a38.91 38.91 0 01-1.495-4.087c-1.296-4.457-1.158-3.874-1.872-7.965-.587-3.358-.376-9.192.46-12.785 1.391-5.969 3.587-10.67 7.052-15.091 1.727-2.204 6.32-6.563 8.222-7.804.98-.64 2.16-1.42 2.62-1.735.461-.316 1.876-1.102 3.144-1.747 1.268-.645 2.542-1.308 2.83-1.474 2.353-1.356 8.652-3.812 12.366-4.823.634-.172 2.38-.647 3.878-1.056 1.498-.408 3.62-.973 4.716-1.256 1.095-.282 2.51-.652 3.144-.822.634-.17 2.049-.463 3.144-.652 1.095-.19 2.604-.527 3.353-.75.75-.225 2.08-.5 2.957-.614.877-.113 1.82-.29 2.096-.393.276-.103.958-.255 1.516-.337a46.27 46.27 0 001.452-.233c.24-.046 1.198-.182 2.13-.301a115.7 115.7 0 002.95-.42c3.704-.595 7.384-.854 13.158-.924 4.442-.055 4.128.06 5.227-1.907 1.144-2.05 1.276-3.244 1.111-10.109-.08-3.317-.229-6.974-.332-8.126-.532-5.952-.646-8.25-.556-11.214.123-4.073-.147-7.57-.673-8.698-.467-1.003-1-2.317-1.912-4.716-.618-1.624-1.485-3.154-2.45-4.324-.203-.246-1.454-1.011-2.78-1.701-2.216-1.154-2.62-1.289-5.03-1.678-3.176-.513-7.481-.602-9.536-.197-.807.159-1.995.54-2.64.845-.646.307-1.502.557-1.903.557-.496 0-1.057.234-1.76.734-.568.403-1.127.737-1.242.742-.423.019-1.957 1.595-2.698 2.773-.419.665-.761 1.265-.761 1.333 0 .068-.418 1.083-.93 2.256-.51 1.173-1.066 2.507-1.235 2.964a138.83 138.83 0 01-1.022 2.612c-.393.98-.88 2.584-1.084 3.564-.203.98-.513 2.394-.687 3.144-.174.749-.397 2.73-.495 4.401-.149 2.533-.282 3.336-.8 4.821-.904 2.592-1.172 3.15-2.11 4.4-1.177 1.566-4.443 3.774-5.581 3.774-.19 0-1.02.23-1.846.512-.826.281-2.021.617-2.655.745-.634.129-1.719.347-2.41.484-.754.15-2.979.242-5.555.23l-4.297-.02-3.353-.883c-1.845-.486-3.507-.995-3.694-1.132-3.8-2.784-5.87-5.369-7.018-8.762-.43-1.272-.502-1.883-.502-4.278 0-2.638.037-2.885.655-4.434.894-2.242 1.514-3.445 2.788-5.413.598-.922 1.152-1.818 1.232-1.99.153-.334 1.337-2.144 2.283-3.492.697-.994 4.58-5.008 6.561-6.783 2.273-2.036 6.448-5.027 7.018-5.027.18 0 .657-.224 1.061-.5.405-.274 1.565-.842 2.58-1.262 1.014-.42 2.05-.894 2.3-1.053.25-.16 1.257-.548 2.237-.864.98-.316 2.442-.803 3.25-1.083.806-.28 2.73-.832 4.277-1.229 2.346-.602 3.026-.699 4.118-.587 1.027.106 1.773.02 3.477-.4 1.194-.294 2.453-.597 2.799-.675 1.04-.232 6.885-.915 10.794-1.262 2.018-.179 4.376-.4 5.24-.493 2.946-.315 9.469-.285 11.139.05.848.17 2.344.372 3.324.447.98.075 2.082.23 2.45.344.507.158.815.131 1.28-.109 1.01-.522 5.31.05 7.402.985.621.277 1.931.762 2.91 1.077.98.315 3.103 1.217 4.717 2.004 1.614.787 3.17 1.5 3.458 1.584.7.205 1.972 1.019 3.229 2.066 2.036 1.696 5.695 5.224 6.43 6.2a85.91 85.91 0 001.492 1.913c1.14 1.41 3.877 7.153 4.239 8.893.169.813.46 1.927.646 2.477.678 1.996 1.39 6.124 1.453 8.411.021.807.161 1.692.31 1.967.267.49.34 1.854.818 15.22.18 5.024.124 17.375-.081 17.92-.153.408-.276 5.34-.401 16.14-.056 4.784-.167 12.283-.247 16.663-.247 13.43-.083 27.669.34 29.756.658 3.232 2.236 5.64 4.054 6.185.477.143 1.444.532 2.148.865 2.245 1.06 4.294 1.449 7.348 1.392 3.336-.063 3.85.138 4.371 1.71.465 1.399.403 4.3-.116 5.458-.21.468-.466.85-.57.85-.105 0-.802.603-1.549 1.339-1.223 1.205-1.47 1.354-2.492 1.504-.624.092-1.892.146-2.818.12-1.052-.03-2.151.082-2.934.298-.8.22-2.688.405-5.234.514-2.19.094-4.265.283-4.611.42-.36.143-2.156.29-4.192.342-2.86.074-7.754.545-10.48 1.01-.23.04-.692.01-1.026-.065zM72.6 211.17c.518-.102 1.886-.333 3.039-.513 3.234-.506 4.85-1.16 7.841-3.168 2.818-1.893 3.798-2.786 5.242-4.781.501-.692 1.016-1.352 1.145-1.467.962-.862 3.23-4.312 4.035-6.136.394-.891 1.096-2.8 1.858-5.051.482-1.423 1.23-4.534 1.77-7.363.122-.634.364-1.671.539-2.306.46-1.665 1.153-8.727 1.153-11.737 0-.865.132-2.657.294-3.982.261-2.133.412-4.919.387-7.127-.004-.403-.115-1.865-.246-3.249a365.836 365.836 0 01-.449-5.24c-.115-1.498-.252-2.842-.303-2.986-.12-.338-2.254-.325-4.926.03-1.096.145-2.146.225-2.334.177-.188-.047-.613.05-.943.216-.817.41-2.612.72-5.736.99-2.938.254-6.212.814-9.977 1.706-1.394.33-2.783.6-3.085.6-.303 0-1.066.229-1.695.507-.63.279-2.118.81-3.307 1.183-1.19.372-2.776.965-3.525 1.319-2.605 1.23-5.518 3.352-6.861 4.998-.31.38-1.11 1.285-1.777 2.01-.666.723-1.39 1.667-1.61 2.095-.22.429-.785 1.218-1.258 1.755-.473.536-.86 1.03-.86 1.096 0 .067-.37.908-.82 1.87-.45.962-.96 2.225-1.133 2.807-.173.582-.459 1.337-.636 1.679-.467.904-1.324 4.527-1.501 6.349a79.563 79.563 0 01-.24 2.2c-.047.347-.09 2.728-.094 5.292-.007 3.536.067 4.928.306 5.764.173.606.376 1.573.451 2.15.192 1.476 1.299 4.79 2.115 6.335 1.753 3.318 4.357 6.123 7.682 8.273 4.732 3.06 5.897 3.649 7.808 3.94 1.228.189 6.287.033 7.65-.235zm625.445 15.164c-1.306-.273-2.02-.292-4.226-.114-1.807.146-3.38.146-4.927 0-1.25-.118-2.696-.206-3.215-.197-.519.01-3.26.05-6.094.089l-5.15.07-.767-.523c-.421-.288-.872-.78-1.002-1.093-.356-.856-1.45-1.053-1.45-.261 0 .164-.212.345-.47.402-1.337.295-4.006.608-5.398.633-.865.016-2.504.106-3.644.2-1.139.095-5.242.194-9.117.22-5.5.037-7.345.118-8.409.371-1.912.455-5.21.438-5.788-.03-.539-.436-.978-1.224-.823-1.475.063-.103-.06-.596-.273-1.097-.453-1.062-.978-5.24-.813-6.47.063-.466.363-1.174.668-1.573.638-.838 1.334-.932 3.133-.426 1.242.35 4.724.753 6.47.75.853 0 1.724-.198 2.935-.664 1.48-.568 1.954-.885 3.366-2.253 1.214-1.176 1.809-1.948 2.277-2.954l1.362-2.925c.78-1.676 1.107-3.175 1.11-5.079 0-.655.106-1.457.234-1.781.144-.363.265-2.765.314-6.232.044-3.102.172-6.64.285-7.86.113-1.22.216-3.774.228-5.677.012-1.902.151-4.92.308-6.707.61-6.95.96-14.236.824-17.124-.075-1.593-.458-4.87-.85-7.294-.39-2.42-.751-5.25-.8-6.288-.05-1.038-.149-3.16-.22-4.716-.073-1.556-.17-6.272-.217-10.48-.094-8.498-.223-12.346-.642-19.178a186.61 186.61 0 01-.197-5.135c-.072-2.84-.246-4.858-.855-9.898-.136-1.123-.226-1.276-1.43-2.434-.708-.679-1.662-1.437-2.121-1.685-.459-.248-.976-.54-1.149-.65-.799-.506-3.5-1.523-4.574-1.72a20.963 20.963 0 01-2.342-.604c-.634-.212-1.895-.45-2.802-.531-2.78-.248-3.022-.721-3.052-5.995-.015-2.637-.01-2.672.63-3.617.86-1.275 1.248-1.453 2.795-1.285 2.59.282 16.419.009 20.14-.399.46-.05 2.772-.142 5.135-.205 2.363-.062 5.381-.25 6.707-.416 2.283-.286 8.561-.628 10.375-.564.461.017 2.217.027 3.902.024 1.685 0 3.31.088 3.61.203.333.127.674.514.874.993.18.432.457.93.613 1.108.379.428.715 3.366.835 7.292.054 1.758.165 3.305.247 3.437.082.132.133 1.806.116 3.72-.031 3.265.214 5.68.577 5.68.19 0 1.488-1.771 1.488-2.03 0-.099.268-.508.597-.909.328-.4 1.141-1.578 1.807-2.615.665-1.038 1.6-2.326 2.075-2.864 2.05-2.315 2.81-3.28 3.739-4.75 1.02-1.616 1.457-1.978 4.99-4.127 4.526-2.753 9.123-4.595 14.144-5.666.923-.196 2.856-.643 4.297-.993 2.824-.685 5.415-.921 9.537-.867 2.4.031 2.64.076 5.24.98 4.444 1.545 4.917 1.763 6.157 2.841.652.567 1.68 1.282 2.284 1.588 1.278.648 2.239 1.844 2.427 3.02.071.446.408 1.194.748 1.664s.683 1.193.76 1.607c.078.414.555 1.4 1.06 2.189.693 1.083.961 1.747 1.092 2.705.096.698.356 1.525.578 1.836.924 1.296 1.34 2.128 1.344 2.684.01.555.292 1.682.925 3.602.369 1.122.152 2.443-.804 4.9-1.073 2.759-1.492 3.513-2.62 4.727-.543.585-1.198 1.412-1.454 1.84-.636 1.056-3.614 3.706-5.2 4.625-1.525.885-3.707 1.702-6.04 2.262-1.846.443-4.097.506-7.231.2-2.131-.207-3.764-.824-6.392-2.417-1.687-1.022-4.217-3.596-4.599-4.678-.164-.464-.729-1.373-1.256-2.02-.526-.647-.957-1.279-.957-1.404 0-.126-.313-.665-.694-1.198-.382-.532-.838-1.25-1.014-1.597-1.275-2.505-1.932-3.27-3.235-3.768-.867-.33-1.036-.33-2.759.007-1.01.198-2.521.63-3.36.96-.839.33-1.645.6-1.792.6-.42 0-2.818 1.628-3.669 2.49-1.685 1.706-5.166 9.943-6.627 15.68-.182.714-.653 2.05-1.047 2.971-.46 1.078-.764 2.184-.85 3.105-.074.787-.264 1.855-.423 2.374-1.171 3.825-1.858 8.096-1.792 11.15.03 1.349-.049 2.764-.173 3.144-.124.38-.239 1.117-.255 1.635-.076 2.391.049 7.219.235 9.118.114 1.153.246 5.397.295 9.432.05 4.035.213 8.892.363 10.794.345 4.35.343 6.952-.01 9.223-.202 1.312-.222 2.255-.074 3.577.15 1.33.13 2.282-.079 3.668-.382 2.546-.375 9.533.013 12.056.301 1.955.384 2.383 1.054 5.431.19.865.43 2.044.533 2.62.23 1.283 1.137 2.158 3.422 3.303 1.936.97 2.898 1.181 5.49 1.203 3.483.029 7.683.42 8.43.783.51.25.738.543.907 1.171.125.461.353 1.036.508 1.277.174.27.332 1.406.41 2.953.07 1.383.23 3.243.354 4.132.283 2.02.17 2.476-.733 2.962-.785.423-1.18.325-1.902-.472-.524-.58-.74-.555-1.54.177-.455.414-1 .663-1.672.762-.548.08-1.233.237-1.521.347-.288.11-1.735.194-3.216.185-1.48-.01-3.083.067-3.563.17-1.748.372-4.388.4-6.005.062zm-331.273-.483c-1.153-.09-3.747-.162-5.764-.162-2.018 0-5.224-.143-7.127-.319-1.976-.182-7.275-.378-12.366-.458-4.9-.077-8.977-.181-9.062-.231-.085-.05-2.679-.1-5.764-.109-4.574-.014-5.939.05-7.39.35-1.444.297-2.252.336-4.296.206-1.385-.088-5.308-.181-8.718-.207-7.869-.06-7.88-.064-8.404-2.93-.317-1.732-.342-2.454-.129-3.773.34-2.1.561-2.748 1.138-3.324.663-.664 1.327-.855 4.478-1.289 1.326-.182 3.431-.473 4.68-.646 1.274-.177 2.743-.525 3.353-.796 1.42-.63 3.779-2.685 4.2-3.659.401-.93.689-2.65.863-5.167.072-1.038.362-3.773.645-6.079.566-4.598.766-8.928.453-9.746-.111-.288-.241-3.542-.29-7.231-.114-8.657-.171-10.37-.45-13.415-.325-3.557-.39-10.592-.144-15.51.115-2.306.185-5.634.154-7.397-.04-2.393.06-4.013.396-6.393.404-2.867.458-4.336.532-14.61.192-26.802.251-29.763.735-37.1.133-2.017.27-5.528.304-7.8l.063-4.134-.518-.616-.519-.617.22-4.577c.523-10.879.61-16.416.31-19.67a61.918 61.918 0 00-1.706-9.85 312.444 312.444 0 01-.887-3.564c-.36-1.502-.85-2.61-1.48-3.353-.196-.23-.538-.844-.76-1.363-.779-1.822-1.395-2.73-2.487-3.663-1.717-1.466-2.729-1.82-5.783-2.019a114.63 114.63 0 01-4.512-.387c-1.033-.118-2.35-.216-2.926-.218-.683 0-1.293-.151-1.75-.43-.673-.41-.696-.467-.576-1.414.069-.542.208-2.16.31-3.594.162-2.294.238-2.653.636-2.974.665-.54 2.632-1.05 3.865-1.006 2.835.103 4.366.06 6.004-.17.98-.137 2.489-.347 3.353-.466a93.658 93.658 0 003.354-.541c1.248-.229 3.037-.322 5.973-.313 2.306.007 4.947-.087 5.87-.209.921-.121 3.327-.27 5.344-.33 3.153-.094 8.784-.543 17.082-1.361 1.153-.114 2.68-.25 3.393-.302.713-.053 1.52-.18 1.792-.284 1.13-.43 2.676.397 2.675 1.43 0 .612-.717 1.903-1.055 1.903-.152 0-.204 1.129-.164 3.51.033 1.931.03 5.822-.01 8.646-.037 2.829.03 5.795.149 6.603.118.807.228 3.4.244 5.764.16 24.17.382 38.515.619 40.138.1.692.191 2.154.201 3.249.01 1.095.123 3.594.252 5.554.129 1.96.176 4.53.105 5.712-.071 1.181-.056 2.148.035 2.148.09 0 .424-.53.742-1.179.572-1.166 3.044-4.536 4.622-6.3.45-.502 1.534-1.355 2.41-1.896a47.727 47.727 0 002.957-2.006c.75-.562 2.447-1.536 3.773-2.165 2.86-1.356 3.244-1.554 5.98-3.076 2.055-1.144 3.605-1.788 7.644-3.176 1.095-.376 2.793-.974 3.773-1.327 2.636-.95 5.345-1.749 6.347-1.87a11.42 11.42 0 001.782-.398c.494-.16 1.35-.292 1.901-.292.552 0 1.45-.151 1.993-.337 1.052-.358.423-.377 10.928.335 1.498.102 3.196.293 3.773.424 1.199.275 3.268.654 6.288 1.154 1.152.19 2.614.532 3.248.759.634.227 1.86.653 2.725.948 2.24.762 6.614 2.933 7.933 3.935a58.778 58.778 0 001.886 1.376c2.344 1.604 2.625 1.942 7.303 8.782.268.391.669 1.287.89 1.99.223.704.593 1.752.824 2.328.543 1.36 1.581 4.895 1.908 6.498.14.691.472 2.295.737 3.563 1.379 6.615 1.613 7.974 1.81 10.48.448 5.731.595 8.364.79 14.165.11 3.294.256 6.643.323 7.44.068.798.166 5.365.217 10.149.051 4.784.2 10.921.332 13.638.162 3.37.173 5.635.033 7.126-.123 1.307-.137 3.369-.034 5.122.479 8.184.635 10.375.822 11.527.112.692.195 3.38.184 5.974-.02 4.596.066 7.78.358 13.277.134 2.535.117 2.728-.3 3.293-.566.764-.562.795.156 1.44.427.383.774 1.086 1.197 2.426.327 1.037.714 2.075.86 2.306.73 1.16 5.565 2.688 9.605 3.034 1.383.118 2.772.269 3.087.335.315.067 1.081-.027 1.703-.208.967-.28 1.246-.288 1.938-.049.666.23.833.405.953.991.08.392.063 1.184-.037 1.762-.1.578-.23 2.027-.29 3.22-.163 3.321-.264 3.379-5.468 3.12-2.42-.119-4.374-.11-5.45.024a14.95 14.95 0 01-3.403.015c-1.503-.17-2.07-.127-4.401.333-3.96.782-7.931.96-22.693 1.017-2.441.01-4.361-.097-9.85-.55-1.672-.138-3.512-.243-4.088-.233l-9.642.165c-4.726.081-9.28.142-10.12.135-2.78-.023-3.657-.793-3.485-3.065.122-1.602.906-5.573 1.163-5.886.108-.133.715-.451 1.348-.708.878-.357 1.36-.433 2.035-.324 2.185.353 2.885.36 4.26.047 2.434-.556 3.755-1.103 5.614-2.327 3.033-1.998 4.13-3.694 4.414-6.822.078-.865.227-2.327.332-3.25.104-.921.237-2.505.295-3.52.058-1.013.158-1.929.223-2.034.065-.105.211-1.87.325-3.92.113-2.052.309-4.343.434-5.092.126-.75.26-2.589.298-4.087.038-1.5.187-5.555.331-9.013.347-8.32.345-10.112-.018-15.196-.217-3.047-.289-6.979-.247-13.52l.09-14.042c.068-11.248-1.004-26.117-2.042-28.305-.166-.351-.448-1.341-.626-2.201-.495-2.387-1.687-4.45-3.844-6.656-1.798-1.839-2.134-2.06-5.076-3.339-2.4-1.043-5.406-1.85-8.751-2.35-2.247-.336-3.123-.37-5.502-.215-1.556.101-3.454.28-4.218.398-1.861.287-5.471 1.718-6.546 2.594-.478.39-1.105.831-1.393.982-.87.453-5.08 3.25-6.58 4.371-1.567 1.172-3.575 3.313-3.802 4.054-.081.266-.832 1.71-1.667 3.209-.836 1.499-1.631 3.196-1.769 3.773-.137.576-.467 1.38-.733 1.786-.777 1.188-1.318 2.34-1.979 4.213-.34.966-1.369 3.407-2.284 5.424-1.87 4.12-2.308 5.319-2.984 8.174-.753 3.18-1.047 5.454-1.339 10.376-.326 5.493-.268 8.879.301 17.814.235 3.688.425 7.697.423 8.908-.017 8.344.212 18.923.436 20.068.194.998.199 1.668.018 2.83-.162 1.043-.172 1.814-.03 2.443.157.7.124 1.289-.137 2.461-.319 1.434-.318 1.7.011 3.796.775 4.935.971 6.053 1.177 6.697.117.37.392 1.501.61 2.515 1.114 5.179 1.683 6.691 2.582 6.853.25.045 1.162.23 2.026.413.865.182 1.95.39 2.41.46.462.072 1.516.358 2.343.636a9.136 9.136 0 003.007.504c2.47 0 5.678 1.066 6.696 2.225l.622.71-.05 3.249c-.05 3.173-.064 3.261-.587 3.784-.649.65-3.174 1.356-4.695 1.315a84.082 84.082 0 01-3.144-.191z" />
</svg>
