<?xml version="1.0" encoding="UTF-8" standalone="no"?>
<svg
   xmlns:svg="http://www.w3.org/2000/svg"
   xmlns="http://www.w3.org/2000/svg"
   xmlns:sodipodi="http://sodipodi.sourceforge.net/DTD/sodipodi-0.dtd"
   xmlns:inkscape="http://www.inkscape.org/namespaces/inkscape"
   viewBox="0 0 2000.678 297.029"
   version="1.1"
   id="svg880"
   sodipodi:docname="asher-logo-vertical.svg"
   inkscape:version="0.92.3 (2405546, 2018-03-11)">
  <defs
     id="defs884" />
  <sodipodi:namedview
     pagecolor="#ffffff"
     bordercolor="#666666"
     borderopacity="1"
     objecttolerance="10"
     gridtolerance="10"
     guidetolerance="10"
     inkscape:pageopacity="0"
     inkscape:pageshadow="2"
     inkscape:window-width="1853"
     inkscape:window-height="1145"
     id="namedview882"
     showgrid="false"
     inkscape:zoom="0.49480701"
     inkscape:cx="469.28224"
     inkscape:cy="92.170827"
     inkscape:window-x="67"
     inkscape:window-y="27"
     inkscape:window-maximized="1"
     inkscape:current-layer="svg880" />
  <path
     d="m 835.901,286.737 c -1.495,-0.696 -1.999,-1.712 -1.98,-3.992 0.017,-2.04 0.5,-3.113 1.666,-3.7 1.486,-0.75 2.5,-1.005 4.192,-1.052 4.344,-0.12 7.223,-1.09 9.539,-3.214 0.577,-0.53 1.337,-1.175 1.688,-1.434 1.894,-1.4 3.336,-3.175 3.772,-4.642 0.172,-0.579 0.63,-1.468 1.018,-1.977 l 0.706,-0.925 0.129,-5.948 c 0.07,-3.272 0.246,-7.08 0.389,-8.464 0.143,-1.383 0.26,-4.684 0.26,-7.336 0,-9.76 -0.307,-30.354 -0.54,-36.156 -0.21,-5.235 -0.36,-20.201 -0.465,-46.111 -0.018,-4.267 0.08,-9.18 0.221,-11.11 0.26,-3.552 0.361,-17.406 0.154,-20.96 a 86.475,86.475 0 0 0 -0.326,-3.844 c -0.116,-1.019 -0.306,-3 -0.424,-4.401 -0.316,-3.753 -0.417,-4.57 -1.024,-8.312 a 38.54,38.54 0 0 1 -0.322,-2.725 c -0.237,-3.18 -0.504,-5.437 -0.805,-6.812 -0.177,-0.807 -0.52,-2.694 -0.76,-4.192 -0.51,-3.157 -0.5,-3.11 -0.93,-5.016 -0.533,-2.367 -0.98,-2.85 -3.948,-4.28 -5.233,-2.52 -4.74,-2.362 -7.82,-2.491 l -2.788,-0.117 -1.323,-1.478 -1.323,-1.478 -0.143,-1.961 c -0.08,-1.08 -0.236,-2.075 -0.349,-2.212 -0.278,-0.34 -0.532,-2.51 -0.357,-3.06 0.245,-0.772 1.121,-1.054 2.864,-0.923 1.041,0.08 2.127,0.007 3.233,-0.214 2.575,-0.515 5.094,-0.771 6.59,-0.669 1.303,0.09 8.696,-0.428 9.025,-0.632 0.087,-0.053 3.115,-0.153 6.728,-0.22 3.613,-0.067 7.324,-0.206 8.246,-0.307 0.923,-0.102 2.81,-0.32 4.192,-0.484 1.679,-0.2 3.806,-0.27 6.393,-0.21 5.292,0.123 5.132,0.085 5.774,1.353 0.627,1.238 0.89,1.38 1.742,0.939 1.003,-0.519 1.588,-0.415 2.31,0.408 0.755,0.859 0.968,1.521 0.91,2.825 -0.08,1.845 -0.15,11.738 -0.081,11.738 0.038,0 1.264,-1.241 2.724,-2.758 1.555,-1.615 3.22,-3.122 4.018,-3.635 0.75,-0.483 2.306,-1.616 3.458,-2.518 3.96,-3.1 7.043,-4.836 11.11,-6.255 2.125,-0.741 3.438,-1.05 5.973,-1.4 1.787,-0.248 4.083,-0.629 5.103,-0.846 1.02,-0.218 3.425,-0.546 5.345,-0.728 1.92,-0.182 4.103,-0.404 4.852,-0.493 2.187,-0.26 8.782,-0.07 9.658,0.277 0.413,0.164 1.46,0.397 2.328,0.518 0.868,0.12 2.24,0.458 3.049,0.75 0.808,0.291 1.63,0.53 1.824,0.53 0.558,0 4.845,1.029 7.036,1.688 1.095,0.33 2.227,0.663 2.515,0.739 0.288,0.076 1.296,0.504 2.24,0.951 0.945,0.448 1.82,0.814 1.946,0.814 0.127,0 0.426,0.333 0.667,0.741 0.24,0.408 0.74,0.868 1.109,1.022 0.369,0.154 1.16,0.843 1.758,1.53 0.597,0.687 2.038,2.09 3.202,3.118 1.163,1.027 2.6,2.468 3.194,3.203 1.55,1.917 5.368,7.236 6.573,9.16 0.86,1.37 2.548,4.96 3.346,7.111 0.514,1.384 1.112,2.82 1.33,3.193 0.219,0.373 0.537,1.127 0.707,1.677 0.293,0.946 0.775,2.267 1.78,4.877 0.244,0.634 0.444,1.37 0.444,1.638 0,0.267 0.11,0.691 0.246,0.943 0.292,0.541 1.398,4.453 1.64,5.803 0.094,0.518 0.37,1.744 0.616,2.724 0.394,1.578 1.625,7.566 1.993,9.697 0.075,0.433 0.308,2.76 0.52,5.17 0.343,3.926 0.353,4.652 0.094,6.967 -0.158,1.422 -0.28,4.424 -0.27,6.672 0.014,3.464 -0.048,4.332 -0.406,5.697 -0.232,0.885 -0.486,2.3 -0.563,3.144 a 23.734,23.734 0 0 1 -0.527,3.05 36.098,36.098 0 0 0 -0.627,3.248 c -0.132,0.953 -0.513,2.865 -0.847,4.249 -0.333,1.383 -0.66,2.94 -0.728,3.458 -0.253,1.974 -0.589,3.12 -1.657,5.66 -0.606,1.44 -1.16,2.86 -1.23,3.155 -0.07,0.295 -0.556,1.187 -1.078,1.982 -0.522,0.795 -0.95,1.557 -0.95,1.694 0,0.137 -0.427,1.01 -0.95,1.941 -0.524,0.931 -1.06,2.002 -1.192,2.381 -0.325,0.937 -1.545,3.022 -2.364,4.042 -0.37,0.461 -0.746,1.074 -0.835,1.363 -0.295,0.953 -1.202,2.609 -1.813,3.309 -0.33,0.378 -0.848,1.18 -1.15,1.781 -0.302,0.601 -0.717,1.253 -0.922,1.449 -0.317,0.301 -0.982,1.245 -3.14,4.457 -0.578,0.86 -3.24,3.967 -3.95,4.611 -0.387,0.35 -1.095,1.02 -1.573,1.49 -1.087,1.068 -2.015,1.736 -3.49,2.508 -0.633,0.333 -1.67,1.086 -2.305,1.675 -0.634,0.589 -1.671,1.315 -2.305,1.614 -0.634,0.3 -2.04,1.068 -3.122,1.709 -1.083,0.64 -2.45,1.32 -3.04,1.513 -0.588,0.192 -2.374,0.861 -3.969,1.487 -1.632,0.641 -3.662,1.272 -4.646,1.444 -0.96,0.167 -2.172,0.493 -2.692,0.723 -0.52,0.23 -1.73,0.515 -2.69,0.635 -0.96,0.12 -2.83,0.37 -4.155,0.555 -3.898,0.547 -7.526,0.395 -11.842,-0.494 -1.43,-0.294 -3.141,-0.837 -3.563,-1.13 -0.348,-0.242 -2.244,-0.785 -3.23,-0.925 -0.508,-0.072 -1.593,-0.402 -2.41,-0.733 -1.626,-0.658 -4.152,-1.479 -4.552,-1.479 -0.14,0 -1.204,-0.46 -2.367,-1.023 -1.162,-0.562 -2.347,-1.094 -2.632,-1.181 -0.285,-0.087 -2.52,-1.17 -4.967,-2.406 -2.447,-1.236 -4.76,-2.372 -5.141,-2.526 a 11.81,11.81 0 0 1 -1.474,-0.763 c -0.43,-0.266 -0.867,-0.484 -0.971,-0.484 -0.261,0 -0.407,1.404 -0.739,7.126 -0.496,8.561 -0.511,9.707 -0.18,13.833 0.098,1.21 0.105,3.333 0.017,4.716 -0.092,1.444 -0.074,3.228 0.042,4.187 0.112,0.92 0.204,3.136 0.204,4.925 0,1.79 0.094,3.818 0.206,4.507 0.113,0.688 0.261,3.33 0.33,5.868 0.126,4.656 0.446,7.111 1.095,8.39 0.649,1.28 1.965,2.839 2.723,3.226 0.429,0.22 1.216,0.88 1.75,1.468 0.847,0.935 1.071,1.07 1.781,1.071 0.495,0 1.14,0.203 1.65,0.518 0.462,0.284 1.123,0.519 1.47,0.523 a 6.3,6.3 0 0 1 1.362,0.228 c 1.454,0.44 4.963,0.917 6.81,0.928 1.475,0.01 2.013,0.095 2.463,0.397 0.317,0.213 0.58,0.4 0.585,0.416 0.034,0.115 0.662,3.308 0.755,3.835 0.093,0.529 0.028,0.71 -0.324,0.898 -0.242,0.13 -0.44,0.372 -0.44,0.538 0,0.5 -0.84,0.874 -2.83,1.263 -2.95,0.576 -4.602,0.655 -14.566,0.697 -5.13,0.022 -11.8,0.073 -14.82,0.115 -4.033,0.055 -5.844,0 -6.813,-0.205 -2.357,-0.5 -5.173,-0.597 -6.278,-0.215 -0.567,0.196 -1.666,0.34 -2.62,0.342 -0.903,0 -2.557,0.034 -3.674,0.07 -1.118,0.035 -2.58,-0.023 -3.25,-0.13 -0.669,-0.108 -2.195,-0.183 -3.39,-0.167 -1.197,0.015 -2.677,-0.076 -3.291,-0.203 -0.867,-0.18 -1.9,-0.157 -4.638,0.105 -1.937,0.185 -3.663,0.385 -3.835,0.445 -0.173,0.06 -1.55,0.191 -3.06,0.293 -1.51,0.101 -2.972,0.236 -3.249,0.3 -0.286,0.068 -0.866,-0.05 -1.342,-0.272 z m 88.568,-70.765 c 1.22,-0.022 2.354,-0.123 2.518,-0.224 0.164,-0.101 1.383,-0.247 2.709,-0.323 1.326,-0.077 2.741,-0.24 3.145,-0.363 1.77,-0.54 2.868,-0.972 3.386,-1.33 0.306,-0.212 0.78,-0.385 1.054,-0.385 0.807,0 3.812,-3.295 5.544,-6.078 1.95,-3.135 4.593,-9.037 6.062,-13.536 0.861,-2.639 1.29,-4.507 1.654,-7.215 0.194,-1.44 0.441,-3.072 0.549,-3.626 0.107,-0.553 0.195,-1.508 0.195,-2.122 0,-0.614 0.184,-2.236 0.409,-3.605 0.225,-1.37 0.518,-3.385 0.651,-4.48 0.134,-1.095 0.477,-3.076 0.761,-4.402 0.717,-3.335 0.852,-3.993 0.967,-4.716 0.16,-1.007 0.757,-4.507 0.988,-5.786 0.141,-0.79 0.142,-1.685 0,-2.725 -0.116,-0.852 -0.258,-2.587 -0.314,-3.855 -0.057,-1.268 -0.199,-2.919 -0.315,-3.668 -0.116,-0.75 -0.352,-2.353 -0.523,-3.563 a 96.653,96.653 0 0 0 -0.512,-3.25 c -0.167,-0.884 -0.438,-5.57 -0.94,-16.243 -0.051,-1.095 -0.184,-2.274 -0.296,-2.62 -0.111,-0.346 -0.304,-1.148 -0.428,-1.782 -0.51,-2.608 -0.858,-3.978 -1.487,-5.868 a 209.86,209.86 0 0 1 -0.989,-3.04 22.79,22.79 0 0 0 -0.913,-2.312 c -0.323,-0.696 -0.683,-1.951 -0.8,-2.79 -0.116,-0.84 -0.361,-1.756 -0.545,-2.037 -0.184,-0.28 -0.649,-1.289 -1.033,-2.24 -0.384,-0.951 -1.147,-2.372 -1.697,-3.157 -0.549,-0.784 -1.179,-1.9 -1.399,-2.48 -0.304,-0.8 -0.901,-1.551 -2.491,-3.131 -1.15,-1.144 -2.14,-2.079 -2.2,-2.079 -0.059,0 -0.471,-0.23 -0.916,-0.51 -0.445,-0.282 -1.41,-0.763 -2.144,-1.07 a 86.674,86.674 0 0 1 -3.45,-1.586 c -1.162,-0.564 -2.362,-1.026 -2.666,-1.026 -0.304,0 -0.957,-0.18 -1.45,-0.398 -1.157,-0.515 -3.818,-0.925 -4.305,-0.664 -1.823,0.977 -5.389,2.292 -7.176,2.645 -1.007,0.2 -3.46,1.568 -5.03,2.808 a 17.432,17.432 0 0 0 -5.053,6.387 31.57,31.57 0 0 1 -1.43,2.636 c -0.46,0.75 -1.226,2.046 -1.701,2.881 -0.476,0.836 -0.945,1.568 -1.042,1.628 -0.097,0.06 -0.564,1.1 -1.038,2.31 a 86.03,86.03 0 0 1 -1.659,3.927 88.911,88.911 0 0 0 -1.02,2.266 c -0.376,0.921 -1.522,5.814 -2.155,9.206 -0.226,1.21 -0.551,2.86 -0.722,3.668 -0.171,0.807 -0.364,2.269 -0.43,3.249 -0.064,0.98 -0.245,2.394 -0.4,3.144 -0.627,3.013 -0.728,3.962 -0.625,5.897 0.059,1.111 -0.03,3.422 -0.197,5.135 -0.167,1.714 -0.314,3.917 -0.327,4.897 -0.012,0.98 -0.204,2.914 -0.427,4.297 -0.811,5.037 -0.917,6.933 -0.912,16.349 0.005,9.202 0.086,10.625 0.898,15.93 0.106,0.69 0.25,1.767 0.32,2.39 0.07,0.623 0.257,1.384 0.415,1.69 0.159,0.307 0.34,1.14 0.402,1.852 0.063,0.71 0.294,1.648 0.513,2.082 0.22,0.433 0.469,1.119 0.554,1.522 0.085,0.403 0.369,1.205 0.632,1.782 1.793,3.93 2.26,4.82 3,5.708 0.457,0.55 1.03,1.396 1.273,1.882 0.243,0.486 0.81,1.287 1.259,1.782 4.534,4.989 4.378,4.847 7.88,7.154 2.05,1.35 3.08,1.861 5.765,2.86 0.738,0.274 6.244,0.632 7.017,0.456 0.229,-0.051 1.415,-0.112 2.636,-0.135 z m 156.349,14.045 a 580.2,580.2 0 0 0 -5.555,-1.143 185.444,185.444 0 0 1 -4.506,-0.963 171.5,171.5 0 0 0 -4.297,-0.92 c -3.068,-0.605 -4.289,-0.955 -6.338,-1.814 -1.01,-0.424 -2.308,-0.902 -2.884,-1.062 -0.576,-0.16 -2.18,-0.822 -3.563,-1.47 -7.134,-3.346 -8.972,-4.354 -10.795,-5.922 a 27.864,27.864 0 0 0 -2.41,-1.814 c -1.98,-1.296 -10.14,-9.23 -11.428,-11.111 a 62.4,62.4 0 0 0 -1.676,-2.293 c -0.901,-1.172 -1.302,-1.797 -2.35,-3.668 l -1.003,-1.782 c -0.707,-1.252 -2.015,-5.118 -2.908,-8.594 a 422.78,422.78 0 0 0 -1.188,-4.506 c -0.297,-1.095 -0.616,-2.416 -0.708,-2.934 -0.092,-0.52 -0.359,-1.65 -0.592,-2.516 -0.234,-0.864 -0.49,-2.043 -0.571,-2.62 -0.081,-0.576 -0.386,-2.085 -0.678,-3.353 -0.464,-2.014 -0.535,-2.823 -0.557,-6.393 -0.063,-9.985 0.628,-17.825 2.19,-24.837 0.524,-2.348 0.875,-4.118 1.457,-7.336 0.25,-1.384 0.592,-2.893 0.76,-3.354 0.679,-1.87 1.398,-4.285 1.748,-5.869 0.588,-2.662 0.828,-3.44 1.703,-5.501 a 79.955,79.955 0 0 0 1.368,-3.458 c 0.457,-1.274 2.093,-4.71 4.134,-8.68 0.246,-0.479 1.12,-1.94 1.941,-3.249 0.822,-1.307 1.66,-2.707 1.864,-3.11 a 8.344,8.344 0 0 1 0.864,-1.327 c 0.272,-0.326 0.495,-0.676 0.495,-0.778 0,-0.535 2.145,-3.65 3.458,-5.022 0.827,-0.865 2.521,-2.657 3.764,-3.983 1.243,-1.325 2.922,-3.05 3.73,-3.833 1.39,-1.345 1.52,-1.42 2.371,-1.376 0.683,0.035 1.095,-0.088 1.701,-0.508 a 8.82,8.82 0 0 1 1.735,-0.882 c 0.513,-0.181 1.37,-0.609 1.901,-0.95 0.532,-0.341 1.29,-0.73 1.686,-0.862 0.395,-0.133 1.178,-0.567 1.74,-0.964 0.561,-0.397 1.552,-0.86 2.2,-1.029 0.65,-0.169 1.573,-0.537 2.053,-0.818 0.48,-0.282 1.376,-0.613 1.991,-0.736 0.615,-0.123 1.307,-0.304 1.537,-0.402 0.992,-0.423 6.99,-2.303 7.756,-2.43 1.096,-0.184 2.989,-0.664 3.249,-0.825 0.675,-0.417 5.685,-1.415 7.964,-1.587 1.441,-0.108 3.31,-0.29 4.155,-0.405 1.959,-0.266 3.506,-0.265 6.64,0.007 1.383,0.119 3.93,0.308 5.659,0.42 4.753,0.311 9.71,0.887 12.68,1.474 1.759,0.347 2.665,0.672 5.626,2.016 0.846,0.384 1.578,0.698 1.626,0.698 0.238,0 6.43,3.715 7.525,4.516 1.62,1.183 7.82,7.25 9.631,9.422 0.769,0.923 2.145,2.873 3.057,4.335 1.554,2.489 5.182,9.623 6.695,13.167 0.635,1.486 1.691,4.808 1.967,6.183 0.069,0.346 0.263,1.26 0.43,2.031 0.169,0.772 0.302,2.281 0.297,3.354 -0.01,2.07 0.052,2.762 0.664,7.4 0.212,1.615 0.542,4.916 0.73,7.337 0.19,2.42 0.504,5.109 0.699,5.973 0.654,2.906 0.37,5.615 -0.68,6.486 -0.181,0.15 -0.329,0.433 -0.329,0.63 0,0.196 -0.212,0.554 -0.472,0.795 -0.5,0.466 -1.072,0.483 -4.916,0.15 -2.686,-0.232 -6.577,-0.011 -12.742,0.724 -0.807,0.096 -2.505,0.128 -3.773,0.07 -2.636,-0.118 -2.97,-0.12 -12.471,-0.068 -10.215,0.055 -10.606,0.048 -15.196,-0.274 -2.306,-0.161 -4.522,-0.303 -4.926,-0.315 -0.403,-0.011 -2.384,-0.163 -4.401,-0.337 -4.701,-0.405 -17.643,-0.693 -26.494,-0.59 l -6.896,0.081 -0.65,0.52 -0.886,0.71 c -0.416,0.336 -0.113,10.478 0.366,12.26 0.122,0.453 0.258,2.245 0.3,3.982 0.043,1.737 0.176,3.487 0.296,3.89 0.12,0.403 0.222,1.299 0.227,1.991 0,0.693 0.094,1.636 0.198,2.098 0.506,2.246 0.897,4.061 1.039,4.82 0.086,0.461 0.768,2.49 1.516,4.507 0.748,2.017 1.481,4.092 1.629,4.61 0.34,1.195 1.188,3.24 1.74,4.193 0.233,0.403 0.803,1.44 1.267,2.305 0.463,0.865 1.466,2.421 2.228,3.459 0.761,1.037 1.565,2.17 1.786,2.515 0.22,0.346 0.832,1.16 1.359,1.81 a 56.67,56.67 0 0 1 1.899,2.515 c 0.517,0.734 2.168,2.565 3.668,4.068 2.459,2.465 2.913,2.824 4.613,3.645 1.038,0.501 2.5,1.217 3.25,1.592 0.748,0.374 2.022,0.892 2.829,1.15 0.807,0.26 1.871,0.6 2.365,0.758 a 7.135,7.135 0 0 0 1.803,0.287 c 0.497,0 1.178,0.092 1.512,0.204 0.826,0.277 4.866,0.67 8.017,0.777 1.916,0.066 3.005,0 4.192,-0.261 a 68.066,68.066 0 0 1 3.175,-0.6 c 0.865,-0.138 1.761,-0.35 1.992,-0.471 0.23,-0.122 1.079,-0.286 1.886,-0.366 0.928,-0.09 1.79,-0.325 2.348,-0.637 0.485,-0.27 1.38,-0.658 1.988,-0.86 a 18.869,18.869 0 0 0 2.083,-0.858 c 0.538,-0.27 1.111,-0.491 1.274,-0.491 0.397,0 2.875,-1.257 3.641,-1.847 0.337,-0.26 1.273,-0.998 2.08,-1.64 0.807,-0.643 1.901,-1.39 2.432,-1.658 0.933,-0.474 2.605,-2.215 3.452,-3.594 0.225,-0.367 0.739,-0.889 1.14,-1.158 0.403,-0.269 1.014,-0.952 1.36,-1.518 0.346,-0.566 1.152,-1.601 1.791,-2.3 0.639,-0.7 1.44,-1.649 1.78,-2.11 0.34,-0.46 1.148,-1.357 1.796,-1.991 1.524,-1.492 3.045,-4.308 3.437,-6.364 0.347,-1.82 0.844,-2.35 1.986,-2.12 0.406,0.081 0.974,0.136 1.262,0.121 2.245,-0.116 2.421,-0.084 4.087,0.753 0.923,0.463 1.983,0.96 2.357,1.106 1.021,0.398 1.548,1.414 1.573,3.03 0.01,0.744 -0.078,1.476 -0.198,1.627 -0.12,0.151 -0.384,0.785 -0.588,1.408 -0.428,1.314 -1.344,2.853 -3.225,5.422 -0.737,1.006 -1.463,2.112 -1.615,2.457 -0.151,0.346 -0.895,1.32 -1.652,2.164 -0.757,0.844 -1.681,2.106 -2.053,2.806 l -0.97,1.819 c -0.309,0.58 -1.019,1.706 -2.588,4.11 -0.526,0.808 -1.681,2.175 -2.567,3.04 -0.885,0.864 -1.93,2.067 -2.323,2.672 -0.392,0.605 -0.793,1.1 -0.89,1.1 -0.099,0 -0.595,0.424 -1.104,0.942 -0.508,0.518 -1.034,0.943 -1.167,0.943 -0.371,0 -2.741,1.172 -4.263,2.103 -0.749,0.458 -1.503,0.834 -1.677,0.834 -0.173,0 -0.961,0.326 -1.751,0.724 -0.79,0.398 -1.874,0.789 -2.41,0.868 -0.536,0.08 -1.258,0.356 -1.604,0.614 -1.102,0.821 -1.946,1.149 -3.296,1.28 -0.723,0.07 -1.54,0.267 -1.815,0.44 -0.275,0.172 -1.313,0.394 -2.306,0.494 -3.132,0.315 -5.336,0.726 -6.311,1.178 -1.342,0.621 -2.462,0.896 -3.668,0.9 -0.577,0 -1.436,0.14 -1.91,0.305 -1.394,0.486 -6.054,0.808 -12.448,0.861 l -5.973,0.05 -3.25,-0.687 z m 1.467,-94.292 c 11.365,-0.153 21.368,-0.175 24.418,-0.054 1.614,0.065 4.066,0.048 5.45,-0.036 l 2.515,-0.154 0.018,-2.515 c 0.02,-2.795 0.186,-4.219 0.632,-5.408 0.26,-0.695 0.259,-0.953 -0.014,-2.003 -0.2,-0.773 -0.308,-2.144 -0.3,-3.82 0.01,-1.84 -0.081,-2.86 -0.302,-3.446 -0.552,-1.46 -1.562,-4.969 -1.93,-6.702 a 25.509,25.509 0 0 0 -2.086,-5.973 c -0.375,-0.75 -0.803,-1.834 -0.95,-2.41 -0.37,-1.45 -1.227,-3.228 -2.626,-5.45 -0.653,-1.038 -1.564,-2.635 -2.024,-3.55 -1.388,-2.758 -3.335,-5.033 -5.4,-6.31 -0.955,-0.591 -1.513,-0.894 -5.978,-3.246 -1.384,-0.73 -2.796,-1.556 -3.14,-1.84 -0.563,-0.464 -0.754,-0.501 -1.99,-0.393 -0.852,0.074 -2.08,0.405 -3.254,0.878 a 69.594,69.594 0 0 1 -3.04,1.144 c -2.366,0.792 -4.497,1.692 -5.703,2.41 -0.684,0.408 -1.327,0.741 -1.428,0.741 -0.243,0 -1.26,0.696 -2.898,1.983 -1.833,1.44 -3.2,3.243 -4.229,5.574 -0.48,1.089 -0.978,2.168 -1.106,2.399 -1.049,1.896 -1.852,3.891 -2.24,5.564 -0.253,1.09 -0.74,2.83 -1.081,3.868 -1.015,3.08 -1.66,5.526 -2.051,7.778 a 30.508,30.508 0 0 1 -0.643,2.702 c -0.235,0.807 -0.517,2.316 -0.625,3.353 -0.109,1.038 -0.39,2.633 -0.624,3.545 -0.235,0.912 -0.427,2.28 -0.427,3.04 0,0.76 -0.102,1.713 -0.227,2.115 -0.303,0.975 -0.503,3.139 -0.43,4.637 0.033,0.652 0.354,0.798 3.067,1.39 2.026,0.443 1.9,0.442 20.646,0.19 z m 620.322,92.133 c -0.055,-0.056 -1.779,-0.093 -3.83,-0.084 -3.94,0.018 -6.94,-0.241 -8.286,-0.716 -0.447,-0.158 -1.622,-0.48 -2.61,-0.714 -0.99,-0.235 -2.222,-0.614 -2.74,-0.843 -0.517,-0.23 -1.083,-0.417 -1.257,-0.417 -0.175,0 -1.365,-0.374 -2.646,-0.831 -1.281,-0.458 -2.706,-0.928 -3.167,-1.045 -0.462,-0.117 -1.818,-0.825 -3.016,-1.574 -1.647,-1.03 -2.463,-1.706 -3.355,-2.78 -1.526,-1.839 -2.957,-3.727 -2.957,-3.903 0,-0.207 -0.866,-1.912 -1.933,-3.805 -0.52,-0.922 -1.193,-2.119 -1.496,-2.659 -0.303,-0.54 -0.69,-1.483 -0.86,-2.096 -0.318,-1.145 -0.915,-3.049 -1.993,-6.354 -0.338,-1.037 -0.712,-2.504 -0.832,-3.258 -0.119,-0.755 -0.36,-1.84 -0.537,-2.41 -0.891,-2.88 -1.132,-9.05 -0.503,-12.881 0.123,-0.75 0.3,-1.838 0.392,-2.42 0.569,-3.561 1.329,-6.3 2.34,-8.436 0.453,-0.956 1.01,-2.229 1.239,-2.83 0.229,-0.6 1.051,-2.291 1.828,-3.759 1.241,-2.345 1.73,-3.015 4.032,-5.534 1.441,-1.576 3.404,-3.535 4.363,-4.353 2.379,-2.032 4.72,-3.881 4.923,-3.89 0.092,-0.008 0.989,-0.54 1.991,-1.19 l 2.557,-1.654 c 1.558,-1.005 4.991,-3.01 6.393,-3.73 4.06,-2.092 8.25,-3.104 17.082,-4.126 1.902,-0.22 4.449,-0.55 5.66,-0.735 1.21,-0.184 3.002,-0.418 3.981,-0.52 0.98,-0.102 3.999,-0.424 6.708,-0.716 5.558,-0.6 6.157,-0.657 9.956,-0.957 1.498,-0.118 3.102,-0.307 3.563,-0.419 0.46,-0.112 1.404,-0.212 2.096,-0.222 1.223,-0.017 1.934,-0.116 4.272,-0.598 1.562,-0.322 3.489,-0.511 4.785,-0.47 l 1.093,0.035 -0.094,-16.3 c -0.098,-17.082 -0.157,-18.976 -0.637,-20.565 a 94.332,94.332 0 0 1 -0.845,-3.176 c -0.303,-1.21 -0.812,-2.778 -1.132,-3.484 -0.656,-1.45 -3.702,-5.01 -4.589,-5.362 a 48.24,48.24 0 0 1 -1.596,-0.694 23.881,23.881 0 0 0 -2.2,-0.843 c -0.635,-0.2 -1.53,-0.51 -1.992,-0.685 -0.532,-0.203 -1.833,-0.352 -3.563,-0.41 -2.771,-0.09 -3.961,0.073 -9.588,1.317 -1.51,0.334 -5.289,1.768 -6.157,2.337 -1.25,0.82 -3.502,4.963 -4.365,8.034 -1.23,4.381 -1.592,6.043 -1.778,8.174 -0.134,1.545 -0.373,2.825 -0.664,3.564 -0.25,0.634 -0.588,1.86 -0.752,2.724 -0.99,5.224 -2.175,8.15 -4.106,10.126 -0.628,0.644 -1.414,1.235 -1.747,1.314 -0.334,0.078 -1.266,0.454 -2.073,0.834 -2.33,1.097 -3.886,1.304 -10.375,1.38 -5.757,0.068 -10.145,-0.081 -13.31,-0.452 -3.586,-0.42 -6.429,-2.688 -7.812,-6.233 -0.624,-1.6 -0.727,-1.959 -1.095,-3.825 -0.392,-1.992 -0.125,-5.766 0.644,-9.101 0.304,-1.32 0.358,-1.465 1.424,-3.792 0.476,-1.04 0.865,-1.992 0.865,-2.117 0,-0.178 1.685,-3.177 2.472,-4.399 0.989,-1.536 1.553,-2.253 2.542,-3.237 1.274,-1.268 4.215,-3.54 5.306,-4.1 0.377,-0.194 1.203,-0.701 1.837,-1.128 0.634,-0.427 1.405,-0.908 1.713,-1.07 a 92.244,92.244 0 0 0 1.767,-0.976 c 0.663,-0.375 1.325,-0.681 1.47,-0.681 a 0.5,0.5 0 0 0 0.387,-0.197 c 0.14,-0.228 8.612,-4.442 9.86,-4.904 l 3.132,-1.168 c 1.262,-0.472 2.466,-0.857 2.675,-0.857 0.21,0 0.545,-0.086 0.745,-0.19 1.377,-0.72 3.925,-1.487 4.938,-1.487 0.695,0 1.519,-0.17 2.122,-0.436 0.542,-0.24 1.11,-0.388 1.261,-0.33 0.152,0.059 1.63,-0.025 3.286,-0.187 3.49,-0.34 9.173,-0.38 12.337,-0.087 1.21,0.111 4.312,0.252 6.893,0.312 4.482,0.104 6.322,0.26 8.408,0.71 0.518,0.113 1.98,0.407 3.249,0.655 1.268,0.248 2.777,0.58 3.353,0.74 0.906,0.25 2.885,0.64 6.859,1.353 1.263,0.226 5.22,1.573 6.452,2.197 1.084,0.548 3.709,2.29 6.27,4.16 1.658,1.21 4.685,3.97 4.862,4.432 0.044,0.115 0.603,0.648 1.241,1.184 1.012,0.848 1.357,1.36 2.679,3.982 1.008,1.999 1.618,3.497 1.816,4.464 0.164,0.8 0.68,2.186 1.146,3.08 0.467,0.895 0.849,1.762 0.849,1.927 0,0.166 0.14,0.571 0.313,0.902 0.524,1.005 0.301,1.932 -0.531,2.21 -0.42,0.14 0.018,0.716 0.696,0.916 0.82,0.242 1.115,0.81 1.42,2.735 0.341,2.157 0.755,11.11 0.58,12.555 -0.084,0.692 -0.204,9.133 -0.266,18.76 -0.063,9.625 -0.161,17.972 -0.218,18.549 -0.057,0.576 -0.156,2.171 -0.22,3.544 -0.062,1.373 -0.168,2.583 -0.234,2.69 -0.216,0.35 -0.11,8.614 0.131,10.22 0.165,1.093 0.186,3.23 0.07,7.02 -0.542,17.534 0.117,25.313 2.37,28.01 0.39,0.468 0.71,0.927 0.71,1.021 0,0.094 0.364,0.632 0.81,1.195 0.577,0.73 1.222,1.228 2.252,1.738 l 1.444,0.715 4.192,0.129 c 3.702,0.113 4.306,0.182 5.16,0.583 0.533,0.25 1.064,0.574 1.182,0.72 0.21,0.259 0.45,2.273 0.543,4.56 0.026,0.635 0.209,1.455 0.407,1.824 0.513,0.958 0.448,1.418 -0.286,2.036 -0.57,0.48 -0.842,0.545 -2.358,0.57 -2.746,0.044 -3.484,0.095 -5.59,0.385 -3.877,0.534 -8.722,1.263 -10.48,1.576 -0.98,0.174 -3.15,0.363 -4.822,0.42 -1.671,0.056 -4.312,0.15 -5.868,0.207 -7.472,0.276 -11.48,0.154 -15.762,-0.48 -2.355,-0.348 -5.964,-3.146 -7.468,-5.79 -0.481,-0.844 -0.874,-1.737 -0.874,-1.983 0,-0.246 -0.09,-0.61 -0.201,-0.81 -0.111,-0.2 -0.292,-0.79 -0.404,-1.308 a 16.673,16.673 0 0 0 -0.55,-1.886 c -0.242,-0.652 -0.386,-1.927 -0.467,-4.125 -0.065,-1.75 -0.186,-3.293 -0.27,-3.429 -0.267,-0.433 -0.908,-0.009 -1.986,1.317 -3.384,4.16 -10.909,11.404 -13.639,13.128 -3.956,2.5 -7.76,3.855 -13.294,4.737 -1.21,0.193 -2.861,0.483 -3.668,0.644 -2.574,0.515 -5.947,0.747 -10.206,0.705 -2.278,-0.023 -4.187,-0.087 -4.243,-0.143 z m 17.97,-16.31 c 2.578,-0.035 4.947,-0.418 6.12,-0.99 a 11.34,11.34 0 0 1 2.159,-0.747 c 0.91,-0.194 2.254,-0.837 4.795,-2.296 1.107,-0.636 4.421,-3.432 5.05,-4.26 a 183.39,183.39 0 0 1 1.7,-2.196 c 2.123,-2.694 3.805,-5.627 4.851,-8.462 0.984,-2.664 2.005,-6.352 2.38,-8.594 0.32,-1.91 0.665,-8.566 0.603,-11.633 -0.08,-4.01 -0.048,-14.863 0.06,-19.702 l 0.12,-5.45 0.55,-0.574 c 0.302,-0.316 0.492,-0.63 0.424,-0.699 -0.193,-0.192 -6.319,0.644 -9.906,1.353 -1.152,0.228 -3.18,0.617 -4.506,0.865 -3.09,0.579 -9.497,2.045 -10.585,2.423 -0.46,0.16 -2.178,0.673 -3.815,1.14 -3.068,0.876 -7.422,2.856 -9.18,4.175 -0.46,0.346 -1.104,0.78 -1.43,0.964 -1.437,0.815 -3.115,2.294 -3.64,3.206 -0.31,0.54 -0.998,1.641 -1.528,2.448 -0.53,0.807 -1.066,1.706 -1.191,1.997 -0.126,0.291 -0.485,0.834 -0.797,1.205 -0.482,0.573 -0.709,0.676 -1.493,0.676 -0.86,0 -0.925,0.039 -0.925,0.552 0,0.318 0.22,0.756 0.516,1.03 0.776,0.72 0.858,1.414 0.364,3.106 -0.45,1.539 -0.718,3.356 -1.087,7.364 -0.278,3.028 -0.27,9.807 0.013,11.004 0.123,0.518 0.303,1.618 0.4,2.444 0.233,1.99 0.584,3.637 1.08,5.075 0.224,0.648 0.557,1.84 0.74,2.646 0.46,2.03 1.64,5.507 2.017,5.934 0.171,0.195 0.556,0.844 0.856,1.442 0.3,0.598 0.772,1.21 1.05,1.362 0.277,0.151 1.057,0.612 1.732,1.023 1.333,0.812 2.401,1.242 3.093,1.245 0.242,0 1.331,0.337 2.42,0.748 1.09,0.411 2.457,0.872 3.04,1.024 1.03,0.27 1.074,0.263 1.646,-0.274 0.53,-0.497 0.755,-0.553 2.305,-0.574 z m -490.42,15.423 c -0.23,-0.1 -2.353,-0.189 -4.716,-0.199 -2.363,-0.01 -5.146,-0.105 -6.183,-0.211 -2.85,-0.292 -4.84,-0.322 -9.327,-0.14 -3.305,0.133 -4.506,0.101 -6.273,-0.167 -1.202,-0.182 -2.961,-0.331 -3.91,-0.331 -0.948,0 -2.993,-0.14 -4.544,-0.313 -3.067,-0.34 -10.606,-0.488 -11.045,-0.216 -0.251,0.154 -1.604,0.253 -9.065,0.658 -2.635,0.143 -2.67,0.139 -3.365,-0.39 -0.386,-0.295 -1.095,-0.654 -1.577,-0.798 -0.482,-0.145 -0.92,-0.413 -0.975,-0.598 -1.029,-3.48 -0.968,-6.04 0.176,-7.46 l 0.506,-0.63 3.32,-0.006 c 3.664,-0.007 4.719,-0.216 7.198,-1.426 1.64,-0.8 4.197,-3.148 4.813,-4.421 0.502,-1.037 0.874,-2.403 1.374,-5.046 0.43,-2.28 0.4,-1.83 0.854,-12.786 0.128,-3.106 0.162,-3.6 0.479,-6.917 0.11,-1.152 0.161,-4.17 0.115,-6.707 -0.047,-2.536 0.02,-5.979 0.147,-7.65 0.468,-6.103 0.524,-9.621 0.214,-13.31 -0.228,-2.706 -0.298,-7.496 -0.293,-19.912 0.01,-14.71 0.042,-16.47 0.36,-17.558 0.273,-0.934 0.338,-1.839 0.285,-3.982 -0.093,-3.753 0.241,-11.477 0.518,-11.995 0.124,-0.231 0.204,-0.992 0.18,-1.692 -0.024,-0.7 0.108,-1.925 0.295,-2.724 0.387,-1.652 0.432,-4.54 0.085,-5.451 -0.128,-0.337 -0.592,-1.084 -1.032,-1.66 -0.44,-0.578 -0.999,-1.445 -1.241,-1.928 -0.487,-0.97 -1.27,-1.635 -2.86,-2.43 -1.997,-1 -4.062,-1.374 -8.38,-1.519 -1.614,-0.053 -3.827,-0.212 -4.918,-0.351 -1.658,-0.212 -2.09,-0.347 -2.62,-0.821 -0.629,-0.562 -0.636,-0.594 -0.667,-2.818 -0.03,-2.206 -0.017,-2.276 0.707,-3.593 0.952,-1.73 1.442,-2.045 3.244,-2.079 0.783,-0.014 1.684,-0.127 2,-0.25 0.658,-0.254 2.785,-0.703 3.722,-0.784 0.345,-0.03 1.147,-0.11 1.781,-0.177 5.926,-0.627 8.869,-0.791 11.214,-0.625 3.25,0.23 5.383,0.16 7.74,-0.25 1.53,-0.266 2.719,-0.303 6.093,-0.188 2.93,0.1 4.729,0.066 5.974,-0.115 0.98,-0.143 3.196,-0.25 4.925,-0.239 1.73,0.011 3.733,-0.08 4.453,-0.205 1.838,-0.317 2.48,-0.127 3.91,1.16 l 1.238,1.112 0.267,2.285 c 0.197,1.685 0.21,2.67 0.048,3.753 -0.4,2.68 0.505,13.634 1.181,14.31 0.228,0.229 0.526,-0.27 2.487,-4.164 2.41,-4.787 2.746,-5.278 5.254,-7.667 2.987,-2.847 5.345,-4.376 9.93,-6.436 0.72,-0.324 1.632,-0.808 2.027,-1.076 0.395,-0.268 1.315,-0.695 2.044,-0.949 1.353,-0.47 1.64,-0.587 3.841,-1.56 1.789,-0.79 3.289,-1.301 4.335,-1.474 0.498,-0.083 1.091,-0.249 1.32,-0.368 1.583,-0.834 7.958,-1.463 10.056,-0.993 0.485,0.108 2.192,0.26 3.793,0.335 1.6,0.075 3.279,0.267 3.729,0.426 0.45,0.159 1.01,0.289 1.246,0.289 0.74,0 2.723,0.7 3.994,1.41 0.674,0.377 1.299,0.686 1.389,0.686 0.514,0 2.183,1.206 2.677,1.934 0.318,0.47 1.199,1.525 1.958,2.346 1.351,1.462 1.382,1.522 1.51,2.894 0.08,0.842 0.323,1.761 0.612,2.301 0.465,0.87 0.48,1.069 0.47,6.14 l -0.011,5.24 -0.77,2.142 c -0.422,1.179 -1.003,2.515 -1.29,2.97 -0.644,1.019 -3.696,4.791 -4.354,5.38 -1.693,1.515 -9.905,5.103 -11.974,5.23 -0.672,0.042 -1.71,0.135 -2.305,0.207 -1.438,0.174 -5.005,-0.526 -6.352,-1.247 -1.57,-0.84 -3.423,-2.393 -4.068,-3.411 -0.321,-0.506 -0.976,-1.362 -1.456,-1.904 -0.758,-0.855 -1.979,-2.59 -3.467,-4.927 -0.72,-1.132 -2.89,-3.186 -3.662,-3.469 -0.404,-0.147 -1.205,-0.443 -1.782,-0.656 -1.617,-0.6 -2.337,-0.687 -3.52,-0.428 -3.058,0.67 -4.67,2.2 -7.177,6.82 -0.25,0.461 -1.216,1.925 -2.146,3.253 -1.637,2.336 -2.32,3.677 -2.88,5.655 -0.148,0.519 -0.901,2.735 -1.674,4.925 -0.774,2.19 -1.498,4.454 -1.61,5.03 a 32.939,32.939 0 0 1 -0.637,2.516 c -0.59,1.99 -0.755,2.67 -1.084,4.506 -0.155,0.865 -0.44,2.374 -0.631,3.354 -0.192,0.98 -0.437,2.253 -0.545,2.83 -0.107,0.576 -0.305,3.641 -0.438,6.812 -0.286,6.757 -0.28,6.673 -0.576,10.06 -0.468,5.377 -0.703,11.363 -0.562,14.29 0.08,1.651 0.185,7.341 0.235,12.644 0.159,17.026 0.188,18.196 0.467,18.846 0.153,0.358 0.265,1.533 0.268,2.83 0,1.22 0.023,3.629 0.044,5.353 l 0.038,3.135 0.838,0.25 c 0.805,0.24 2.68,1.171 3.17,1.573 0.128,0.106 1.26,0.318 2.515,0.473 1.508,0.185 2.598,0.442 3.217,0.758 0.932,0.475 4.293,0.922 6.435,0.855 1.417,-0.045 3.411,0.355 4.81,0.964 1.98,0.863 2.15,1.279 2.272,5.567 0.054,1.898 0.196,3.708 0.316,4.022 0.181,0.477 0.128,0.724 -0.327,1.5 -0.3,0.51 -0.632,0.983 -0.74,1.05 -0.107,0.065 -2.196,0.157 -4.643,0.203 -6.457,0.122 -8.757,0.241 -9.582,0.497 -0.858,0.266 -2.858,0.276 -3.46,0.018 z m 701.214,-0.024 a 367.38,367.38 0 0 0 -12.576,-0.476 c -3.332,-0.064 -4.326,-0.29 -4.936,-1.122 -0.12,-0.165 -0.536,-0.365 -0.924,-0.444 -1.2,-0.246 -1.444,-0.838 -1.522,-3.703 -0.06,-2.206 -0.126,-2.603 -0.535,-3.177 -0.472,-0.662 -0.574,-1.22 -0.337,-1.837 0.276,-0.72 0.49,-0.762 8.502,-1.676 2.819,-0.322 3.549,-0.58 5.403,-1.912 0.55,-0.396 1.094,-0.72 1.208,-0.72 0.113,0 0.856,-0.574 1.651,-1.275 1.49,-1.314 2.635,-2.891 3.03,-4.175 0.123,-0.403 0.366,-3.233 0.54,-6.288 0.356,-6.26 0.346,-5.74 0.182,-9.116 -0.07,-1.453 -0.03,-2.913 0.093,-3.459 0.217,-0.952 0.386,-7.352 0.454,-17.188 0.021,-2.94 0.111,-6.382 0.202,-7.65 0.298,-4.173 0.405,-13.722 0.197,-17.585 -0.271,-5.017 -0.285,-16.405 -0.023,-19.304 0.135,-1.504 0.139,-4.165 0.01,-7.65 -0.205,-5.492 -0.468,-8.09 -0.964,-9.512 -0.156,-0.446 -0.284,-1.03 -0.284,-1.298 0,-0.818 -1.433,-4.914 -2.097,-5.994 -0.345,-0.56 -0.627,-1.113 -0.627,-1.228 0,-0.114 -0.367,-0.95 -0.814,-1.856 -0.923,-1.869 -3.03,-4.74 -4.055,-5.523 a 22.003,22.003 0 0 1 -1.572,-1.386 c -0.487,-0.474 -1.242,-1.01 -1.677,-1.194 -1.997,-0.839 -5.202,-1.798 -6.605,-1.976 -0.849,-0.107 -1.962,-0.292 -2.475,-0.41 -0.513,-0.118 -1.992,-0.217 -3.286,-0.22 -2.658,-0.007 -4.162,0.417 -6.194,1.742 -2.206,1.438 -3.63,2.322 -4.467,2.774 -1.362,0.734 -2.426,1.44 -3.403,2.259 -0.5,0.418 -1.56,1.102 -2.356,1.52 -0.796,0.42 -1.85,1.152 -2.341,1.629 -1.812,1.759 -4.37,5.125 -5.356,7.048 a 22.687,22.687 0 0 1 -0.84,1.467 c -0.762,1.206 -2.083,4.035 -2.249,4.82 -0.167,0.789 -1.428,4.151 -1.9,5.066 -0.45,0.876 -1.545,4.838 -1.89,6.843 -1.62,9.433 -1.743,10.602 -1.637,15.445 0.051,2.305 0.135,7.493 0.188,11.528 0.053,4.035 0.19,9.27 0.303,11.633 0.114,2.363 0.181,12.172 0.15,21.798 -0.069,20.527 -0.063,20.618 1.82,25.767 0.551,1.508 0.837,1.959 1.948,3.069 0.795,0.796 1.614,1.402 2.106,1.56 0.442,0.143 1.383,0.528 2.091,0.855 1.226,0.566 1.438,0.596 4.506,0.619 1.771,0.013 3.734,0.011 4.363,-0.007 2.56,-0.068 3.167,1.235 2.757,5.922 -0.232,2.654 -0.458,3.351 -1.286,3.964 -0.485,0.358 -0.706,0.373 -2.62,0.173 -1.15,-0.12 -2.467,-0.31 -2.928,-0.422 -0.462,-0.112 -2.725,-0.253 -5.03,-0.314 -4.453,-0.118 -6.18,-0.296 -6.65,-0.686 -0.159,-0.133 -0.473,-0.202 -0.698,-0.155 -0.224,0.047 -1.021,0.227 -1.77,0.398 -0.813,0.186 -3.603,0.406 -6.917,0.545 -3.055,0.127 -6.545,0.366 -7.755,0.53 -3.163,0.427 -12.714,0.98 -14.735,0.854 -0.946,-0.059 -2.945,-0.17 -4.444,-0.245 -1.733,-0.088 -2.893,-0.244 -3.189,-0.428 -0.617,-0.386 -1.096,-0.366 -1.572,0.066 -0.357,0.323 -0.65,0.333 -3.265,0.113 -2.303,-0.195 -9.525,-0.205 -12.642,-0.018 -0.889,0.053 -2.137,-0.68 -2.312,-1.358 -0.084,-0.326 -0.077,-2.031 0.016,-3.79 0.223,-4.232 0.552,-4.733 3.115,-4.735 2.016,0 5.948,-0.421 7.274,-0.777 3.884,-1.042 6.096,-3.394 7.472,-7.946 0.658,-2.176 1.433,-7.585 1.44,-10.046 0,-0.801 0.095,-2.082 0.206,-2.847 0.372,-2.576 0.651,-9.048 0.656,-15.218 0,-3.52 0.087,-6.179 0.198,-6.247 0.29,-0.18 0.233,-0.752 -0.114,-1.136 -0.537,-0.594 -0.387,-3.983 0.286,-6.44 0.298,-1.088 0.72,-7.062 0.74,-10.44 0.02,-3.712 -0.333,-18.418 -0.446,-18.61 -0.054,-0.092 -0.14,-2.675 -0.19,-5.74 -0.051,-3.066 -0.138,-5.648 -0.194,-5.739 -0.056,-0.09 -0.104,-3.45 -0.107,-7.465 -0.01,-11.913 -0.066,-10.71 0.533,-11.264 0.644,-0.597 0.651,-0.807 0.055,-1.613 -0.385,-0.521 -0.492,-1.016 -0.599,-2.77 -0.07,-1.173 -0.246,-2.502 -0.388,-2.953 -0.142,-0.45 -0.214,-1.158 -0.16,-1.572 0.08,-0.601 -0.106,-1.165 -0.924,-2.805 -1.558,-3.121 -2.797,-4.14 -6.42,-5.275 -1.938,-0.608 -5.602,-1.37 -6.585,-1.37 -1.312,0 -2.054,-0.376 -3.354,-1.696 -1.532,-1.556 -1.787,-2.272 -1.75,-4.907 0.021,-1.514 0.12,-2.066 0.5,-2.793 0.648,-1.245 1.376,-1.508 4.507,-1.63 1.398,-0.054 3.344,-0.192 4.324,-0.308 a 71.6,71.6 0 0 1 4.087,-0.316 c 1.268,-0.058 2.871,-0.196 3.563,-0.305 0.692,-0.11 1.918,-0.2 2.725,-0.203 0.807,0 2.269,-0.095 3.249,-0.207 0.98,-0.112 3.18,-0.251 4.888,-0.31 1.71,-0.058 3.18,-0.15 3.27,-0.206 0.235,-0.145 3.541,-0.328 7.867,-0.434 5.527,-0.136 9.32,-0.29 12.166,-0.493 2.603,-0.187 2.93,-0.13 3.76,0.644 0.237,0.222 0.82,0.576 1.296,0.786 0.7,0.31 0.934,0.565 1.228,1.334 0.2,0.523 0.303,1.047 0.23,1.166 -0.074,0.118 -0.027,1.47 0.105,3.003 0.294,3.442 0.257,16.214 -0.05,16.786 -0.153,0.286 -0.145,0.473 0.027,0.643 0.287,0.283 0.934,-0.417 2.143,-2.316 0.929,-1.459 8.142,-9.403 10.324,-11.37 0.455,-0.41 1.448,-1.312 2.206,-2.004 a 64.363,64.363 0 0 1 2.106,-1.848 c 0.785,-0.637 6.392,-3.497 6.856,-3.497 0.154,0 0.634,-0.18 1.066,-0.4 2.63,-1.342 10.16,-3.267 13.536,-3.462 2.335,-0.134 8.916,-0.415 9.557,-0.407 2.102,0.025 6.649,0.367 7.86,0.592 0.807,0.15 1.938,0.284 2.515,0.297 0.576,0.013 1.708,0.168 2.515,0.344 0.807,0.176 1.934,0.413 2.505,0.528 1.46,0.293 6.452,2 7.709,2.637 0.578,0.293 1.9,1.115 2.938,1.827 a 327.8,327.8 0 0 0 2.875,1.95 c 0.543,0.363 2.016,1.708 3.273,2.99 2.054,2.095 2.483,2.675 4.244,5.735 2.748,4.773 5.986,11.425 6.953,14.283 0.538,1.59 0.528,2.182 -0.046,2.792 l -0.464,0.494 0.55,0.463 c 0.931,0.786 0.88,0.56 1.96,8.678 0.31,2.329 0.544,5.773 0.639,9.391 0.057,2.19 0.199,4.69 0.316,5.554 0.116,0.865 0.261,3.034 0.321,4.821 0.06,1.787 0.179,4.097 0.263,5.134 0.085,1.036 0.07,2.357 -0.03,2.934 -0.102,0.577 -0.222,4.162 -0.268,7.967 -0.045,3.804 -0.186,8.048 -0.312,9.432 -0.126,1.383 -0.276,4.024 -0.332,5.868 -0.057,1.845 -0.184,4.109 -0.282,5.03 -0.099,0.932 -0.096,3.494 0.01,5.765 0.102,2.248 0.233,7.624 0.29,11.947 0.18,13.347 0.38,16.504 1.097,17.448 0.11,0.145 0.368,0.718 0.574,1.273 0.396,1.073 1.71,2.515 3.16,3.467 0.463,0.304 1.17,0.806 1.572,1.114 0.542,0.416 1.08,0.597 2.093,0.701 0.749,0.077 1.692,0.218 2.096,0.314 0.403,0.095 2.515,0.235 4.692,0.31 2.178,0.076 4.17,0.218 4.428,0.316 0.257,0.098 0.669,0.503 0.914,0.9 0.543,0.878 0.569,1.966 0.121,4.983 -0.266,1.799 -0.428,2.316 -0.913,2.92 -1.066,1.328 -1.501,1.463 -5.076,1.574 -2.854,0.089 -6.245,0.311 -9.532,0.625 -1.191,0.114 -3.835,0.238 -9.306,0.436 -2.018,0.073 -3.999,0.164 -4.402,0.202 -0.403,0.038 -2.196,0.12 -3.982,0.18 a 323.56,323.56 0 0 0 -5.345,0.23 c -3.513,0.196 -17.428,0.252 -20.436,0.081 z m -330.119,-0.605 c -3.067,-0.233 -8.282,-0.802 -9.536,-1.04 a 59.84,59.84 0 0 0 -2.515,-0.4 c -2.162,-0.295 -12.983,-0.269 -16,0.04 -2.14,0.218 -2.652,0.215 -2.984,-0.017 -0.655,-0.459 -0.8,-0.926 -0.601,-1.94 a 5.34,5.34 0 0 0 -0.01,-1.883 42.357,42.357 0 0 1 -0.387,-2.41 c -0.18,-1.368 -0.16,-1.512 0.295,-2.121 0.64,-0.857 1.745,-1.127 4.636,-1.132 2.777,-0.007 4.902,-0.562 7.783,-2.035 1.475,-0.755 2.274,-1.334 3.259,-2.363 1.194,-1.246 1.364,-1.544 2.002,-3.498 0.438,-1.34 0.656,-2.355 0.584,-2.724 -0.146,-0.751 0.537,-1.906 1.228,-2.08 0.362,-0.09 0.56,-0.342 0.7,-0.89 0.511,-2 0.692,-3.181 0.602,-3.93 -0.054,-0.448 0.027,-1.664 0.18,-2.7 0.585,-3.965 0.343,-17.822 -0.445,-25.44 -0.618,-5.975 -0.724,-7.508 -0.765,-11.033 -0.087,-7.605 -0.01,-10.313 0.426,-15.09 0.216,-2.358 0.167,-9.405 -0.101,-14.693 -0.129,-2.53 -0.1,-3.055 0.195,-3.648 0.19,-0.381 0.346,-0.903 0.346,-1.16 0,-0.476 -0.441,-2.075 -0.968,-3.51 -0.304,-0.826 -0.731,-3.298 -1.231,-7.118 -0.326,-2.487 -1.357,-6.961 -2.017,-8.752 -0.234,-0.634 -0.692,-1.908 -1.018,-2.83 -0.858,-2.43 -1.192,-3.146 -1.95,-4.185 l -1.62,-2.231 c -1.318,-1.822 -2.288,-2.864 -3.143,-3.378 -0.404,-0.243 -1.347,-0.887 -2.096,-1.432 -1.826,-1.326 -3.78,-1.877 -6.616,-1.865 -1.145,0.007 -2.46,0.09 -2.92,0.188 -2.887,0.615 -7.56,2.37 -8.909,3.346 a 60.581,60.581 0 0 1 -2.131,1.452 c -3.043,1.97 -5.99,4.834 -8.984,8.734 -2.238,2.913 -6.072,8.502 -6.072,8.85 0,0.116 -0.179,0.438 -0.397,0.715 -0.535,0.681 -1.426,3.374 -1.585,4.792 -0.071,0.634 -0.218,1.53 -0.326,1.992 -1.503,6.422 -1.636,7.267 -1.779,11.318 -0.065,1.844 -0.197,3.92 -0.294,4.611 -0.096,0.692 -0.129,1.38 -0.071,1.53 0.103,0.271 -0.127,2.712 -0.697,7.378 -0.162,1.335 -0.289,4.187 -0.283,6.393 0.01,2.19 -0.103,4.69 -0.243,5.554 -0.436,2.704 -0.288,17.436 0.24,23.79 0.125,1.498 0.261,5.318 0.302,8.489 0.041,3.17 0.168,6.188 0.281,6.707 0.114,0.518 0.266,1.697 0.338,2.62 0.565,7.25 0.904,9.802 1.46,11.007 0.44,0.955 2.812,3.35 3.318,3.35 0.146,0 0.595,0.172 0.997,0.383 0.402,0.21 1.438,0.496 2.302,0.635 1.479,0.238 2.827,0.479 5.03,0.9 0.52,0.099 1.651,0.278 2.516,0.398 3.656,0.507 3.778,0.648 3.87,4.469 0.035,1.398 0.133,3.262 0.219,4.142 l 0.156,1.6 -0.728,0.24 c -0.4,0.132 -0.885,0.18 -1.076,0.106 -0.192,-0.074 -0.701,0.035 -1.133,0.24 -0.99,0.47 -5.623,0.539 -9.378,0.138 -4.764,-0.51 -9.874,-0.711 -18.654,-0.736 -7.144,-0.02 -9.297,0.04 -11.423,0.324 -1.441,0.192 -4.035,0.455 -5.764,0.583 a 594.9,594.9 0 0 0 -4.82,0.374 c -3.727,0.316 -21.433,-0.037 -22.218,-0.443 -0.668,-0.345 -0.93,-0.822 -0.937,-1.705 -0.01,-0.453 -0.098,-1.113 -0.21,-1.467 -1.028,-3.25 -1.075,-3.461 -0.864,-3.857 0.257,-0.48 0.672,-0.665 1.49,-0.665 0.33,0 0.86,-0.099 1.179,-0.22 0.32,-0.122 1.575,-0.356 2.79,-0.521 1.889,-0.257 2.492,-0.443 4.136,-1.276 1.501,-0.761 2.24,-1.007 3.354,-1.114 2.116,-0.205 2.95,-0.738 3.787,-2.423 0.764,-1.535 2.124,-8.525 2.259,-11.608 0.054,-1.224 0.19,-3.027 0.305,-4.007 0.615,-5.282 0.793,-11.673 0.856,-30.706 0.013,-3.918 -0.338,-10.898 -0.607,-12.052 -0.187,-0.805 -0.355,-6.284 -0.344,-11.214 0.01,-2.912 0.156,-4.592 1.036,-11.633 0.27,-2.162 0.283,-2.894 0.075,-4.192 -0.139,-0.864 -0.259,-3.65 -0.266,-6.191 -0.012,-4.099 -0.057,-4.686 -0.396,-5.203 -0.665,-1.016 -0.91,-2.223 -0.717,-3.545 0.17,-1.17 0.145,-1.276 -0.776,-3.144 -0.524,-1.063 -1.26,-2.5 -1.635,-3.192 a 59.641,59.641 0 0 1 -1.492,-3.04 c -1.642,-3.611 -3.794,-6.736 -4.818,-6.993 -0.275,-0.07 -0.844,-0.545 -1.264,-1.058 -1.587,-1.936 -4.608,-3.015 -9.667,-3.45 -1.351,-0.116 -2.183,-0.084 -2.934,0.113 -0.577,0.152 -1.252,0.277 -1.5,0.279 -0.714,0.007 -4.157,1.188 -5.039,1.732 -0.438,0.272 -1.718,0.955 -2.843,1.52 -2.442,1.224 -3.558,2.11 -5.07,4.02 -0.623,0.785 -1.905,2.136 -2.85,3 -0.944,0.865 -1.87,1.748 -2.059,1.963 -1.8,2.06 -3.155,3.726 -3.557,4.376 -0.925,1.497 -3.38,8.35 -3.384,9.45 0,0.327 -0.333,1.953 -0.737,3.614 -0.403,1.661 -0.735,3.47 -0.738,4.018 0,0.549 -0.15,1.988 -0.33,3.199 -0.179,1.21 -0.406,3.992 -0.504,6.183 -0.098,2.19 -0.226,4.265 -0.284,4.61 -0.158,0.949 -0.358,5.777 -0.434,10.48 -0.037,2.306 -0.136,5.325 -0.22,6.708 -0.085,1.413 -0.067,2.883 0.043,3.354 0.135,0.581 0.1,1.449 -0.111,2.83 -0.477,3.111 -0.542,16.216 -0.104,21.169 0.189,2.132 0.365,5.622 0.391,7.755 0.027,2.133 0.156,4.82 0.288,5.973 0.131,1.153 0.378,3.417 0.547,5.03 0.7,6.66 0.897,7.311 3.103,10.326 0.647,0.884 1.104,1.243 2.305,1.81 0.824,0.388 1.829,0.776 2.232,0.862 1.125,0.24 4.386,0.528 7.801,0.69 2.436,0.116 3.157,0.218 3.427,0.489 0.433,0.435 0.86,2.563 0.908,4.542 0.034,1.372 -0.03,1.652 -0.623,2.688 -0.364,0.636 -0.863,1.235 -1.11,1.33 -0.584,0.225 -8.407,0.936 -8.65,0.785 -0.104,-0.064 -1.271,0.01 -2.595,0.162 -4.313,0.498 -19.568,0.425 -25.463,-0.122 a 126.698,126.698 0 0 0 -4.401,-0.319 c -1.153,-0.058 -3.51,-0.181 -5.24,-0.275 -1.73,-0.094 -3.993,-0.12 -5.03,-0.058 -2.273,0.135 -4.438,0.13 -14.148,-0.03 -8.228,-0.137 -9.312,-0.285 -10.4,-1.42 l -0.569,-0.594 0.236,-2.363 c 0.13,-1.3 0.224,-2.656 0.21,-3.015 -0.015,-0.375 0.171,-0.93 0.44,-1.308 0.68,-0.955 2,-1.259 5.89,-1.358 5.03,-0.127 8.165,-1.136 9.558,-3.075 0.427,-0.595 0.999,-1.166 1.27,-1.27 0.445,-0.169 0.491,-0.312 0.491,-1.546 0,-0.749 0.136,-1.765 0.301,-2.259 0.213,-0.634 0.303,-1.916 0.306,-4.356 0.01,-4.41 0.202,-9.03 0.443,-10.375 0.103,-0.577 0.21,-2.416 0.24,-4.088 0.073,-4.255 -0.208,-18.852 -0.475,-24.67 -0.23,-5.005 -0.324,-27.806 -0.12,-29.301 0.152,-1.121 0.177,-14.23 0.038,-20.646 -0.26,-12.035 -0.296,-12.711 -0.827,-15.165 -0.877,-4.058 -1.226,-4.856 -3.17,-7.262 -0.98,-1.214 -1.363,-1.521 -2.355,-1.893 a 11.545,11.545 0 0 1 -2.237,-1.199 l -1.052,-0.756 -2.255,0.022 c -1.24,0.011 -2.584,0.13 -2.987,0.263 -1.497,0.494 -2.828,-0.37 -2.828,-1.837 0,-0.402 0.137,-1.592 0.305,-2.644 a 78.35,78.35 0 0 0 0.436,-3.128 c 0.12,-1.11 0.201,-1.267 0.95,-1.81 0.57,-0.412 1.188,-0.635 2.027,-0.731 0.665,-0.076 2.481,-0.316 4.038,-0.534 1.556,-0.218 3.63,-0.49 4.61,-0.606 0.98,-0.116 3.197,-0.405 4.926,-0.643 1.73,-0.237 4.182,-0.488 5.45,-0.557 1.268,-0.069 3.437,-0.314 4.82,-0.544 2.808,-0.467 6.768,-0.606 17.188,-0.6 3.573,0 7.008,-0.078 7.632,-0.177 0.971,-0.155 1.256,-0.116 1.987,0.266 0.723,0.379 0.875,0.576 0.992,1.284 0.092,0.56 0.024,1.15 -0.206,1.78 -0.287,0.786 -0.316,1.33 -0.173,3.25 0.168,2.264 0.204,4 0.132,6.497 -0.064,2.25 0.433,7.077 0.95,9.222 0.277,1.153 0.54,2.332 0.585,2.62 0.07,0.464 0.136,0.403 0.569,-0.524 0.268,-0.576 0.992,-1.82 1.608,-2.766 0.616,-0.945 1.12,-1.83 1.12,-1.97 0,-0.354 7.808,-8.067 9.327,-9.213 1.55,-1.17 2.973,-2.092 5.554,-3.6 3.838,-2.243 7.066,-3.472 12.491,-4.758 1.488,-0.352 3.31,-0.79 4.049,-0.97 2.938,-0.721 14.02,-0.917 17.835,-0.316 0.749,0.118 2.588,0.353 4.087,0.521 3.43,0.386 4.554,0.608 5.984,1.18 0.628,0.252 1.966,0.728 2.974,1.058 2.876,0.943 8.847,4.053 10.22,5.323 0.634,0.587 1.53,1.344 1.99,1.684 1.25,0.921 2.432,2.225 4.133,4.556 0.84,1.152 1.815,2.436 2.167,2.853 0.867,1.028 1.863,2.639 2.416,3.905 0.721,1.653 0.758,1.67 1.74,0.838 1.21,-1.028 1.32,-1.143 2.08,-2.192 0.371,-0.513 1.193,-1.341 1.826,-1.841 0.632,-0.5 1.658,-1.354 2.28,-1.897 0.622,-0.543 1.33,-1.125 1.572,-1.292 0.243,-0.167 0.549,-0.45 0.68,-0.63 0.13,-0.179 0.787,-0.702 1.46,-1.163 0.672,-0.46 1.744,-1.34 2.382,-1.954 0.638,-0.614 1.631,-1.427 2.208,-1.807 0.576,-0.38 1.613,-1.203 2.305,-1.829 1.571,-1.421 2.386,-1.993 3.096,-2.17 0.305,-0.078 0.66,-0.267 0.79,-0.422 0.128,-0.155 0.856,-0.49 1.618,-0.743 0.763,-0.254 1.675,-0.626 2.028,-0.828 0.353,-0.201 1.68,-0.664 2.948,-1.029 a 127.97,127.97 0 0 0 4.82,-1.52 c 2.671,-0.908 5.158,-1.415 6.98,-1.422 0.61,0 2.072,-0.246 3.248,-0.542 2.943,-0.74 6.367,-0.9 8.983,-0.42 1.078,0.198 2.761,0.505 3.741,0.683 0.98,0.178 2.442,0.494 3.249,0.703 0.807,0.208 2.363,0.533 3.458,0.722 2.884,0.498 6.114,1.267 7.05,1.68 5.53,2.439 7.922,4.162 12.233,8.811 3.37,3.634 4.703,5.715 5.13,8.01 0.082,0.432 0.422,1.432 0.757,2.222 0.336,0.79 0.61,1.568 0.61,1.728 0,0.16 0.32,1.116 0.71,2.126 0.819,2.121 1.716,5.115 2.014,6.725 0.113,0.614 0.253,1.192 0.31,1.285 0.058,0.092 0.247,1.187 0.422,2.432 0.175,1.245 0.412,2.554 0.526,2.907 0.114,0.354 0.354,3.237 0.534,6.407 0.18,3.17 0.469,6.849 0.643,8.175 0.175,1.325 0.395,3.088 0.49,3.918 0.177,1.554 0.075,3.353 -0.201,3.524 -0.086,0.053 -0.111,0.499 -0.057,0.99 0.055,0.492 -0.045,1.602 -0.221,2.467 -0.229,1.12 -0.267,1.843 -0.134,2.515 0.302,1.526 0.232,3.185 -0.19,4.518 -0.856,2.71 -1.078,4.304 -1.05,7.534 0.016,1.729 -0.09,4.067 -0.234,5.196 -0.152,1.189 -0.205,2.733 -0.126,3.668 0.075,0.889 0.19,2.465 0.257,3.502 0.067,1.038 0.23,3.537 0.363,5.555 a 65.86,65.86 0 0 1 0.057,7.545 c -0.102,2.133 -0.208,4.82 -0.236,5.974 -0.028,1.152 -0.159,4.03 -0.291,6.392 -0.169,3.008 -0.178,5.133 -0.032,7.083 0.15,1.989 0.14,3.418 -0.032,4.994 l -0.241,2.207 0.54,0.456 c 0.64,0.54 0.896,1.026 1.082,2.056 0.195,1.082 1.625,3.194 2.685,3.962 2.716,1.972 7.334,3.439 12.494,3.969 3.421,0.351 3.664,0.406 4.225,0.943 0.364,0.349 0.637,0.868 0.702,1.336 a 28.8,28.8 0 0 0 0.342,1.814 c 0.171,0.764 0.173,1.56 0.01,2.935 -0.327,2.718 -0.397,2.983 -0.962,3.655 l -0.51,0.607 -4.346,-0.098 c -2.39,-0.054 -4.722,-0.137 -5.183,-0.184 -0.989,-0.102 -6.548,-0.088 -7.755,0.02 -0.462,0.04 -4.376,0.116 -8.699,0.168 -4.323,0.05 -9.699,0.138 -11.947,0.194 -2.248,0.056 -5.078,0.026 -6.288,-0.066 z m -304.171,-0.573 c -0.772,-0.06 -1.095,-0.207 -1.488,-0.674 -0.43,-0.512 -0.518,-0.888 -0.62,-2.661 -0.064,-1.136 -0.22,-2.334 -0.348,-2.662 -0.376,-0.972 0.094,-2.183 1.017,-2.617 0.434,-0.203 0.774,-0.527 0.809,-0.77 0.033,-0.232 0.374,-0.635 0.757,-0.898 0.6,-0.411 0.817,-0.451 1.553,-0.286 0.522,0.118 1.574,0.116 2.705,-0.007 1.87,-0.2 2.158,-0.152 3.4,0.558 0.558,0.319 0.986,0.184 1.706,-0.536 0.236,-0.235 0.692,-0.403 1.097,-0.403 1.016,0 2.44,-0.769 3.359,-1.812 0.442,-0.502 0.92,-0.913 1.061,-0.913 0.493,0 1.362,-1.164 2.209,-2.957 0.468,-0.992 0.852,-2.036 0.852,-2.32 0,-0.284 0.132,-0.98 0.295,-1.55 0.162,-0.568 0.356,-2.118 0.432,-3.443 0.075,-1.326 0.286,-3.967 0.467,-5.869 0.2,-2.109 0.355,-6.24 0.396,-10.585 0.037,-3.92 0.164,-9.248 0.284,-11.842 0.12,-2.594 0.177,-5.376 0.125,-6.183 -0.174,-2.707 -0.428,-22.355 -0.38,-29.344 0.027,-4.009 0.152,-7.578 0.294,-8.489 0.345,-2.199 0.323,-17.505 -0.029,-20.263 -0.237,-1.864 -0.228,-2.145 0.09,-2.76 0.224,-0.433 0.296,-0.85 0.198,-1.144 -0.225,-0.67 -0.245,-5.84 -0.03,-7.797 0.101,-0.922 0.229,-9.835 0.283,-19.807 0.054,-9.972 0.13,-18.508 0.166,-18.969 0.063,-0.79 -0.211,-8.621 -0.381,-10.899 -0.088,-1.186 -0.232,-4.088 -0.517,-10.485 -0.179,-4.01 -0.252,-4.58 -0.82,-6.344 -0.418,-1.303 -0.853,-2.201 -1.325,-2.741 a 36.42,36.42 0 0 1 -1.248,-1.52 c -0.426,-0.557 -0.844,-0.8 -1.887,-1.097 -0.737,-0.21 -1.575,-0.46 -1.864,-0.555 a 9.905,9.905 0 0 0 -1.187,-0.287 c -0.364,-0.062 -1.528,-0.452 -2.587,-0.866 l -1.924,-0.752 -1.892,0.212 c -1.983,0.221 -2.648,0.08 -3.297,-0.703 -0.15,-0.18 -0.501,-0.328 -0.78,-0.328 -0.996,0 -1.472,-0.799 -1.636,-2.743 -0.082,-0.97 -0.235,-2.166 -0.34,-2.657 -0.246,-1.14 0.163,-2.202 1.018,-2.644 0.363,-0.188 1.498,-0.369 2.793,-0.445 3.135,-0.185 7.126,-0.678 9.308,-1.152 2.813,-0.61 7.447,-1.208 12.157,-1.57 2.306,-0.177 4.743,-0.43 5.415,-0.56 0.759,-0.147 2.258,-0.192 3.942,-0.117 1.716,0.076 3.81,0.011 5.676,-0.176 4.18,-0.42 14.107,-0.457 15.88,-0.06 0.52,0.117 1.301,0.261 1.735,0.321 0.486,0.068 0.937,0.3 1.178,0.605 0.364,0.464 0.386,0.938 0.334,7.366 -0.03,3.78 -0.164,7.625 -0.296,8.548 -0.155,1.076 -0.225,4.492 -0.197,9.536 0.024,4.323 -0.02,8.285 -0.098,8.804 -0.078,0.518 -0.182,1.77 -0.232,2.781 a 44.935,44.935 0 0 1 -0.305,3.354 c -0.73,5.145 -1.17,17.511 -0.84,23.577 0.124,2.276 0.224,5.263 0.223,6.638 0,2.032 0.071,2.644 0.39,3.269 0.347,0.68 0.403,1.449 0.496,6.722 0.058,3.274 0.211,6.507 0.342,7.184 0.146,0.756 0.252,4.234 0.275,9.013 0.034,7.064 -0.033,10.383 -0.386,19.31 -0.063,1.614 -0.157,4.02 -0.206,5.345 -0.05,1.326 -0.189,3.118 -0.309,3.982 -0.579,4.164 -0.616,14.73 -0.122,34.689 0.268,10.798 0.32,18.065 0.136,18.832 -0.107,0.443 -0.407,1.033 -0.668,1.311 l -0.475,0.505 0.613,0.64 0.614,0.64 0.144,3.603 c 0.201,5.014 0.318,5.765 1.272,8.214 0.82,2.106 1.31,2.88 2.644,4.177 2.605,2.534 8.413,4.767 11.452,4.404 1.959,-0.235 2.922,-0.179 3.506,0.204 1.029,0.674 1.571,1.788 2.042,4.192 l 0.448,2.287 -0.473,0.89 c -0.288,0.544 -0.742,1.02 -1.166,1.222 -0.704,0.336 -4.378,0.703 -8.654,0.866 -1.21,0.046 -2.672,0.148 -3.249,0.227 -1.325,0.181 -1.992,0.227 -7.126,0.49 -2.306,0.117 -4.603,0.312 -5.106,0.432 -0.58,0.138 -3.442,0.183 -7.86,0.124 -3.82,-0.052 -8.69,0.01 -10.824,0.122 -2.132,0.12 -6.612,0.24 -9.956,0.268 -3.343,0.028 -7.446,0.162 -9.117,0.3 -6.57,0.536 -8.392,0.634 -11.318,0.605 -1.672,-0.016 -3.483,-0.066 -4.026,-0.108 z m -741.566,5.2 c -0.288,-0.043 -1.703,-0.162 -3.144,-0.265 -2.288,-0.164 -6.263,-0.795 -11.214,-1.781 a 22.043,22.043 0 0 1 -2.83,-0.803 25.99,25.99 0 0 0 -2.514,-0.785 c -0.634,-0.151 -1.72,-0.583 -2.41,-0.96 -0.693,-0.378 -2.013,-0.87 -2.935,-1.095 -0.922,-0.225 -2.384,-0.754 -3.249,-1.177 -2.7,-1.32 -5.587,-2.928 -6.237,-3.474 -0.343,-0.288 -1.179,-0.88 -1.857,-1.314 -2.583,-1.655 -4.518,-3.06 -5.684,-4.126 a 408.512,408.512 0 0 0 -2.646,-2.391 c -2.189,-1.959 -2.592,-2.392 -3.115,-3.343 -0.31,-0.564 -0.857,-1.103 -1.527,-1.507 -0.574,-0.346 -1.469,-1.083 -1.988,-1.639 a 84.21,84.21 0 0 0 -2.393,-2.41 c -1.663,-1.609 -3.376,-4.093 -3.691,-5.355 -0.361,-1.444 -0.733,-2.085 -2.21,-3.817 -1.72,-2.015 -3.229,-4.283 -4.218,-6.34 -0.785,-1.63 -0.775,-1.516 -0.438,-5.172 0.053,-0.576 0.01,-0.623 -0.53,-0.56 -1.512,0.178 -2.393,-2.145 -1.937,-5.109 0.142,-0.92 0.091,-1.195 -0.387,-2.11 -0.367,-0.701 -0.611,-1.606 -0.733,-2.715 -0.1,-0.914 -0.335,-2.21 -0.522,-2.878 -0.187,-0.668 -0.34,-1.476 -0.34,-1.796 0,-0.319 -0.186,-1.28 -0.414,-2.138 -0.228,-0.857 -0.417,-2.03 -0.42,-2.606 0,-0.576 -0.185,-2.274 -0.403,-3.772 -0.627,-4.303 -0.758,-9.111 -0.335,-12.36 0.195,-1.494 0.301,-3.05 0.236,-3.458 -0.065,-0.407 0.02,-1.637 0.187,-2.732 0.167,-1.095 0.305,-2.615 0.307,-3.378 0,-0.762 0.23,-2.413 0.506,-3.668 0.276,-1.254 0.56,-3.125 0.633,-4.156 0.098,-1.4 0.344,-2.487 0.97,-4.297 a 226.849,226.849 0 0 0 1.54,-4.622 c 0.736,-2.32 1.619,-4.84 2.505,-7.154 0.53,-1.385 4.587,-8.962 5.652,-10.558 1.372,-2.055 4.335,-5.99 5.288,-7.021 0.372,-0.404 0.93,-1.141 1.238,-1.64 0.973,-1.572 3.648,-4.166 6.364,-6.17 1.443,-1.065 3.01,-2.277 3.48,-2.694 1.748,-1.544 4.87,-3.431 9.346,-5.648 2.495,-1.236 5.813,-2.481 7.231,-2.715 1.733,-0.285 4.06,-0.82 6.498,-1.491 3.565,-0.983 3.594,-0.988 6.676,-1.229 1.597,-0.124 3.624,-0.366 4.506,-0.537 1.122,-0.217 2.895,-0.304 5.9,-0.29 2.364,0.011 5.24,-0.086 6.393,-0.216 3.463,-0.389 10.292,-0.238 12.89,0.284 0.865,0.174 2.186,0.549 2.935,0.832 0.75,0.284 2.636,0.99 4.192,1.568 1.556,0.578 3.468,1.338 4.248,1.688 0.78,0.35 1.771,0.732 2.202,0.848 0.43,0.116 1.443,0.647 2.25,1.18 0.806,0.533 1.654,1.044 1.885,1.134 1.178,0.463 4.938,3.179 6.707,4.845 a 17.74,17.74 0 0 0 2.231,1.734 c 1.186,0.748 3.756,3.568 4.89,5.365 0.31,0.492 1.257,1.673 2.104,2.625 1.735,1.95 2.086,2.856 1.471,3.795 -0.195,0.298 -0.323,0.563 -0.285,0.59 0.038,0.028 0.446,0.188 0.907,0.356 0.634,0.232 1.131,0.69 2.036,1.872 0.659,0.86 1.26,1.745 1.335,1.967 0.075,0.221 0.443,0.881 0.815,1.467 1.337,2.104 2.804,5.076 3.266,6.619 0.26,0.865 0.75,2.327 1.089,3.249 0.34,0.922 0.804,2.426 1.033,3.342 0.23,0.916 0.645,2.116 0.925,2.668 1.17,2.31 1.382,3.124 1.463,5.623 0.057,1.78 0.247,3.095 0.724,5.03 0.932,3.781 1.106,5.362 0.934,8.489 a 271.397,271.397 0 0 0 -0.204,4.32 c -0.077,2.27 -0.367,3.012 -1.322,3.392 -1.135,0.453 -7.506,0.902 -11.57,0.816 -0.865,-0.019 -3.93,-0.025 -6.812,-0.013 -2.882,0.011 -5.476,0.018 -5.764,0.015 -0.288,0 -3.023,-0.027 -6.078,-0.052 -3.055,-0.025 -6.403,-0.15 -7.441,-0.28 -1.134,-0.14 -3.056,-0.18 -4.82,-0.1 -1.634,0.075 -3.632,0.042 -4.507,-0.074 -1.74,-0.232 -12.827,-0.359 -15.3,-0.176 -0.865,0.064 -2.563,0.05 -3.774,-0.031 -16.338,-1.096 -26.43,-1.52 -27.704,-1.162 -0.426,0.12 -0.716,0.485 -1.205,1.52 -0.596,1.26 -0.644,1.533 -0.644,3.643 0,1.4 0.118,2.676 0.307,3.301 0.168,0.56 0.44,1.68 0.602,2.487 0.162,0.807 0.55,2.269 0.864,3.249 0.386,1.207 0.604,2.424 0.675,3.773 0.071,1.343 0.278,2.502 0.636,3.563 0.467,1.384 0.526,1.888 0.498,4.221 -0.024,1.988 0.052,2.877 0.306,3.563 0.186,0.503 0.42,1.368 0.52,1.922 a 3.69,3.69 0 0 0 0.84,1.759 c 0.593,0.674 0.646,0.842 0.523,1.66 l -0.136,0.909 0.807,0.13 c 0.595,0.094 0.93,0.306 1.27,0.803 0.254,0.37 0.462,0.766 0.462,0.88 0,0.278 1.652,4.306 1.878,4.58 0.265,0.32 1.056,2.467 1.056,2.865 0,0.188 0.134,0.451 0.296,0.586 0.163,0.135 0.702,1.208 1.198,2.384 0.58,1.374 1.223,2.502 1.8,3.157 0.494,0.56 0.899,1.098 0.899,1.196 0,0.483 1.365,2.027 4.807,5.434 2.078,2.057 4.227,4.1 4.777,4.54 0.55,0.441 1.564,1.303 2.254,1.916 1.525,1.356 5.182,3.257 7.411,3.853 2.16,0.578 6.706,0.727 9.57,0.315 2.539,-0.366 6.968,-1.344 10.795,-2.385 2.491,-0.677 4.008,-1.176 7.771,-2.556 2.32,-0.851 8.194,-5.385 11.413,-8.807 0.804,-0.855 2.142,-2.27 2.973,-3.144 0.831,-0.875 1.963,-2.175 2.515,-2.89 3.434,-4.451 4.08,-5.374 4.891,-6.98 1.252,-2.48 2.135,-3.353 3.392,-3.353 0.268,0 0.715,-0.16 0.994,-0.354 0.76,-0.533 1.784,-0.361 3.103,0.52 1.658,1.107 2.764,1.657 3.619,1.798 0.44,0.073 0.992,0.383 1.352,0.76 0.564,0.588 0.611,0.76 0.62,2.257 0.01,1.395 -0.063,1.728 -0.514,2.388 -0.288,0.421 -0.882,1.411 -1.32,2.2 -1.771,3.192 -2.805,4.877 -3.527,5.753 -0.418,0.507 -0.907,1.213 -1.087,1.568 -0.18,0.355 -0.876,1.268 -1.546,2.029 -0.67,0.76 -1.595,1.871 -2.056,2.469 a 14.733,14.733 0 0 1 -1.887,1.952 c -0.576,0.477 -2.646,2.455 -4.599,4.397 -3.44,3.42 -6.33,5.748 -8.5,6.846 -0.52,0.262 -1.237,0.732 -1.594,1.043 -0.358,0.312 -1.112,0.784 -1.677,1.05 a 643.04,643.04 0 0 0 -4.066,1.946 c -1.671,0.804 -3.51,1.627 -4.087,1.829 -0.576,0.201 -1.52,0.644 -2.096,0.985 -1.501,0.887 -3.985,1.712 -6.183,2.054 -0.519,0.08 -1.689,0.336 -2.6,0.568 -0.91,0.232 -1.955,0.373 -2.321,0.314 -0.366,-0.06 -1.224,0.023 -1.907,0.184 -0.683,0.16 -2.178,0.293 -3.321,0.295 -1.144,0 -2.842,0.137 -3.773,0.301 -1.616,0.285 -8.032,0.567 -9.134,0.402 z m -17.082,-96.69 c 7.854,-0.303 8.496,-0.308 14.881,-0.1 10.36,0.336 18.066,0.204 25.032,-0.428 2.009,-0.183 3.768,-0.288 3.91,-0.233 0.14,0.054 0.403,-0.013 0.583,-0.15 0.482,-0.364 0.9,-3.469 0.727,-5.382 a 135.3,135.3 0 0 1 -0.253,-3.458 c -0.061,-1.038 -0.347,-3.113 -0.636,-4.612 -0.29,-1.498 -0.676,-3.526 -0.86,-4.506 a 39.341,39.341 0 0 0 -0.733,-3.144 c -0.22,-0.75 -0.69,-2.674 -1.045,-4.277 -0.355,-1.602 -0.711,-3.017 -0.793,-3.143 -0.17,-0.266 -0.53,-1.212 -1.083,-2.85 -0.604,-1.791 -4.4,-9.045 -5.7,-10.893 -0.742,-1.055 -3.289,-3.15 -5.074,-4.173 -0.478,-0.275 -1.2,-0.712 -1.604,-0.973 -0.403,-0.26 -1.225,-0.533 -1.826,-0.607 -0.602,-0.074 -1.592,-0.367 -2.201,-0.65 -0.61,-0.284 -1.3,-0.517 -1.536,-0.518 -0.235,0 -0.99,-0.15 -1.676,-0.333 -1.04,-0.275 -1.443,-0.288 -2.402,-0.08 -1.767,0.382 -2.487,0.622 -4.192,1.397 -2.575,1.17 -2.779,1.287 -4.025,2.32 -1.275,1.056 -1.847,1.444 -4.418,2.992 -2.51,1.512 -3.923,2.957 -5.432,5.556 -0.531,0.916 -1.034,1.995 -1.117,2.398 -0.083,0.404 -0.423,1.274 -0.755,1.934 -0.331,0.66 -0.835,1.886 -1.119,2.725 -0.283,0.839 -1.045,2.987 -1.692,4.773 -1.702,4.702 -3.581,12.358 -4.192,17.083 -0.574,4.436 -0.616,4.928 -0.618,7.231 v 2.2 l 1.572,0.122 c 0.864,0.066 1.807,0.093 2.096,0.06 0.288,-0.035 3.07,-0.16 6.183,-0.28 z M 222.646,229.76 c -0.044,-0.04 -1.306,-0.135 -2.804,-0.21 -2.548,-0.126 -7.236,-0.904 -10.166,-1.686 -0.634,-0.17 -2.945,-0.643 -5.135,-1.052 -2.19,-0.41 -4.407,-0.877 -4.926,-1.04 -3.236,-1.013 -3.377,-1.033 -7.545,-1.057 -5.12,-0.031 -9.746,0.282 -11.947,0.809 -0.288,0.069 -1.354,0.32 -2.368,0.557 -1.014,0.238 -2.147,0.576 -2.516,0.753 -1.076,0.513 -1.65,0.158 -2.425,-1.498 -0.68,-1.454 -0.797,-2.167 -0.457,-2.801 0.37,-0.69 1.036,-4.512 1.247,-7.147 0.115,-1.441 0.312,-4.224 0.437,-6.183 0.125,-1.96 0.413,-6.289 0.64,-9.62 0.226,-3.33 0.414,-7.103 0.418,-8.383 0.004,-1.28 0.083,-2.942 0.175,-3.69 0.093,-0.75 0.107,-2.306 0.033,-3.46 -0.075,-1.152 -0.06,-2.755 0.035,-3.562 0.105,-0.903 0.083,-2.132 -0.058,-3.193 -0.21,-1.58 -0.195,-1.784 0.181,-2.41 0.227,-0.377 0.473,-0.943 0.547,-1.258 0.182,-0.774 0.964,-1.125 2.853,-1.282 0.865,-0.071 2.61,-0.28 3.878,-0.464 5.06,-0.734 5.72,-0.254 6.305,4.586 0.593,4.908 0.71,5.706 1.01,6.955 0.167,0.692 0.37,2.2 0.452,3.354 0.082,1.152 0.28,2.356 0.441,2.674 0.162,0.318 0.529,1.497 0.816,2.62 0.524,2.044 1.863,5.123 2.872,6.602 0.33,0.482 0.632,1.347 0.78,2.229 0.256,1.512 0.905,2.783 3.09,6.041 1.681,2.51 1.873,2.718 3.463,3.746 0.817,0.529 1.937,1.35 2.49,1.827 0.922,0.794 1.763,1.318 4.376,2.727 0.519,0.28 1.65,0.725 2.515,0.99 0.865,0.265 1.935,0.66 2.378,0.88 0.649,0.321 1.058,0.372 2.096,0.263 1.21,-0.127 3.026,0.092 6.11,0.738 0.577,0.12 2.746,0.259 4.821,0.307 3.537,0.083 4.211,0.034 8.175,-0.593 1.377,-0.218 3.807,-0.815 4.401,-1.08 0.346,-0.156 1.525,-0.651 2.62,-1.102 2.455,-1.01 3.65,-1.745 5.078,-3.12 1.245,-1.2 2.456,-3.424 2.951,-5.418 0.172,-0.692 0.462,-1.777 0.646,-2.41 0.38,-1.316 0.458,-5.323 0.14,-7.145 -0.11,-0.624 -0.297,-1.803 -0.416,-2.62 -0.224,-1.537 -1.13,-4.49 -1.601,-5.222 -0.149,-0.23 -0.66,-1.315 -1.137,-2.41 -0.477,-1.096 -1.127,-2.322 -1.443,-2.725 a 40.07,40.07 0 0 1 -1.274,-1.759 c -0.804,-1.18 -3.134,-3.448 -4.946,-4.817 l -1.77,-1.336 c -0.289,-0.217 -1.279,-0.8 -2.201,-1.297 -0.922,-0.497 -1.866,-1.072 -2.096,-1.278 -0.467,-0.418 -7.665,-4.06 -8.489,-4.295 -0.288,-0.083 -2.11,-0.936 -4.05,-1.897 -1.94,-0.961 -3.732,-1.81 -3.983,-1.888 -0.25,-0.078 -1.116,-0.452 -1.923,-0.832 a 40.735,40.735 0 0 0 -2.41,-1.043 c -0.519,-0.194 -1.368,-0.517 -1.887,-0.718 -0.518,-0.2 -1.132,-0.434 -1.362,-0.519 -0.23,-0.085 -1.22,-0.515 -2.2,-0.957 -0.98,-0.441 -2.151,-0.917 -2.602,-1.058 -0.45,-0.14 -1.347,-0.516 -1.991,-0.834 a 60.021,60.021 0 0 0 -2.43,-1.118 c -1.941,-0.832 -8.249,-4.11 -10.144,-5.27 -3.074,-1.883 -4.162,-2.768 -7.468,-6.072 -1.964,-1.963 -3.962,-4.088 -4.439,-4.722 -2.044,-2.72 -4.526,-8.35 -5.097,-11.565 -0.096,-0.54 -0.414,-1.884 -0.708,-2.989 -0.295,-1.105 -0.734,-3.352 -0.978,-4.993 -0.38,-2.556 -0.422,-3.498 -0.3,-6.549 0.172,-4.27 0.308,-5.456 1.033,-8.996 0.742,-3.628 2.211,-7.894 3.687,-10.706 1.966,-3.748 2.314,-4.367 2.845,-5.069 0.278,-0.367 0.505,-0.724 0.505,-0.793 0,-0.07 0.62,-0.948 1.376,-1.953 2.348,-3.118 6.752,-6.904 9.748,-8.38 1.645,-0.81 4.716,-1.99 6.168,-2.367 0.346,-0.09 1.525,-0.414 2.62,-0.72 1.095,-0.305 2.51,-0.647 3.144,-0.759 0.634,-0.112 1.624,-0.295 2.2,-0.406 2.994,-0.577 9.305,-1.526 11.424,-1.719 1.325,-0.12 6.089,-0.21 10.584,-0.2 9.026,0.02 10.536,0.16 18.55,1.728 a 70.96,70.96 0 0 0 3.668,0.618 c 0.807,0.103 2.363,0.333 3.458,0.51 1.597,0.26 2.44,0.282 4.252,0.113 1.243,-0.115 2.61,-0.345 3.04,-0.51 0.428,-0.165 1.517,-0.449 2.42,-0.63 0.903,-0.18 2.082,-0.552 2.62,-0.824 0.996,-0.504 1.489,-0.658 4.172,-1.304 1.417,-0.341 1.566,-0.343 2.244,-0.02 1.172,0.56 1.458,1.366 1.278,3.603 -0.084,1.042 -0.19,5.857 -0.235,10.698 -0.046,4.842 -0.166,9.464 -0.267,10.27 -0.102,0.808 -0.118,2.175 -0.037,3.04 0.088,0.94 0.043,2.371 -0.111,3.563 a 165.46,165.46 0 0 0 -0.491,4.402 2150.7,2150.7 0 0 1 -0.546,5.554 c -0.173,1.73 -0.314,4.354 -0.313,5.832 0,2.669 0,2.693 -0.59,3.279 -1.094,1.094 -3.972,1.383 -9.052,0.908 -1.325,-0.124 -2.834,-0.383 -3.353,-0.577 a 41.792,41.792 0 0 0 -1.285,-0.46 c -0.414,-0.133 -0.811,-0.95 -0.811,-1.67 0,-0.29 -0.1,-0.714 -0.221,-0.941 -0.122,-0.228 -0.261,-1.627 -0.31,-3.11 -0.048,-1.484 -0.177,-3.107 -0.287,-3.608 -0.11,-0.5 -0.264,-1.712 -0.342,-2.692 -0.111,-1.404 -0.337,-2.268 -1.063,-4.076 -0.506,-1.262 -0.921,-2.414 -0.921,-2.561 0,-0.147 -0.184,-0.624 -0.41,-1.06 -0.224,-0.435 -0.516,-1.264 -0.648,-1.84 -0.132,-0.576 -0.436,-1.425 -0.677,-1.886 -0.603,-1.157 -0.84,-1.642 -1.712,-3.5 -1.096,-2.336 -4.099,-5.94 -6.359,-7.63 a 74.202,74.202 0 0 1 -1.828,-1.41 c -1.062,-0.864 -3.253,-1.974 -5.664,-2.868 -3.603,-1.337 -5.763,-1.834 -8.797,-2.024 -3.368,-0.212 -4.006,-0.204 -7.022,0.09 -2.513,0.246 -3.835,0.595 -7.065,1.868 -1.812,0.714 -2.068,0.896 -4.213,2.982 -2.2,2.14 -2.329,2.316 -3.548,4.841 -0.695,1.441 -1.381,2.998 -1.524,3.459 -0.143,0.46 -0.586,1.498 -0.984,2.305 -0.986,1.997 -1.3,3.296 -1.443,5.954 -0.106,1.99 -0.053,2.545 0.448,4.65 0.644,2.704 1.106,3.785 2.33,5.44 1.08,1.464 3.278,3.657 4.366,4.358 0.462,0.297 1.93,1.261 3.265,2.143 1.335,0.882 3.055,1.954 3.824,2.384 0.768,0.43 1.45,0.868 1.515,0.974 0.066,0.106 0.28,0.192 0.474,0.192 0.196,0 1.154,0.47 2.13,1.044 0.975,0.574 2.295,1.228 2.933,1.452 5.439,1.914 13.353,5.538 15.952,7.306 0.856,0.582 2.925,1.759 4.596,2.615 6.703,3.431 10.008,5.232 11.047,6.02 0.6,0.454 1.402,0.987 1.782,1.183 0.38,0.196 1.617,1.05 2.75,1.896 1.134,0.847 2.139,1.54 2.234,1.54 0.095,0 0.938,0.613 1.874,1.363 0.935,0.749 1.763,1.362 1.84,1.362 0.52,0 5.023,3.37 6.255,4.681 5.807,6.186 6.898,7.894 9.943,15.565 0.096,0.242 0.43,1.69 0.743,3.22 0.53,2.598 0.56,3.026 0.453,6.478 -0.091,2.91 -0.227,4.165 -0.637,5.897 -2.034,8.589 -3.132,11.634 -5.456,15.134 -0.723,1.088 -1.864,3.057 -2.536,4.374 -3.183,6.238 -6.67,10.031 -12.476,13.574 -3.421,2.087 -6.177,3.573 -7.86,4.24 -0.922,0.365 -1.775,0.742 -1.894,0.838 -0.12,0.096 -1.063,0.453 -2.096,0.794 -1.033,0.34 -2.822,0.963 -3.975,1.384 -2.192,0.8 -2.658,0.923 -6.078,1.595 -3.586,0.705 -7.196,1.03 -11.359,1.025 -2.196,0 -4.028,-0.038 -4.072,-0.08 z m -104.857,-0.926 c -0.628,-0.142 -0.824,-0.366 -1.169,-1.339 -0.189,-0.533 -0.265,-0.565 -1.1,-0.452 -0.674,0.092 -1.255,-0.013 -2.337,-0.422 -1.123,-0.424 -1.814,-0.543 -3.144,-0.54 -1.651,0 -3.04,-0.307 -5.55,-1.238 -1.57,-0.582 -3.237,-2.727 -3.763,-4.844 -0.765,-3.075 -1.29,-5.488 -1.418,-6.498 -0.08,-0.634 -0.335,-1.577 -0.569,-2.096 -0.244,-0.542 -0.467,-1.588 -0.525,-2.462 -0.055,-0.836 -0.177,-1.52 -0.27,-1.52 -0.23,0 -2.268,2.038 -5.305,5.305 -1.37,1.473 -3.067,3.118 -3.772,3.654 a 49.937,49.937 0 0 0 -2.525,2.089 c -2.427,2.172 -9.65,6 -12.8,6.782 -0.577,0.144 -1.165,0.351 -1.308,0.461 -0.293,0.227 -4.065,1.286 -6.133,1.722 -5.31,1.12 -12.857,1.712 -14.882,1.166 -1.05,-0.283 -4.783,-0.844 -7.23,-1.087 -2.823,-0.28 -8.255,-1.493 -10.062,-2.245 -4.569,-1.902 -8.006,-4.653 -12.9,-10.325 -2.027,-2.35 -4.392,-5.71 -4.392,-6.241 0,-0.107 -0.292,-0.84 -0.65,-1.628 a 40.453,40.453 0 0 1 -1.025,-2.483 c -0.206,-0.576 -0.773,-1.944 -1.26,-3.039 a 38.91,38.91 0 0 1 -1.495,-4.087 c -1.296,-4.457 -1.158,-3.874 -1.872,-7.965 -0.587,-3.358 -0.376,-9.192 0.46,-12.785 1.391,-5.969 3.587,-10.67 7.052,-15.091 1.727,-2.204 6.32,-6.563 8.222,-7.804 0.98,-0.64 2.16,-1.42 2.62,-1.735 0.461,-0.316 1.876,-1.102 3.144,-1.747 1.268,-0.645 2.542,-1.308 2.83,-1.474 2.353,-1.356 8.652,-3.812 12.366,-4.823 0.634,-0.172 2.38,-0.647 3.878,-1.056 a 456.16,456.16 0 0 1 4.716,-1.256 c 1.095,-0.282 2.51,-0.652 3.144,-0.822 0.634,-0.17 2.049,-0.463 3.144,-0.652 1.095,-0.19 2.604,-0.527 3.353,-0.75 0.75,-0.225 2.08,-0.5 2.957,-0.614 0.877,-0.113 1.82,-0.29 2.096,-0.393 0.276,-0.103 0.958,-0.255 1.516,-0.337 a 46.27,46.27 0 0 0 1.452,-0.233 c 0.24,-0.046 1.198,-0.182 2.13,-0.301 a 115.7,115.7 0 0 0 2.95,-0.42 c 3.704,-0.595 7.384,-0.854 13.158,-0.924 4.442,-0.055 4.128,0.06 5.227,-1.907 1.144,-2.05 1.276,-3.244 1.111,-10.109 -0.08,-3.317 -0.229,-6.974 -0.332,-8.126 -0.532,-5.952 -0.646,-8.25 -0.556,-11.214 0.123,-4.073 -0.147,-7.57 -0.673,-8.698 -0.467,-1.003 -1,-2.317 -1.912,-4.716 -0.618,-1.624 -1.485,-3.154 -2.45,-4.324 -0.203,-0.246 -1.454,-1.011 -2.78,-1.701 -2.216,-1.154 -2.62,-1.289 -5.03,-1.678 -3.176,-0.513 -7.481,-0.602 -9.536,-0.197 -0.807,0.159 -1.995,0.54 -2.64,0.845 -0.646,0.307 -1.502,0.557 -1.903,0.557 -0.496,0 -1.057,0.234 -1.76,0.734 -0.568,0.403 -1.127,0.737 -1.242,0.742 -0.423,0.019 -1.957,1.595 -2.698,2.773 -0.419,0.665 -0.761,1.265 -0.761,1.333 0,0.068 -0.418,1.083 -0.93,2.256 -0.51,1.173 -1.066,2.507 -1.235,2.964 a 138.83,138.83 0 0 1 -1.022,2.612 c -0.393,0.98 -0.88,2.584 -1.084,3.564 -0.203,0.98 -0.513,2.394 -0.687,3.144 -0.174,0.749 -0.397,2.73 -0.495,4.401 -0.149,2.533 -0.282,3.336 -0.8,4.821 -0.904,2.592 -1.172,3.15 -2.11,4.4 -1.177,1.566 -4.443,3.774 -5.581,3.774 -0.19,0 -1.02,0.23 -1.846,0.512 -0.826,0.281 -2.021,0.617 -2.655,0.745 -0.634,0.129 -1.719,0.347 -2.41,0.484 -0.754,0.15 -2.979,0.242 -5.555,0.23 l -4.297,-0.02 -3.353,-0.883 c -1.845,-0.486 -3.507,-0.995 -3.694,-1.132 -3.8,-2.784 -5.87,-5.369 -7.018,-8.762 -0.43,-1.272 -0.502,-1.883 -0.502,-4.278 0,-2.638 0.037,-2.885 0.655,-4.434 0.894,-2.242 1.514,-3.445 2.788,-5.413 0.598,-0.922 1.152,-1.818 1.232,-1.99 0.153,-0.334 1.337,-2.144 2.283,-3.492 0.697,-0.994 4.58,-5.008 6.561,-6.783 2.273,-2.036 6.448,-5.027 7.018,-5.027 0.18,0 0.657,-0.224 1.061,-0.5 0.405,-0.274 1.565,-0.842 2.58,-1.262 1.014,-0.42 2.05,-0.894 2.3,-1.053 0.25,-0.16 1.257,-0.548 2.237,-0.864 0.98,-0.316 2.442,-0.803 3.25,-1.083 0.806,-0.28 2.73,-0.832 4.277,-1.229 2.346,-0.602 3.026,-0.699 4.118,-0.587 1.027,0.106 1.773,0.02 3.477,-0.4 1.194,-0.294 2.453,-0.597 2.799,-0.675 1.04,-0.232 6.885,-0.915 10.794,-1.262 2.018,-0.179 4.376,-0.4 5.24,-0.493 2.946,-0.315 9.469,-0.285 11.139,0.05 0.848,0.17 2.344,0.372 3.324,0.447 0.98,0.075 2.082,0.23 2.45,0.344 0.507,0.158 0.815,0.131 1.28,-0.109 1.01,-0.522 5.31,0.05 7.402,0.985 0.621,0.277 1.931,0.762 2.91,1.077 0.98,0.315 3.103,1.217 4.717,2.004 1.614,0.787 3.17,1.5 3.458,1.584 0.7,0.205 1.972,1.019 3.229,2.066 2.036,1.696 5.695,5.224 6.43,6.2 a 85.91,85.91 0 0 0 1.492,1.913 c 1.14,1.41 3.877,7.153 4.239,8.893 0.169,0.813 0.46,1.927 0.646,2.477 0.678,1.996 1.39,6.124 1.453,8.411 0.021,0.807 0.161,1.692 0.31,1.967 0.267,0.49 0.34,1.854 0.818,15.22 0.18,5.024 0.124,17.375 -0.081,17.92 -0.153,0.408 -0.276,5.34 -0.401,16.14 a 3086.24,3086.24 0 0 1 -0.247,16.663 c -0.247,13.43 -0.083,27.669 0.34,29.756 0.658,3.232 2.236,5.64 4.054,6.185 0.477,0.143 1.444,0.532 2.148,0.865 2.245,1.06 4.294,1.449 7.348,1.392 3.336,-0.063 3.85,0.138 4.371,1.71 0.465,1.399 0.403,4.3 -0.116,5.458 -0.21,0.468 -0.466,0.85 -0.57,0.85 -0.105,0 -0.802,0.603 -1.549,1.339 -1.223,1.205 -1.47,1.354 -2.492,1.504 -0.624,0.092 -1.892,0.146 -2.818,0.12 -1.052,-0.03 -2.151,0.082 -2.934,0.298 -0.8,0.22 -2.688,0.405 -5.234,0.514 -2.19,0.094 -4.265,0.283 -4.611,0.42 -0.36,0.143 -2.156,0.29 -4.192,0.342 -2.86,0.074 -7.754,0.545 -10.48,1.01 -0.23,0.04 -0.692,0.01 -1.026,-0.065 z M 72.6,211.17 c 0.518,-0.102 1.886,-0.333 3.039,-0.513 3.234,-0.506 4.85,-1.16 7.841,-3.168 2.818,-1.893 3.798,-2.786 5.242,-4.781 0.501,-0.692 1.016,-1.352 1.145,-1.467 0.962,-0.862 3.23,-4.312 4.035,-6.136 0.394,-0.891 1.096,-2.8 1.858,-5.051 0.482,-1.423 1.23,-4.534 1.77,-7.363 0.122,-0.634 0.364,-1.671 0.539,-2.306 0.46,-1.665 1.153,-8.727 1.153,-11.737 0,-0.865 0.132,-2.657 0.294,-3.982 a 58.68,58.68 0 0 0 0.387,-7.127 c -0.004,-0.403 -0.115,-1.865 -0.246,-3.249 a 365.836,365.836 0 0 1 -0.449,-5.24 c -0.115,-1.498 -0.252,-2.842 -0.303,-2.986 -0.12,-0.338 -2.254,-0.325 -4.926,0.03 -1.096,0.145 -2.146,0.225 -2.334,0.177 -0.188,-0.047 -0.613,0.05 -0.943,0.216 -0.817,0.41 -2.612,0.72 -5.736,0.99 -2.938,0.254 -6.212,0.814 -9.977,1.706 -1.394,0.33 -2.783,0.6 -3.085,0.6 -0.303,0 -1.066,0.229 -1.695,0.507 -0.63,0.279 -2.118,0.81 -3.307,1.183 -1.19,0.372 -2.776,0.965 -3.525,1.319 -2.605,1.23 -5.518,3.352 -6.861,4.998 -0.31,0.38 -1.11,1.285 -1.777,2.01 -0.666,0.723 -1.39,1.667 -1.61,2.095 -0.22,0.429 -0.785,1.218 -1.258,1.755 -0.473,0.536 -0.86,1.03 -0.86,1.096 0,0.067 -0.37,0.908 -0.82,1.87 -0.45,0.962 -0.96,2.225 -1.133,2.807 -0.173,0.582 -0.459,1.337 -0.636,1.679 -0.467,0.904 -1.324,4.527 -1.501,6.349 a 79.563,79.563 0 0 1 -0.24,2.2 c -0.047,0.347 -0.09,2.728 -0.094,5.292 -0.007,3.536 0.067,4.928 0.306,5.764 0.173,0.606 0.376,1.573 0.451,2.15 0.192,1.476 1.299,4.79 2.115,6.335 1.753,3.318 4.357,6.123 7.682,8.273 4.732,3.06 5.897,3.649 7.808,3.94 1.228,0.189 6.287,0.033 7.65,-0.235 z m 625.445,15.164 c -1.306,-0.273 -2.02,-0.292 -4.226,-0.114 -1.807,0.146 -3.38,0.146 -4.927,0 -1.25,-0.118 -2.696,-0.206 -3.215,-0.197 -0.519,0.01 -3.26,0.05 -6.094,0.089 l -5.15,0.07 -0.767,-0.523 c -0.421,-0.288 -0.872,-0.78 -1.002,-1.093 -0.356,-0.856 -1.45,-1.053 -1.45,-0.261 0,0.164 -0.212,0.345 -0.47,0.402 -1.337,0.295 -4.006,0.608 -5.398,0.633 a 70.46,70.46 0 0 0 -3.644,0.2 c -1.139,0.095 -5.242,0.194 -9.117,0.22 -5.5,0.037 -7.345,0.118 -8.409,0.371 -1.912,0.455 -5.21,0.438 -5.788,-0.03 -0.539,-0.436 -0.978,-1.224 -0.823,-1.475 0.063,-0.103 -0.06,-0.596 -0.273,-1.097 -0.453,-1.062 -0.978,-5.24 -0.813,-6.47 0.063,-0.466 0.363,-1.174 0.668,-1.573 0.638,-0.838 1.334,-0.932 3.133,-0.426 1.242,0.35 4.724,0.753 6.47,0.75 0.853,0 1.724,-0.198 2.935,-0.664 1.48,-0.568 1.954,-0.885 3.366,-2.253 1.214,-1.176 1.809,-1.948 2.277,-2.954 l 1.362,-2.925 c 0.78,-1.676 1.107,-3.175 1.11,-5.079 0,-0.655 0.106,-1.457 0.234,-1.781 0.144,-0.363 0.265,-2.765 0.314,-6.232 0.044,-3.102 0.172,-6.64 0.285,-7.86 0.113,-1.22 0.216,-3.774 0.228,-5.677 0.012,-1.902 0.151,-4.92 0.308,-6.707 0.61,-6.95 0.96,-14.236 0.824,-17.124 -0.075,-1.593 -0.458,-4.87 -0.85,-7.294 -0.39,-2.42 -0.751,-5.25 -0.8,-6.288 -0.05,-1.038 -0.149,-3.16 -0.22,-4.716 -0.073,-1.556 -0.17,-6.272 -0.217,-10.48 -0.094,-8.498 -0.223,-12.346 -0.642,-19.178 a 186.61,186.61 0 0 1 -0.197,-5.135 c -0.072,-2.84 -0.246,-4.858 -0.855,-9.898 -0.136,-1.123 -0.226,-1.276 -1.43,-2.434 -0.708,-0.679 -1.662,-1.437 -2.121,-1.685 -0.459,-0.248 -0.976,-0.54 -1.149,-0.65 -0.799,-0.506 -3.5,-1.523 -4.574,-1.72 a 20.963,20.963 0 0 1 -2.342,-0.604 c -0.634,-0.212 -1.895,-0.45 -2.802,-0.531 -2.78,-0.248 -3.022,-0.721 -3.052,-5.995 -0.015,-2.637 -0.01,-2.672 0.63,-3.617 0.86,-1.275 1.248,-1.453 2.795,-1.285 2.59,0.282 16.419,0.009 20.14,-0.399 0.46,-0.05 2.772,-0.142 5.135,-0.205 2.363,-0.062 5.381,-0.25 6.707,-0.416 2.283,-0.286 8.561,-0.628 10.375,-0.564 0.461,0.017 2.217,0.027 3.902,0.024 1.685,0 3.31,0.088 3.61,0.203 0.333,0.127 0.674,0.514 0.874,0.993 0.18,0.432 0.457,0.93 0.613,1.108 0.379,0.428 0.715,3.366 0.835,7.292 0.054,1.758 0.165,3.305 0.247,3.437 0.082,0.132 0.133,1.806 0.116,3.72 -0.031,3.265 0.214,5.68 0.577,5.68 0.19,0 1.488,-1.771 1.488,-2.03 0,-0.099 0.268,-0.508 0.597,-0.909 0.328,-0.4 1.141,-1.578 1.807,-2.615 0.665,-1.038 1.6,-2.326 2.075,-2.864 2.05,-2.315 2.81,-3.28 3.739,-4.75 1.02,-1.616 1.457,-1.978 4.99,-4.127 4.526,-2.753 9.123,-4.595 14.144,-5.666 0.923,-0.196 2.856,-0.643 4.297,-0.993 2.824,-0.685 5.415,-0.921 9.537,-0.867 2.4,0.031 2.64,0.076 5.24,0.98 4.444,1.545 4.917,1.763 6.157,2.841 0.652,0.567 1.68,1.282 2.284,1.588 1.278,0.648 2.239,1.844 2.427,3.02 0.071,0.446 0.408,1.194 0.748,1.664 0.34,0.47 0.683,1.193 0.76,1.607 0.078,0.414 0.555,1.4 1.06,2.189 0.693,1.083 0.961,1.747 1.092,2.705 0.096,0.698 0.356,1.525 0.578,1.836 0.924,1.296 1.34,2.128 1.344,2.684 0.01,0.555 0.292,1.682 0.925,3.602 0.369,1.122 0.152,2.443 -0.804,4.9 -1.073,2.759 -1.492,3.513 -2.62,4.727 -0.543,0.585 -1.198,1.412 -1.454,1.84 -0.636,1.056 -3.614,3.706 -5.2,4.625 -1.525,0.885 -3.707,1.702 -6.04,2.262 -1.846,0.443 -4.097,0.506 -7.231,0.2 -2.131,-0.207 -3.764,-0.824 -6.392,-2.417 -1.687,-1.022 -4.217,-3.596 -4.599,-4.678 -0.164,-0.464 -0.729,-1.373 -1.256,-2.02 -0.526,-0.647 -0.957,-1.279 -0.957,-1.404 0,-0.126 -0.313,-0.665 -0.694,-1.198 -0.382,-0.532 -0.838,-1.25 -1.014,-1.597 -1.275,-2.505 -1.932,-3.27 -3.235,-3.768 -0.867,-0.33 -1.036,-0.33 -2.759,0.007 -1.01,0.198 -2.521,0.63 -3.36,0.96 -0.839,0.33 -1.645,0.6 -1.792,0.6 -0.42,0 -2.818,1.628 -3.669,2.49 -1.685,1.706 -5.166,9.943 -6.627,15.68 -0.182,0.714 -0.653,2.05 -1.047,2.971 -0.46,1.078 -0.764,2.184 -0.85,3.105 -0.074,0.787 -0.264,1.855 -0.423,2.374 -1.171,3.825 -1.858,8.096 -1.792,11.15 0.03,1.349 -0.049,2.764 -0.173,3.144 -0.124,0.38 -0.239,1.117 -0.255,1.635 -0.076,2.391 0.049,7.219 0.235,9.118 0.114,1.153 0.246,5.397 0.295,9.432 0.05,4.035 0.213,8.892 0.363,10.794 0.345,4.35 0.343,6.952 -0.01,9.223 -0.202,1.312 -0.222,2.255 -0.074,3.577 0.15,1.33 0.13,2.282 -0.079,3.668 -0.382,2.546 -0.375,9.533 0.013,12.056 0.301,1.955 0.384,2.383 1.054,5.431 0.19,0.865 0.43,2.044 0.533,2.62 0.23,1.283 1.137,2.158 3.422,3.303 1.936,0.97 2.898,1.181 5.49,1.203 3.483,0.029 7.683,0.42 8.43,0.783 0.51,0.25 0.738,0.543 0.907,1.171 0.125,0.461 0.353,1.036 0.508,1.277 0.174,0.27 0.332,1.406 0.41,2.953 0.07,1.383 0.23,3.243 0.354,4.132 0.283,2.02 0.17,2.476 -0.733,2.962 -0.785,0.423 -1.18,0.325 -1.902,-0.472 -0.524,-0.58 -0.74,-0.555 -1.54,0.177 -0.455,0.414 -1,0.663 -1.672,0.762 -0.548,0.08 -1.233,0.237 -1.521,0.347 -0.288,0.11 -1.735,0.194 -3.216,0.185 -1.48,-0.01 -3.083,0.067 -3.563,0.17 -1.748,0.372 -4.388,0.4 -6.005,0.062 z m -331.273,-0.483 c -1.153,-0.09 -3.747,-0.162 -5.764,-0.162 -2.018,0 -5.224,-0.143 -7.127,-0.319 -1.976,-0.182 -7.275,-0.378 -12.366,-0.458 -4.9,-0.077 -8.977,-0.181 -9.062,-0.231 -0.085,-0.05 -2.679,-0.1 -5.764,-0.109 -4.574,-0.014 -5.939,0.05 -7.39,0.35 -1.444,0.297 -2.252,0.336 -4.296,0.206 -1.385,-0.088 -5.308,-0.181 -8.718,-0.207 -7.869,-0.06 -7.88,-0.064 -8.404,-2.93 -0.317,-1.732 -0.342,-2.454 -0.129,-3.773 0.34,-2.1 0.561,-2.748 1.138,-3.324 0.663,-0.664 1.327,-0.855 4.478,-1.289 1.326,-0.182 3.431,-0.473 4.68,-0.646 1.274,-0.177 2.743,-0.525 3.353,-0.796 1.42,-0.63 3.779,-2.685 4.2,-3.659 0.401,-0.93 0.689,-2.65 0.863,-5.167 0.072,-1.038 0.362,-3.773 0.645,-6.079 0.566,-4.598 0.766,-8.928 0.453,-9.746 -0.111,-0.288 -0.241,-3.542 -0.29,-7.231 -0.114,-8.657 -0.171,-10.37 -0.45,-13.415 -0.325,-3.557 -0.39,-10.592 -0.144,-15.51 0.115,-2.306 0.185,-5.634 0.154,-7.397 -0.04,-2.393 0.06,-4.013 0.396,-6.393 0.404,-2.867 0.458,-4.336 0.532,-14.61 0.192,-26.802 0.251,-29.763 0.735,-37.1 0.133,-2.017 0.27,-5.528 0.304,-7.8 l 0.063,-4.134 -0.518,-0.616 -0.519,-0.617 0.22,-4.577 c 0.523,-10.879 0.61,-16.416 0.31,-19.67 a 61.918,61.918 0 0 0 -1.706,-9.85 312.444,312.444 0 0 1 -0.887,-3.564 c -0.36,-1.502 -0.85,-2.61 -1.48,-3.353 -0.196,-0.23 -0.538,-0.844 -0.76,-1.363 -0.779,-1.822 -1.395,-2.73 -2.487,-3.663 -1.717,-1.466 -2.729,-1.82 -5.783,-2.019 a 114.63,114.63 0 0 1 -4.512,-0.387 c -1.033,-0.118 -2.35,-0.216 -2.926,-0.218 -0.683,0 -1.293,-0.151 -1.75,-0.43 -0.673,-0.41 -0.696,-0.467 -0.576,-1.414 0.069,-0.542 0.208,-2.16 0.31,-3.594 0.162,-2.294 0.238,-2.653 0.636,-2.974 0.665,-0.54 2.632,-1.05 3.865,-1.006 2.835,0.103 4.366,0.06 6.004,-0.17 0.98,-0.137 2.489,-0.347 3.353,-0.466 a 93.658,93.658 0 0 0 3.354,-0.541 c 1.248,-0.229 3.037,-0.322 5.973,-0.313 2.306,0.007 4.947,-0.087 5.87,-0.209 0.921,-0.121 3.327,-0.27 5.344,-0.33 3.153,-0.094 8.784,-0.543 17.082,-1.361 1.153,-0.114 2.68,-0.25 3.393,-0.302 0.713,-0.053 1.52,-0.18 1.792,-0.284 1.13,-0.43 2.676,0.397 2.675,1.43 0,0.612 -0.717,1.903 -1.055,1.903 -0.152,0 -0.204,1.129 -0.164,3.51 0.033,1.931 0.03,5.822 -0.01,8.646 -0.037,2.829 0.03,5.795 0.149,6.603 0.118,0.807 0.228,3.4 0.244,5.764 0.16,24.17 0.382,38.515 0.619,40.138 0.1,0.692 0.191,2.154 0.201,3.249 0.01,1.095 0.123,3.594 0.252,5.554 0.129,1.96 0.176,4.53 0.105,5.712 -0.071,1.181 -0.056,2.148 0.035,2.148 0.09,0 0.424,-0.53 0.742,-1.179 0.572,-1.166 3.044,-4.536 4.622,-6.3 0.45,-0.502 1.534,-1.355 2.41,-1.896 a 47.727,47.727 0 0 0 2.957,-2.006 c 0.75,-0.562 2.447,-1.536 3.773,-2.165 2.86,-1.356 3.244,-1.554 5.98,-3.076 2.055,-1.144 3.605,-1.788 7.644,-3.176 1.095,-0.376 2.793,-0.974 3.773,-1.327 2.636,-0.95 5.345,-1.749 6.347,-1.87 a 11.42,11.42 0 0 0 1.782,-0.398 c 0.494,-0.16 1.35,-0.292 1.901,-0.292 0.552,0 1.45,-0.151 1.993,-0.337 1.052,-0.358 0.423,-0.377 10.928,0.335 1.498,0.102 3.196,0.293 3.773,0.424 1.199,0.275 3.268,0.654 6.288,1.154 1.152,0.19 2.614,0.532 3.248,0.759 0.634,0.227 1.86,0.653 2.725,0.948 2.24,0.762 6.614,2.933 7.933,3.935 a 58.778,58.778 0 0 0 1.886,1.376 c 2.344,1.604 2.625,1.942 7.303,8.782 0.268,0.391 0.669,1.287 0.89,1.99 0.223,0.704 0.593,1.752 0.824,2.328 0.543,1.36 1.581,4.895 1.908,6.498 0.14,0.691 0.472,2.295 0.737,3.563 1.379,6.615 1.613,7.974 1.81,10.48 0.448,5.731 0.595,8.364 0.79,14.165 0.11,3.294 0.256,6.643 0.323,7.44 0.068,0.798 0.166,5.365 0.217,10.149 0.051,4.784 0.2,10.921 0.332,13.638 0.162,3.37 0.173,5.635 0.033,7.126 -0.123,1.307 -0.137,3.369 -0.034,5.122 0.479,8.184 0.635,10.375 0.822,11.527 0.112,0.692 0.195,3.38 0.184,5.974 -0.02,4.596 0.066,7.78 0.358,13.277 0.134,2.535 0.117,2.728 -0.3,3.293 -0.566,0.764 -0.562,0.795 0.156,1.44 0.427,0.383 0.774,1.086 1.197,2.426 0.327,1.037 0.714,2.075 0.86,2.306 0.73,1.16 5.565,2.688 9.605,3.034 1.383,0.118 2.772,0.269 3.087,0.335 0.315,0.067 1.081,-0.027 1.703,-0.208 0.967,-0.28 1.246,-0.288 1.938,-0.049 0.666,0.23 0.833,0.405 0.953,0.991 0.08,0.392 0.063,1.184 -0.037,1.762 -0.1,0.578 -0.23,2.027 -0.29,3.22 -0.163,3.321 -0.264,3.379 -5.468,3.12 -2.42,-0.119 -4.374,-0.11 -5.45,0.024 a 14.95,14.95 0 0 1 -3.403,0.015 c -1.503,-0.17 -2.07,-0.127 -4.401,0.333 -3.96,0.782 -7.931,0.96 -22.693,1.017 -2.441,0.01 -4.361,-0.097 -9.85,-0.55 -1.672,-0.138 -3.512,-0.243 -4.088,-0.233 l -9.642,0.165 c -4.726,0.081 -9.28,0.142 -10.12,0.135 -2.78,-0.023 -3.657,-0.793 -3.485,-3.065 0.122,-1.602 0.906,-5.573 1.163,-5.886 0.108,-0.133 0.715,-0.451 1.348,-0.708 0.878,-0.357 1.36,-0.433 2.035,-0.324 2.185,0.353 2.885,0.36 4.26,0.047 2.434,-0.556 3.755,-1.103 5.614,-2.327 3.033,-1.998 4.13,-3.694 4.414,-6.822 0.078,-0.865 0.227,-2.327 0.332,-3.25 0.104,-0.921 0.237,-2.505 0.295,-3.52 0.058,-1.013 0.158,-1.929 0.223,-2.034 0.065,-0.105 0.211,-1.87 0.325,-3.92 0.113,-2.052 0.309,-4.343 0.434,-5.092 0.126,-0.75 0.26,-2.589 0.298,-4.087 0.038,-1.5 0.187,-5.555 0.331,-9.013 0.347,-8.32 0.345,-10.112 -0.018,-15.196 -0.217,-3.047 -0.289,-6.979 -0.247,-13.52 l 0.09,-14.042 c 0.068,-11.248 -1.004,-26.117 -2.042,-28.305 -0.166,-0.351 -0.448,-1.341 -0.626,-2.201 -0.495,-2.387 -1.687,-4.45 -3.844,-6.656 -1.798,-1.839 -2.134,-2.06 -5.076,-3.339 -2.4,-1.043 -5.406,-1.85 -8.751,-2.35 -2.247,-0.336 -3.123,-0.37 -5.502,-0.215 -1.556,0.101 -3.454,0.28 -4.218,0.398 -1.861,0.287 -5.471,1.718 -6.546,2.594 -0.478,0.39 -1.105,0.831 -1.393,0.982 -0.87,0.453 -5.08,3.25 -6.58,4.371 -1.567,1.172 -3.575,3.313 -3.802,4.054 -0.081,0.266 -0.832,1.71 -1.667,3.209 -0.836,1.499 -1.631,3.196 -1.769,3.773 -0.137,0.576 -0.467,1.38 -0.733,1.786 -0.777,1.188 -1.318,2.34 -1.979,4.213 -0.34,0.966 -1.369,3.407 -2.284,5.424 -1.87,4.12 -2.308,5.319 -2.984,8.174 -0.753,3.18 -1.047,5.454 -1.339,10.376 -0.326,5.493 -0.268,8.879 0.301,17.814 0.235,3.688 0.425,7.697 0.423,8.908 -0.017,8.344 0.212,18.923 0.436,20.068 0.194,0.998 0.199,1.668 0.018,2.83 -0.162,1.043 -0.172,1.814 -0.03,2.443 0.157,0.7 0.124,1.289 -0.137,2.461 -0.319,1.434 -0.318,1.7 0.011,3.796 0.775,4.935 0.971,6.053 1.177,6.697 0.117,0.37 0.392,1.501 0.61,2.515 1.114,5.179 1.683,6.691 2.582,6.853 0.25,0.045 1.162,0.23 2.026,0.413 0.865,0.182 1.95,0.39 2.41,0.46 0.462,0.072 1.516,0.358 2.343,0.636 a 9.136,9.136 0 0 0 3.007,0.504 c 2.47,0 5.678,1.066 6.696,2.225 l 0.622,0.71 -0.05,3.249 c -0.05,3.173 -0.064,3.261 -0.587,3.784 -0.649,0.65 -3.174,1.356 -4.695,1.315 a 84.082,84.082 0 0 1 -3.144,-0.191 z"
     id="mobileHeaderLetters"
     inkscape:connector-curvature="0" />
</svg>
