<?xml version="1.0" encoding="UTF-8" standalone="no"?>
<svg
   xmlns:dc="http://purl.org/dc/elements/1.1/"
   xmlns:cc="http://creativecommons.org/ns#"
   xmlns:rdf="http://www.w3.org/1999/02/22-rdf-syntax-ns#"
   xmlns:svg="http://www.w3.org/2000/svg"
   xmlns="http://www.w3.org/2000/svg"
   xmlns:sodipodi="http://sodipodi.sourceforge.net/DTD/sodipodi-0.dtd"
   xmlns:inkscape="http://www.inkscape.org/namespaces/inkscape"
   height="590.2309"
   width="590.2309"
   version="1.1"
   id="svg150"
   viewBox="0 0 590.2309 590.2309"
   sodipodi:docname="asher-favicon.svg"
   inkscape:export-filename="/home/mole/tough/asher/static/favicon.ico.png"
   inkscape:export-xdpi="114.66"
   inkscape:export-ydpi="114.66"
   inkscape:version="0.92.3 (2405546, 2018-03-11)">
  <sodipodi:namedview
     pagecolor="#ffffff"
     bordercolor="#666666"
     borderopacity="1"
     objecttolerance="10"
     gridtolerance="10"
     guidetolerance="10"
     inkscape:pageopacity="0"
     inkscape:pageshadow="2"
     inkscape:window-width="1853"
     inkscape:window-height="1145"
     id="namedview19"
     showgrid="false"
     inkscape:zoom="1.1165521"
     inkscape:cx="315.63828"
     inkscape:cy="242.72967"
     inkscape:window-x="67"
     inkscape:window-y="27"
     inkscape:window-maximized="1"
     inkscape:current-layer="g935" />
  <metadata
     id="metadata156">
    <rdf:RDF>
      <cc:Work
         rdf:about="">
        <dc:format>image/svg+xml</dc:format>
        <dc:type
           rdf:resource="http://purl.org/dc/dcmitype/StillImage" />
        <dc:title />
      </cc:Work>
    </rdf:RDF>
  </metadata>
  <defs
     id="defs154" />
  <g
     transform="translate(778.09671,126.29793)"
     id="g929">
    <g
       id="g932">
      <g
         transform="matrix(2.7079845,0,0,2.7079845,527.96187,-733.69407)"
         id="g935">
        <path
           style="opacity:1;fill:#2f395c;fill-opacity:1;stroke:none;stroke-width:6.64700985;stroke-linecap:round;stroke-linejoin:bevel;stroke-miterlimit:4;stroke-dasharray:none;stroke-dashoffset:0;stroke-opacity:1;paint-order:normal"
           d="m -482.29913,224.29823 h 217.95947 v 217.95948 h -217.95947 z"
           id="rect937" />
        <path
           id="path160"
           d="m -381.39156,406.97126 c -1.02817,-0.47824 -1.37489,-1.17726 -1.36198,-2.74567 0.0116,-1.40367 0.3437,-2.14182 1.14569,-2.54632 1.02285,-0.51588 1.72031,-0.69075 2.88381,-0.72295 2.98834,-0.0827 4.96935,-0.75013 6.56219,-2.2108 0.39737,-0.36447 0.91991,-0.80847 1.1612,-0.98685 1.30347,-0.96338 2.29535,-2.18398 2.59515,-3.1936 0.11818,-0.39788 0.4334,-1.00981 0.70048,-1.35969 l 0.48557,-0.63613 0.0888,-4.09224 c 0.0489,-2.25063 0.16924,-4.87077 0.26764,-5.82246 0.0984,-0.95163 0.17894,-3.22262 0.17894,-5.04667 0,-6.7141 -0.21163,-20.88193 -0.37154,-24.8728 -0.1443,-3.60169 -0.24825,-13.89737 -0.32027,-31.72185 -0.0118,-2.9349 0.0558,-6.31536 0.15266,-7.64207 0.17866,-2.44389 0.24832,-11.97499 0.10539,-14.41903 -0.0441,-0.75339 -0.14498,-1.94352 -0.22425,-2.64472 -0.0793,-0.70121 -0.21058,-2.06381 -0.29176,-3.02799 -0.21737,-2.58151 -0.28653,-3.14327 -0.70393,-5.71832 -0.0836,-0.51547 -0.18337,-1.359 -0.22178,-1.87448 -0.16309,-2.18763 -0.34661,-3.74029 -0.55386,-4.68618 -0.12165,-0.55512 -0.35704,-1.85284 -0.52313,-2.88379 -0.34981,-2.17159 -0.34377,-2.13903 -0.63919,-3.45022 -0.36689,-1.62848 -0.67382,-1.9612 -2.71638,-2.94467 -3.59966,-1.73317 -3.25994,-1.62492 -5.37914,-1.71378 l -1.91791,-0.0804 -0.91023,-1.01667 -0.91023,-1.01663 -0.0987,-1.34954 c -0.0543,-0.74222 -0.16219,-1.42694 -0.23982,-1.52152 -0.19161,-0.23354 -0.36569,-1.72597 -0.24551,-2.10464 0.1687,-0.53147 0.77112,-0.72563 1.97025,-0.63493 0.71633,0.054 1.46323,0.004 2.22391,-0.14766 1.77125,-0.35448 3.50434,-0.53031 4.5338,-0.45987 0.89601,0.0613 5.98208,-0.29497 6.20848,-0.43487 0.0598,-0.0369 2.14249,-0.10512 4.62823,-0.15154 2.48576,-0.0463 5.03863,-0.14148 5.67307,-0.21133 0.63445,-0.0699 1.93215,-0.21952 2.8838,-0.33272 1.15471,-0.13729 2.61765,-0.18523 4.39781,-0.1441 3.64063,0.0841 3.53012,0.0582 3.97207,0.93043 0.43137,0.85127 0.61252,0.94887 1.19859,0.6458 0.68973,-0.35669 1.09213,-0.28564 1.58926,0.28058 0.51895,0.59105 0.66565,1.04656 0.62608,1.94391 -0.056,1.26888 -0.10355,8.07466 -0.0565,8.07466 0.0263,0 0.86985,-0.85388 1.87447,-1.89751 1.06922,-1.11072 2.21516,-2.14757 2.7638,-2.50066 0.51547,-0.33177 1.58609,-1.11122 2.37913,-1.73204 2.72454,-2.13301 4.84462,-3.3267 7.64208,-4.30277 1.46233,-0.5102 2.36586,-0.72208 4.10942,-0.96354 1.22923,-0.17029 2.80908,-0.43221 3.5108,-0.58213 0.70171,-0.14987 2.35628,-0.37498 3.67684,-0.50025 1.32055,-0.12527 2.82277,-0.27788 3.33826,-0.3392 1.50453,-0.17894 6.04095,-0.0487 6.64387,0.19064 0.2837,0.11264 1.00442,0.27279 1.6016,0.35583 0.59721,0.0831 1.54088,0.31518 2.09709,0.51578 0.55619,0.20066 1.12095,0.36483 1.25502,0.36483 0.38399,0 3.33271,0.70778 4.8401,1.16176 0.75339,0.22692 1.53203,0.45546 1.73029,0.50787 0.19826,0.0524 0.89191,0.34708 1.54146,0.65476 0.64952,0.30766 1.25191,0.55939 1.3386,0.55939 0.0867,0 0.29305,0.2295 0.45857,0.51 0.16549,0.28049 0.50866,0.59681 0.76257,0.70288 0.25391,0.10612 0.79816,0.57983 1.20944,1.05263 0.41127,0.47285 1.4025,1.43807 2.20274,2.14487 0.80021,0.70686 1.78919,1.69834 2.19767,2.20332 1.06678,1.31876 3.69242,4.978 4.52169,6.30166 0.59094,0.94323 1.75265,3.41207 2.30196,4.89215 0.35319,0.95164 0.765,1.94003 0.91511,2.19641 0.15012,0.25639 0.36882,0.77548 0.48602,1.15352 0.20186,0.65124 0.53349,1.55988 1.22443,3.3549 0.1679,0.43618 0.30529,0.94333 0.30535,1.12694 4e-5,0.18367 0.0764,0.47566 0.16959,0.64886 0.20049,0.3725 0.96125,3.06364 1.12847,3.99183 0.0643,0.35686 0.25467,1.20037 0.4231,1.87446 0.27123,1.08557 1.11799,5.205 1.37108,6.67038 0.0516,0.29824 0.21239,1.89893 0.3575,3.55704 0.23632,2.70046 0.24315,3.20016 0.0655,4.79273 -0.10911,0.97793 -0.193,3.04328 -0.18641,4.58972 0.0105,2.38347 -0.0324,2.9804 -0.27886,3.91927 -0.15993,0.60916 -0.3344,1.58245 -0.38765,2.16286 -0.0533,0.5804 -0.21626,1.52432 -0.36227,2.0976 -0.14598,0.5733 -0.33999,1.57902 -0.43111,2.23495 -0.0911,0.65593 -0.35341,1.97126 -0.58285,2.92292 -0.22942,0.95165 -0.45466,2.02226 -0.50054,2.37913 -0.17452,1.35791 -0.40544,2.14654 -1.13994,3.89314 -0.41686,0.99131 -0.79771,1.96828 -0.84633,2.17105 -0.0486,0.20281 -0.38228,0.81616 -0.74149,1.36305 -0.3592,0.54694 -0.6531,1.07151 -0.6531,1.16583 0,0.0943 -0.29455,0.69522 -0.65458,1.33542 -0.36001,0.6402 -0.72869,1.37719 -0.81925,1.63773 -0.22409,0.64463 -1.06291,2.07863 -1.62656,2.78071 -0.25467,0.31723 -0.5132,0.73898 -0.57447,0.93724 -0.20271,0.65584 -0.82679,1.79512 -1.24691,2.27631 -0.22758,0.26068 -0.58367,0.8122 -0.79131,1.22561 -0.20764,0.41341 -0.49319,0.8619 -0.63459,0.99663 -0.21774,0.2074 -0.67504,0.85671 -2.15955,3.0663 -0.39779,0.59213 -2.22912,2.72924 -2.71827,3.17222 -0.26582,0.24071 -0.75246,0.70208 -1.08142,1.02525 -0.74779,0.7346 -1.38634,1.19349 -2.40049,1.725 -0.43616,0.22863 -1.1499,0.7471 -1.58608,1.15217 -0.43617,0.40504 -1.14992,0.90484 -1.58608,1.11067 -0.43619,0.20582 -1.40253,0.73457 -2.14744,1.17505 -0.7449,0.44042 -1.68575,0.90883 -2.09076,1.04091 -0.40502,0.13214 -1.63387,0.59265 -2.73081,1.02337 -1.12297,0.44096 -2.51953,0.87478 -3.19614,0.99296 -0.66093,0.1153 -1.49431,0.33916 -1.85193,0.4973 -0.35764,0.15823 -1.19037,0.35485 -1.85052,0.437 -0.66017,0.0822 -1.94647,0.25404 -2.85847,0.38192 -2.68174,0.3761 -5.1774,0.27208 -8.14676,-0.33949 -0.98363,-0.20259 -2.16096,-0.57641 -2.45125,-0.77833 -0.23886,-0.16613 -1.54364,-0.53941 -2.22182,-0.63571 -0.34964,-0.0496 -1.09583,-0.27648 -1.65818,-0.50419 -1.11828,-0.45287 -2.85558,-1.01717 -3.13125,-1.01717 -0.0957,0 -0.82833,-0.31673 -1.62803,-0.70383 -0.79971,-0.3871 -1.61446,-0.75294 -1.81054,-0.81294 -0.19609,-0.0599 -1.73393,-0.80474 -3.4174,-1.6549 -1.6835,-0.85013 -3.27496,-1.63203 -3.53662,-1.73756 -0.26166,-0.10548 -0.71777,-0.34177 -1.01358,-0.52513 -0.29581,-0.18329 -0.59655,-0.33326 -0.66829,-0.33326 -0.17987,0 -0.28005,0.96625 -0.50833,4.90247 -0.34157,5.88965 -0.35182,6.67777 -0.12372,9.51651 0.0669,0.83275 0.072,2.29267 0.0114,3.2443 -0.0634,0.99283 -0.0508,2.22037 0.0292,2.88003 0.0767,0.63242 0.13987,2.15722 0.14033,3.38849 0,1.23133 0.0643,2.62633 0.14185,3.10003 0.0775,0.47364 0.17961,2.2904 0.22678,4.03727 0.0864,3.20267 0.30688,4.89155 0.75325,5.77156 0.44641,0.87992 1.35185,1.95262 1.87305,2.21891 0.2953,0.15094 0.83698,0.60553 1.20376,1.01038 0.58288,0.64322 0.73722,0.73601 1.22562,0.73664 0.34052,0 0.78399,0.1395 1.13551,0.35593 0.31722,0.19537 0.77185,0.35731 1.01028,0.3598 0.23844,0.008 0.6602,0.073 0.93723,0.15684 1.00046,0.30234 3.41475,0.63146 4.68524,0.63847 1.01436,0.008 1.38428,0.0654 1.69423,0.27359 0.21809,0.14654 0.3991,0.27524 0.40225,0.28599 0.0234,0.0793 0.45582,2.27553 0.51952,2.63821 0.0638,0.36385 0.0191,0.48856 -0.22257,0.61784 -0.16648,0.0891 -0.30268,0.25556 -0.30268,0.36982 0,0.34356 -0.57771,0.60133 -1.94656,0.8688 -2.03016,0.39652 -3.16647,0.45094 -10.02122,0.47997 -3.52907,0.0151 -8.11697,0.0502 -10.19539,0.0787 -2.77379,0.0379 -4.02023,0 -4.68618,-0.14088 -1.622,-0.34412 -3.55895,-0.41049 -4.3191,-0.14784 -0.39033,0.13476 -1.14612,0.23354 -1.80237,0.23541 -0.62159,0 -1.75909,0.0234 -2.52777,0.0482 -0.76868,0.024 -1.77441,-0.0158 -2.23495,-0.0899 -0.46054,-0.0739 -1.51045,-0.12541 -2.33315,-0.11461 -0.82269,0.0105 -1.84132,-0.0523 -2.2636,-0.13985 -0.59671,-0.12389 -1.30761,-0.10779 -3.19038,0.0721 -1.33241,0.12734 -2.5198,0.26521 -2.63866,0.30627 -0.11884,0.0414 -1.06593,0.13187 -2.10462,0.20151 -1.0387,0.0697 -2.04453,0.16289 -2.23516,0.20719 -0.19674,0.0461 -0.59597,-0.0351 -0.92336,-0.18753 z m 60.92857,-48.68107 c 0.84004,-0.0153 1.6196,-0.0846 1.73233,-0.15432 0.11274,-0.0697 0.95141,-0.1698 1.86369,-0.22252 0.91231,-0.0527 1.88582,-0.16513 2.16338,-0.2498 1.21801,-0.37152 1.9733,-0.66805 2.3293,-0.91453 0.21052,-0.14577 0.53682,-0.26499 0.72514,-0.26499 0.55532,0 2.62272,-2.26654 3.81414,-4.18152 1.34148,-2.15619 3.1598,-6.21622 4.17016,-9.3114 0.59261,-1.81545 0.88728,-3.10054 1.13805,-4.96343 0.13346,-0.99131 0.30325,-2.11378 0.37729,-2.49435 0.074,-0.38062 0.13467,-1.0376 0.13467,-1.45988 0,-0.42234 0.12647,-1.53842 0.28108,-2.48021 0.15459,-0.9418 0.35628,-2.32872 0.44819,-3.08213 0.0919,-0.75339 0.3275,-2.11597 0.52353,-3.02798 0.49313,-2.29421 0.58598,-2.74722 0.66499,-3.24429 0.11016,-0.69314 0.52094,-3.10054 0.67922,-3.98073 0.0977,-0.54287 0.0978,-1.15874 0,-1.87446 -0.0797,-0.58628 -0.17695,-1.77966 -0.21595,-2.65202 -0.039,-0.87234 -0.13627,-2.00785 -0.21614,-2.52333 -0.0798,-0.51547 -0.24207,-1.61853 -0.36038,-2.45123 -0.11831,-0.8327 -0.27658,-1.83842 -0.35168,-2.23495 -0.11527,-0.60844 -0.30185,-3.83254 -0.64666,-11.17474 -0.0355,-0.7534 -0.12698,-1.56447 -0.20358,-1.80238 -0.0766,-0.23792 -0.20913,-0.78944 -0.29451,-1.22561 -0.35122,-1.79401 -0.59014,-2.73666 -1.02324,-4.03734 -0.25089,-0.75339 -0.55697,-1.69423 -0.68021,-2.09076 -0.12322,-0.39651 -0.40596,-1.11238 -0.6283,-1.59083 -0.22232,-0.47838 -0.46972,-1.34226 -0.54974,-1.9197 -0.0801,-0.57744 -0.249,-1.20787 -0.37548,-1.40089 -0.12648,-0.19305 -0.44611,-0.88641 -0.71029,-1.54081 -0.26417,-0.65441 -0.78953,-1.63165 -1.16744,-2.17161 -0.37791,-0.53998 -0.81099,-1.30776 -0.96239,-1.70616 -0.20925,-0.55072 -0.62035,-1.06738 -1.71422,-2.15443 -0.79145,-0.78643 -1.47224,-1.42992 -1.51293,-1.42992 -0.0406,0 -0.32439,-0.15811 -0.63053,-0.35137 -0.30613,-0.19326 -0.96991,-0.52436 -1.47508,-0.73582 -0.50517,-0.21143 -1.57278,-0.70217 -2.3725,-1.09054 -0.7997,-0.38832 -1.62525,-0.70607 -1.83456,-0.70607 -0.2093,0 -0.65805,-0.12333 -0.99722,-0.2741 -0.79644,-0.35399 -2.62701,-0.63624 -2.96185,-0.45668 -1.25377,0.67232 -3.70693,1.57668 -4.93644,1.81982 -0.69292,0.13702 -2.38055,1.07895 -3.46056,1.93143 -1.50211,1.18573 -2.67148,2.66386 -3.4761,4.39401 -0.2242,0.48205 -0.66665,1.2982 -0.98325,1.81369 -0.31661,0.51547 -0.84351,1.40734 -1.1709,1.98194 -0.32738,0.57455 -0.64991,1.07845 -0.71674,1.11978 -0.0668,0.0415 -0.38797,0.75663 -0.71365,1.5896 -0.32568,0.83301 -0.83922,2.04858 -1.14121,2.70126 -0.30198,0.6527 -0.61758,1.35417 -0.70134,1.55879 -0.25929,0.63341 -1.04769,3.99939 -1.48332,6.3328 -0.15547,0.83271 -0.37895,1.96819 -0.49663,2.52333 -0.11767,0.55513 -0.25054,1.56085 -0.29527,2.23495 -0.0447,0.67409 -0.16899,1.64736 -0.27617,2.16284 -0.43103,2.0731 -0.50011,2.72573 -0.42943,4.05706 0.0406,0.76425 -0.0204,2.35396 -0.13548,3.53266 -0.11512,1.17872 -0.21622,2.69465 -0.22467,3.36873 -0.009,0.6741 -0.14077,2.00425 -0.29402,2.95591 -0.55802,3.46521 -0.63077,4.76949 -0.62714,11.24683 0.003,6.33027 0.0587,7.30968 0.61731,10.95847 0.0728,0.47581 0.1719,1.21592 0.22011,1.64466 0.0483,0.42879 0.17691,0.95219 0.28602,1.16316 0.10909,0.21097 0.23353,0.7839 0.27651,1.27326 0.0429,0.4893 0.20174,1.13382 0.35284,1.43225 0.15107,0.29847 0.32242,0.76975 0.38075,1.04733 0.0583,0.27756 0.25404,0.82908 0.43495,1.22561 1.23342,2.70365 1.55502,3.31565 2.06371,3.92711 0.3143,0.37787 0.70838,0.9604 0.87572,1.29456 0.16733,0.33416 0.55703,0.88568 0.866,1.22562 3.11965,3.43217 3.01225,3.33466 5.4216,4.92192 1.4094,0.92849 2.11839,1.28015 3.96523,1.96672 0.50817,0.18892 4.29594,0.43567 4.82778,0.31447 0.15716,-0.0356 0.9731,-0.0775 1.81318,-0.0927 z m -79.71889,22.93381 c -0.43218,-0.0972 -0.56718,-0.25177 -0.80422,-0.92081 -0.13007,-0.36717 -0.18235,-0.38863 -0.75697,-0.31088 -0.46379,0.0627 -0.86348,-0.01 -1.60778,-0.29057 -0.77289,-0.29188 -1.2481,-0.37361 -2.163,-0.37195 -1.13613,0 -2.09135,-0.21093 -3.81835,-0.85114 -1.0808,-0.40071 -2.22726,-1.87637 -2.58921,-3.33282 -0.52586,-2.11582 -0.88798,-3.77581 -0.97519,-4.47022 -0.0547,-0.43622 -0.23099,-1.08511 -0.39162,-1.44202 -0.16798,-0.37325 -0.32129,-1.09301 -0.36092,-1.69434 -0.0378,-0.575 -0.12182,-1.04547 -0.18656,-1.04547 -0.15737,0 -1.55953,1.40236 -3.64907,3.64955 -0.94258,1.01373 -2.1106,2.14517 -2.59561,2.51436 -0.48502,0.36921 -1.26659,1.01567 -1.7368,1.4366 -1.6697,1.49469 -6.63939,4.12803 -8.80655,4.6664 -0.39655,0.0985 -0.80137,0.24127 -0.89959,0.31725 -0.20143,0.15573 -2.79664,0.88417 -4.21954,1.18433 -3.65322,0.77062 -8.84559,1.17764 -10.23828,0.80248 -0.72313,-0.19481 -3.29079,-0.58104 -4.97493,-0.74836 -1.9417,-0.19292 -5.67878,-1.02656 -6.92166,-1.54402 -3.14338,-1.30877 -5.50821,-3.20168 -8.87507,-7.1039 -1.39442,-1.61618 -3.02153,-3.92823 -3.02153,-4.2935 0,-0.0733 -0.20137,-0.57735 -0.4475,-1.12011 -0.24611,-0.54273 -0.56346,-1.31124 -0.70519,-1.7078 -0.14175,-0.39655 -0.53181,-1.33746 -0.86684,-2.09091 -0.335,-0.75345 -0.79777,-2.01881 -1.02834,-2.81192 -0.89145,-3.06624 -0.79713,-2.66507 -1.28838,-5.47964 -0.40332,-2.31073 -0.25854,-6.32433 0.31727,-8.79627 0.95657,-4.10644 2.46756,-7.34013 4.85141,-10.38247 1.18819,-1.5164 4.34772,-4.51516 5.65663,-5.36879 0.67414,-0.43968 1.48527,-0.97691 1.8025,-1.19394 0.31725,-0.21703 1.29061,-0.7577 2.16303,-1.20142 0.87242,-0.44377 1.74844,-0.90031 1.94671,-1.01455 1.61889,-0.93247 5.95248,-2.62233 8.50786,-3.31755 0.4362,-0.1187 1.63669,-0.44563 2.66773,-0.72655 1.03104,-0.28092 2.49107,-0.66989 3.24453,-0.86432 0.75345,-0.19445 1.72679,-0.44901 2.16301,-0.56575 0.4362,-0.11672 1.40955,-0.31855 2.163,-0.44857 0.75347,-0.12996 1.79171,-0.3624 2.30723,-0.51651 0.51551,-0.15412 1.43083,-0.34392 2.03405,-0.42178 0.6032,-0.0779 1.2521,-0.19959 1.44201,-0.27051 0.18989,-0.0709 0.65936,-0.17504 1.04327,-0.2314 0.3839,-0.0564 0.83327,-0.12862 0.99859,-0.16048 0.16533,-0.032 0.8246,-0.12508 1.46502,-0.20724 0.64044,-0.0822 1.55376,-0.21201 2.02964,-0.28853 2.5489,-0.40994 5.08081,-0.58788 9.05286,-0.6363 3.05611,-0.0374 2.84027,0.0415 3.59599,-1.31195 0.78756,-1.41055 0.8778,-2.23133 0.76455,-6.95465 -0.0546,-2.28185 -0.15746,-4.79775 -0.22839,-5.59085 -0.36609,-4.09455 -0.4445,-5.67512 -0.38274,-7.71476 0.0848,-2.80215 -0.10123,-5.2084 -0.46283,-5.98434 -0.32153,-0.6901 -0.688,-1.59393 -1.31557,-3.24453 -0.42483,-1.11743 -1.02124,-2.17 -1.68564,-2.97495 -0.13946,-0.16894 -0.99981,-0.69556 -1.91187,-1.17016 -1.52518,-0.79364 -1.80305,-0.88628 -3.46085,-1.1541 -2.18542,-0.35301 -5.14732,-0.4144 -6.56114,-0.13595 -0.55518,0.10936 -1.37257,0.37117 -1.81643,0.58184 -0.44386,0.21073 -1.03268,0.38309 -1.30848,0.38309 -0.34175,0 -0.72755,0.16074 -1.21133,0.5047 -0.39043,0.27759 -0.77497,0.50746 -0.85454,0.51084 -0.29065,0.0127 -1.34618,1.09696 -1.85619,1.90732 -0.28796,0.45757 -0.52359,0.87025 -0.52359,0.91703 0,0.0469 -0.28752,0.74539 -0.63896,1.55248 -0.35141,0.80707 -0.73398,1.72464 -0.85013,2.03908 -0.11616,0.31445 -0.43247,1.12328 -0.70293,1.79741 -0.27044,0.67414 -0.60619,1.77729 -0.74615,2.45143 -0.13993,0.67413 -0.35257,1.6475 -0.47254,2.163 -0.11995,0.51553 -0.27331,1.87823 -0.34079,3.02823 -0.10229,1.74249 -0.19394,2.29515 -0.55022,3.31663 -0.62189,1.783 -0.80644,2.16771 -1.45198,3.02682 -0.80951,1.07736 -3.05627,2.59702 -3.83959,2.59702 -0.12984,0 -0.70117,0.15836 -1.26966,0.3519 -0.5685,0.19355 -1.39053,0.42426 -1.82675,0.51268 -0.4362,0.0884 -1.18244,0.23834 -1.6583,0.33306 -0.51872,0.10323 -2.04907,0.16669 -3.82133,0.1583 l -2.95612,-0.014 -2.30723,-0.60745 c -1.26897,-0.3341 -2.41265,-0.68475 -2.54152,-0.77914 -2.61388,-1.91522 -4.03798,-3.69331 -4.8279,-6.02816 -0.29598,-0.87483 -0.34534,-1.29536 -0.34534,-2.94269 0,-1.81522 0.025,-1.98474 0.45021,-3.05047 0.61548,-1.54268 1.04205,-2.37058 1.91873,-3.72409 0.41098,-0.63449 0.79215,-1.25094 0.84703,-1.3699 0.1056,-0.22888 0.92032,-1.47463 1.57085,-2.40204 0.47962,-0.68369 3.1513,-3.44556 4.51416,-4.66649 1.56354,-1.40073 4.43615,-3.45817 4.82834,-3.45817 0.12312,0 0.4515,-0.15464 0.72972,-0.34373 0.27824,-0.18909 1.07689,-0.58008 1.77478,-0.86899 0.6979,-0.2889 1.41001,-0.61484 1.58247,-0.72429 0.17245,-0.10945 0.86512,-0.37685 1.53926,-0.59429 0.67415,-0.21738 1.67995,-0.55257 2.23511,-0.74485 0.55518,-0.19228 1.8795,-0.5728 2.94294,-0.84561 1.61449,-0.41415 2.08192,-0.48081 2.8332,-0.40381 0.7069,0.0723 1.21963,0.0136 2.39254,-0.27542 0.82104,-0.2022 1.68747,-0.411 1.92541,-0.46406 0.7158,-0.15966 4.73711,-0.62993 7.42637,-0.86849 1.38793,-0.12311 3.01018,-0.27583 3.605,-0.33933 2.02675,-0.21637 6.51417,-0.1961 7.66299,0.0346 0.58366,0.1172 1.61276,0.2555 2.2869,0.30738 0.67414,0.0518 1.43263,0.15839 1.68554,0.23684 0.34926,0.1083 0.56109,0.0902 0.88097,-0.0752 0.69485,-0.35933 3.65252,0.0342 5.09246,0.67757 0.42724,0.19087 1.32837,0.5244 2.00251,0.74113 0.67413,0.21677 2.13418,0.83719 3.24452,1.37872 1.11035,0.54152 2.18104,1.03198 2.3793,1.08988 0.48098,0.14052 1.35638,0.70055 2.22107,1.42097 1.40085,1.16703 3.91815,3.59432 4.42383,4.26561 0.28399,0.37699 0.74587,0.96934 1.02638,1.31632 0.78404,0.9698 2.66778,4.92132 2.91648,6.11796 0.11623,0.55928 0.31639,1.32625 0.44477,1.70441 0.46618,1.37306 0.95658,4.21302 0.99921,5.78656 0.015,0.55518 0.11131,1.16416 0.2139,1.35319 0.18304,0.33744 0.23342,1.27551 0.56241,10.47131 0.12366,3.45656 0.0852,11.95342 -0.0558,12.32919 -0.10523,0.28034 -0.18951,3.67369 -0.27588,11.1035 -0.0383,3.2914 -0.11481,8.45017 -0.17009,11.46399 -0.16947,9.23926 -0.0571,19.03545 0.2347,20.47161 0.4519,2.22361 1.53751,3.88028 2.78833,4.25501 0.32872,0.0985 0.9938,0.36623 1.47793,0.59498 1.54493,0.72991 2.95399,0.99687 5.05514,0.95767 2.29517,-0.0428 2.64837,0.0954 3.00748,1.17646 0.31967,0.9625 0.27736,2.9582 -0.0795,3.75558 -0.14404,0.32174 -0.32079,0.58504 -0.39274,0.58504 -0.072,0 -0.55124,0.41422 -1.06508,0.92055 -0.84177,0.82943 -1.01147,0.93185 -1.71477,1.03504 -0.4293,0.0631 -1.30154,0.10008 -1.9383,0.0825 -0.72386,-0.0203 -1.48046,0.0566 -2.01882,0.20465 -0.55042,0.15141 -1.84956,0.2792 -3.60089,0.35419 -1.50691,0.0646 -2.93449,0.19467 -3.17243,0.28907 -0.24717,0.0981 -1.4833,0.19882 -2.88401,0.23496 -1.96757,0.0508 -5.33458,0.37523 -7.21005,0.69473 -0.15863,0.027 -0.47614,0.008 -0.70559,-0.0446 z m -31.09076,-12.15297 c 0.3569,-0.07 1.29782,-0.22889 2.09093,-0.35299 2.22511,-0.3482 3.33756,-0.79764 5.39474,-2.17951 1.93889,-1.30242 2.61285,-1.91708 3.60672,-3.28947 0.34462,-0.47587 0.69901,-0.93011 0.7875,-1.00941 0.6618,-0.59306 2.22257,-2.96616 2.77609,-4.22089 0.27064,-0.61349 0.75377,-1.92712 1.27824,-3.47563 0.3314,-0.97846 0.84617,-3.11891 1.21819,-5.06529 0.0834,-0.43621 0.25,-1.15 0.37028,-1.5862 0.31604,-1.14612 0.79329,-6.00467 0.79321,-8.07526 -3e-5,-0.59484 0.0911,-1.82775 0.20263,-2.73983 0.17932,-1.46726 0.28332,-3.38358 0.26605,-4.90283 -0.003,-0.27758 -0.0795,-1.28339 -0.16964,-2.23513 -0.0901,-0.95172 -0.22898,-2.57397 -0.30852,-3.60502 -0.0795,-1.03103 -0.17332,-1.95572 -0.20843,-2.05485 -0.0823,-0.23233 -1.5505,-0.22332 -3.38946,0.0206 -0.75346,0.10008 -1.4759,0.15502 -1.60543,0.12223 -0.12951,-0.033 -0.42152,0.0338 -0.6489,0.14813 -0.56212,0.28248 -1.79722,0.49582 -3.94633,0.68147 -2.02117,0.17467 -4.27323,0.55973 -6.86359,1.17357 -0.95948,0.22738 -1.91477,0.41341 -2.12287,0.41341 -0.20812,0 -0.73286,0.15676 -1.16611,0.34837 -0.43326,0.19161 -1.45713,0.55765 -2.27528,0.81349 -0.81815,0.25581 -1.90934,0.66417 -2.42486,0.90747 -1.79228,0.84588 -3.79654,2.30604 -4.72034,3.43888 -0.21354,0.26186 -0.76351,0.88382 -1.22216,1.38207 -0.45865,0.49831 -0.95726,1.14721 -1.10802,1.44204 -0.15078,0.29481 -0.54035,0.83801 -0.86574,1.20707 -0.32538,0.36906 -0.5916,0.7085 -0.5916,0.75428 0,0.0458 -0.25372,0.62482 -0.5638,1.28674 -0.31008,0.6619 -0.66102,1.53086 -0.77984,1.931 -0.11882,0.40015 -0.31553,0.9199 -0.43712,1.15503 -0.32183,0.62233 -0.91124,3.11485 -1.03295,4.36809 -0.0578,0.59484 -0.13179,1.27618 -0.1645,1.51413 -0.0328,0.23791 -0.0622,1.87596 -0.0653,3.64006 -0.004,2.43274 0.0465,3.39057 0.2106,3.96554 0.11899,0.41692 0.25862,1.08249 0.31031,1.47904 0.13238,1.01579 0.89353,3.29572 1.45519,4.35885 1.20594,2.28259 2.99767,4.21222 5.28475,5.69146 3.25578,2.10576 4.05762,2.51046 5.37201,2.71137 0.84501,0.12914 4.32517,0.0221 5.26335,-0.16224 z"
           style="fill:#c7d2fe;fill-opacity:1;stroke:#000000;stroke-width:2.83116174;stroke-miterlimit:4;stroke-dasharray:none;stroke-opacity:1"
           inkscape:connector-curvature="0" />
        <path
           id="path939"
           d="m -462.92383,423.31445 v 5.16993 h 171.09571 v -5.16993 z"
           style="color:#000000;font-style:normal;font-variant:normal;font-weight:normal;font-stretch:normal;font-size:medium;line-height:normal;font-family:sans-serif;font-variant-ligatures:normal;font-variant-position:normal;font-variant-caps:normal;font-variant-numeric:normal;font-variant-alternates:normal;font-feature-settings:normal;text-indent:0;text-align:start;text-decoration:none;text-decoration-line:none;text-decoration-style:solid;text-decoration-color:#000000;letter-spacing:normal;word-spacing:normal;text-transform:none;writing-mode:lr-tb;direction:ltr;text-orientation:mixed;dominant-baseline:auto;baseline-shift:baseline;text-anchor:start;white-space:normal;shape-padding:0;clip-rule:nonzero;display:inline;overflow:visible;visibility:visible;opacity:0;isolation:auto;mix-blend-mode:normal;color-interpolation:sRGB;color-interpolation-filters:linearRGB;solid-color:#000000;solid-opacity:1;vector-effect:none;fill:#ffffff;fill-opacity:0.144385;fill-rule:nonzero;stroke:#000000;stroke-width:5.1698966;stroke-linecap:butt;stroke-linejoin:miter;stroke-miterlimit:4;stroke-dasharray:none;stroke-dashoffset:0;stroke-opacity:0.74866315;color-rendering:auto;image-rendering:auto;shape-rendering:auto;text-rendering:auto;enable-background:accumulate" />
      </g>
    </g>
  </g>
  <path
     style="opacity:1;fill:#c7d2fe;fill-opacity:1;stroke:#000000;stroke-width:6;stroke-linecap:round;stroke-linejoin:bevel;stroke-miterlimit:4;stroke-dasharray:none;stroke-dashoffset:0;stroke-opacity:1;paint-order:normal"
     d="M 50.045723,531.43201 H 540.18516 v 22.33694 H 50.045723 Z"
     id="rect21" />
</svg>
