<svg
   xmlns:dc="http://purl.org/dc/elements/1.1/"
   xmlns:cc="http://creativecommons.org/ns#"
   xmlns:rdf="http://www.w3.org/1999/02/22-rdf-syntax-ns#"
   xmlns:svg="http://www.w3.org/2000/svg"
   xmlns="http://www.w3.org/2000/svg"
   viewBox="0 0 1177.4124 713.17327"
   id="svg150"
   version="1.1">
  <metadata
     id="metadata156">
    <rdf:RDF>
      <cc:Work
         rdf:about="">
        <dc:format>image/svg+xml</dc:format>
        <dc:type
           rdf:resource="http://purl.org/dc/dcmitype/StillImage" />
        <dc:title></dc:title>
      </cc:Work>
    </rdf:RDF>
  </metadata>
  <defs
     id="defs154" />
  <path
     id="path160"
     d="m 12.307806,702.55117 c -1.49456,-0.6952 -1.99857,-1.7113 -1.97979,-3.9912 0.0168,-2.0404 0.4996,-3.1134 1.66539,-3.7014 1.48683,-0.7499 2.5007,-1.0041 4.19199,-1.0509 4.34394,-0.1203 7.22359,-1.0904 9.539,-3.2137 0.57763,-0.5298 1.3372,-1.1752 1.68795,-1.4345 1.89475,-1.4004 3.33659,-3.1747 3.77239,-4.6423 0.1718,-0.5784 0.63001,-1.4679 1.01823,-1.9765 l 0.70586,-0.9247 0.12894,-5.9486 c 0.0709,-3.2716 0.246,-7.0803 0.38905,-8.4637 0.14307,-1.3833 0.26011,-4.6845 0.26011,-7.336 0,-9.7598 -0.30763,-30.35458 -0.54008,-36.15583 -0.20977,-5.23553 -0.36088,-20.20163 -0.46556,-46.11182 -0.0172,-4.26626 0.081,-9.18019 0.22192,-11.10875 0.25971,-3.55251 0.36097,-17.40722 0.1532,-20.95993 -0.0641,-1.09515 -0.21075,-2.82514 -0.326,-3.84443 -0.11524,-1.01931 -0.30609,-3.00003 -0.4241,-4.40159 -0.31597,-3.75255 -0.41649,-4.56914 -1.02325,-8.31231 -0.12145,-0.74932 -0.26654,-1.97548 -0.3224,-2.7248 -0.23707,-3.18001 -0.50383,-5.437 -0.8051,-6.81197 -0.17682,-0.80695 -0.519,-2.69335 -0.76042,-4.19198 -0.50851,-3.15669 -0.49973,-3.10934 -0.92916,-5.01532 -0.53333,-2.36722 -0.97949,-2.85087 -3.9486,-4.28047 -5.23256,-2.51938 -4.73875,-2.36205 -7.81927,-2.49121 l -2.78794,-0.11686 -1.32314,-1.47787 -1.32314,-1.4778 -0.14345,-1.96172 c -0.0789,-1.07892 -0.23577,-2.07425 -0.34863,-2.21173 -0.27852,-0.33949 -0.53156,-2.50891 -0.35686,-3.05936 0.24522,-0.77257 1.1209,-1.05481 2.86401,-0.92296 1.04127,0.0787 2.127,0.007 3.23273,-0.21465 2.57475,-0.51528 5.09402,-0.77086 6.59048,-0.66848 1.30247,0.0892 8.69574,-0.42877 9.02482,-0.63214 0.0869,-0.0537 3.1144,-0.15281 6.72775,-0.22028 3.61336,-0.0674 7.3243,-0.20567 8.24654,-0.30719 0.92224,-0.10146 2.80862,-0.31911 4.19198,-0.48365 1.67851,-0.19957 3.80509,-0.26927 6.39278,-0.20947 5.29213,0.12235 5.13149,0.0847 5.77392,1.3525 0.62705,1.23743 0.89037,1.3793 1.74232,0.93875 1.00259,-0.5185 1.58753,-0.41521 2.31018,0.40786 0.75436,0.85916 0.96762,1.5213 0.91009,2.82573 -0.0814,1.84447 -0.15058,11.73756 -0.0821,11.73756 0.0383,0 1.26444,-1.24122 2.72479,-2.75827 1.55423,-1.61457 3.22002,-3.12178 4.01752,-3.63504 0.74932,-0.48227 2.3056,-1.61529 3.45839,-2.51774 3.96047,-3.10063 7.04229,-4.83578 11.10876,-6.25464 2.12569,-0.74165 3.43908,-1.04963 5.97358,-1.40064 1.78683,-0.24753 4.08335,-0.62827 5.103384,-0.84619 1.02002,-0.21786 3.42517,-0.54509 5.34478,-0.72718 1.91959,-0.18209 4.10326,-0.40394 4.85258,-0.49309 2.18704,-0.2601 8.7813,-0.0708 9.65772,0.27714 0.41239,0.16374 1.46005,0.39653 2.32814,0.51725 0.86812,0.12071 2.23988,0.45816 3.0484,0.74977 0.80849,0.29167 1.62944,0.53029 1.82433,0.53029 0.55818,0 4.84452,1.02887 7.03571,1.68878 1.09516,0.32985 2.227,0.66207 2.5152,0.73825 0.28819,0.0762 1.29651,0.50454 2.2407,0.95177 0.94418,0.44724 1.81982,0.81318 1.94585,0.81318 0.12606,0 0.42599,0.33359 0.66657,0.74132 0.24058,0.40775 0.7394,0.86755 1.1085,1.02174 0.36911,0.15425 1.16024,0.84285 1.75808,1.53013 0.59784,0.68736 2.03873,2.09043 3.20197,3.11786 1.16323,1.0275 2.60083,2.46875 3.19462,3.20281 1.55069,1.91698 5.3674,7.23615 6.57286,9.16027 0.859,1.3711 2.54768,4.9599 3.34617,7.11137 0.51341,1.38335 1.11203,2.8201 1.33024,3.19278 0.21821,0.3727 0.53613,1.12726 0.70649,1.6768 0.29345,0.94667 0.7755,2.26747 1.77988,4.87678 0.24406,0.63404 0.44378,1.37124 0.44385,1.63815 6e-5,0.26698 0.111,0.69142 0.24652,0.9432 0.29145,0.54148 1.39732,4.4534 1.64038,5.80263 0.0934,0.51875 0.37021,1.7449 0.61504,2.72478 0.39427,1.57802 1.62513,7.56614 1.99303,9.69625 0.0749,0.43355 0.30874,2.76036 0.51969,5.17063 0.34351,3.92546 0.35344,4.65185 0.0951,6.96687 -0.15861,1.42154 -0.28056,4.42379 -0.27098,6.67174 0.0147,3.46468 -0.047,4.33241 -0.40534,5.69717 -0.2325,0.88549 -0.48611,2.30029 -0.56351,3.14399 -0.0774,0.8437 -0.31438,2.21579 -0.5266,3.04914 -0.21222,0.83336 -0.49423,2.29531 -0.62667,3.24879 -0.13247,0.95348 -0.51373,2.86548 -0.84725,4.24884 -0.33351,1.38335 -0.66092,2.93962 -0.7276,3.45838 -0.25369,1.9739 -0.58937,3.12028 -1.65705,5.65918 -0.60597,1.44099 -1.15959,2.86116 -1.23026,3.15591 -0.0707,0.29481 -0.55569,1.1864 -1.07785,1.98137 -0.52215,0.79503 -0.94936,1.55758 -0.94936,1.69467 0,0.13703 -0.42818,1.01059 -0.95153,1.94122 -0.52332,0.93062 -1.05924,2.00193 -1.19089,2.38065 -0.32575,0.93704 -1.54507,3.02157 -2.36442,4.04212 -0.37019,0.46112 -0.74598,1.0742 -0.83506,1.3624 -0.29467,0.95334 -1.20185,2.60944 -1.81254,3.30891 -0.33083,0.37892 -0.84845,1.18064 -1.15028,1.7816 -0.30181,0.60095 -0.71692,1.25287 -0.92245,1.44872 -0.31652,0.30149 -0.98126,1.24534 -3.13917,4.45726 -0.57827,0.86073 -3.24034,3.96732 -3.95136,4.61124 -0.38642,0.34991 -1.09382,1.02056 -1.57199,1.49033 -1.08701,1.06783 -2.01522,1.73489 -3.48942,2.50751 -0.63404,0.33235 -1.67155,1.08602 -2.30559,1.67482 -0.63403,0.5888 -1.67155,1.3153 -2.30558,1.6145 -0.63405,0.2992 -2.03876,1.0678 -3.12158,1.7081 -1.08282,0.6402 -2.45045,1.3211 -3.0392,1.5131 -0.58872,0.1921 -2.37503,0.8615 -3.96957,1.4876 -1.63238,0.641 -3.66246,1.2716 -4.646,1.4434 -0.96076,0.1676 -2.17218,0.493 -2.69203,0.7229 -0.51987,0.23 -1.73035,0.5158 -2.68997,0.6352 -0.95964,0.1195 -2.82945,0.3693 -4.15516,0.5552 -3.89825,0.5467 -7.52601,0.3955 -11.842364,-0.4935 -1.42982,-0.2945 -3.14124,-0.8379 -3.56319,-1.1314 -0.34723,-0.2415 -2.2439,-0.7841 -3.22971,-0.9241 -0.50826,-0.072 -1.59294,-0.4019 -2.41039,-0.7329 -1.62557,-0.6583 -4.15097,-1.4786 -4.55167,-1.4786 -0.13914,0 -1.20409,-0.4604 -2.36657,-1.0231 -1.16248,-0.5627 -2.34681,-1.0945 -2.63185,-1.1817 -0.28504,-0.087 -2.52048,-1.1698 -4.96762,-2.4056 -2.44718,-1.2358 -4.76059,-2.37239 -5.14095,-2.52579 -0.38034,-0.15333 -1.04337,-0.49681 -1.47336,-0.76334 -0.43001,-0.26644 -0.86716,-0.48443 -0.97145,-0.48443 -0.26146,0 -0.4071,1.40457 -0.73892,7.12636 -0.49652,8.5614 -0.51143,9.707 -0.17986,13.8335 0.0973,1.2105 0.10468,3.3327 0.0165,4.716 -0.092,1.4432 -0.0739,3.2276 0.0425,4.1865 0.11152,0.9193 0.20331,3.1358 0.20398,4.9256 0,1.7899 0.0935,3.8177 0.20621,4.5063 0.11276,0.6885 0.26107,3.3294 0.32963,5.8687 0.12568,4.6555 0.44609,7.1105 1.09497,8.3897 0.6489,1.2791 1.96507,2.8384 2.72271,3.2255 0.42925,0.2194 1.21666,0.8802 1.74983,1.4687 0.84727,0.935 1.07163,1.0699 1.78159,1.0708 0.49501,0 1.13963,0.2028 1.65061,0.5174 0.46112,0.284 1.12198,0.5194 1.46857,0.523 0.3466,0.01 0.95968,0.1062 1.3624,0.228 1.45428,0.4395 4.96377,0.9179 6.81059,0.9281 1.47452,0.01 2.01224,0.095 2.46279,0.3977 0.31702,0.213 0.58015,0.4001 0.58472,0.4157 0.034,0.1152 0.66261,3.3078 0.75519,3.835 0.0929,0.5289 0.0276,0.7102 -0.32354,0.8981 -0.24199,0.1295 -0.43997,0.3715 -0.43997,0.5376 0,0.4994 -0.8398,0.8741 -2.82959,1.2629 -2.9511,0.5764 -4.60288,0.6555 -14.56714,0.6977 -5.12995,0.022 -11.79908,0.073 -14.82032,0.1144 -4.03206,0.055 -5.84392,0 -6.81198,-0.2048 -2.35778,-0.5002 -5.17339,-0.5967 -6.27836,-0.2149 -0.56739,0.1959 -1.66605,0.3395 -2.61998,0.3422 -0.90356,0 -2.55706,0.034 -3.67445,0.07 -1.11738,0.035 -2.57933,-0.023 -3.24879,-0.1306 -0.66945,-0.1073 -2.19563,-0.1823 -3.39152,-0.1666 -1.19589,0.015 -2.6766,-0.076 -3.29045,-0.2033 -0.8674,-0.1801 -1.90079,-0.1567 -4.63763,0.1048 -1.93684,0.1851 -3.66287,0.3855 -3.83562,0.4452 -0.17276,0.06 -1.54948,0.1917 -3.05936,0.2929 -1.50989,0.1013 -2.97197,0.2368 -3.24908,0.3012 -0.286,0.067 -0.86632,-0.051 -1.34223,-0.2726 z m 88.567574,-70.76426 c 1.22113,-0.0223 2.35433,-0.12307 2.51818,-0.22433 0.16389,-0.10127 1.38299,-0.24681 2.70912,-0.32344 1.32616,-0.0767 2.74128,-0.24006 3.14476,-0.36313 1.77052,-0.54005 2.86843,-0.9711 3.38595,-1.32939 0.306,-0.21189 0.78032,-0.3852 1.05406,-0.3852 0.80722,0 3.81247,-3.29471 5.54435,-6.07838 1.95002,-3.13429 4.59318,-9.03608 6.06188,-13.53533 0.86143,-2.63898 1.28977,-4.50703 1.6543,-7.21499 0.19399,-1.44099 0.4408,-3.07265 0.54844,-3.62586 0.10765,-0.55328 0.19575,-1.50827 0.19575,-2.12213 0,-0.61393 0.18385,-2.23629 0.4086,-3.6053 0.22472,-1.36902 0.51789,-3.38509 0.65149,-4.48025 0.13359,-1.09516 0.47606,-3.07587 0.76101,-4.40158 0.71683,-3.33493 0.85181,-3.99346 0.96665,-4.71599 0.16014,-1.00758 0.75727,-4.50704 0.98736,-5.78651 0.14192,-0.78914 0.14209,-1.68439 0,-2.72478 -0.11597,-0.85223 -0.25724,-2.58698 -0.31393,-3.85506 -0.0567,-1.26807 -0.19808,-2.91867 -0.3142,-3.66799 -0.11613,-0.74931 -0.35187,-2.35275 -0.52384,-3.56318 -0.17198,-1.21043 -0.40204,-2.67239 -0.51122,-3.24879 -0.16755,-0.88444 -0.43878,-5.57108 -0.94001,-16.24394 -0.0515,-1.09515 -0.18459,-2.27415 -0.29593,-2.61999 -0.11134,-0.34583 -0.30399,-1.14755 -0.42811,-1.78159 -0.51052,-2.60781 -0.85783,-3.97806 -1.48742,-5.86878 -0.36468,-1.09516 -0.80962,-2.46279 -0.98875,-3.03918 -0.17912,-0.5764 -0.59012,-1.61699 -0.91332,-2.31248 -0.32318,-0.6954 -0.68279,-1.95117 -0.79912,-2.79055 -0.11632,-0.83937 -0.36194,-1.75578 -0.5458,-2.03638 -0.18386,-0.2806 -0.64849,-1.28851 -1.0325,-2.23976 -0.38401,-0.95126 -1.14768,-2.37182 -1.69702,-3.1567 -0.54936,-0.78495 -1.17889,-1.901 -1.39897,-2.48014 -0.30417,-0.80054 -0.90176,-1.55157 -2.49184,-3.13174 -1.15047,-1.14318 -2.14009,-2.07857 -2.19923,-2.07857 -0.0591,0 -0.47154,-0.22984 -0.91657,-0.51077 -0.445,-0.28093 -1.40989,-0.76223 -2.14422,-1.06961 -0.73432,-0.30733 -2.28624,-1.02069 -3.44873,-1.58523 -1.16247,-0.56447 -2.36251,-1.02638 -2.66677,-1.02638 -0.30425,0 -0.95657,-0.17928 -1.44959,-0.39844 -1.15774,-0.51456 -3.8187,-0.92485 -4.305454,-0.66384 -1.82249,0.97732 -5.38848,2.29191 -7.17572,2.64534 -1.00725,0.19919 -3.46045,1.5684 -5.03038,2.80759 -2.18352,1.72362 -3.88335,3.87227 -5.05299,6.38727 -0.32589,0.70071 -0.96904,1.88711 -1.42928,2.63643 -0.46022,0.74931 -1.22613,2.04575 -1.70203,2.88101 -0.4759,0.83518 -0.94473,1.56767 -1.04188,1.62773 -0.0971,0.0603 -0.56396,1.09987 -1.03739,2.3107 -0.47342,1.2109 -1.21993,2.97788 -1.65889,3.92664 -0.43897,0.94877 -0.89774,1.96846 -1.01949,2.2659 -0.3769,0.92074 -1.52295,5.81363 -2.15621,9.20554 -0.22599,1.21043 -0.55085,2.86102 -0.7219,3.66798 -0.17106,0.80696 -0.3642,2.26891 -0.42922,3.24879 -0.065,0.97988 -0.24565,2.39466 -0.40144,3.14398 -0.62658,3.01352 -0.72698,3.96221 -0.62424,5.89747 0.059,1.11094 -0.0296,3.42177 -0.19695,5.13518 -0.16733,1.71341 -0.3143,3.91702 -0.32658,4.89689 -0.0123,0.97988 -0.20463,2.91343 -0.42739,4.29678 -0.81117,5.03713 -0.91689,6.93309 -0.91163,16.34874 0.005,9.20186 0.0853,10.62557 0.89733,15.92954 0.1059,0.69168 0.24988,1.76751 0.31995,2.39074 0.0701,0.62329 0.25718,1.38414 0.41579,1.69081 0.15858,0.30667 0.33947,1.1395 0.40194,1.85083 0.0625,0.71126 0.29327,1.64817 0.5129,2.08198 0.21961,0.43386 0.46868,1.11893 0.55346,1.52241 0.0848,0.40347 0.36929,1.20519 0.63226,1.78159 1.79293,3.93011 2.26042,4.81973 2.99987,5.70857 0.45688,0.54928 1.02974,1.39606 1.27297,1.8818 0.24324,0.48575 0.80971,1.28746 1.25884,1.7816 4.53482,4.98911 4.37871,4.84737 7.88101,7.15466 2.04875,1.34969 3.07935,1.86085 5.76398,2.85887 0.73868,0.27464 6.24469,0.63332 7.0178,0.45712 0.22846,-0.0517 1.41452,-0.11272 2.635674,-0.1348 z m 156.34908,14.04426 c -1.78683,-0.3769 -4.28631,-0.8913 -5.55438,-1.1427 -1.26807,-0.2515 -3.29595,-0.6848 -4.50638,-0.963 -1.21043,-0.2782 -3.14399,-0.692 -4.29678,-0.9195 -3.06776,-0.6055 -4.28878,-0.9552 -6.33806,-1.8146 -1.00996,-0.4237 -2.30763,-0.9014 -2.88372,-1.0617 -0.57606,-0.1603 -2.1795,-0.8223 -3.56318,-1.4711 -7.13382,-3.3452 -8.97209,-4.35355 -10.79496,-5.92142 -0.63403,-0.54535 -1.71871,-1.36174 -2.41038,-1.81415 -1.98078,-1.29578 -10.14048,-9.22924 -11.42783,-11.11098 -0.38957,-0.56945 -1.14376,-1.60127 -1.67602,-2.29295 -0.90153,-1.17153 -1.3022,-1.79686 -2.35042,-3.66799 -0.22603,-0.40348 -0.67724,-1.20519 -1.00268,-1.78159 -0.70675,-1.25177 -2.0151,-5.11776 -2.90825,-8.59357 -0.35549,-1.38336 -0.88978,-3.41123 -1.1873,-4.50638 -0.29755,-1.09516 -0.61641,-2.41563 -0.7086,-2.93439 -0.0922,-0.51876 -0.35852,-1.65059 -0.59185,-2.51519 -0.23336,-0.86459 -0.49033,-2.04359 -0.57108,-2.61999 -0.0808,-0.57639 -0.38581,-2.08551 -0.67793,-3.35358 -0.46389,-2.01367 -0.5344,-2.82312 -0.55695,-6.39279 -0.063,-9.98537 0.62842,-17.82463 2.19079,-24.8375 0.52312,-2.34803 0.87446,-4.11764 1.45651,-7.33597 0.2502,-1.38336 0.59184,-2.89246 0.75925,-3.35358 0.67921,-1.871 1.39832,-4.28519 1.74814,-5.86878 0.5882,-2.6627 0.8289,-3.43986 1.70383,-5.50133 0.45243,-1.06594 1.06787,-2.62221 1.36768,-3.45838 0.45661,-1.27345 2.09273,-4.70872 4.13373,-8.67937 0.24631,-0.4792 1.12006,-1.94116 1.94169,-3.24879 0.82165,-1.30771 1.66021,-2.70776 1.86349,-3.11124 0.20329,-0.40348 0.59213,-1.00018 0.86411,-1.32605 0.27198,-0.32585 0.49451,-0.67628 0.49451,-0.77858 0,-0.53436 2.14556,-3.64991 3.45828,-5.02174 0.82732,-0.8646 2.52134,-2.65667 3.76444,-3.98239 1.2431,-1.32571 2.92165,-3.05072 3.73013,-3.83337 1.3899,-1.3455 1.519,-1.42049 2.37061,-1.37641 0.68252,0.0353 1.09448,-0.0875 1.70096,-0.50717 0.44019,-0.30463 1.22074,-0.70189 1.73457,-0.88286 0.51383,-0.18099 1.36947,-0.6083 1.90143,-0.94969 0.53197,-0.34132 1.29055,-0.7294 1.68575,-0.86231 0.3952,-0.13289 1.17818,-0.56644 1.73994,-0.9635 0.56177,-0.39699 1.55213,-0.86001 2.20079,-1.02893 0.64867,-0.16892 1.57223,-0.5373 2.05238,-0.81861 0.48012,-0.28133 1.37616,-0.61217 1.9912,-0.73517 0.615,-0.12302 1.30685,-0.30405 1.5374,-0.40237 0.99168,-0.42267 6.99036,-2.30291 7.75517,-2.43076 1.09591,-0.18314 2.98885,-0.66332 3.24902,-0.82412 0.67485,-0.4171 5.68568,-1.41551 7.96454,-1.58693 1.44099,-0.1084 3.31064,-0.29081 4.15476,-0.40544 1.95892,-0.26586 3.50563,-0.26488 6.6396,0.007 1.38335,0.11881 3.92998,0.3083 5.65918,0.42116 4.75284,0.31021 9.71008,0.88608 12.68075,1.47309 1.75821,0.34735 2.66434,0.6721 5.62545,2.01595 0.84607,0.38396 1.5777,0.6981 1.62589,0.6981 0.23838,0 6.43034,3.71528 7.52541,4.51542 1.61961,1.18332 7.81993,7.24965 9.63112,9.42292 0.76856,0.92225 2.14418,2.87289 3.05692,4.33471 1.55372,2.48847 5.18132,9.62329 6.69447,13.16683 0.63471,1.48638 1.69139,4.80795 1.96705,6.18318 0.0693,0.34583 0.2633,1.25995 0.43108,2.03134 0.16776,0.77139 0.30082,2.2805 0.29567,3.35359 -0.0101,2.07077 0.0521,2.76219 0.66394,7.40062 0.21288,1.61391 0.54201,4.9151 0.73133,7.33596 0.18935,2.42088 0.5034,5.10899 0.69789,5.97358 0.65371,2.90596 0.3695,5.61464 -0.68055,6.48612 -0.18052,0.14986 -0.32821,0.43301 -0.32821,0.62938 0,0.19637 -0.21222,0.55426 -0.4716,0.79536 -0.50113,0.46578 -1.07286,0.48326 -4.91608,0.15066 -2.68651,-0.23253 -6.57726,-0.0118 -12.74265,0.72305 -0.80696,0.0961 -2.50472,0.12818 -3.77279,0.0711 -2.63575,-0.11856 -2.96907,-0.12039 -12.47115,-0.0692 -10.21526,0.055 -10.60558,0.0478 -15.19595,-0.27366 -2.30559,-0.16152 -4.5221,-0.30313 -4.92558,-0.31466 -0.40348,-0.0118 -2.38419,-0.16335 -4.40159,-0.33739 -4.70065,-0.40538 -17.6425,-0.69344 -26.49347,-0.5897 l -6.89599,0.0809 -0.64959,0.51921 c -0.35728,0.28558 -0.75621,0.60529 -0.8865,0.71048 -0.41651,0.33621 -0.11356,10.47806 0.36623,12.25991 0.12214,0.45359 0.25716,2.24566 0.30007,3.98239 0.0429,1.73673 0.17604,3.48714 0.29589,3.88983 0.11984,0.40276 0.222,1.2988 0.22703,1.99119 0.005,0.69247 0.0941,1.63625 0.19788,2.09737 0.50577,2.24651 0.8967,4.06151 1.0383,4.82079 0.086,0.46111 0.76846,2.48899 1.51657,4.50638 0.74811,2.01739 1.48106,4.09242 1.62873,4.61118 0.3399,1.19386 1.18837,3.2385 1.73958,4.19198 0.23324,0.40348 0.80352,1.441 1.26728,2.3056 0.46376,0.86459 1.46635,2.42086 2.22799,3.45838 0.76163,1.03752 1.56539,2.16935 1.78614,2.51519 0.22075,0.34584 0.83241,1.1602 1.35926,1.80969 0.52683,0.6495 1.38121,1.78133 1.8986,2.5152 0.5174,0.73386 2.16799,2.56464 3.66799,4.06838 2.45896,2.46509 2.91285,2.82369 4.61366,3.64499 1.03752,0.50101 2.49947,1.21712 3.24879,1.59139 0.74931,0.37426 2.02263,0.89223 2.82959,1.15109 0.80695,0.25892 1.87134,0.59971 2.3653,0.75737 0.49399,0.15766 1.30519,0.28663 1.80272,0.28663 0.49753,0 1.17805,0.0919 1.51229,0.2041 0.82602,0.27752 4.8664,0.66921 8.0168,0.77722 1.91593,0.0657 3.00501,0 4.19198,-0.26161 0.882,-0.1927 2.31103,-0.46269 3.17563,-0.60004 0.8646,-0.13729 1.76064,-0.34918 1.9912,-0.47075 0.23055,-0.12156 1.07925,-0.28597 1.88603,-0.36536 0.92855,-0.0913 1.7905,-0.32514 2.34877,-0.63717 0.48507,-0.27111 1.37937,-0.65815 1.98734,-0.86008 0.60794,-0.20194 1.54541,-0.58819 2.08324,-0.85832 0.53781,-0.27011 1.11104,-0.49118 1.27384,-0.49118 0.39708,0 2.8753,-1.2568 3.64139,-1.84677 0.3371,-0.25956 1.27317,-0.99775 2.08012,-1.64037 0.80696,-0.64261 1.90103,-1.38866 2.43127,-1.6578 0.93351,-0.47382 2.60543,-2.21421 3.4519,-3.59325 0.22574,-0.36778 0.73929,-0.88896 1.14122,-1.15816 0.40192,-0.26921 1.01374,-0.9525 1.35958,-1.51848 0.34584,-0.56599 1.15166,-1.60108 1.79071,-2.30023 0.63905,-0.6992 1.43988,-1.64842 1.77962,-2.10941 0.33977,-0.46099 1.14792,-1.35703 1.7959,-1.9912 1.52468,-1.49214 3.0458,-4.30824 3.43749,-6.36382 0.34686,-1.82044 0.84348,-2.35078 1.9858,-2.12069 0.40614,0.0818 0.97424,0.13657 1.26243,0.12164 2.24483,-0.11613 2.42094,-0.0837 4.08719,0.75285 0.92223,0.46302 1.9825,0.96095 2.35615,1.10649 1.0215,0.39791 1.54871,1.41329 1.57321,3.02995 0.0113,0.74362 -0.0776,1.47571 -0.19751,1.62675 -0.1199,0.15105 -0.38446,0.78462 -0.58792,1.40792 -0.42877,1.31367 -1.3445,2.85284 -3.22564,5.42167 -0.73661,1.00595 -1.46321,2.11191 -1.61468,2.45775 -0.15146,0.34584 -0.89484,1.3193 -1.65194,2.1632 -0.75711,0.84396 -1.68111,2.1066 -2.05331,2.80588 -0.37221,0.69927 -0.80838,1.51795 -0.96932,1.81918 -0.30945,0.57935 -1.01905,1.70647 -2.58806,4.1109 -0.5266,0.80696 -1.68187,2.1746 -2.56728,3.03919 -0.88543,0.8646 -1.93067,2.06717 -2.32276,2.67239 -0.39208,0.60522 -0.79308,1.10039 -0.89109,1.10039 -0.098,0 -0.59438,0.42372 -1.10299,0.9416 -0.50864,0.518 -1.03391,0.9424 -1.16726,0.9432 -0.37128,0 -2.74156,1.1716 -4.26298,2.1028 -0.74881,0.4583 -1.50337,0.8335 -1.67679,0.8339 -0.17345,0 -0.96152,0.3261 -1.7513,0.7239 -0.78977,0.3978 -1.87445,0.7886 -2.4104,0.8685 -0.53592,0.08 -1.25738,0.356 -1.60322,0.6137 -1.10209,0.8212 -1.94625,1.1488 -3.29593,1.2792 -0.72338,0.07 -1.54038,0.268 -1.81557,0.4402 -0.27516,0.1722 -1.31268,0.3948 -2.30558,0.4946 -3.13205,0.3149 -5.33674,0.7262 -6.31167,1.1777 -1.34158,0.6211 -2.46126,0.8961 -3.66799,0.901 -0.5764,0 -1.43559,0.1393 -1.90933,0.3044 -1.39384,0.4857 -6.05448,0.8079 -12.44821,0.8608 l -5.97358,0.049 -3.24879,-0.6857 z m 1.4672,-94.29154 c 11.36526,-0.15274 21.36845,-0.17487 24.4183,-0.0537 1.61392,0.0642 4.06623,0.0472 5.44959,-0.0367 l 2.51518,-0.15334 0.0176,-2.51519 c 0.0197,-2.79553 0.18602,-4.21916 0.63213,-5.40845 0.26054,-0.69462 0.25882,-0.95262 -0.0135,-2.00311 -0.2003,-0.77303 -0.30803,-2.14387 -0.30011,-3.81929 0.009,-1.84106 -0.0807,-2.85972 -0.30243,-3.44653 -0.55167,-1.45979 -1.56145,-4.96848 -1.92875,-6.70173 -0.42895,-2.02421 -1.16736,-4.13789 -2.08686,-5.97358 -0.37535,-0.74932 -0.80294,-1.834 -0.95028,-2.4104 -0.37055,-1.44989 -1.22701,-3.22749 -2.62569,-5.44958 -0.65306,-1.03751 -1.56377,-2.63439 -2.02381,-3.54871 -1.38796,-2.75845 -3.33487,-5.03378 -5.40064,-6.31168 -0.95425,-0.59035 -1.51269,-0.89355 -5.97772,-3.24558 -1.38335,-0.72869 -2.79593,-1.55608 -3.13907,-1.83865 -0.56416,-0.46459 -0.75476,-0.50231 -1.99119,-0.39437 -0.8512,0.0743 -2.07939,0.40577 -3.25371,0.8781 -1.03752,0.41729 -2.40515,0.93226 -3.03919,1.14427 -2.36703,0.79163 -4.49756,1.69206 -5.70345,2.4104 -0.68385,0.40734 -1.32674,0.74066 -1.42865,0.74066 -0.24261,0 -1.25998,0.6964 -2.89762,1.98347 -1.83275,1.4404 -3.20047,3.24296 -4.22877,5.57324 -0.48057,1.089 -0.97816,2.16869 -1.10573,2.39926 -1.04933,1.89634 -1.85293,3.89153 -2.24094,5.56387 -0.2529,1.08992 -0.73928,2.83058 -1.08084,3.86809 -1.01421,3.08065 -1.65912,5.52648 -2.05088,7.7779 -0.11818,0.67917 -0.4074,1.8951 -0.64274,2.70206 -0.23533,0.80695 -0.51666,2.31607 -0.62522,3.35359 -0.10853,1.03752 -0.38943,2.63243 -0.6242,3.54432 -0.23477,0.91182 -0.42687,2.28011 -0.42687,3.04056 0,0.76045 -0.10218,1.71217 -0.22708,2.11486 -0.30224,0.97463 -0.50232,3.13829 -0.42876,4.6368 0.0321,0.65198 0.35332,0.79765 3.06623,1.39035 2.02542,0.44252 1.8996,0.44135 20.64552,0.18937 z m 620.3226,92.13284 c -0.056,-0.056 -1.7792,-0.093 -3.8302,-0.084 -3.941,0.018 -6.9395,-0.2411 -8.2861,-0.7162 -0.447,-0.1577 -1.6218,-0.4789 -2.6105,-0.7137 -0.9889,-0.2349 -2.2214,-0.6143 -2.7391,-0.8433 -0.5176,-0.229 -1.0838,-0.4164 -1.258,-0.4164 -0.1743,0 -1.3649,-0.3741 -2.6458,-0.8315 -1.2808,-0.4574 -2.706,-0.9275 -3.1672,-1.0447 -0.4611,-0.1172 -1.818,-0.8254 -3.0153,-1.5738 -1.6473,-1.0297 -2.4635,-1.706 -3.3555,-2.78049 -1.5261,-1.83851 -2.9564,-3.72667 -2.9564,-3.90299 0,-0.20718 -0.8662,-1.91194 -1.9333,-3.80482 -0.5199,-0.92223 -1.1932,-2.11865 -1.4963,-2.65869 -0.3031,-0.54006 -0.6901,-1.48325 -0.86,-2.096 -0.3176,-1.14493 -0.9146,-3.04901 -1.9924,-6.35407 -0.3384,-1.03751 -0.7127,-2.50392 -0.8319,-3.25867 -0.1191,-0.75476 -0.361,-1.83943 -0.5376,-2.4104 -0.8909,-2.87916 -1.1319,-9.0495 -0.5031,-12.88045 0.123,-0.74932 0.2995,-1.83793 0.3924,-2.41917 0.5686,-3.56162 1.3286,-6.3012 2.3402,-8.43637 0.4528,-0.9559 1.0103,-2.22921 1.2386,-2.82959 0.2285,-0.60037 1.051,-2.29216 1.8278,-3.75949 1.2414,-2.34489 1.7296,-3.01488 4.0324,-5.53394 1.441,-1.57631 3.4041,-3.53548 4.3624,-4.3537 2.3791,-2.03121 4.72,-3.88093 4.9234,-3.89029 0.092,-0.007 0.9886,-0.53913 1.9912,-1.18862 1.0026,-0.64951 2.1531,-1.39397 2.5566,-1.6544 1.5581,-1.00568 4.9917,-3.00958 6.3928,-3.73106 4.0607,-2.09102 8.2505,-3.10279 17.0823,-4.12517 1.9021,-0.22022 4.4488,-0.55092 5.6592,-0.73498 1.2104,-0.18399 3.0025,-0.41789 3.9824,-0.51974 0.9798,-0.10185 3.9981,-0.42418 6.7072,-0.71631 5.5585,-0.59944 6.1575,-0.65702 9.9559,-0.95682 1.4987,-0.11823 3.1021,-0.30693 3.5632,-0.4192 0.4611,-0.11226 1.4043,-0.21202 2.096,-0.22171 1.223,-0.0171 1.9345,-0.11659 4.2717,-0.59808 1.5627,-0.32193 3.4895,-0.51122 4.7857,-0.47022 l 1.0928,0.0347 -0.094,-16.29975 c -0.098,-17.08142 -0.1572,-18.97607 -0.6367,-20.56456 -0.162,-0.53631 -0.5424,-1.96546 -0.8453,-3.17589 -0.303,-1.21043 -0.8122,-2.77857 -1.1317,-3.48472 -0.6558,-1.44983 -3.7027,-5.00935 -4.5893,-5.36154 -0.3013,-0.11967 -1.0194,-0.43211 -1.5957,-0.6943 -0.5765,-0.26219 -1.5668,-0.64137 -2.2008,-0.84253 -0.6341,-0.20114 -1.5301,-0.50951 -1.9912,-0.68519 -0.5324,-0.20278 -1.833,-0.35225 -3.5632,-0.40937 -2.7711,-0.0915 -3.9613,0.0719 -9.5881,1.31635 -1.5101,0.33398 -5.2888,1.76823 -6.1565,2.33676 -1.2513,0.81993 -3.5026,4.96351 -4.3652,8.03414 -1.2307,4.38102 -1.5922,6.04334 -1.7778,8.17437 -0.1345,1.54422 -0.373,2.82461 -0.664,3.56319 -0.2498,0.63403 -0.5882,1.86018 -0.7521,2.72478 -0.9896,5.22381 -2.1757,8.14869 -4.1062,10.12607 -0.6281,0.64334 -1.4145,1.23415 -1.7476,1.31307 -0.3331,0.0789 -1.2658,0.45431 -2.0728,0.8344 -2.3297,1.09725 -3.8863,1.30437 -10.3752,1.38022 -5.7565,0.0674 -10.1444,-0.0816 -13.3095,-0.45215 -3.5863,-0.41978 -6.4289,-2.68791 -7.8122,-6.23348 -0.6243,-1.60003 -0.7269,-1.95831 -1.0945,-3.82414 -0.3925,-1.9921 -0.1258,-5.76607 0.6432,-9.10184 0.304,-1.31864 0.3589,-1.46471 1.4246,-3.79185 0.4759,-1.03935 0.8653,-1.99197 0.8653,-2.11695 0,-0.17823 1.6847,-3.17641 2.4715,-4.39831 0.989,-1.53603 1.5526,-2.25391 2.5422,-3.23792 1.2742,-1.26708 4.2151,-3.53966 5.306,-4.10028 0.3763,-0.19349 1.203,-0.70071 1.8371,-1.12731 0.634,-0.42654 1.4049,-0.90809 1.7131,-1.07007 0.3081,-0.16198 1.103,-0.60109 1.7664,-0.97575 0.6633,-0.37466 1.3253,-0.6812 1.471,-0.6812 0.1456,0 0.3194,-0.0885 0.3862,-0.19663 0.1409,-0.22794 8.6124,-4.44225 9.8593,-4.90468 0.4611,-0.17096 1.8708,-0.69659 3.1328,-1.168 1.262,-0.4714 2.4659,-0.85706 2.6753,-0.85706 0.2094,0 0.5444,-0.0856 0.7447,-0.19014 1.3772,-0.71959 3.9249,-1.48665 4.9378,-1.48665 0.6955,0 1.5191,-0.16913 2.1219,-0.43577 0.5418,-0.23967 1.1095,-0.38802 1.2614,-0.32973 0.152,0.0583 1.6306,-0.0256 3.2859,-0.1868 3.4906,-0.33962 9.1732,-0.3801 12.3368,-0.0879 1.2104,0.11187 4.3121,0.25231 6.8927,0.31218 4.4824,0.10394 6.3225,0.25951 8.4081,0.71087 0.5187,0.11226 1.9806,0.40674 3.2488,0.6544 1.268,0.24765 2.7771,0.5804 3.3535,0.73949 0.9058,0.25001 2.8847,0.64039 6.8589,1.35309 1.2633,0.22657 5.2194,1.5739 6.4521,2.19732 1.0842,0.54844 3.7089,2.28988 6.2694,4.15957 1.6588,1.21135 4.6854,3.97027 4.8624,4.43243 0.044,0.11528 0.6028,0.64792 1.2413,1.18365 1.0116,0.84868 1.3564,1.36128 2.6787,3.98238 1.0083,1.9986 1.6177,3.49683 1.8159,4.46368 0.164,0.80041 0.6799,2.18684 1.1466,3.08091 0.4665,0.89413 0.8482,1.76109 0.8482,1.92674 0,0.16558 0.1409,0.57123 0.3131,0.90141 0.5244,1.00542 0.3016,1.9325 -0.531,2.21003 -0.4201,0.1401 0.018,0.71663 0.696,0.9164 0.8203,0.24163 1.1158,0.81062 1.4204,2.73501 0.3413,2.15697 0.7548,11.11066 0.5797,12.55486 -0.084,0.69168 -0.2035,9.13329 -0.2662,18.75913 -0.063,9.62585 -0.1606,17.97313 -0.2178,18.54953 -0.057,0.5764 -0.1558,2.17138 -0.2191,3.54438 -0.063,1.37301 -0.1689,2.58338 -0.2346,2.68962 -0.2163,0.35016 -0.1102,8.61453 0.1314,10.21953 0.1646,1.09352 0.1853,3.23078 0.069,7.02157 -0.5411,17.53324 0.1173,25.31271 2.3708,28.01006 0.3905,0.46721 0.7098,0.92643 0.7098,1.02041 0,0.0941 0.3641,0.63162 0.8091,1.19459 0.5774,0.73046 1.2228,1.22838 2.2532,1.7383 l 1.4441,0.71467 4.192,0.1289 c 3.7012,0.11377 4.3053,0.18215 5.1598,0.58367 0.5325,0.25014 1.0642,0.57378 1.1819,0.71925 0.2097,0.25919 0.4495,2.27336 0.543,4.56122 0.026,0.634 0.2087,1.4547 0.4064,1.8236 0.513,0.9577 0.4484,1.4177 -0.2856,2.0354 -0.5706,0.48 -0.8424,0.5457 -2.358,0.5699 -2.7463,0.044 -3.4835,0.095 -5.5907,0.3851 -3.8763,0.5344 -8.7215,1.2631 -10.48,1.5761 -0.9798,0.1744 -3.1492,0.3634 -4.8208,0.4199 -1.6715,0.056 -4.3124,0.1498 -5.8687,0.2073 -7.4722,0.2758 -11.4797,0.1539 -15.7614,-0.4795 -2.3556,-0.3485 -5.9644,-3.1462 -7.4687,-5.79 -0.4806,-0.8448 -0.8739,-1.7372 -0.8739,-1.98314 0,-0.24595 -0.09,-0.61092 -0.201,-0.81115 -0.1107,-0.20016 -0.2922,-0.78835 -0.4035,-1.30711 -0.1112,-0.51876 -0.3592,-1.36763 -0.5509,-1.88639 -0.2409,-0.65166 -0.3849,-1.92681 -0.4661,-4.12504 -0.065,-1.75003 -0.1859,-3.29281 -0.2698,-3.42839 -0.2677,-0.43328 -0.9087,-0.009 -1.9862,1.31655 -3.3838,4.16073 -10.9091,11.40457 -13.6388,13.12847 -3.9567,2.4988 -7.761,3.8542 -13.2947,4.7369 -1.2105,0.1931 -2.8611,0.483 -3.668,0.6441 -2.5735,0.5144 -5.9465,0.7471 -10.2053,0.7043 -2.2782,-0.023 -4.1878,-0.087 -4.2433,-0.1427 z m 17.9703,-16.31032 c 2.5768,-0.0347 4.9463,-0.41803 6.1198,-0.98991 0.5765,-0.28086 1.5475,-0.61701 2.1579,-0.74696 0.9104,-0.19381 2.2541,-0.83721 4.7953,-2.29622 1.1071,-0.63554 4.4216,-3.43133 5.0501,-4.25971 0.4302,-0.5671 1.1952,-1.55509 1.6999,-2.19542 2.1236,-2.69472 3.8049,-5.62748 4.8516,-8.46283 0.9833,-2.66361 2.0049,-6.3521 2.3801,-8.59356 0.3199,-1.9107 0.6649,-8.566 0.603,-11.63276 -0.081,-4.01042 -0.049,-14.86281 0.059,-19.70233 l 0.1208,-5.44957 0.5492,-0.57424 c 0.3021,-0.31578 0.493,-0.63043 0.4242,-0.69915 -0.1925,-0.1925 -6.3187,0.6442 -9.9052,1.35277 -1.1528,0.22775 -3.1806,0.61714 -4.5063,0.86532 -3.0905,0.57849 -9.4969,2.04471 -10.5848,2.4225 -0.4611,0.16015 -2.1782,0.67367 -3.8158,1.14114 -3.0671,0.8756 -7.4217,2.85566 -9.1793,4.17397 -0.4611,0.34584 -1.1045,0.77978 -1.4296,0.96429 -1.4372,0.81541 -3.1158,2.29361 -3.641,3.20628 -0.3103,0.53932 -0.9977,1.6409 -1.5274,2.44786 -0.5298,0.80695 -1.0661,1.70555 -1.1917,1.99689 -0.1256,0.29128 -0.4842,0.83361 -0.7967,1.20519 -0.4822,0.57293 -0.7089,0.67551 -1.493,0.67551 -0.8592,0 -0.9246,0.0393 -0.9246,0.55236 0,0.31753 0.2192,0.75546 0.5155,1.03011 0.7765,0.71971 0.8578,1.41407 0.3638,3.10619 -0.4493,1.53826 -0.7172,3.35555 -1.0861,7.36329 -0.2786,3.02838 -0.2707,9.80773 0.013,11.00395 0.123,0.51876 0.3028,1.61857 0.3996,2.44399 0.2334,1.99047 0.584,3.63779 1.0803,5.07538 0.2239,0.64845 0.5564,1.83923 0.7392,2.6462 0.4595,2.03055 1.6412,5.50662 2.0172,5.93401 0.1713,0.19466 0.5566,0.84337 0.8563,1.44152 0.2997,0.59807 0.7721,1.21116 1.0497,1.36239 0.2777,0.15118 1.0572,0.61138 1.7322,1.02271 1.3334,0.81253 2.4015,1.24247 3.0926,1.24483 0.2423,0 1.3316,0.33771 2.4209,0.7486 1.0894,0.41088 2.457,0.8718 3.0392,1.02422 1.031,0.26999 1.074,0.26278 1.6459,-0.27425 0.5301,-0.49761 0.7551,-0.55373 2.3056,-0.57456 z m -490.4207,15.42322 c -0.2305,-0.099 -2.3527,-0.1884 -4.716,-0.1985 -2.3632,-0.01 -5.1456,-0.1052 -6.1831,-0.2115 -2.8506,-0.2917 -4.8402,-0.3217 -9.32719,-0.1405 -3.30496,0.1335 -4.50542,0.1016 -6.27249,-0.1662 -1.20192,-0.1822 -2.96142,-0.3313 -3.91001,-0.3313 -0.94856,0 -2.9936,-0.1407 -4.5445,-0.3126 -3.06695,-0.34 -10.60633,-0.4879 -11.04531,-0.2166 -0.25044,0.1548 -1.60298,0.253 -9.06432,0.6581 -2.63548,0.1431 -2.67041,0.139 -3.36477,-0.3906 -0.38591,-0.2943 -1.09568,-0.6533 -1.57728,-0.7976 -0.48159,-0.1442 -0.92016,-0.4129 -0.97461,-0.5971 -1.02909,-3.4804 -0.96904,-6.04093 0.17497,-7.46116 l 0.50652,-0.6288 3.32036,-0.007 c 3.66362,-0.007 4.71854,-0.21589 7.19795,-1.42514 1.64033,-0.80002 4.19693,-3.14858 4.8131,-4.42136 0.50194,-1.03693 0.87373,-2.40306 1.37329,-5.0463 0.43089,-2.27979 0.40077,-1.82882 0.85392,-12.78555 0.12849,-3.10652 0.16264,-3.59968 0.47894,-6.91677 0.10994,-1.15281 0.16171,-4.17103 0.11507,-6.70718 -0.0466,-2.53615 0.0199,-5.97882 0.14783,-7.65037 0.46712,-6.1032 0.52354,-9.621 0.21346,-13.30955 -0.22746,-2.70586 -0.29801,-7.49671 -0.29326,-19.91192 0.006,-14.71059 0.0418,-16.46985 0.35997,-17.55793 0.27332,-0.93429 0.33815,-1.8395 0.28529,-3.98238 -0.0926,-3.75314 0.24114,-11.4772 0.51832,-11.99556 0.12328,-0.23056 0.20414,-0.9916 0.17971,-1.6912 -0.0244,-0.69961 0.10851,-1.92577 0.29545,-2.7248 0.38639,-1.65144 0.43133,-4.53966 0.0848,-5.45102 -0.12795,-0.33653 -0.59261,-1.08376 -1.03259,-1.66041 -0.43996,-0.57666 -0.99848,-1.44388 -1.24111,-1.92714 -0.48691,-0.96979 -1.26913,-1.63468 -2.85893,-2.43023 -1.9977,-0.99973 -4.06285,-1.37393 -8.38048,-1.51849 -1.61391,-0.0537 -3.82727,-0.21215 -4.9186,-0.3514 -1.65792,-0.2115 -2.08878,-0.3465 -2.61998,-0.82104 -0.62859,-0.56153 -0.63614,-0.59343 -0.6668,-2.81774 -0.0304,-2.20564 -0.0165,-2.27611 0.7071,-3.59266 0.9515,-1.73102 1.44146,-2.04503 3.24394,-2.07896 0.7832,-0.0144 1.68353,-0.12733 2.00076,-0.25014 0.6577,-0.25466 2.78462,-0.70288 3.72077,-0.78417 0.34585,-0.0301 1.14757,-0.10951 1.7816,-0.17665 5.92617,-0.62742 8.86844,-0.79156 11.21356,-0.62571 3.25067,0.22983 5.38362,0.16112 7.74033,-0.24956 1.53045,-0.26665 2.71875,-0.30333 6.09321,-0.18792 2.9296,0.10015 4.72849,0.0655 5.97358,-0.11567 0.97988,-0.14247 3.19639,-0.24969 4.92563,-0.23829 1.7292,0.0111 3.733,-0.081 4.4529,-0.20528 1.8379,-0.31741 2.4799,-0.12707 3.9106,1.15922 l 1.237,1.11225 0.2669,2.28561 c 0.1967,1.68531 0.2094,2.67082 0.048,3.75268 -0.3995,2.68031 0.5047,13.63423 1.1812,14.31077 0.2284,0.22834 0.5261,-0.27018 2.4867,-4.16427 2.4106,-4.78764 2.7467,-5.2783 5.254,-7.6678 2.9869,-2.84674 5.3454,-4.37538 9.9297,-6.43574 0.7203,-0.32377 1.6329,-0.80793 2.0278,-1.07596 0.395,-0.26809 1.3148,-0.69489 2.0439,-0.94857 1.3524,-0.47042 1.6395,-0.58707 3.8409,-1.56034 1.7887,-0.79084 3.2888,-1.30101 4.3352,-1.47439 0.4976,-0.0825 1.0912,-0.24805 1.3191,-0.36798 1.5837,-0.83355 7.9589,-1.463 10.0564,-0.99291 0.4854,0.10873 2.1923,0.25951 3.793,0.33497 1.6007,0.0755 3.2789,0.26723 3.7292,0.42614 0.4504,0.1589 1.011,0.28892 1.2458,0.28892 0.7411,0 2.7231,0.70005 3.9946,1.41093 0.6739,0.37682 1.2987,0.68505 1.3883,0.68505 0.5146,0 2.1838,1.20625 2.6775,1.93481 0.3177,0.46878 1.1986,1.52424 1.9576,2.34547 1.3514,1.46222 1.3828,1.52229 1.5109,2.89457 0.079,0.84167 0.3227,1.76057 0.6112,2.30081 0.4648,0.87055 0.48,1.06843 0.4697,6.13948 l -0.011,5.23998 -0.7691,2.1425 c -0.4229,1.17835 -1.0039,2.5146 -1.291,2.96937 -0.6433,1.01911 -3.6957,4.79144 -4.3535,5.38035 -1.6927,1.5154 -9.9047,5.10295 -11.9738,5.23094 -0.6717,0.0412 -1.7092,0.13447 -2.3055,0.20658 -1.4374,0.17377 -5.0045,-0.52669 -6.3513,-1.24717 -1.571,-0.84044 -3.4229,-2.39324 -4.0686,-3.41143 -0.3208,-0.50579 -0.9758,-1.36233 -1.4557,-1.90343 -0.7583,-0.85496 -1.9788,-2.58959 -3.4671,-4.92741 -0.7204,-1.13164 -2.8895,-3.18604 -3.6623,-3.46867 -0.4034,-0.14757 -1.2051,-0.44311 -1.7815,-0.6567 -1.6175,-0.59945 -2.3368,-0.68683 -3.5201,-0.42771 -3.0584,0.66967 -4.6693,2.2006 -7.1766,6.81996 -0.2502,0.46112 -1.2164,1.92504 -2.1468,3.25311 -1.6368,2.33605 -2.3197,3.67683 -2.8804,5.65486 -0.1471,0.51875 -0.9002,2.73527 -1.6737,4.92558 -0.7735,2.19031 -1.4974,4.45398 -1.6086,5.03038 -0.1112,0.5764 -0.3982,1.70823 -0.6378,2.51518 -0.5908,1.98936 -0.7547,2.67037 -1.0843,4.50639 -0.1552,0.8646 -0.4392,2.37371 -0.631,3.35359 -0.1918,0.97988 -0.4368,2.25319 -0.5444,2.82958 -0.1076,0.57641 -0.3051,3.64179 -0.4389,6.81199 -0.2852,6.75733 -0.2804,6.6739 -0.5752,10.06075 -0.4679,5.37635 -0.7037,11.36284 -0.5627,14.28962 0.08,1.65125 0.1852,7.34102 0.2349,12.64387 0.1595,17.02628 0.1886,18.19603 0.4676,18.84638 0.1532,0.35731 0.2646,1.53282 0.268,2.82959 0,1.22013 0.023,3.62901 0.044,5.3531 l 0.038,3.13469 0.8384,0.25067 c 0.8042,0.24051 2.6788,1.17074 3.1689,1.57251 0.129,0.10578 1.2611,0.31866 2.5157,0.47311 1.5078,0.18556 2.5982,0.44251 3.2166,0.75802 0.9321,0.47553 4.2933,0.92198 6.4352,0.85471 1.417,-0.0445 3.4112,0.35553 4.8096,0.96474 1.981,0.86303 2.1506,1.27843 2.2728,5.56625 0.054,1.898 0.1961,3.708 0.3156,4.0224 0.1816,0.4775 0.1278,0.7243 -0.3268,1.5001 -0.2993,0.5108 -0.632,0.9829 -0.7393,1.0492 -0.1073,0.066 -2.197,0.1582 -4.6437,0.2042 -6.4573,0.1214 -8.7567,0.2406 -9.5825,0.4965 -0.8579,0.2659 -2.858,0.2759 -3.4597,0.018 z m 701.21424,-0.024 c -3.8533,-0.2183 -8.6755,-0.4006 -12.576,-0.4754 -3.3319,-0.064 -4.3259,-0.2899 -4.9358,-1.1224 -0.1209,-0.165 -0.5368,-0.3648 -0.9241,-0.4441 -1.2005,-0.2455 -1.4441,-0.8384 -1.5219,-3.7033 -0.06,-2.20598 -0.1266,-2.60239 -0.5352,-3.17629 -0.4719,-0.66253 -0.5742,-1.22033 -0.3376,-1.83727 0.2762,-0.71958 0.4897,-0.7617 8.5025,-1.67627 2.8186,-0.32167 3.5485,-0.58001 5.4026,-1.91207 0.5511,-0.39588 1.0946,-0.71977 1.2078,-0.71977 0.1132,0 0.8565,-0.57372 1.6517,-1.27489 1.4905,-1.31419 2.6349,-2.89162 3.0289,-4.17469 0.1239,-0.40349 0.3673,-3.23307 0.5411,-6.28799 0.3558,-6.25993 0.3455,-5.74 0.1818,-9.11683 -0.07,-1.45306 -0.031,-2.91298 0.093,-3.45839 0.2174,-0.95217 0.3864,-7.35215 0.4539,-17.18786 0.021,-2.93963 0.111,-6.38229 0.2017,-7.65037 0.2988,-4.17272 0.4057,-13.72206 0.197,-17.5853 -0.2711,-5.01656 -0.2844,-16.40507 -0.023,-19.30415 0.1358,-1.50375 0.1391,-4.16435 0.01,-7.65038 -0.2045,-5.4911 -0.4678,-8.08915 -0.9638,-9.51069 -0.156,-0.44684 -0.2835,-1.0309 -0.2835,-1.29801 0,-0.81868 -1.4335,-4.91477 -2.0978,-5.99453 -0.3448,-0.56042 -0.627,-1.11291 -0.627,-1.2276 0,-0.11475 -0.3662,-0.95027 -0.8139,-1.85672 -0.9226,-1.86845 -3.0303,-4.73904 -4.0547,-5.52242 -0.3772,-0.28839 -1.0845,-0.91215 -1.5719,-1.38598 -0.4874,-0.47388 -1.2419,-1.01111 -1.6768,-1.19386 -1.9974,-0.83931 -5.2027,-1.79816 -6.6057,-1.97606 -0.8482,-0.10755 -1.9619,-0.29226 -2.4748,-0.41042 -0.5129,-0.11823 -1.9914,-0.21726 -3.2857,-0.22008 -2.6582,-0.007 -4.1621,0.41724 -6.1943,1.74216 -2.2054,1.43785 -3.6293,2.32191 -4.4672,2.77379 -1.3612,0.73392 -2.4252,1.44033 -3.403,2.25922 -0.4992,0.41794 -1.5589,1.10222 -2.3552,1.52064 -0.7963,0.41847 -1.85,1.15109 -2.3415,1.62813 -1.8123,1.75893 -4.3703,5.12561 -5.3556,7.04849 -0.2067,0.40347 -0.5847,1.06371 -0.8398,1.46719 -0.7628,1.20579 -2.083,4.03472 -2.2492,4.81961 -0.167,0.78861 -1.4278,4.15117 -1.8995,5.06588 -0.4517,0.87599 -1.5462,4.838 -1.8906,6.84354 -1.6194,9.43261 -1.7433,10.60185 -1.6372,15.44445 0.051,2.30559 0.1353,7.49317 0.1883,11.52795 0.053,4.03478 0.1892,9.26952 0.3029,11.63275 0.1137,2.36324 0.1808,12.17248 0.1489,21.79832 -0.068,20.52697 -0.062,20.61788 1.8208,25.76675 0.5512,1.50794 0.8374,1.95891 1.9477,3.06926 0.7958,0.79569 1.6144,1.40234 2.1062,1.56085 0.4424,0.14253 1.3834,0.52682 2.0912,0.85392 1.2262,0.56677 1.4379,0.59592 4.5063,0.61924 1.7708,0.0131 3.734,0.0112 4.3628,-0.007 2.5602,-0.0678 3.167,1.23552 2.7573,5.92245 -0.2319,2.6539 -0.4582,3.3508 -1.2863,3.9632 -0.4851,0.3588 -0.7058,0.3734 -2.62,0.1732 -1.1496,-0.1202 -2.4674,-0.3101 -2.9285,-0.4219 -0.4611,-0.1118 -2.7248,-0.2532 -5.0304,-0.3141 -4.4526,-0.1177 -6.1787,-0.2958 -6.6488,-0.6859 -0.1594,-0.1324 -0.4736,-0.2019 -0.6981,-0.1546 -0.2246,0.047 -1.0214,0.2264 -1.7707,0.3979 -0.8128,0.186 -3.6029,0.4056 -6.9168,0.5444 -3.0549,0.1279 -6.5447,0.3663 -7.7551,0.5298 -3.163,0.4272 -12.7132,0.9814 -14.735,0.855 -0.9452,-0.059 -2.9447,-0.1697 -4.4434,-0.2458 -1.7336,-0.088 -2.8936,-0.2437 -3.189,-0.428 -0.6175,-0.3853 -1.0959,-0.3653 -1.572,0.066 -0.3573,0.3233 -0.6506,0.3335 -3.2654,0.1131 -2.3028,-0.1942 -9.52504,-0.2047 -12.64154,-0.018 -0.889,0.053 -2.1373,-0.6796 -2.3123,-1.3572 -0.084,-0.3261 -0.077,-2.0319 0.016,-3.7904 0.2228,-4.23232 0.5524,-4.73332 3.1153,-4.73483 2.0159,0 5.94734,-0.42123 7.27384,-0.77709 3.8834,-1.0419 6.0956,-3.3944 7.4715,-7.94571 0.6581,-2.17662 1.4336,-7.58507 1.4406,-10.04655 0,-0.80093 0.095,-2.0821 0.2053,-2.84701 0.3726,-2.57551 0.6517,-9.048 0.6561,-15.21743 0,-3.51982 0.087,-6.17917 0.1982,-6.24795 0.2908,-0.17973 0.2335,-0.75181 -0.1138,-1.1355 -0.5375,-0.59395 -0.3869,-3.98272 0.2863,-6.44066 0.2978,-1.08762 0.7205,-7.0614 0.7387,-10.43954 0.02,-3.71168 -0.3321,-18.41788 -0.4455,-18.61052 -0.054,-0.0911 -0.139,-2.67396 -0.1896,-5.73954 -0.051,-3.06559 -0.1379,-5.64792 -0.1938,-5.73843 -0.056,-0.0905 -0.1042,-3.44987 -0.1072,-7.46521 -0.01,-11.9131 -0.066,-10.70947 0.5331,-11.26458 0.6438,-0.59657 0.6509,-0.80695 0.055,-1.61286 -0.3852,-0.52092 -0.4922,-1.01591 -0.5986,-2.76875 -0.071,-1.17388 -0.246,-2.503 -0.3884,-2.95364 -0.1425,-0.45057 -0.2142,-1.15797 -0.1595,-1.572 0.08,-0.60135 -0.1065,-1.16543 -0.9248,-2.80522 -1.5579,-3.12132 -2.7965,-4.13932 -6.4196,-5.27554 -1.9384,-0.60797 -5.6019,-1.37026 -6.58484,-1.37026 -1.3124,0 -2.054,-0.37485 -3.3545,-1.69566 -1.5319,-1.55594 -1.7873,-2.27185 -1.7496,-4.90671 0.021,-1.51351 0.1201,-2.06567 0.499,-2.79305 0.6483,-1.24481 1.3763,-1.50799 4.5079,-1.62923 1.39794,-0.0544 3.34364,-0.19283 4.32344,-0.30818 0.98,-0.11534 2.8192,-0.25768 4.0873,-0.31623 1.268,-0.0583 2.8714,-0.19604 3.5631,-0.30556 0.6917,-0.10945 1.9178,-0.20049 2.7249,-0.20233 0.8069,0 2.2688,-0.095 3.2487,-0.20704 0.9799,-0.112 3.1799,-0.25152 4.8888,-0.30994 1.7091,-0.0583 3.18,-0.15118 3.2688,-0.20607 0.2356,-0.1456 3.5422,-0.32815 7.868,-0.43433 5.5273,-0.13565 9.3206,-0.28944 12.1655,-0.49314 2.6037,-0.18648 2.93,-0.13062 3.7597,0.64386 0.2378,0.22204 0.8214,0.57607 1.2968,0.78665 0.6996,0.30988 0.9339,0.56434 1.2276,1.33345 0.1996,0.52274 0.303,1.04746 0.2298,1.16602 -0.074,0.11855 -0.027,1.46982 0.1051,3.0029 0.2944,3.44253 0.2572,16.21407 -0.049,16.78588 -0.1533,0.28637 -0.1455,0.47376 0.026,0.64354 0.2868,0.28263 0.9343,-0.41698 2.143,-2.31561 0.9289,-1.45908 8.1421,-9.40308 10.3238,-11.36984 0.4557,-0.41088 1.4487,-1.31288 2.2065,-2.00456 0.7579,-0.69167 1.7055,-1.52339 2.1058,-1.84813 0.785,-0.63699 6.392,-3.49665 6.8558,-3.49665 0.1548,0 0.6348,-0.18025 1.0665,-0.40053 2.6293,-1.34136 10.1591,-3.26693 13.5356,-3.46139 2.3351,-0.13454 8.9163,-0.41528 9.557,-0.40768 2.1027,0.0249 6.6488,0.36746 7.86,0.59238 0.8069,0.14987 1.9388,0.28349 2.5151,0.29691 0.5765,0.0131 1.7083,0.1682 2.5153,0.34394 0.8069,0.17574 1.934,0.41324 2.5045,0.52767 1.4611,0.29304 6.452,2.00082 7.709,2.63774 0.5783,0.29305 1.9004,1.11487 2.938,1.82626 1.0375,0.71139 2.3313,1.58949 2.875,1.95117 0.5437,0.36183 2.0167,1.70679 3.2734,2.98889 2.0538,2.09547 2.483,2.67534 4.2443,5.73509 2.7476,4.77309 5.9858,11.42551 6.9528,14.28347 0.5376,1.58895 0.528,2.18192 -0.046,2.79206 l -0.464,0.49386 0.5491,0.46282 c 0.932,0.78554 0.8812,0.56055 1.9609,8.6776 0.3099,2.32924 0.544,5.77374 0.6384,9.39155 0.057,2.19032 0.1993,4.68978 0.316,5.55438 0.1166,0.8646 0.2615,3.03395 0.3217,4.82078 0.06,1.78684 0.1788,4.09688 0.2632,5.13342 0.085,1.0366 0.07,2.35707 -0.031,2.93438 -0.1013,0.57738 -0.2215,4.16232 -0.2673,7.96654 -0.045,3.80423 -0.1861,8.04861 -0.3121,9.43197 -0.1261,1.38335 -0.2756,4.0243 -0.3324,5.86877 -0.057,1.84448 -0.1833,4.10815 -0.2812,5.03039 -0.099,0.93147 -0.096,3.49342 0.01,5.76397 0.1015,2.24795 0.2322,7.62418 0.2905,11.94716 0.1799,13.34681 0.3783,16.50396 1.0965,17.44861 0.1098,0.14435 0.3676,0.71709 0.5731,1.27278 0.3966,1.07316 1.7104,2.51441 3.1605,3.46704 0.463,0.30418 1.1704,0.80532 1.572,1.11362 0.5423,0.41639 1.0806,0.59665 2.0925,0.70105 0.7493,0.0774 1.6925,0.2185 2.096,0.31368 0.4035,0.0952 2.5152,0.23508 4.6927,0.31079 2.1775,0.0756 4.1698,0.21772 4.4274,0.31565 0.2576,0.098 0.6691,0.50264 0.9142,0.89931 0.5427,0.87809 0.5692,1.96643 0.1215,4.98408 -0.2668,1.7981 -0.4286,2.3153 -0.9131,2.9189 -1.0663,1.3286 -1.5014,1.4636 -5.0763,1.5746 -2.8535,0.089 -6.2448,0.3111 -9.5324,0.6251 -1.1908,0.1138 -3.8345,0.2376 -9.3059,0.4358 -2.0174,0.073 -3.9982,0.164 -4.4016,0.2021 -0.4035,0.038 -2.1956,0.1194 -3.9824,0.1806 -1.7868,0.062 -4.192,0.1642 -5.3448,0.2288 -3.5125,0.1968 -17.4276,0.2528 -20.4358,0.082 z m -330.11884,-0.605 c -3.0676,-0.2332 -8.2829,-0.8019 -9.5367,-1.0398 -0.5765,-0.1094 -1.7083,-0.2892 -2.5152,-0.3995 -2.1617,-0.2955 -12.9825,-0.2692 -15.9988,0.039 -2.1417,0.2188 -2.653,0.2159 -2.9852,-0.017 -0.6543,-0.4583 -0.7992,-0.9258 -0.601,-1.9389 0.1087,-0.5552 0.1045,-1.3266 -0.01,-1.8835 -0.1068,-0.5188 -0.2809,-1.6034 -0.3868,-2.41039 -0.1796,-1.3677 -0.1595,-1.51147 0.2953,-2.12088 0.6393,-0.85661 1.745,-1.12667 4.636,-1.1323 2.7766,-0.007 4.902,-0.56113 7.7826,-2.03495 1.4749,-0.75462 2.2742,-1.33396 3.2592,-2.36225 1.1938,-1.24632 1.3644,-1.54428 2.0026,-3.49801 0.4379,-1.34025 0.6552,-2.35511 0.5835,-2.72479 -0.1456,-0.75069 0.5366,-1.90526 1.2285,-2.07889 0.3619,-0.0908 0.5597,-0.34257 0.6997,-0.89047 0.5113,-2.00036 0.6922,-3.18152 0.6019,-3.92953 -0.054,-0.44913 0.027,-1.66468 0.1799,-2.70127 0.5855,-3.96483 0.3432,-17.82144 -0.4449,-25.44024 -0.6181,-5.97403 -0.7244,-7.50745 -0.7648,-11.03179 -0.087,-7.6053 -0.011,-10.31327 0.4259,-15.09114 0.2155,-2.35747 0.1669,-9.40394 -0.1014,-14.69264 -0.1283,-2.52941 -0.1001,-3.05485 0.1957,-3.64775 0.19,-0.38101 0.3455,-0.90318 0.3455,-1.16046 0,-0.47559 -0.4412,-2.07491 -0.968,-3.50856 -0.3037,-0.82681 -0.7314,-3.29883 -1.2314,-7.11884 -0.3255,-2.48656 -1.3566,-6.96145 -2.0168,-8.7524 -0.2337,-0.63404 -0.6914,-1.90735 -1.0173,-2.82959 -0.8588,-2.43037 -1.1921,-3.14589 -1.9499,-4.18537 -0.372,-0.51064 -1.101,-1.51455 -1.6197,-2.23099 -1.3193,-1.822 -2.2888,-2.86358 -3.144,-3.37808 -0.4035,-0.24274 -1.3467,-0.8868 -2.096,-1.4313 -1.8257,-1.32657 -3.7799,-1.87749 -6.6157,-1.86504 -1.1455,0.007 -2.46,0.0895 -2.9211,0.18765 -2.8859,0.61479 -7.5589,2.37024 -8.908,3.34645 -0.5187,0.37545 -1.4778,1.02867 -2.1312,1.45167 -3.0426,1.96965 -5.9893,4.83428 -8.9842,8.7338 -2.2372,2.91285 -6.0716,8.50246 -6.0716,8.85066 0,0.11573 -0.1786,0.43734 -0.3968,0.71473 -0.5357,0.68113 -1.4266,3.37356 -1.5855,4.79216 -0.071,0.63404 -0.2175,1.53008 -0.3255,1.99119 -1.5032,6.42258 -1.6359,7.267 -1.7791,11.31835 -0.065,1.84448 -0.1976,3.91952 -0.2942,4.61119 -0.096,0.69168 -0.1286,1.38054 -0.071,1.53073 0.103,0.27038 -0.1274,2.7113 -0.6965,7.37724 -0.1628,1.33508 -0.2891,4.18707 -0.2832,6.39277 0.01,2.19031 -0.1034,4.68978 -0.2431,5.55438 -0.4366,2.70357 -0.2877,17.43538 0.2406,23.7895 0.1246,1.49864 0.2602,5.31859 0.3014,8.48878 0.041,3.17018 0.1677,6.18841 0.2813,6.70717 0.1137,0.51875 0.2656,1.69775 0.3375,2.61999 0.5654,7.24938 0.904,9.80197 1.4597,11.00736 0.4402,0.95499 2.8123,3.35018 3.3179,3.35018 0.1467,0 0.5956,0.17227 0.9974,0.38278 0.4018,0.21052 1.4379,0.4963 2.3025,0.63516 1.4785,0.23737 2.8263,0.47834 5.0304,0.89957 0.5187,0.0992 1.6506,0.27837 2.5152,0.3983 3.6562,0.50704 3.7782,0.64799 3.8708,4.4686 0.034,1.39856 0.1318,3.26246 0.2179,4.14216 l 0.1565,1.5993 -0.7282,0.2404 c -0.4005,0.1321 -0.885,0.1802 -1.0764,0.1067 -0.1915,-0.074 -0.701,0.035 -1.1324,0.2396 -0.9896,0.4709 -5.6236,0.539 -9.3778,0.1378 -4.764,-0.509 -9.8747,-0.7107 -18.6543,-0.736 -7.1438,-0.02 -9.297,0.041 -11.4232,0.3244 -1.441,0.1924 -4.0348,0.4546 -5.764,0.5827 -1.7291,0.1279 -3.8986,0.2967 -4.8208,0.3748 -3.7261,0.3158 -21.4327,-0.037 -22.2175,-0.4432 -0.6677,-0.3453 -0.9293,-0.8218 -0.9365,-1.7054 -0.01,-0.453 -0.098,-1.1132 -0.2103,-1.4672 -1.0279,-3.24889 -1.0754,-3.46078 -0.8635,-3.8566 0.2566,-0.47939 0.6718,-0.66469 1.4898,-0.66469 0.329,0 0.8593,-0.0993 1.1787,-0.22073 0.3193,-0.12143 1.5752,-0.35593 2.7908,-0.52112 1.8879,-0.25656 2.491,-0.44264 4.1354,-1.276 1.5009,-0.76065 2.24,-1.00614 3.3536,-1.11396 2.1167,-0.20494 2.9498,-0.73778 3.7876,-2.42257 0.7634,-1.53505 2.1232,-8.52518 2.2583,-11.60812 0.054,-1.22393 0.1908,-3.02714 0.3049,-4.00702 0.6151,-5.28216 0.7933,-11.67264 0.8566,-30.70628 0.013,-3.918 -0.3384,-10.89758 -0.6069,-12.05195 -0.187,-0.80447 -0.3553,-6.28385 -0.3443,-11.21355 0.01,-2.91245 0.1559,-4.59213 1.0356,-11.63277 0.2702,-2.16227 0.2834,-2.89456 0.075,-4.19197 -0.1384,-0.8646 -0.2581,-3.6509 -0.2659,-6.19176 -0.012,-4.09839 -0.057,-4.68553 -0.3954,-5.20226 -0.6654,-1.01675 -0.9094,-2.22332 -0.7169,-3.54563 0.1704,-1.17061 0.1445,-1.27527 -0.7762,-3.14398 -0.5239,-1.0632 -1.2597,-2.49947 -1.6351,-3.19181 -0.3753,-0.69226 -1.0467,-2.0599 -1.4918,-3.03918 -1.6418,-3.61205 -3.7947,-6.73686 -4.8182,-6.99374 -0.2751,-0.0691 -0.8441,-0.54516 -1.2643,-1.05789 -1.5868,-1.93657 -4.6079,-3.01488 -9.6665,-3.45026 -1.3516,-0.11633 -2.1835,-0.0842 -2.9344,0.11344 -0.5764,0.1517 -1.2517,0.27693 -1.5007,0.27831 -0.7127,0.007 -4.1564,1.18856 -5.0376,1.73286 -0.4387,0.27104 -1.7181,0.95453 -2.8431,1.51887 -2.4419,1.22498 -3.5586,2.11021 -5.0712,4.02018 -0.6224,0.78594 -1.9042,2.13634 -2.8486,3.00094 -0.9444,0.8646 -1.871,1.748 -2.0592,1.96302 -1.8012,2.05952 -3.1554,3.72504 -3.557,4.37507 -0.9254,1.49771 -3.3797,8.35069 -3.3846,9.45082 0,0.32619 -0.3328,1.95222 -0.7363,3.61356 -0.4034,1.66126 -0.7357,3.46945 -0.7381,4.01815 0,0.54875 -0.1511,1.98804 -0.3303,3.19848 -0.1791,1.21044 -0.406,3.99287 -0.5042,6.18317 -0.098,2.19032 -0.2256,4.26535 -0.2834,4.61119 -0.1583,0.94798 -0.3585,5.77596 -0.4346,10.47996 -0.037,2.30558 -0.136,5.32381 -0.2195,6.70717 -0.085,1.4125 -0.067,2.88277 0.043,3.35359 0.1345,0.58138 0.1003,1.44898 -0.1114,2.82958 -0.4771,3.11197 -0.5415,16.21676 -0.1039,21.16952 0.1885,2.13267 0.3645,5.6225 0.3913,7.75517 0.027,2.13268 0.1561,4.82078 0.2876,5.97359 0.1314,1.15279 0.3778,3.41646 0.5475,5.03037 0.7004,6.65923 0.8961,7.31049 3.1026,10.32519 0.6473,0.88444 1.1038,1.24272 2.3053,1.8093 0.824,0.38854 1.8284,0.77683 2.2319,0.86289 1.1243,0.23979 4.3854,0.52825 7.8009,0.69004 2.4361,0.11541 3.1567,0.21818 3.4264,0.48849 0.4337,0.4348 0.8595,2.56327 0.9088,4.54232 0.034,1.3715 -0.031,1.6517 -0.6237,2.6879 -0.3641,0.6363 -0.8631,1.2346 -1.1092,1.3298 -0.584,0.2255 -8.4079,0.9361 -8.6514,0.7856 -0.1029,-0.064 -1.2701,0.01 -2.5938,0.1621 -4.3133,0.4976 -19.5686,0.4243 -25.4628,-0.1223 -1.268,-0.1175 -3.2488,-0.261 -4.4016,-0.3188 -1.1527,-0.058 -3.5107,-0.1817 -5.2399,-0.2755 -1.7292,-0.094 -3.9929,-0.1199 -5.0304,-0.058 -2.2722,0.1353 -4.4372,0.1307 -14.148,-0.03 -8.2271,-0.1366 -9.3117,-0.2846 -10.3992,-1.4198 l -0.569,-0.5939 0.236,-2.3628 c 0.1299,-1.2996 0.2241,-2.65635 0.2093,-3.01509 -0.015,-0.37505 0.1715,-0.93069 0.44,-1.30783 0.6803,-0.95538 1.9995,-1.2595 5.891,-1.35807 5.0287,-0.12734 8.1642,-1.1363 9.5572,-3.07541 0.4276,-0.59514 0.9988,-1.16622 1.2693,-1.26913 0.4463,-0.16965 0.4919,-0.31282 0.4919,-1.54723 0,-0.74814 0.1355,-1.76437 0.3011,-2.25836 0.2125,-0.63385 0.3024,-1.91581 0.3054,-4.35653 0.01,-4.40911 0.2025,-9.0294 0.443,-10.37516 0.103,-0.57639 0.211,-2.41563 0.2399,-4.08718 0.074,-4.25506 -0.2073,-18.85234 -0.4749,-24.66983 -0.2304,-5.00522 -0.3239,-27.80674 -0.1204,-29.30196 0.1527,-1.12077 0.1775,-14.22936 0.039,-20.64552 -0.2596,-12.03479 -0.2965,-12.71115 -0.8269,-15.1647 -0.8775,-4.05824 -1.2258,-4.85648 -3.1698,-7.26248 -0.9812,-1.21431 -1.363,-1.52117 -2.3559,-1.89262 -0.6517,-0.24385 -1.6582,-0.7835 -2.2368,-1.1993 l -1.0518,-0.75593 -2.2545,0.0216 c -1.24,0.0118 -2.5844,0.13061 -2.9875,0.2637 -1.4968,0.49394 -2.8276,-0.37066 -2.8276,-1.837 0,-0.40243 0.1371,-1.59229 0.3048,-2.64409 0.1674,-1.0518 0.3635,-2.45945 0.4355,-3.12814 0.1196,-1.11068 0.2017,-1.26709 0.9506,-1.80956 0.5697,-0.41265 1.188,-0.63588 2.0272,-0.73177 0.6641,-0.0759 2.4808,-0.31616 4.0371,-0.53408 1.5562,-0.21785 3.6313,-0.49066 4.6111,-0.6062 0.9799,-0.1156 3.1964,-0.40453 4.9257,-0.64209 1.7291,-0.23757 4.1814,-0.48837 5.4496,-0.55734 1.268,-0.0689 3.4373,-0.31388 4.8207,-0.54417 2.8076,-0.46741 6.7678,-0.60581 17.1871,-0.60057 3.5737,0 7.008,-0.0778 7.6318,-0.17685 0.9714,-0.15419 1.2567,-0.11587 1.9878,0.26698 0.7225,0.37833 0.8749,0.57561 0.9915,1.28399 0.092,0.56016 0.024,1.149 -0.2062,1.78021 -0.2865,0.78535 -0.3155,1.32906 -0.1728,3.24879 0.1682,2.26433 0.2037,4.00021 0.1325,6.49758 -0.064,2.24966 0.4328,7.07705 0.9493,9.22236 0.2775,1.1528 0.5408,2.33179 0.5849,2.61999 0.071,0.46348 0.1369,0.40296 0.569,-0.524 0.2687,-0.57639 0.9924,-1.82115 1.6083,-2.76612 0.6159,-0.94496 1.1199,-1.83117 1.1199,-1.96937 0,-0.35449 7.8079,-8.0678 9.3271,-9.21412 1.5504,-1.16976 2.9736,-2.09226 5.5544,-3.60006 3.838,-2.24225 7.0657,-3.47162 12.4908,-4.75744 1.4879,-0.35265 3.3096,-0.7894 4.0486,-0.97065 2.9379,-0.72062 14.0212,-0.91692 17.8349,-0.31584 0.7493,0.1181 2.5885,0.35272 4.0872,0.52145 3.4307,0.38618 4.5539,0.6077 5.9844,1.18031 0.6281,0.25138 1.9663,0.72731 2.9738,1.05749 2.8759,0.9426 8.8468,4.05254 10.2201,5.32297 0.6341,0.58662 1.5294,1.34431 1.9899,1.68387 1.2493,0.92125 2.4316,2.22476 4.1328,4.55629 0.8402,1.15168 1.8156,2.43548 2.1676,2.85297 0.8663,1.02763 1.863,2.63885 2.4154,3.90496 0.7212,1.65283 0.758,1.67058 1.7393,0.83761 1.2107,-1.02775 1.3203,-1.14316 2.0802,-2.19149 0.3719,-0.51305 1.1938,-1.3417 1.8263,-1.84145 0.6325,-0.49983 1.6588,-1.35336 2.2807,-1.89682 0.622,-0.54345 1.3294,-1.12482 1.5721,-1.29198 0.2426,-0.16709 0.5483,-0.45051 0.679,-0.62971 0.1308,-0.1792 0.788,-0.70268 1.4604,-1.16328 0.6724,-0.46066 1.7445,-1.33986 2.3822,-1.95378 0.6378,-0.614 1.6312,-1.42718 2.2076,-1.80708 0.5764,-0.3799 1.6139,-1.20283 2.3056,-1.82875 1.5711,-1.42174 2.3857,-1.99309 3.0958,-2.17132 0.3052,-0.0767 0.6603,-0.26619 0.7891,-0.42129 0.1286,-0.15511 0.8574,-0.48955 1.6194,-0.7431 0.7621,-0.25362 1.6746,-0.62585 2.0278,-0.82733 0.3532,-0.20141 1.6797,-0.66462 2.9479,-1.02932 1.268,-0.36471 3.4373,-1.04826 4.8207,-1.51908 2.6702,-0.90874 5.1574,-1.41577 6.9785,-1.42265 0.6105,0 2.0724,-0.24622 3.2488,-0.54208 2.9426,-0.74008 6.3664,-0.90023 8.9833,-0.42017 1.0774,0.19761 2.7607,0.50493 3.7406,0.68283 0.9798,0.17797 2.4417,0.49419 3.2487,0.70275 0.807,0.20855 2.3633,0.53376 3.4584,0.72265 2.8834,0.49728 6.1139,1.26697 7.0491,1.67942 5.5305,2.43914 7.9224,4.16198 12.234,8.81168 3.3696,3.63373 4.7026,5.71472 5.1304,8.00898 0.081,0.43217 0.4211,1.43222 0.7568,2.22241 0.3357,0.79026 0.6104,1.56774 0.6104,1.72775 0,0.16008 0.3189,1.11697 0.7088,2.12645 0.8192,2.1212 1.7158,5.11481 2.014,6.72485 0.1138,0.61413 0.2537,1.1923 0.3109,1.28479 0.057,0.0925 0.2469,1.18711 0.4217,2.4324 0.1748,1.24528 0.4113,2.5535 0.5255,2.90713 0.1142,0.3537 0.3545,3.23681 0.5341,6.40699 0.1795,3.17019 0.469,6.84866 0.6434,8.17438 0.1744,1.32571 0.3946,3.08896 0.4893,3.91838 0.1774,1.55412 0.075,3.35352 -0.2006,3.52389 -0.086,0.0531 -0.1114,0.49905 -0.057,0.99081 0.055,0.49178 -0.045,1.60148 -0.2212,2.46607 -0.2285,1.11978 -0.2672,1.84336 -0.1342,2.51519 0.3019,1.52575 0.2325,3.1848 -0.189,4.51811 -0.8566,2.7092 -1.0789,4.30412 -1.05,7.53384 0.015,1.7292 -0.09,4.0676 -0.2342,5.19649 -0.1519,1.18843 -0.2051,2.73252 -0.1264,3.66798 0.075,0.88851 0.1906,2.46437 0.2574,3.50189 0.067,1.03751 0.2299,3.53698 0.3625,5.55438 0.163,2.47555 0.1813,4.92852 0.057,7.54557 -0.1017,2.13267 -0.2077,4.82078 -0.2357,5.97357 -0.028,1.1528 -0.1591,4.02954 -0.2914,6.39278 -0.1685,3.00761 -0.1779,5.13269 -0.032,7.08288 0.1493,1.98864 0.1402,3.41784 -0.032,4.99344 l -0.241,2.2074 0.5406,0.45614 c 0.6405,0.54025 0.8957,1.0254 1.0815,2.05539 0.1951,1.08271 1.6256,3.19403 2.6849,3.96273 2.7167,1.97161 7.3343,3.43815 12.4947,3.96843 3.4205,0.35141 3.6634,0.40564 4.2244,0.94313 0.3642,0.34892 0.6368,0.86761 0.7024,1.33633 0.059,0.4213 0.2127,1.23762 0.3417,1.81407 0.171,0.7639 0.1732,1.5593 0.01,2.9343 -0.3268,2.7184 -0.3966,2.9834 -0.9622,3.6557 l -0.5102,0.6063 -4.3453,-0.098 c -2.3898,-0.054 -4.7224,-0.1363 -5.1835,-0.1838 -0.9888,-0.1017 -6.5474,-0.088 -7.7552,0.02 -0.4612,0.041 -4.3754,0.1164 -8.6984,0.1677 -4.323,0.051 -9.6992,0.1388 -11.9472,0.1944 -2.2479,0.056 -5.0775,0.026 -6.288,-0.066 z m -304.1715,-0.5724 c -0.7721,-0.061 -1.0953,-0.2076 -1.488,-0.6743 -0.4307,-0.5119 -0.5182,-0.8878 -0.6191,-2.6613 -0.065,-1.1358 -0.2214,-2.3335 -0.3485,-2.6616 -0.3766,-0.97229 0.094,-2.18338 1.0171,-2.61699 0.4335,-0.20364 0.7733,-0.5278 0.8083,-0.77107 0.033,-0.23088 0.374,-0.63469 0.7574,-0.89747 0.5996,-0.41075 0.817,-0.45077 1.5524,-0.28551 0.5227,0.11744 1.5747,0.11528 2.7057,-0.007 1.87,-0.19972 2.1573,-0.15262 3.3997,0.55733 0.5582,0.31892 0.9859,0.18471 1.7059,-0.53533 0.2357,-0.23567 0.6919,-0.40334 1.0976,-0.40334 1.0151,0 2.4402,-0.76877 3.3583,-1.81173 0.4421,-0.50219 0.9196,-0.91307 1.0612,-0.91307 0.4927,0 1.3623,-1.16432 2.2087,-2.95711 0.4686,-0.99239 0.8519,-2.03638 0.8519,-2.31994 0,-0.28361 0.1328,-0.98079 0.295,-1.54926 0.1623,-0.56847 0.3569,-2.11833 0.4324,-3.44405 0.075,-1.32571 0.2856,-3.96666 0.4669,-5.86877 0.2009,-2.10857 0.3554,-6.23977 0.3957,-10.58476 0.037,-3.91951 0.1645,-9.24856 0.2848,-11.84236 0.1203,-2.59379 0.1763,-5.37622 0.1245,-6.18317 -0.1736,-2.70698 -0.4278,-22.35468 -0.3795,-29.34389 0.027,-4.00872 0.1512,-7.57767 0.2939,-8.48877 0.3444,-2.19876 0.3226,-17.50481 -0.029,-20.26274 -0.2376,-1.86445 -0.2285,-2.14551 0.089,-2.75937 0.2246,-0.43426 0.297,-0.85169 0.1986,-1.14467 -0.2253,-0.67033 -0.2448,-5.83996 -0.03,-7.79709 0.1014,-0.92224 0.229,-9.83545 0.2834,-19.80713 0.054,-9.97168 0.1288,-18.5076 0.1654,-18.96872 0.063,-0.78993 -0.211,-8.62161 -0.3808,-10.89916 -0.088,-1.1866 -0.2315,-4.08856 -0.5167,-10.48494 -0.1788,-4.01035 -0.2525,-4.58086 -0.8196,-6.34424 -0.4189,-1.30259 -0.8532,-2.20099 -1.3252,-2.74136 -0.3862,-0.44212 -0.9481,-1.12594 -1.2487,-1.5196 -0.4252,-0.55687 -0.8439,-0.80034 -1.8864,-1.09679 -0.7369,-0.20959 -1.5756,-0.45934 -1.8638,-0.55498 -0.2882,-0.0956 -0.8224,-0.22492 -1.187,-0.28741 -0.3646,-0.0623 -1.5289,-0.45195 -2.5872,-0.86552 l -1.9242,-0.75186 -1.8922,0.21124 c -1.983,0.22138 -2.6479,0.0797 -3.2971,-0.70262 -0.1499,-0.18052 -0.5009,-0.32823 -0.7803,-0.32823 -0.9958,0 -1.4718,-0.79837 -1.6355,-2.7428 -0.082,-0.96998 -0.2351,-2.16574 -0.3409,-2.65732 -0.2453,-1.14003 0.1636,-2.20152 1.0185,-2.64357 0.3631,-0.18778 1.4988,-0.3687 2.7937,-0.445 3.1344,-0.18472 7.1254,-0.67864 9.3082,-1.15195 2.8123,-0.6098 7.4469,-1.20847 12.1567,-1.57022 2.3056,-0.17711 4.7426,-0.42909 5.4153,-0.55996 0.7582,-0.14744 2.2571,-0.19198 3.9416,-0.11705 1.7155,0.0762 3.8097,0.0112 5.6764,-0.176 4.1796,-0.41933 14.1063,-0.45653 15.8804,-0.0596 0.52,0.1164 1.3001,0.26082 1.7337,0.32095 0.4867,0.0675 0.9374,0.29888 1.178,0.60483 0.3646,0.46354 0.3862,0.93809 0.3344,7.36604 -0.03,3.77887 -0.1636,7.62521 -0.2961,8.54745 -0.1546,1.07617 -0.225,4.4925 -0.1966,9.53676 0.024,4.32299 -0.02,8.28442 -0.098,8.80317 -0.078,0.51876 -0.1823,1.77046 -0.2319,2.78151 -0.05,1.01113 -0.1869,2.52024 -0.3051,3.35359 -0.7301,5.14507 -1.171,17.51182 -0.8405,23.5769 0.124,2.27605 0.2245,5.26342 0.2233,6.63852 0,2.03167 0.071,2.64423 0.3895,3.26845 0.347,0.68027 0.4039,1.44904 0.4963,6.7221 0.058,3.27466 0.2114,6.5076 0.3421,7.18434 0.146,0.75554 0.2521,4.23397 0.2748,9.01277 0.034,7.06453 -0.033,10.38282 -0.3858,19.31031 -0.063,1.61391 -0.1565,4.01906 -0.206,5.34478 -0.05,1.32571 -0.1885,3.11778 -0.3087,3.98237 -0.579,4.1635 -0.6161,14.73005 -0.122,34.68868 0.2674,10.79828 0.3196,18.06476 0.1355,18.83182 -0.1065,0.44344 -0.4072,1.03353 -0.6682,1.31137 l -0.4745,0.50521 0.6132,0.64006 0.6133,0.64007 0.1446,3.60287 c 0.2012,5.01401 0.3174,5.76503 1.2717,8.21406 0.8203,2.10523 1.3106,2.8797 2.6441,4.17679 2.6051,2.5338 8.4131,4.76707 11.452,4.40355 1.959,-0.23435 2.9216,-0.17823 3.5058,0.20455 1.029,0.67413 1.5712,1.7873 2.0421,4.19179 l 0.4479,2.28726 -0.4724,0.8904 c -0.2884,0.5436 -0.7427,1.0195 -1.1659,1.2213 -0.7046,0.336 -4.3781,0.7034 -8.6543,0.8656 -1.2104,0.046 -2.6724,0.1481 -3.2488,0.2272 -1.325,0.1816 -1.9928,0.2275 -7.1264,0.4898 -2.3056,0.1178 -4.6031,0.3122 -5.1056,0.432 -0.581,0.1386 -3.4426,0.1838 -7.86,0.1241 -3.8204,-0.052 -8.6912,0.01 -10.8239,0.1225 -2.1327,0.1191 -6.6128,0.2394 -9.956,0.2674 -3.3431,0.028 -7.446,0.1628 -9.1175,0.2995 -6.57,0.5373 -8.3916,0.6348 -11.3184,0.6059 -1.6716,-0.016 -3.483,-0.066 -4.0255,-0.1081 z m 292.434,-410.79984 c -0.2883,-0.0432 -1.703,-0.16284 -3.144,-0.26587 -2.288,-0.16356 -6.2627,-0.79497 -11.2136,-1.78126 -0.8069,-0.16074 -2.0803,-0.52197 -2.8296,-0.80271 -0.7493,-0.28073 -1.8811,-0.63404 -2.5152,-0.78508 -0.634,-0.1511 -1.7187,-0.5832 -2.4104,-0.96029 -0.6917,-0.37714 -2.0121,-0.86957 -2.9344,-1.09437 -0.9222,-0.22472 -2.3841,-0.75449 -3.2487,-1.17716 -2.7,-1.32008 -5.5866,-2.92797 -6.237,-3.4741 -0.3432,-0.28821 -1.1789,-0.87953 -1.8571,-1.31413 -2.5831,-1.65517 -4.5184,-3.05981 -5.684,-4.12537 -0.6646,-0.60758 -1.8552,-1.68367 -2.646,-2.39133 -2.1885,-1.9588 -2.5918,-2.39172 -3.1151,-3.3434 -0.3096,-0.5633 -0.8565,-1.10297 -1.5264,-1.50651 -0.5742,-0.34584 -1.4691,-1.08342 -1.9888,-1.63904 -0.5196,-0.55566 -1.5963,-1.64033 -2.3927,-2.4104 -1.6633,-1.60845 -3.3758,-4.09282 -3.6911,-5.35484 -0.3609,-1.44359 -0.7324,-2.08525 -2.2102,-3.81728 -1.7194,-2.01501 -3.2284,-4.28295 -4.2178,-6.33916 -0.7845,-1.63039 -0.7748,-1.51593 -0.438,-5.17199 0.053,-0.57643 0.01,-0.62305 -0.5295,-0.55994 -1.5125,0.17723 -2.393,-2.14523 -1.9373,-5.10926 0.1415,-0.92042 0.091,-1.19482 -0.3874,-2.10999 -0.3667,-0.70142 -0.6109,-1.60611 -0.7326,-2.71477 -0.1004,-0.91454 -0.3353,-2.20974 -0.522,-2.87822 -0.1869,-0.66847 -0.3397,-1.47658 -0.3397,-1.79576 0,-0.3192 -0.1864,-1.28136 -0.4143,-2.13815 -0.2277,-0.85681 -0.4169,-2.02944 -0.4202,-2.60583 0,-0.5764 -0.1845,-2.27415 -0.403,-3.77279 -0.6273,-4.303 -0.7576,-9.11082 -0.3347,-12.35921 0.1946,-1.49477 0.3008,-3.05104 0.2362,-3.45838 -0.065,-0.40741 0.019,-1.63678 0.1862,-2.73193 0.1671,-1.09516 0.3056,-2.61514 0.3077,-3.37782 0,-0.76262 0.2295,-2.41321 0.5054,-3.66799 0.276,-1.25471 0.5609,-3.12506 0.6332,-4.15629 0.098,-1.40091 0.3437,-2.48722 0.971,-4.29678 0.4617,-1.33201 1.1539,-3.41221 1.5384,-4.62265 0.7366,-2.31954 1.6194,-4.84042 2.5056,-7.15408 0.5302,-1.38434 4.587,-8.96128 5.6522,-10.55705 1.3721,-2.05512 4.3349,-5.989564 5.2878,-7.021574 0.3725,-0.40348 0.9294,-1.14113 1.2377,-1.63926 0.9732,-1.57284 3.6487,-4.16684 6.3649,-6.17126 1.4429,-1.0647 3.009,-2.27657 3.4803,-2.69309 1.7477,-1.54468 4.87,-3.43179 9.3455,-5.64837 2.4948,-1.23565 5.8125,-2.48119 7.2312,-2.71476 1.733,-0.28538 4.0591,-0.81928 6.4975,-1.4913 3.5654,-0.98263 3.5945,-0.988 6.6759,-1.22865 1.5967,-0.1247 3.6246,-0.36633 4.5063,-0.53697 1.1215,-0.21693 2.8947,-0.30418 5.9002,-0.29029 2.3632,0.0111 5.2399,-0.0861 6.3928,-0.21562 3.4631,-0.38907 10.292,-0.23868 12.8903,0.28387 0.8646,0.1739 2.1851,0.54836 2.9344,0.83224 0.7493,0.28381 2.6357,0.98918 4.1919,1.56748 1.5564,0.57823 3.468,1.33809 4.2483,1.68845 0.7803,0.35042 1.7711,0.73203 2.2019,0.84802 0.4307,0.116 1.443,0.64701 2.2493,1.17998 0.8064,0.53304 1.6547,1.04322 1.8853,1.13374 1.1789,0.46281 4.9389,3.1787 6.7072,4.84456 0.5763,0.54305 1.5805,1.32342 2.2314,1.73423 1.1854,0.74808 3.7554,3.5679 4.89,5.36528 0.3105,0.49164 1.2573,1.67267 2.1041,2.62451 1.735,1.95 2.0861,2.85606 1.4708,3.79512 -0.195,0.2977 -0.3235,0.56349 -0.2855,0.59075 0.038,0.0275 0.4464,0.18733 0.9075,0.355854 0.6335,0.23155 1.1311,0.68893 2.036,1.87114 0.6586,0.8606 1.2596,1.74582 1.3354,1.96728 0.075,0.22139 0.4425,0.88162 0.8146,1.4672 1.3372,2.10404 2.8037,5.07603 3.2662,6.61901 0.2592,0.86459 0.749,2.32655 1.0885,3.24878 0.3396,0.92224 0.8046,2.42611 1.0335,3.34199 0.2289,0.91582 0.6448,2.11657 0.9244,2.66821 1.1702,2.30932 1.3822,3.12388 1.4634,5.62256 0.057,1.77989 0.2471,3.09572 0.7241,5.03038 0.932,3.78104 1.1059,5.36174 0.9338,8.48877 -0.082,1.49863 -0.1744,3.44286 -0.2043,4.3205 -0.077,2.26943 -0.3666,3.0116 -1.3213,3.39202 -1.1352,0.45248 -7.5064,0.90148 -11.5702,0.81548 -0.8647,-0.0184 -3.93,-0.0243 -6.8121,-0.0124 -2.8819,0.0111 -5.4757,0.0177 -5.7639,0.0144 -0.2882,0 -3.0235,-0.0268 -6.0784,-0.0518 -3.0549,-0.0249 -6.4032,-0.15058 -7.4408,-0.27928 -1.1342,-0.1407 -3.0562,-0.18059 -4.8207,-0.10003 -1.6334,0.0746 -3.6314,0.0412 -4.5064,-0.0751 -1.7401,-0.23147 -12.8267,-0.35847 -15.3008,-0.17527 -0.8645,0.0642 -2.5623,0.0497 -3.7727,-0.0315 -16.3382,-1.09582 -26.4312,-1.5192 -27.7044,-1.16217 -0.4263,0.1196 -0.7163,0.48523 -1.2053,1.52018 -0.5958,1.26107 -0.6438,1.5329 -0.6438,3.6437 0,1.39861 0.1186,2.6754 0.3069,3.30066 0.1687,0.5608 0.4395,1.67987 0.6018,2.48682 0.1621,0.80697 0.5513,2.26892 0.8647,3.2488 0.3861,1.20692 0.6037,2.42389 0.6749,3.77278 0.071,1.34383 0.2774,2.50227 0.6354,3.56319 0.467,1.38407 0.5266,1.88873 0.498,4.22129 -0.024,1.98777 0.052,2.87746 0.3065,3.56319 0.1864,0.50263 0.4206,1.36759 0.5203,1.92211 0.1171,0.65103 0.4148,1.27403 0.8402,1.75857 0.5921,0.67428 0.645,0.84255 0.5224,1.65976 l -0.1363,0.90938 0.8078,0.12918 c 0.5945,0.0951 0.9297,0.30717 1.2697,0.80337 0.2541,0.37083 0.4621,0.76666 0.4621,0.87963 0,0.27835 1.6518,4.30661 1.8782,4.58067 0.2646,0.3199 1.0559,2.46721 1.056,2.86511 0,0.18761 0.1331,0.45149 0.2956,0.58639 0.1626,0.1349 0.7015,1.20754 1.1976,2.38367 0.5796,1.37423 1.223,2.50223 1.8005,3.15665 0.4941,0.56003 0.8984,1.09819 0.8984,1.19587 0,0.48355 1.3658,2.02749 4.8071,5.43415 2.0779,2.05686 4.2278,4.1002 4.7777,4.54073 0.5501,0.44052 1.5641,1.30248 2.2537,1.91547 1.5249,1.35578 5.1816,3.25691 7.4113,3.85335 2.1589,0.57745 6.7058,0.72692 9.5701,0.31453 2.5385,-0.36549 6.9678,-1.34386 10.7943,-2.38432 2.4913,-0.6774 4.0087,-1.17664 7.7716,-2.55692 2.3188,-0.85061 8.194,-5.38406 11.4127,-8.80652 0.8037,-0.85456 2.1416,-2.26935 2.973,-3.14399 0.8314,-0.87461 1.9633,-2.17543 2.5152,-2.89069 3.434,-4.45035 4.0806,-5.37294 4.891,-6.9787 1.2517,-2.4803 2.1349,-3.35359 3.3914,-3.35359 0.2682,0 0.7155,-0.15953 0.9939,-0.35452 0.7601,-0.5324 1.7844,-0.36082 3.103,0.51981 1.6581,1.10735 2.7649,1.65745 3.6194,1.79886 0.4391,0.0726 0.9917,0.38303 1.3524,0.75946 0.5635,0.58822 0.6106,0.7598 0.6199,2.25768 0.01,1.39467 -0.063,1.72811 -0.514,2.38734 -0.2882,0.42144 -0.8824,1.41179 -1.3203,2.20079 -1.7713,3.19111 -2.8046,4.87639 -3.5268,5.75262 -0.4179,0.50704 -0.9073,1.2125 -1.0875,1.56771 -0.1801,0.35519 -0.8757,1.26817 -1.5457,2.02882 -0.6699,0.76065 -1.5953,1.87186 -2.0564,2.46935 -0.4612,0.59751 -1.31,1.47608 -1.8865,1.95241 -0.5764,0.47631 -2.6459,2.45502 -4.5989,4.39702 -3.4395,3.42014 -6.3296,5.74734 -8.501,6.84525 -0.5188,0.26226 -1.2358,0.73196 -1.5933,1.04367 -0.3574,0.31172 -1.1119,0.78397 -1.6767,1.04944 -0.5648,0.26547 -2.3944,1.14107 -4.066,1.9458 -1.6716,0.80467 -3.5107,1.6278 -4.0872,1.82914 -0.5764,0.20135 -1.5195,0.64479 -2.096,0.98539 -1.5014,0.88738 -3.9845,1.71216 -6.1831,2.05374 -0.5188,0.0806 -1.6886,0.33628 -2.5995,0.56815 -0.9108,0.23186 -1.9557,0.37302 -2.3217,0.31361 -0.3659,-0.0596 -1.224,0.0236 -1.9069,0.18411 -0.6828,0.16061 -2.1774,0.29351 -3.3212,0.29528 -1.1437,0 -2.8415,0.13748 -3.7728,0.30149 -1.6159,0.2846 -8.0316,0.56632 -9.1338,0.40113 z m -17.0823,-96.69072 c 7.8541,-0.30326 8.4967,-0.30758 14.8815,-0.10021 10.3604,0.3364 18.0658,0.20468 25.0316,-0.42798 2.0089,-0.18241 3.7682,-0.28728 3.9096,-0.23305 0.1414,0.0544 0.4041,-0.0124 0.5837,-0.14895 0.4815,-0.3649 0.9008,-3.46958 0.7271,-5.38277 -0.078,-0.86459 -0.1924,-2.42086 -0.2532,-3.45838 -0.061,-1.03752 -0.3472,-3.11255 -0.6364,-4.61118 -0.2892,-1.49864 -0.6759,-3.52651 -0.8591,-4.50639 -0.1834,-0.97987 -0.5134,-2.39467 -0.7335,-3.14398 -0.2201,-0.74932 -0.6903,-2.67377 -1.045,-4.27655 -0.3546,-1.60277 -0.7113,-3.01757 -0.7927,-3.14398 -0.171,-0.26554 -0.5306,-1.2113 -1.0833,-2.84983 -0.6043,-1.79083 -4.3996,-9.044284 -5.6998,-10.892884 -0.7418,-1.05487 -3.2892,-3.15007 -5.074,-4.17325 -0.4786,-0.27444 -1.2004,-0.71198 -1.6039,-0.97227 -0.4035,-0.26037 -1.2255,-0.53376 -1.8266,-0.60764 -0.6013,-0.0739 -1.5916,-0.36647 -2.2008,-0.65009 -0.6093,-0.28368 -1.3002,-0.51666 -1.5354,-0.51777 -0.2351,0 -0.9897,-0.15072 -1.6767,-0.33241 -1.0401,-0.27504 -1.4423,-0.28853 -2.4021,-0.0807 -1.7668,0.38259 -2.4862,0.62238 -4.1919,1.39718 -2.5743,1.1693 -2.7787,1.28713 -4.025,2.32 -1.2744,1.05618 -1.8468,1.44393 -4.4182,2.99255 -2.5103,1.51173 -3.9223,2.95633 -5.4311,5.55588 -0.5315,0.9155 -1.0342,1.99473 -1.1175,2.39821 -0.083,0.40348 -0.4229,1.27365 -0.7546,1.933754 -0.3318,0.66004 -0.8353,1.88619 -1.1189,2.72479 -0.2836,0.83853 -1.0451,2.98659 -1.6922,4.77343 -1.7025,4.70177 -3.5815,12.35731 -4.1926,17.08233 -0.5737,4.43584 -0.6158,4.92846 -0.6181,7.23117 v 2.20079 l 1.572,0.12105 c 0.8646,0.0666 1.8078,0.0933 2.096,0.0596 0.2882,-0.034 3.0707,-0.16001 6.1832,-0.28021 z m -315.7865,95.48251 c -0.044,-0.0406 -1.3057,-0.13519 -2.8044,-0.2096 -2.5474,-0.12648 -7.2362,-0.90475 -10.1655,-1.68727 -0.6341,-0.16939 -2.9449,-0.64276 -5.1352,-1.05187 -2.1903,-0.40918 -4.4068,-0.87685 -4.9256,-1.03921 -3.2361,-1.01322 -3.3772,-1.03301 -7.5456,-1.05796 -5.1201,-0.0308 -9.7455,0.2827 -11.9471,0.80938 -0.28821,0.069 -1.3538,0.31971 -2.36799,0.55721 -1.01422,0.2375 -2.14651,0.57607 -2.51624,0.75239 -1.07596,0.51306 -1.64959,0.15871 -2.42478,-1.49778 -0.68004,-1.45324 -0.79651,-2.16693 -0.4571,-2.80103 0.36958,-0.69063 1.03665,-4.51215 1.24751,-7.14687 0.11532,-1.441 0.31203,-4.22341 0.43714,-6.18317 0.1251,-1.95975 0.41277,-6.28824 0.63928,-9.6189 0.22649,-3.33064 0.41488,-7.10342 0.41865,-8.38397 0.004,-1.28053 0.0826,-2.94133 0.17512,-3.69065 0.0925,-0.74931 0.1071,-2.30558 0.0323,-3.45838 -0.0747,-1.1528 -0.0588,-2.75623 0.0353,-3.56319 0.10526,-0.90215 0.0828,-2.13181 -0.0584,-3.19294 -0.21031,-1.58032 -0.195,-1.78345 0.18182,-2.4104 0.22633,-0.37654 0.47215,-0.9423 0.54626,-1.25722 0.18214,-0.77388 0.96461,-1.12539 2.85348,-1.28184 0.8646,-0.0716 2.60945,-0.28068 3.87755,-0.46456 5.0603,-0.73381 5.7201,-0.25386 6.3052,4.58631 0.5933,4.90785 0.7093,5.70644 1.0106,6.95504 0.1668,0.69168 0.3701,2.20079 0.4515,3.35359 0.082,1.15279 0.2801,2.35638 0.4414,2.67463 0.1612,0.31828 0.5285,1.49727 0.8161,2.61998 0.5236,2.04417 1.8629,5.12302 2.8717,6.60192 0.3289,0.4821 0.6317,1.34698 0.7805,2.22888 0.2551,1.51245 0.9044,2.78256 3.0884,6.04136 1.6823,2.51027 1.8741,2.7177 3.4636,3.74596 0.8171,0.52855 1.9377,1.35051 2.4905,1.82656 0.9218,0.79406 1.7632,1.31844 4.3756,2.72688 0.5188,0.27969 1.6506,0.72522 2.5152,0.99004 0.8646,0.26481 1.9347,0.66095 2.3781,0.88031 0.6489,0.32108 1.0576,0.37236 2.096,0.26299 1.2091,-0.12727 3.0263,0.092 6.1106,0.73752 0.5764,0.12065 2.7458,0.25918 4.8208,0.30791 3.5362,0.083 4.2105,0.034 8.1744,-0.59355 1.3769,-0.21799 3.8076,-0.81482 4.4016,-1.08069 0.3458,-0.15483 1.5248,-0.65028 2.62,-1.10091 2.4542,-1.00995 3.6503,-1.74498 5.078,-3.12067 1.2442,-1.19892 2.4557,-3.42345 2.9507,-5.418 0.1716,-0.69168 0.4621,-1.77635 0.6456,-2.41039 0.3804,-1.31513 0.4587,-5.32212 0.1395,-7.14381 -0.1094,-0.62444 -0.2963,-1.80331 -0.4154,-2.61967 -0.2241,-1.53761 -1.1292,-4.48998 -1.601,-5.22286 -0.1485,-0.23056 -0.6602,-1.31524 -1.1372,-2.4104 -0.477,-1.09515 -1.1262,-2.3213 -1.4426,-2.72478 -0.3164,-0.40348 -0.8897,-1.19482 -1.2739,-1.75854 -0.8039,-1.17933 -3.1338,-3.44843 -4.9466,-4.81749 -0.6852,-0.51752 -1.4817,-1.11853 -1.7699,-1.33557 -0.2882,-0.21704 -1.2786,-0.80082 -2.2008,-1.29729 -0.9222,-0.49645 -1.8654,-1.07147 -2.096,-1.2778 -0.4666,-0.41761 -7.6648,-4.05998 -8.4888,-4.29546 -0.2882,-0.0823 -2.1108,-0.93601 -4.0503,-1.89699 -1.9396,-0.96098 -3.7316,-1.81051 -3.9824,-1.88786 -0.2508,-0.0774 -1.1163,-0.45142 -1.9232,-0.83134 -0.807,-0.37992 -1.8917,-0.84934 -2.4104,-1.04318 -0.5188,-0.19382 -1.3677,-0.51683 -1.8864,-0.7178 -0.5188,-0.20095 -1.1319,-0.4347 -1.3624,-0.5194 -0.2306,-0.0847 -1.2209,-0.51528 -2.2008,-0.95682 -0.9799,-0.44153 -2.1504,-0.91771 -2.6012,-1.05815 -0.4508,-0.14043 -1.3468,-0.51581 -1.9912,-0.83426 -0.6444,-0.3184 -1.7375,-0.8215 -2.4292,-1.11795 -1.9416,-0.83225 -8.2496,-4.10907 -10.1447,-5.26998 -3.0737,-1.88286 -4.162,-2.7677 -7.4676,-6.07143 -1.9647,-1.96356 -3.96216,-4.0889 -4.43891,-4.72293 -2.04473,-2.71936 -4.52619,-8.34945 -5.0972,-11.56483 -0.0957,-0.539 -0.41462,-1.88391 -0.70863,-2.98863 -0.29405,-1.10472 -0.73389,-3.35181 -0.97745,-4.9935 -0.37917,-2.55573 -0.42224,-3.49736 -0.2996,-6.54814 0.17163,-4.26993 0.30775,-5.45639 1.03225,-8.99679 0.7424,-3.62796 2.21141,-7.893564 3.68685,-10.705534 1.96646,-3.74784 2.31425,-4.3674 2.84523,-5.06883 0.2778,-0.36693 0.50511,-0.72398 0.50511,-0.79333 0,-0.0694 0.61915,-0.94812 1.37585,-1.95275 2.3485,-3.11785 6.7527,-6.904 9.7479,-8.38004 1.6452,-0.81063 4.7159,-1.98922 6.1681,-2.36736 0.3459,-0.09 1.5249,-0.41363 2.62,-0.71912 1.0952,-0.30542 2.51,-0.6472 3.144,-0.7594 0.6341,-0.11221 1.6244,-0.29488 2.2008,-0.40596 2.9939,-0.57699 9.3042,-1.52668 11.4232,-1.71905 1.3257,-0.12039 6.0888,-0.21059 10.5847,-0.20049 9.0255,0.0203 10.536,0.16106 18.5496,1.72781 1.2104,0.23665 2.861,0.51477 3.6679,0.61799 0.807,0.10329 2.3633,0.33307 3.4584,0.5107 1.597,0.25899 2.4387,0.2814 4.2517,0.11299 1.2432,-0.11541 2.6108,-0.34512 3.0392,-0.51037 0.4283,-0.16526 1.5177,-0.44861 2.4209,-0.62971 0.9033,-0.18105 2.0822,-0.55191 2.62,-0.82413 0.9957,-0.50389 1.4884,-0.65794 4.172,-1.30429 1.4167,-0.34119 1.5657,-0.3425 2.2437,-0.019 1.172,0.55891 1.458,1.36495 1.278,3.60255 -0.084,1.04217 -0.1897,5.8562 -0.2353,10.69795 -0.046,4.84173 -0.1657,9.4634 -0.2669,10.27036 -0.1013,0.80695 -0.1179,2.174594 -0.037,3.039184 0.088,0.94078 0.043,2.37156 -0.1111,3.56319 -0.1419,1.09516 -0.3628,3.07587 -0.4907,4.40159 -0.1279,1.32571 -0.3736,3.82518 -0.546,5.55438 -0.1724,1.72918 -0.3134,4.35383 -0.3132,5.83248 0,2.66833 0,2.69296 -0.5894,3.2782 -1.0942,1.09424 -3.972,1.38309 -9.0518,0.90854 -1.3257,-0.12385 -2.8349,-0.38363 -3.3536,-0.57731 -0.5188,-0.19368 -1.0968,-0.40106 -1.2845,-0.46079 -0.4139,-0.13185 -0.8115,-0.94942 -0.8115,-1.6688 0,-0.29037 -0.1,-0.71402 -0.2213,-0.9415 -0.1218,-0.22741 -0.2609,-1.62708 -0.3091,-3.11025 -0.048,-1.48317 -0.1777,-3.10653 -0.2877,-3.60747 -0.1099,-0.50087 -0.2636,-1.71242 -0.3415,-2.6923 -0.1115,-1.40398 -0.3368,-2.26779 -1.063,-4.07578 -0.5067,-1.26179 -0.9214,-2.41432 -0.9214,-2.56111 0,-0.14685 -0.1841,-0.62356 -0.4092,-1.05946 -0.2251,-0.43583 -0.517,-1.26401 -0.6487,-1.84041 -0.1317,-0.57639 -0.4362,-1.42527 -0.6769,-1.88639 -0.6033,-1.156214 -0.841,-1.642084 -1.7121,-3.499204 -1.0959,-2.33644 -4.0987,-5.9397 -6.3588,-7.63045 -0.659,-0.49309 -1.4816,-1.12713 -1.828,-1.40903 -1.0625,-0.86493 -3.2536,-1.97482 -5.6638,-2.86889 -3.6031,-1.33672 -5.7636,-1.83386 -8.7976,-2.02447 -3.3681,-0.21169 -4.006,-0.20344 -7.0216,0.0909 -2.5134,0.2453 -3.8354,0.59474 -7.0649,1.86747 -1.8123,0.71421 -2.0686,0.89564 -4.2128,2.98187 -2.2003,2.14086 -2.329,2.31647 -3.548,4.84142 -0.6958,1.44099 -1.3818,2.99727 -1.5245,3.45838 -0.1428,0.46112 -0.5855,1.49864 -0.9838,2.3056 -0.9859,1.997214 -1.3007,3.296274 -1.4428,5.954254 -0.1064,1.99002 -0.053,2.5444 0.4481,4.65015 0.6432,2.70325 1.106,3.78425 2.3288,5.43943 1.0816,1.46411 3.2787,3.65659 4.3672,4.35796 0.4611,0.29711 1.9303,1.26146 3.2649,2.14302 1.3346,0.88156 3.0551,1.95431 3.8233,2.38393 0.7683,0.42961 1.4504,0.86781 1.5158,0.97372 0.066,0.10598 0.2788,0.19263 0.474,0.19263 0.1952,0 1.1531,0.46977 2.1287,1.04401 0.9756,0.57417 2.2959,1.22759 2.9339,1.45206 5.4387,1.91331 13.3532,5.53794 15.9522,7.30558 0.8561,0.58235 2.9243,1.75893 4.5958,2.61462 6.7033,3.43173 10.0081,5.23257 11.0474,6.01995 0.6002,0.45476 1.4019,0.98721 1.7816,1.18325 0.3796,0.19604 1.6174,1.04944 2.7506,1.89641 1.1331,0.84705 2.138,1.54004 2.233,1.54004 0.095,0 0.9384,0.61307 1.874,1.36239 0.9358,0.74932 1.7637,1.36239 1.8399,1.36239 0.5211,0 5.0239,3.36997 6.2551,4.6814 5.8071,6.18535 6.8982,7.89327 9.943,15.56476 0.096,0.24146 0.4302,1.69057 0.743,3.22024 0.5312,2.59736 0.5611,3.02554 0.453,6.47773 -0.091,2.9098 -0.2268,4.16492 -0.6371,5.89732 -2.0339,8.5885 -3.1316,11.63327 -5.4557,15.13374 -0.7226,1.0883 -1.8638,3.05665 -2.5361,4.37406 -3.1829,6.23786 -6.6692,10.03088 -12.4757,13.57331 -3.4214,2.08728 -6.1771,3.57393 -7.86,4.24019 -0.9222,0.3651 -1.7746,0.74237 -1.8942,0.83827 -0.1196,0.096 -1.0628,0.45312 -2.096,0.79372 -1.0332,0.34053 -2.8218,0.96357 -3.9746,1.38447 -2.1926,0.80067 -2.6586,0.92289 -6.0783,1.59505 -3.5862,0.70478 -7.1957,1.03051 -11.3586,1.02494 -2.1959,0 -4.0284,-0.0387 -4.0722,-0.0797 z M 328.1962,228.64923 c -0.62818,-0.14128 -0.82441,-0.36595 -1.16895,-1.33843 -0.18906,-0.53369 -0.26506,-0.56487 -1.10028,-0.45188 -0.67413,0.0912 -1.25508,-0.0137 -2.33692,-0.42234 -1.12343,-0.42424 -1.81417,-0.54306 -3.14399,-0.54064 -1.65137,0 -3.03979,-0.3066 -5.55004,-1.23715 -1.57095,-0.58243 -3.23736,-2.72735 -3.76347,-4.84431 -0.76435,-3.0754 -1.2907,-5.48822 -1.41744,-6.49757 -0.0796,-0.63404 -0.33576,-1.57723 -0.56923,-2.09599 -0.24417,-0.54252 -0.46701,-1.58871 -0.52461,-2.46277 -0.0551,-0.83578 -0.17709,-1.5196 -0.27118,-1.5196 -0.22873,0 -2.26682,2.03835 -5.30399,5.30468 -1.37005,1.47348 -3.0678,3.11805 -3.77278,3.65469 -0.70499,0.53664 -1.841,1.4763 -2.52446,2.08813 -2.42694,2.17256 -9.65049,6.00017 -12.8005,6.78269 -0.57639,0.14325 -1.16481,0.35069 -1.30757,0.46113 -0.29279,0.22636 -4.06497,1.28517 -6.1332,1.72146 -5.31001,1.12011 -12.85724,1.7117 -14.88155,1.16642 -1.05107,-0.28316 -4.78323,-0.84456 -7.23116,-1.08776 -2.8223,-0.2804 -8.25421,-1.49214 -10.06077,-2.24428 -4.56896,-1.90231 -8.0063,-4.65369 -12.90009,-10.32564 -2.02681,-2.34915 -4.39184,-5.70977 -4.39184,-6.2407 0,-0.10656 -0.29271,-0.8392 -0.65046,-1.62809 -0.35774,-0.78888 -0.819,-1.90592 -1.02501,-2.48232 -0.20604,-0.5764 -0.773,-1.94403 -1.25996,-3.03919 -0.48695,-1.09515 -1.15958,-2.93439 -1.49472,-4.08718 -1.29575,-4.45684 -1.15865,-3.87373 -1.87269,-7.96477 -0.58623,-3.3587 -0.37581,-9.19254 0.46116,-12.78556 1.39038,-5.96879 3.58664,-10.66903 7.05161,-15.09113 1.72706,-2.20413 6.3195,-6.56288 8.22203,-7.80365 0.97988,-0.63908 2.15887,-1.41996 2.61999,-1.73541 0.46112,-0.31545 1.87591,-1.10132 3.14399,-1.74629 1.26808,-0.64504 2.54139,-1.30862 2.82959,-1.47466 2.35309,-1.35539 8.65204,-3.81163 12.36635,-4.82215 0.63403,-0.17253 2.37895,-0.64773 3.87759,-1.05606 1.49863,-0.40832 3.62082,-0.97366 4.71598,-1.25629 1.09516,-0.28262 2.50994,-0.65264 3.14399,-0.82234 0.63404,-0.16965 2.04882,-0.46302 3.14398,-0.65199 1.09516,-0.1889 2.60428,-0.52675 3.35359,-0.75075 0.74932,-0.22402 2.07975,-0.4999 2.95653,-0.61309 0.87676,-0.11317 1.81996,-0.29009 2.09598,-0.39319 0.27603,-0.10303 0.95841,-0.2544 1.51643,-0.33634 0.558,-0.082 1.21118,-0.18694 1.45148,-0.23324 0.24031,-0.0465 1.19856,-0.18183 2.12943,-0.30124 0.93089,-0.11947 2.25843,-0.30818 2.95011,-0.41939 3.70489,-0.59585 7.38506,-0.85451 13.15853,-0.92486 4.44212,-0.0544 4.12839,0.0603 5.22684,-1.90696 1.14473,-2.05027 1.27589,-3.24328 1.11129,-10.10871 -0.0795,-3.31671 -0.2289,-6.97363 -0.33198,-8.12642 -0.53211,-5.95151 -0.64609,-8.24891 -0.55632,-11.21356 0.12331,-4.07297 -0.1472,-7.570524 -0.67272,-8.698364 -0.46736,-1.00306 -1.00003,-2.3168 -1.91223,-4.71598 -0.61749,-1.6242 -1.48439,-3.15414 -2.45009,-4.32416 -0.20272,-0.24556 -1.45325,-1.01099 -2.77896,-1.70084 -2.21687,-1.15358 -2.62075,-1.28824 -5.03039,-1.67752 -3.17657,-0.51311 -7.48175,-0.60232 -9.53676,-0.19761 -0.80696,0.15897 -1.99506,0.53952 -2.64022,0.84574 -0.64516,0.30628 -1.50102,0.55681 -1.90191,0.55681 -0.49673,0 -1.05751,0.23364 -1.76069,0.7336 -0.5675,0.40348 -1.12643,0.73759 -1.24209,0.74251 -0.42247,0.0183 -1.95669,1.59446 -2.698,2.77233 -0.41857,0.66509 -0.76106,1.26494 -0.76106,1.33292 0,0.068 -0.41791,1.08344 -0.92873,2.25654 -0.51079,1.1731 -1.06686,2.5068 -1.23569,2.96386 -0.16883,0.45706 -0.6286,1.63271 -1.02171,2.61259 -0.39311,0.97988 -0.88113,2.583314 -1.08455,3.563194 -0.2034,0.97987 -0.51247,2.39467 -0.68684,3.14398 -0.17436,0.74932 -0.39727,2.73004 -0.49537,4.40159 -0.14862,2.53274 -0.28188,3.33603 -0.79974,4.82078 -0.90394,2.59163 -1.17219,3.1508 -2.11049,4.39955 -1.17664,1.56597 -4.44236,3.77481 -5.58092,3.77481 -0.18871,0 -1.01916,0.23018 -1.84548,0.51149 -0.82632,0.28133 -2.02116,0.61669 -2.6552,0.7452 -0.63404,0.12851 -1.71872,0.34643 -2.41039,0.48411 -0.75395,0.15012 -2.97836,0.24228 -5.55438,0.23009 l -4.29678,-0.0203 -3.35359,-0.88294 c -1.84448,-0.48562 -3.50684,-0.99528 -3.69415,-1.13249 -3.79934,-2.78381 -5.8693,-5.36829 -7.01746,-8.76204 -0.43022,-1.2716 -0.50195,-1.88285 -0.50195,-4.27726 0,-2.63847 0.0364,-2.88487 0.65439,-4.43394 0.89461,-2.24232 1.51463,-3.44568 2.7889,-5.413034 0.59737,-0.92224 1.1514,-1.81827 1.23118,-1.99119 0.15351,-0.33267 1.33769,-2.14341 2.28326,-3.4914 0.69713,-0.99376 4.58048,-5.00818 6.56142,-6.78283 2.27264,-2.036 6.44803,-5.02652 7.0181,-5.02652 0.17895,0 0.65625,-0.22479 1.06067,-0.49962 0.40443,-0.27485 1.56527,-0.84318 2.57967,-1.2631 1.01439,-0.41992 2.04945,-0.89368 2.30014,-1.05278 0.25067,-0.1591 1.25749,-0.54777 2.23736,-0.86381 0.97988,-0.31597 2.44183,-0.80316 3.24879,-1.08265 0.80695,-0.27949 2.73188,-0.83257 4.27759,-1.2291 2.34671,-0.602 3.02614,-0.69888 4.11813,-0.58695 1.02748,0.10527 1.77277,0.0196 3.47759,-0.40033 1.19341,-0.2939 2.45279,-0.59742 2.79864,-0.67452 1.04042,-0.23206 6.88547,-0.91561 10.79436,-1.26237 2.01739,-0.17895 4.37538,-0.40092 5.23997,-0.49321 2.94592,-0.31453 9.46846,-0.28506 11.1383,0.0504 0.84835,0.17037 2.34417,0.37139 3.32405,0.44677 0.97988,0.0753 2.08235,0.23024 2.44997,0.34427 0.50765,0.1574 0.81555,0.13114 1.28052,-0.10932 1.00997,-0.52229 5.309,0.0497 7.40199,0.98486 0.62099,0.27745 1.93079,0.76222 2.91067,1.07727 0.97987,0.31505 3.10207,1.21686 4.71598,2.00396 1.61391,0.78712 3.17019,1.50002 3.45838,1.58418 0.6991,0.20424 1.9715,1.01826 3.22835,2.06541 2.03617,1.69631 5.69511,5.22439 6.43013,6.20014 0.41279,0.54797 1.08413,1.40897 1.49186,1.91331 1.13964,1.40962 3.87768,7.15323 4.23917,8.89258 0.16894,0.81291 0.45986,1.927724 0.64647,2.477394 0.67761,1.99578 1.39042,6.1237 1.45239,8.41089 0.0219,0.80696 0.16178,1.69212 0.3109,1.96689 0.26605,0.49046 0.33928,1.85397 0.81748,15.22024 0.17973,5.02417 0.12385,17.37453 -0.0811,17.92074 -0.1529,0.40747 -0.27546,5.33979 -0.40102,16.13914 -0.0556,4.78412 -0.16687,12.28253 -0.24722,16.66315 -0.24633,13.42944 -0.0831,27.6684 0.34115,29.7559 0.65684,3.23207 2.23479,5.64007 4.05289,6.18476 0.4778,0.14311 1.4445,0.53232 2.14821,0.8648 2.24556,1.06095 4.29368,1.44897 7.34773,1.39199 3.33609,-0.0623 3.84947,0.1386 4.37144,1.71001 0.46466,1.39901 0.40315,4.29979 -0.11577,5.45881 -0.20938,0.46767 -0.46629,0.85038 -0.57088,0.85038 -0.10459,0 -0.80123,0.60207 -1.54809,1.33803 -1.22354,1.20559 -1.4702,1.35447 -2.49247,1.50446 -0.624,0.0916 -1.89181,0.14548 -2.81735,0.1198 -1.05215,-0.0295 -2.15188,0.0822 -2.93439,0.29744 -0.80004,0.22008 -2.68836,0.40583 -5.23397,0.51483 -2.19031,0.0939 -4.26535,0.28296 -4.61118,0.42017 -0.3593,0.1426 -2.15602,0.289 -4.19198,0.34152 -2.8599,0.0738 -7.75393,0.54542 -10.47996,1.00981 -0.23056,0.0393 -0.69208,0.01 -1.02559,-0.0648 z m -45.19104,-17.66461 c 0.51876,-0.1018 1.8864,-0.3327 3.0392,-0.51307 3.23425,-0.50612 4.85121,-1.15938 7.84138,-3.16797 2.81819,-1.89308 3.79781,-2.78651 5.24243,-4.78131 0.50092,-0.69168 1.01601,-1.35191 1.14464,-1.46719 0.96192,-0.86202 3.23055,-4.31136 4.03511,-6.13514 0.39338,-0.89172 1.09561,-2.80111 1.85794,-5.05189 0.4817,-1.42223 1.22992,-4.53342 1.77065,-7.36251 0.12119,-0.63404 0.36339,-1.67155 0.53823,-2.30559 0.45938,-1.66591 1.15307,-8.7279 1.15295,-11.73755 -5e-5,-0.8646 0.1325,-2.65667 0.29452,-3.98239 0.26066,-2.13269 0.4118,-4.91811 0.38671,-7.12637 -0.004,-0.40347 -0.11555,-1.86543 -0.24657,-3.24879 -0.13104,-1.38335 -0.33284,-3.74134 -0.44846,-5.23998 -0.11559,-1.49863 -0.25192,-2.84269 -0.30293,-2.98679 -0.11954,-0.33771 -2.25369,-0.32461 -4.92667,0.0301 -1.09516,0.14542 -2.14524,0.22532 -2.33351,0.17763 -0.18826,-0.0478 -0.6127,0.0491 -0.9432,0.21531 -0.81704,0.41061 -2.61229,0.72069 -5.73606,0.99055 -2.93782,0.25388 -6.21124,0.81357 -9.97639,1.7058 -1.39462,0.33052 -2.78315,0.6009 -3.08562,0.6009 -0.3025,0 -1.06523,0.22787 -1.69497,0.50638 -0.62974,0.2785 -2.11796,0.81056 -3.30716,1.1824 -1.18921,0.37184 -2.77527,0.9654 -3.52459,1.31904 -2.6051,1.22949 -5.51834,3.35188 -6.8611,4.99848 -0.31039,0.38062 -1.10978,1.28464 -1.77644,2.00887 -0.66665,0.7243 -1.39139,1.6675 -1.61053,2.09603 -0.21916,0.42852 -0.78541,1.21807 -1.25837,1.7545 -0.47294,0.53645 -0.8599,1.02982 -0.8599,1.09636 0,0.0666 -0.36878,0.9082 -0.8195,1.8703 -0.4507,0.9621 -0.9608,2.22515 -1.13351,2.80675 -0.17271,0.58162 -0.45864,1.33709 -0.63536,1.67887 -0.46778,0.90458 -1.3245,4.52748 -1.5014,6.34911 -0.0839,0.86459 -0.19157,1.85495 -0.23912,2.20079 -0.0476,0.34584 -0.0903,2.72676 -0.0949,5.29093 -0.007,3.53603 0.0676,4.92826 0.30611,5.76398 0.17296,0.60602 0.37593,1.57344 0.45105,2.14984 0.19241,1.47645 1.29876,4.79039 2.11515,6.33566 1.75287,3.31778 4.35717,6.12254 7.68148,8.27263 4.73235,3.0608 5.89783,3.64904 7.80835,3.94104 1.22823,0.18771 6.28671,0.0321 7.65036,-0.23581 z m 625.4452,15.16385 c -1.3056,-0.27267 -2.0193,-0.29193 -4.2257,-0.11396 -1.8069,0.14573 -3.3804,0.14573 -4.9267,6e-5 -1.2496,-0.11777 -2.6964,-0.20633 -3.2151,-0.1969 -0.5188,0.009 -3.261,0.0491 -6.0937,0.0885 l -5.1505,0.0712 -0.7664,-0.524 c -0.4215,-0.28819 -0.8727,-0.78023 -1.0028,-1.09338 -0.3553,-0.85576 -1.449,-1.05245 -1.449,-0.26063 0,0.16395 -0.2122,0.34485 -0.4716,0.4021 -1.3363,0.29488 -4.0052,0.60804 -5.3972,0.63332 -0.8646,0.0157 -2.5041,0.10598 -3.6434,0.20056 -1.1394,0.0946 -5.2423,0.19329 -9.1176,0.21923 -5.5,0.0367 -7.345,0.11829 -8.4085,0.37125 -1.9121,0.45489 -5.2104,0.43773 -5.7882,-0.0301 -0.5388,-0.43629 -0.9784,-1.22451 -0.8232,-1.47571 0.063,-0.10251 -0.06,-0.59571 -0.2726,-1.09607 -0.4529,-1.06266 -0.978,-5.24103 -0.8131,-6.47046 0.063,-0.46622 0.3629,-1.17434 0.6674,-1.5735 0.6386,-0.83735 1.3345,-0.93186 3.1337,-0.42581 1.2421,0.34938 4.7238,0.75299 6.4703,0.75004 0.8525,0 1.723,-0.19814 2.9344,-0.66332 1.4795,-0.56802 1.9543,-0.88582 3.3658,-2.25319 1.214,-1.17592 1.8091,-1.94784 2.2775,-2.95425 0.3488,-0.74932 0.9614,-2.06559 1.3614,-2.92502 0.78,-1.67577 1.1074,-3.17464 1.1093,-5.07851 0,-0.65535 0.1065,-1.45706 0.2351,-1.78159 0.1438,-0.36263 0.2648,-2.76442 0.3138,-6.23149 0.044,-3.10279 0.1723,-6.63977 0.2852,-7.85997 0.113,-1.22018 0.2155,-3.77479 0.228,-5.67691 0.012,-1.90211 0.1509,-4.92035 0.3078,-6.70718 0.6103,-6.95058 0.9608,-14.23607 0.8237,-17.12383 -0.075,-1.59314 -0.4572,-4.87049 -0.849,-7.29451 -0.3914,-2.42086 -0.7518,-5.25046 -0.801,-6.28797 -0.049,-1.03751 -0.1484,-3.1597 -0.2204,-4.71598 -0.072,-1.55627 -0.1694,-6.27226 -0.2161,-10.47996 -0.094,-8.49787 -0.2232,-12.34579 -0.6417,-19.17832 -0.063,-1.03752 -0.1525,-3.34835 -0.1977,-5.13518 -0.072,-2.83896 -0.2462,-4.857344 -0.8548,-9.897354 -0.1356,-1.12364 -0.2255,-1.27652 -1.4308,-2.43397 -0.7073,-0.67916 -1.6614,-1.43752 -2.1203,-1.68518 -0.4587,-0.24759 -0.9756,-0.53991 -1.1485,-0.64956 -0.7992,-0.50663 -3.501,-1.52313 -4.574,-1.72087 -0.6545,-0.12059 -1.7088,-0.39221 -2.3428,-0.60371 -0.634,-0.21143 -1.8948,-0.45045 -2.8016,-0.53114 -2.7807,-0.24752 -3.0215,-0.72076 -3.0519,-5.99519 -0.015,-2.63617 -0.01,-2.67115 0.629,-3.6165 0.8605,-1.27502 1.249,-1.45358 2.7964,-1.28504 2.5893,0.2819 16.4183,0.009 20.1393,-0.39857 0.4611,-0.0504 2.7719,-0.14279 5.1351,-0.20521 2.3633,-0.0623 5.3815,-0.24975 6.7072,-0.41612 2.2825,-0.2865 8.5612,-0.62775 10.3752,-0.56395 0.4611,0.0164 2.2169,0.0268 3.9017,0.0243 1.6848,0 3.3092,0.088 3.6097,0.20226 0.3335,0.1268 0.6742,0.51385 0.8747,0.9935 0.1805,0.43217 0.4563,0.93068 0.6128,1.1078 0.3786,0.4283 0.7151,3.36643 0.8351,7.29169 0.054,1.75828 0.1647,3.30505 0.2463,3.43723 0.082,0.13224 0.1339,1.80622 0.116,3.71993 -0.031,3.26549 0.2148,5.68034 0.5773,5.68034 0.1897,0 1.4879,-1.77125 1.4879,-2.03004 0,-0.099 0.2687,-0.50802 0.5971,-0.90901 0.3283,-0.40092 1.1414,-1.57782 1.8068,-2.61533 0.6654,-1.03752 1.5994,-2.32609 2.0754,-2.86359 2.0507,-2.31561 2.8092,-3.27944 3.7385,-4.75082 1.0204,-1.61576 1.4574,-1.97705 4.9912,-4.12689 4.5254,-2.75301 9.1224,-4.59428 14.1437,-5.66514 0.9223,-0.19662 2.8558,-0.64373 4.2968,-0.99349 2.8233,-0.68532 5.4147,-0.92093 9.5368,-0.86696 2.3999,0.0315 2.6399,0.0763 5.2399,0.98008 4.4443,1.54475 4.917,1.76292 6.1569,2.84137 0.6518,0.56697 1.6798,1.28151 2.2845,1.58791 1.2776,0.6474 2.2383,1.84317 2.4266,3.02013 0.071,0.44527 0.4079,1.19393 0.7483,1.66376 0.3402,0.46983 0.6823,1.19301 0.76,1.60704 0.078,0.41408 0.5546,1.39895 1.0597,2.18854 0.6932,1.08337 0.9612,1.74721 1.0922,2.70527 0.096,0.6983 0.3555,1.52464 0.5779,1.83642 0.9243,1.29591 1.3408,2.1275 1.344,2.68339 0.01,0.55551 0.2924,1.68217 0.9246,3.60256 0.3692,1.12142 0.1525,2.44241 -0.8036,4.899514 -1.0735,2.75878 -1.4916,3.51327 -2.6192,4.72672 -0.5435,0.58485 -1.1984,1.41276 -1.4552,1.83982 -0.6357,1.05677 -3.6137,3.70624 -5.199,4.62553 -1.5259,0.88483 -3.7073,1.70175 -6.0401,2.26197 -1.8466,0.44343 -4.0976,0.50598 -7.2317,0.20088 -2.1309,-0.20744 -3.7643,-0.82529 -6.3922,-2.41792 -1.6864,-1.02206 -4.217,-3.59606 -4.5986,-4.67747 -0.1638,-0.46446 -0.7288,-1.37359 -1.2556,-2.02034 -0.5268,-0.64668 -0.9578,-1.27881 -0.9578,-1.40464 0,-0.12582 -0.3122,-0.66449 -0.6937,-1.19701 -0.3815,-0.53257 -0.8377,-1.25124 -1.0138,-1.59707 -1.2755,-2.505774 -1.9321,-3.270484 -3.2355,-3.768274 -0.8664,-0.33091 -1.036,-0.33052 -2.7585,0.007 -1.0094,0.19768 -2.5215,0.62972 -3.3603,0.96003 -0.8388,0.33025 -1.6453,0.60056 -1.7923,0.60056 -0.419,0 -2.8175,1.627414 -3.6685,2.489134 -1.6852,1.70639 -5.1661,9.94267 -6.627,15.68051 -0.1816,0.71329 -0.6527,2.05021 -1.0468,2.971 -0.4612,1.07766 -0.7641,2.18376 -0.8501,3.10469 -0.074,0.78678 -0.2637,1.85501 -0.4227,2.37377 -1.1719,3.82532 -1.8583,8.09617 -1.7922,11.15035 0.029,1.34858 -0.049,2.76337 -0.1728,3.14399 -0.1242,0.38055 -0.2393,1.11644 -0.2557,1.6352 -0.076,2.39074 0.049,7.21827 0.2356,9.11757 0.1132,1.15279 0.2458,5.39717 0.2948,9.43197 0.049,4.03475 0.2124,8.89221 0.3632,10.79432 0.3449,4.34933 0.3426,6.95208 -0.01,9.22237 -0.2028,1.31194 -0.2221,2.25512 -0.074,3.57786 0.1496,1.33046 0.1291,2.28165 -0.079,3.66798 -0.3827,2.54564 -0.3751,9.53226 0.013,12.05554 0.3006,1.95459 0.3837,2.38276 1.0535,5.43132 0.1899,0.8646 0.4298,2.04359 0.533,2.61999 0.2297,1.28224 1.1368,2.15774 3.4224,3.30313 1.9353,0.96996 2.8975,1.18067 5.4894,1.20229 3.4836,0.0288 7.6834,0.41933 8.4298,0.78331 0.5107,0.24903 0.7389,0.54345 0.9079,1.17101 0.1242,0.46111 0.3528,1.03554 0.5081,1.27651 0.1737,0.26954 0.3312,1.40596 0.4095,2.95332 0.07,1.38336 0.2292,3.24296 0.3539,4.13245 0.283,2.01889 0.17,2.47583 -0.7325,2.96163 -0.7857,0.42293 -1.1803,0.32495 -1.9019,-0.47231 -0.5246,-0.57974 -0.7399,-0.55498 -1.5414,0.17717 -0.454,0.41461 -0.9999,0.66358 -1.6712,0.76216 -0.5483,0.0805 -1.2327,0.23684 -1.5209,0.34741 -0.2882,0.11056 -1.7352,0.19355 -3.2155,0.18444 -1.4805,-0.009 -3.0839,0.0671 -3.5632,0.16946 -1.7485,0.37308 -4.3886,0.40078 -6.0056,0.0629 z m -331.2727,-0.48286 c -1.1528,-0.0894 -3.7466,-0.16245 -5.7639,-0.16238 -2.0175,7e-5 -5.2244,-0.14318 -7.1265,-0.31832 -1.9766,-0.18197 -7.275,-0.37839 -12.3663,-0.45844 -4.8994,-0.077 -8.9774,-0.18097 -9.0623,-0.23108 -0.085,-0.0504 -2.6787,-0.099 -5.764,-0.10867 -4.5734,-0.0144 -5.9384,0.0504 -7.3891,0.34906 -1.445,0.29762 -2.2524,0.3364 -4.2968,0.20651 -1.3845,-0.088 -5.3076,-0.18116 -8.7179,-0.20717 -7.8688,-0.0596 -7.88,-0.0636 -8.4044,-2.92974 -0.3168,-1.73201 -0.3415,-2.45408 -0.1285,-3.77279 0.3392,-2.10031 0.5608,-2.74765 1.1374,-3.32424 0.6636,-0.66364 1.3272,-0.85457 4.4786,-1.2887 1.3256,-0.18262 3.4312,-0.47344 4.679,-0.64629 1.275,-0.17652 2.744,-0.52512 3.3536,-0.7957 1.4211,-0.63076 3.779,-2.68523 4.1998,-3.65905 0.4018,-0.93018 0.6893,-2.65106 0.8632,-5.16755 0.072,-1.03751 0.3623,-3.77278 0.6457,-6.07837 0.5652,-4.59791 0.766,-8.92853 0.4521,-9.74637 -0.1107,-0.28819 -0.2409,-3.54222 -0.2894,-7.23117 -0.1139,-8.65621 -0.1714,-10.36981 -0.4497,-13.41435 -0.325,-3.55717 -0.3908,-10.59189 -0.1448,-15.51033 0.1153,-2.3056 0.185,-5.63429 0.1548,-7.39722 -0.04,-2.3929 0.06,-4.01297 0.3951,-6.39277 0.4047,-2.86719 0.4581,-4.33563 0.5321,-14.61071 0.1927,-26.801314 0.2514,-29.762694 0.735,-37.099054 0.1331,-2.01739 0.2701,-5.52792 0.3047,-7.80115 l 0.063,-4.1331 -0.5185,-0.61636 -0.5187,-0.61628 0.2201,-4.57772 c 0.5229,-10.87845 0.61,-16.41561 0.3097,-19.66884 -0.3125,-3.38326 -0.8548,-6.51474 -1.7062,-9.85117 -0.2942,-1.15279 -0.6933,-2.75622 -0.8867,-3.56319 -0.3602,-1.50197 -0.8497,-2.61075 -1.4803,-3.35358 -0.1958,-0.23056 -0.5374,-0.84363 -0.7591,-1.3624 -0.7792,-1.82273 -1.3954,-2.73009 -2.4877,-3.66339 -1.7167,-1.46648 -2.7288,-1.81992 -5.7828,-2.01903 -1.4483,-0.0944 -3.4787,-0.26855 -4.5118,-0.38692 -1.0332,-0.11836 -2.35,-0.21634 -2.9265,-0.21772 -0.6824,0 -1.2926,-0.15169 -1.7495,-0.43019 -0.6736,-0.41069 -0.6966,-0.46702 -0.5767,-1.41402 0.069,-0.54246 0.2079,-2.15991 0.3095,-3.59443 0.1624,-2.29328 0.2393,-2.65228 0.6368,-2.97408 0.6655,-0.53893 2.6319,-1.05061 3.8652,-1.00575 2.8346,0.1031 4.3658,0.0596 6.0035,-0.16983 0.9799,-0.13742 2.489,-0.34709 3.3536,-0.46591 0.8646,-0.11888 2.3737,-0.3626 3.3536,-0.54168 1.2478,-0.22807 3.0376,-0.3218 5.9735,-0.31282 2.3056,0.007 4.9466,-0.0867 5.8689,-0.20823 0.9222,-0.12156 3.3273,-0.27031 5.3447,-0.33051 3.1528,-0.0941 8.784,-0.54286 17.0824,-1.36128 1.1528,-0.11371 2.6793,-0.24949 3.3922,-0.30182 0.713,-0.0524 1.5195,-0.17993 1.7923,-0.28362 1.1299,-0.42962 2.6761,0.39726 2.6747,1.43025 0,0.61183 -0.7164,1.90224 -1.0548,1.90224 -0.1514,0 -0.2039,1.12909 -0.1633,3.5108 0.033,1.93093 0.029,5.82161 -0.01,8.64596 -0.037,2.82841 0.029,5.79424 0.1481,6.60238 0.1185,0.80695 0.2282,3.40074 0.244,5.76397 0.1609,24.17111 0.3821,38.51549 0.6191,40.13824 0.101,0.69169 0.1915,2.15364 0.2013,3.24879 0.01,1.09516 0.1231,3.59463 0.2521,5.55438 0.1289,1.95976 0.1762,4.52996 0.1049,5.71158 -0.071,1.18162 -0.056,2.14839 0.035,2.14839 0.09,0 0.4241,-0.53041 0.742,-1.17873 0.572,-1.16636 3.0445,-4.53632 4.6225,-6.30062 0.4491,-0.50206 1.5338,-1.35532 2.4104,-1.89608 0.8766,-0.54084 2.2069,-1.44329 2.9563,-2.00554 0.7493,-0.56225 2.447,-1.53662 3.7728,-2.16523 2.8596,-1.35591 3.2439,-1.55359 5.9803,-3.07645 2.0549,-1.1435 3.6052,-1.78762 7.6436,-3.17563 1.0952,-0.37636 2.793,-0.97346 3.7728,-1.32689 2.6359,-0.95053 5.3458,-1.74872 6.3474,-1.86943 0.4862,-0.0589 1.288,-0.23783 1.7819,-0.39831 0.494,-0.16047 1.3496,-0.2918 1.9014,-0.2918 0.5519,0 1.4488,-0.15169 1.993,-0.33719 1.0515,-0.35828 0.4226,-0.37754 10.9274,0.33483 1.4987,0.10166 3.1964,0.2926 3.7728,0.42431 1.199,0.27406 3.2683,0.65362 6.288,1.15326 1.1528,0.19073 2.6147,0.53245 3.2488,0.75934 0.634,0.22688 1.8602,0.65342 2.7247,0.94784 2.2392,0.76236 6.6142,2.93282 7.9326,3.93516 0.6164,0.46858 1.4653,1.08782 1.8865,1.37602 2.3443,1.60422 2.625,1.94174 7.3026,8.78168 0.2678,0.39162 0.6689,1.28766 0.8911,1.99119 0.2223,0.70354 0.5926,1.75068 0.8228,2.32708 0.5435,1.36089 1.5814,4.89545 1.9079,6.49757 0.1411,0.691684 0.4728,2.295124 0.7372,3.563194 1.379,6.61495 1.6136,7.97421 1.8096,10.47996 0.4484,5.73175 0.5952,8.36406 0.7898,14.16478 0.1107,3.2947 0.2565,6.64305 0.3242,7.44077 0.068,0.79772 0.1653,5.36462 0.2167,10.14873 0.051,4.7841 0.2006,10.92123 0.3316,13.63809 0.1625,3.36969 0.1729,5.63474 0.033,7.12637 -0.1227,1.30618 -0.1365,3.3682 -0.034,5.12103 0.4789,8.18494 0.6352,10.37531 0.8224,11.52796 0.1123,0.69168 0.1951,3.37979 0.1839,5.97358 -0.02,4.59601 0.066,7.7806 0.3579,13.27734 0.1346,2.53426 0.1169,2.72785 -0.3007,3.29269 -0.5649,0.76416 -0.5615,0.7952 0.1573,1.44024 0.4269,0.38313 0.7733,1.08545 1.1963,2.42565 0.3274,1.03752 0.7142,2.07502 0.8595,2.30558 0.7316,1.16131 5.5661,2.68831 9.6056,3.03408 1.3829,0.11842 2.7722,0.2694 3.0873,0.33569 0.3151,0.0662 1.0813,-0.0275 1.7028,-0.20803 0.9669,-0.28112 1.2463,-0.28814 1.9377,-0.0491 0.666,0.23056 0.8333,0.40446 0.9532,0.99108 0.08,0.39128 0.063,1.18423 -0.037,1.76206 -0.1005,0.57791 -0.2308,2.02677 -0.2895,3.21971 -0.1636,3.32116 -0.2644,3.37874 -5.4688,3.12087 -2.4199,-0.11987 -4.3739,-0.11168 -5.4495,0.0229 -1.0726,0.13422 -2.2987,0.13972 -3.4026,0.0151 -1.5036,-0.16958 -2.0704,-0.12668 -4.4016,0.33326 -3.9606,0.78141 -7.9309,0.95945 -22.6925,1.01728 -2.4417,0.01 -4.3615,-0.0977 -9.8512,-0.55053 -1.6715,-0.13787 -3.5108,-0.24274 -4.0871,-0.23304 -0.5764,0.01 -4.9152,0.084 -9.6416,0.16519 -4.7265,0.0811 -9.2806,0.14187 -10.1205,0.13499 -2.7802,-0.0229 -3.6565,-0.79353 -3.4846,-3.06467 0.1213,-1.60199 0.9055,-5.57344 1.1624,-5.88672 0.1087,-0.13251 0.7154,-0.4511 1.3482,-0.70799 0.8778,-0.35625 1.3605,-0.43302 2.0354,-0.32383 2.1844,0.35338 2.885,0.3611 4.2602,0.0472 2.4336,-0.5557 3.7541,-1.10321 5.613,-2.32741 3.0338,-1.99787 4.1308,-3.69341 4.4142,-6.82201 0.078,-0.86459 0.2277,-2.32655 0.3321,-3.24879 0.1044,-0.92223 0.237,-2.50624 0.2948,-3.52003 0.058,-1.01377 0.1582,-1.92933 0.2234,-2.03458 0.065,-0.10523 0.2111,-1.86957 0.3247,-3.92074 0.1135,-2.05118 0.3091,-4.34247 0.4347,-5.09179 0.1255,-0.74931 0.2594,-2.58855 0.2975,-4.08718 0.038,-1.49864 0.1872,-5.55438 0.3314,-9.01277 0.3466,-8.31924 0.3444,-10.11126 -0.018,-15.19591 -0.2174,-3.04731 -0.2892,-6.97873 -0.247,-13.51914 0.033,-5.0723 0.073,-11.39172 0.089,-14.04315 0.069,-11.24723 -1.0034,-26.11638 -2.0412,-28.3048 -0.1664,-0.35075 -0.4482,-1.3411 -0.6263,-2.20079 -0.4945,-2.386554 -1.6864,-4.450774 -3.8436,-6.656414 -1.798,-1.83832 -2.1341,-2.05938 -5.0765,-3.33846 -2.3995,-1.04302 -5.406,-1.8505 -8.7511,-2.35026 -2.2465,-0.33555 -3.1228,-0.36981 -5.5017,-0.21503 -1.5562,0.10132 -3.4542,0.28059 -4.2177,0.39836 -1.8613,0.28728 -5.4713,1.7178 -6.5462,2.59412 -0.4778,0.38953 -1.1046,0.83106 -1.3928,0.98125 -0.8705,0.45359 -5.081,3.25075 -6.5808,4.37192 -1.5669,1.17132 -3.5746,3.312124 -3.8018,4.053904 -0.081,0.26613 -0.8316,1.71007 -1.667,3.20864 -0.8353,1.49864 -1.6311,3.19645 -1.7684,3.77286 -0.1373,0.57639 -0.4671,1.3802 -0.7328,1.78624 -0.7775,1.18803 -1.3184,2.33906 -1.9795,4.2128 -0.3408,0.96587 -1.3688,3.40672 -2.2844,5.42411 -1.8704,4.12085 -2.3076,5.31858 -2.984,8.17436 -0.7529,3.17923 -1.0462,5.45378 -1.3382,10.37516 -0.3259,5.4934 -0.2688,8.87928 0.3007,17.81449 0.235,3.68817 0.4253,7.69676 0.4228,8.90797 -0.017,8.34375 0.2126,18.923 0.4359,20.06806 0.1946,0.99776 0.1989,1.66839 0.018,2.83072 -0.162,1.04218 -0.1715,1.81346 -0.03,2.44246 0.1571,0.69926 0.1243,1.28834 -0.1366,2.4612 -0.319,1.43394 -0.3182,1.69966 0.011,3.79556 0.7749,4.93499 0.9713,6.05333 1.1766,6.69731 0.1177,0.36897 0.3923,1.50081 0.6104,2.51519 1.1134,5.17818 1.6833,6.69069 2.582,6.85234 0.2498,0.0452 1.1616,0.23076 2.0262,0.41292 0.8646,0.18215 1.9493,0.38972 2.4104,0.46118 0.4611,0.0714 1.5152,0.35704 2.3425,0.63469 1.0327,0.34649 1.9754,0.5048 3.007,0.5048 2.4696,0 5.678,1.06608 6.6953,2.22471 l 0.6227,0.70916 -0.051,3.24931 c -0.05,3.17346 -0.063,3.26183 -0.5862,3.78464 -0.649,0.64904 -3.1743,1.35625 -4.6946,1.31472 -0.5764,-0.0157 -1.9912,-0.10179 -3.144,-0.1912 z"
     style="fill-opacity:1;stroke-miterlimit:4;stroke-dasharray:none;stroke-opacity:1" />
</svg>
