<svg xmlns="http://www.w3.org/2000/svg" xmlns:xlink="http://www.w3.org/1999/xlink" version="1.0"
    x="0px" y="0px" viewBox="0 0 137.02467 118.18993" xml:space="preserve">
    <title>Link to Asher Perlman's Substack email newsletter</title>
    <path class="shop-svg" d="m 60.926294,118.18992
c -6.524875,-0.27475 -13.117028,-0.49702 -19.60443,-0.33063 -2.475461,-0.0942 -4.884982,0.1302 -7.56177,0.0987 -5.607964,0.27649 -11.009462,-0.38725 -16.61141,-1.2572 -4.704975,-0.45258 -9.6010384,-0.40343 -14.0896104,-1.9685 -2.27377103,0.46703 -0.945458,-2.28928 -1.4345,-3.46435 0.169313,-2.0133 -0.214002,-3.98398 -0.03361,-6.02271 0.122807,-5.508348 0.269405,-11.171768 -0.13463,-16.686968 0.02385,-3.43565 -0.56573503,-7.11613 -0.31214,-10.66536 -0.42636403,-3.76471 -0.31844603,-7.56474 -0.93819003,-11.30334 -0.111178,-2.52709 -0.38604,-5.13021 -0.02863,-7.78849 0.06479,-2.48591 0.319693,-5.01531 0.52857,-7.44347 0.145348,-5.92818 -0.410638,-11.85828 -0.16241,-17.77095 -0.39771,-7.195 -0.230743,-14.438868 0.24963,-21.64934 1.31664403,-0.34128 0.31797103,3.015544 0.67483003,4.01902 0.09011,5.59631 0.0371,11.24439 0.42097,16.76425 0.100836,5.3692 0.103151,11.14464 0.42043,16.51846 -0.239424,0.94814 0.473423,3.26484 -0.27766,3.44514 -0.392694,0.93661 0.03322,2.55589 -0.27071,3.7892 -0.178879,1.98654 -0.05496,3.657 -0.198,5.40131 -0.017,2.3943 0.621314,4.68558 0.2384,6.9218 -0.371132,1.83766 0.343277,3.93674 0.38242,5.86779 0.315288,4.56152 0.486949,9.09552 0.81237,13.62064 0.411337,5.67656 0.306391,11.894598 0.1888,17.747008 -0.03584,2.37971 0.04285,4.89448 0.2596,7.13513 4.845415,1.6119 9.8499854,1.38956 14.8331604,1.94978 3.258257,0.57214 6.994507,1.06129 10.05233,1.10085 0.82932,0.10152 2.732152,0.15566 3.71414,0.13298 4.243157,-0.19465 8.321713,-0.18607 12.69101,-0.25951 3.56613,0.13551 8.052199,-0.0474 11.48993,0.26973 5.22076,0.17111 10.50357,-0.15494 15.52273,-0.28232 2.72475,-0.27887 6.05435,-0.32136 8.80309,-0.79081 3.1268,-0.5397 6.32832,-0.95806 9.39298,-1.21778 0.60657,-1.35656 -0.19046,-3.3008 0.17725,-4.91488 -0.25465,-4.7274 0.15047,-9.450898 0.62251,-14.132008 -0.19063,-4.89551 -0.3729,-9.83437 -0.24212,-14.67952 -0.34194,-2.99581 0.18022,-6.16432 0.54285,-9.14233 -0.25313,-2.54722 0.0813,-4.88502 -0.2507,-7.40813 0.16722,-0.96683 -0.1203,-3.16212 1.39687,-2.52738 0.88011,1.51527 0.0443,3.48337 0.57679,5.153 -0.32187,2.02623 0.12194,4.2162 -0.11593,6.35425 -0.44183,1.89867 -0.52792,3.70891 -0.4527,5.61967 1.1109,-1.83357 2.1269,-4.00581 3.28292,-5.92685 0.69442,-1.82407 2.29335,-3.43096 2.75685,-5.27137 -1.34862,-2.44102 -2.36083,-5.10025 -3.79428,-7.49637 -1.89294,1.62389 -4.99651,1.45497 -7.23626,0.42515 -0.9424,-0.48344 -2.38381,-1.16805 -3.22715,-2.03105 -0.53288,-0.87203 -0.76786,-2.79796 -0.4778,-4.13806 0.24734,-2.53825 1.03981,-5.54311 3.39965,-6.87555 2.16872,-0.22315 4.38776,0.0956 6.54463,0.4832 0.13327,1.42884 -2.99912,0.72692 -4.35652,0.91138 -1.53973,-0.35322 -2.35747,0.4417 -2.85387,1.80347 -0.94513,2.00754 -1.4407,4.60632 -0.77264,6.80814 2.17796,1.3702 4.65413,2.68909 7.41864,1.94888 1.24305,-0.025 2.30421,-3.44755 2.1502,-0.39754 -0.0217,1.29107 1.34065,2.44934 1.81771,3.7338 1.70922,2.83984 2.88545,6.36667 5.642066,8.21287 3.08514,0.7469 6.03052,2.60837 9.31184,1.93842 2.99285,0.19969 5.42071,-1.62047 8.02413,-2.5173 2.30745,-0.96807 3.68055,-3.75897 3.36629,-6.27378 0.55653,-4.76419 -2.70559,-8.62894 -3.72476,-13.10592 -0.13874,-1.04376 -1.1138,-2.38144 -0.53,-3.29624 1.6122,2.15601 1.9408,5.16925 3.37308,7.51418 1.64001,2.95516 2.91739,6.09243 2.57179,9.56458 0.34166,3.47802 -2.36609,6.90975 -5.66747,7.75813 -2.60399,0.98586 -5.28856,2.49556 -8.17869,2.11812 -2.98089,0.43297 -5.76342,-1.13632 -8.55172,-2.02827 -1.77023,-0.41548 -1.76499,-2.35703 -3.106776,-3.3089 -0.64292,-0.81273 -0.7232,1.02433 -1.24896,1.35915 -1.37731,2.60098 -2.558,5.38154 -3.93242,7.80001 -0.95077,1.64049 -2.33362,3.40608 -1.99352,5.37428 -0.17617,4.07375 0.35873,8.18588 0.23538,12.22191 -0.43451,4.09511 -0.76189,8.151848 -0.59248,12.164238 -0.14021,2.37248 0.1599,4.42073 0.1455,6.77897 -0.99301,1.69495 -3.44577,1.03948 -4.98673,1.46435 -4.56775,0.52762 -9.094,1.49258 -13.47053,1.5541 -4.20523,0.37947 -8.37978,0.26122 -12.61061,0.52715
z

m -39.55611,-2.56477
c -0.113971,-0.12052 -0.08281,0.11567 0,0
z

M 7.9960936,114.26848
c -0.139871,-0.0412 -0.02539,0.0444 0,0
z

m -4.67995,-13.81559
c -0.05308,-0.20861 -0.056,0.23357 0,0
z

M 38.418944,117.916
c 0.07316,-0.0484 0.05927,0.0873 0,0
z

m 13.60964,-1.74305
c 0.111321,-0.0363 0.01113,0.0488 0,0
z

M 3.3181536,109.72389
c 0.03673,-0.0678 0.01143,0.10951 0,0
z

m -1.778,-4.1402
c 0.03682,-0.0676 0.01135,0.10968 0,0
z

m 77.2139904,-3.54754
c -2.46755,-1.40927 -5.29458,-2.654998 -7.85066,-3.883008 -4.66232,-2.39258 -9.262029,-5.01049 -13.79018,-7.77266 -3.831389,-1.8085 -7.241209,-4.59895 -11.08758,-6.59844 -2.621224,1.53226 -5.241764,2.49516 -7.85095,3.94855 -3.880458,1.66792 -7.694152,3.53524 -11.38928,5.40798 -5.760828,2.53128 -11.295382,5.23514 -17.0250004,7.903408 -1.339437,1.06933 -2.981,0.84387 -1.14739,-0.53903 -0.188898,-4.503438 0.966395,-9.039358 0.89594,-13.600048 -1.21e-4,-4.79731 -0.245092,-9.71845 -0.09118,-14.34943 -0.504248,-4.92402 -1.254956,-10.04014 -0.63568,-15.05192 3.9736944,-0.75895 8.2900794,-0.1116 12.3852204,-0.26254 9.131906,0.38498 18.313157,0.70607 27.48263,0.4692 5.798518,-0.0744 11.600026,-0.22271 17.52633,-0.0736 4.10649,-0.0388 8.28723,-0.0681 12.3147,-0.28245 1.61269,0.21627 0.27873,2.00176 0.92274,3.09803 0.54893,6.09128 0.47432,11.96695 0.73498,18.07298 -0.0183,5.43082 -0.29161,10.74797 -0.0477,16.23405 0.0134,2.17301 0.0641,4.54155 0.0398,6.764958 -0.36642,0.30804 -0.88108,0.38003 -1.38669,0.51393
z

m 1.1684,-0.44935
c -0.0482,-0.1279 -0.0789,0.0921 0,0
z

m -1.1287,-1.46835
c -0.14454,-4.337928 -0.35706,-8.680628 -0.25034,-12.896828 0.0234,-4.99712 0.25738,-10.03858 -0.0231,-15.01791 -0.24853,-4.37301 0.0414,-9.22518 -0.40141,-13.42556 -7.81437,0.23893 -15.407275,0.083 -23.26763,0.12318 -5.679421,0.17889 -11.746516,0.25389 -17.2792,0.11235 -7.492793,0.0638 -14.85519,-0.69216 -22.34628,-0.67929 -1.780858,5.4e-4 -4.026817,-0.47357 -5.5866404,0.0826 0.204493,4.2223 0.352917,8.50608 1.0962604,12.50951 0.163269,5.42143 0.08296,10.79773 0.24504,16.26494 0.02218,4.22406 -0.909762,8.36831 -0.87118,12.54386 4.910637,-2.64482 9.818636,-5.03016 14.88212,-7.39088 3.80745,-1.7714 7.158497,-3.77306 10.97218,-5.34338 2.662001,-1.21542 5.235318,-2.77131 7.8814,-3.79106 0.759108,-0.73174 1.012567,-1.61314 2.1899,-0.7086 2.194573,1.57969 4.877907,2.41819 6.98641,4.10275 4.137552,2.11284 8.011911,4.46603 12.06755,6.78714 3.06283,1.65178 6.27715,3.42027 9.44473,4.89715 1.34292,0.63244 2.78819,1.42278 4.25033,2.057818
l 0.006,-0.22158
z

m -42.6101,-13.290548
c 0.06265,-0.0905 0.03072,0.0929 0,0
z

m 23.6982,5.1196
c -0.05927,-0.0872 -0.07316,0.0484 0,0
z

m -50.4825004,-9.844
c 0.06265,-0.0905 0.03072,0.0929 0,0
z

m 81.2588404,-7.94173
c -0.0782,-0.11532 0.11183,0.0224 0,0
z

m 25.422986,-0.66252
c 0.0697,-0.1411 0.079,0.0836 0,0
z

M 1.9360836,66.973572
c -0.05874,-0.14195 0.123313,0.0126 0,0
z

M 123.10455,65.705692
c 0.0367,-0.0678 0.0114,0.10951 0,0
z

m -14.06054,-5.74425
c -2.71911,-2.02581 -4.48678,-4.66727 -6.46941,-7.38554 -1.71306,-2.30894 -4.165896,-3.90866 -7.082006,-4.10252 -1.52616,-0.21728 -0.0248,-1.16477 1.23552,-0.53301 4.460976,0.32544 7.150056,4.25533 9.584776,7.43793 0.95672,1.42132 2.98596,2.29323 3.47999,4.04214 0.0286,0.49395 -0.39974,0.50213 -0.74887,0.541
z

m -24.955866,-1.56734
c 0.0482,-0.1279 0.0789,0.0921 0,0
z

m 26.098496,-6.76157
c -1.37905,-0.97653 0.90025,-1.65021 1.76537,-1.68666 0.63769,-0.23156 2.36596,-0.33021 2.26656,-0.68273 -1.36611,0.005 -1.84528,-1.73523 -0.28901,-1.97247 1.56159,-0.62618 3.38403,-0.741 4.82961,-1.35012 1.50032,-1.67356 4.04175,-1.39977 6.02013,-2.16404 0.34272,-1.92003 -3.2038,-3.23453 -1.50322,-5.24513 0.82929,-0.94155 2.34667,-1.14154 3.27696,-1.55913 -0.30661,-0.92802 -2.33806,-1.66136 -1.26742,-2.66897 1.74726,-1.14198 4.29368,-1.20463 6.66167,-0.93488 1.37687,-0.41856 -0.43595,-2.20716 -0.76837,-3.11502 -0.93179,-1.904 -2.59079,-4.46215 -1.16775,-6.4717 0.92777,0.35224 -0.0798,2.14386 0.63433,3.05454 0.58763,2.407 3.01169,4.27248 2.88293,6.81352 -1.27897,1.88655 -3.98671,0.25367 -5.81637,1.17341 -1.88189,0.19708 0.77071,1.4934 0.22569,2.59897 -0.3975,1.62807 -3.55729,0.91894 -3.60405,2.61251 1.05977,1.29162 2.89604,4.00922 0.73673,5.07894 -2.34561,0.67864 -4.7409,1.36586 -7.04646,2.10475 -1.0739,0.25378 -2.37862,0.61855 -3.23368,0.995 0.98419,0.31288 2.98404,0.37607 2.65915,1.78472 -2.01215,0.78229 -4.4647,0.63892 -6.48228,1.59424 -0.36583,-0.33456 -0.46229,0.33873 -0.78052,0.0403
z

m 4.35801,-2.25121
c -0.0279,-0.066 -0.22612,-0.0484 0,0
z

m -0.0527,1.27548
c 0.0732,-0.0484 0.0593,0.0872 0,0
z

m -103.149396,-0.9375
c -1.7071694,-0.22145 -1.101325,-2.67048 -1.7628704,-3.83227 -0.556306,-2.14313 -1.504471,-4.31268 -1.33688,-6.50247 0.755465,-0.62217 1.8567214,0.28227 2.8337504,-0.23761 5.08923,-0.55591 10.113285,-1.17173 15.24577,-0.99116 7.954595,-0.4896 15.850981,0.14943 23.9195,0.1852 6.164218,0.22172 12.465829,0.22947 18.43639,-0.0875 3.09955,0.087 6.32522,-0.17179 9.38992,0.1104 1.23808,1.08491 -0.17512,2.83734 0.22752,4.31597 -0.26253,1.84846 0.72823,3.7406 0.6865,5.39586 -0.79548,1.18982 -2.89048,0.21887 -4.18483,0.77414 -4.76231,0.36011 -9.68443,-0.23875 -14.33754,-0.0791 -7.169789,-0.2417 -14.428172,0.1254 -21.59979,-0.0291 -5.963469,0.0752 -12.371479,0.23091 -18.39969,0.41283 -3.0662,0.23042 -6.249478,0.12611 -9.11775,0.56485
z

m 0.42896,-1.38685
c 6.570235,-0.36741 13.457242,-0.67453 20.15939,-0.70469 6.357612,-0.38787 12.794863,0.0717 19.12833,-0.25434 7.398393,0.006 14.91129,0.0582 22.27477,0.17569 1.34886,-0.22624 2.99402,-0.19522 4.04936,-0.52179 -0.62285,-2.39641 -0.71757,-5.37642 -0.078,-7.54293 -6.736,0.0397 -13.2916,0.30712 -20.09143,0.3011 -4.812959,-0.10187 -9.976264,-0.21064 -14.52898,-0.25492 -7.652528,-0.4606 -15.412538,-0.18539 -23.12026,0.0212 -3.234355,0.23108 -6.476388,0.67806 -9.7260904,0.70584 0.3770214,2.62346 1.3556914,5.50087 1.9328904,8.07482
z

m -1.62276,-6.47525
c -0.06298,-0.13383 -0.06298,0.13383 0,0
z

m 79.1972,6.69476
c -0.15692,-0.12536 0.14466,0.0594 0,0
z

m 25.947736,-0.24841
c 0.0277,-0.0639 0.0546,0.11349 0,0
z

M 0.65115357,46.782682
c 0.03681,-0.0676 0.01135,0.10968 0,0
z

m 89.61046043,-0.0971
c -1.39402,-1.94093 -0.68955,-4.76955 -0.58653,-6.87352 0.32345,-3.36832 -0.0962,-7.24332 -0.0536,-10.6497 0.05,-3.34776 0.8446,-6.70235 0.49721,-9.94412 0.0621,-2.921925 -0.0975,-5.980024 0.23182,-8.89948 1.03151,-2.045277 -2.04509,-1.670068 -3.22433,-1.93723 -5.64597,-1.137132 -11.7,0.05241 -17.57655,-0.45409 -0.98217,-0.07711 -0.17644,2.057174 -1.0619,2.74608 -0.87972,1.428161 -0.63736,2.805203 -2.14515,3.77669 -1.6537,1.361446 -3.609963,2.641783 -5.81058,1.96825 -2.449782,0.438872 -5.220894,-0.846022 -5.73584,-3.47891 -0.331187,-1.397211 0.598232,-3.222823 0.33407,-4.30851 -5.768055,-0.21574 -11.391087,0.794297 -17.0399,0.62464 -5.006649,-0.290019 -10.687228,-0.445085 -15.85552,0.30494 -4.88653,0.629491 -9.99625,1.21357 -14.8764604,1.18332 -2.019052,0.112061 -4.336521,1.049605 -6.19326,0.26476 0.421756,-1.406233 2.794636,-0.652887 3.99176,-1.26633 4.216827,-0.797082 8.7132214,-0.448249 12.9889304,-1.26162 4.830336,-0.85191 9.772874,-1.103508 14.75337,-1.10871 5.998826,0.575655 12.047298,0.1536 18.01676,-0.35511 1.601895,-0.07993 3.511852,0.230379 4.90911,-0.23037 0.605071,-0.899952 0.279993,-1.877888 0.40569,-2.62172 1.343383,-1.125928 3.240491,-1.656212 4.89633,-2.03469 2.074,-0.237163 4.84358,-0.7284 6.74106,0.73381 1.11078,0.783434 0.79575,2.76447 1.4985,3.36742 5.71976,0.70376 11.34853,-0.620579 17.03917,0.38049 1.95499,0.51478 5.20955,-0.194825 5.89142,2.30657 -0.23661,2.225234 -0.56242,4.518773 -0.34038,6.66933 -0.18935,1.91381 0.009,3.781747 0.0218,5.55333 -0.0453,3.34272 -0.81359,7.01946 -0.53032,10.20975 -0.0311,3.58104 0.38646,7.1757 -0.19701,10.52059 -0.28109,1.49789 0.34137,3.01982 0.1576,4.25107 -0.11845,0.54668 -0.70889,0.58459 -1.14725,0.56307
z

m -0.45847,-20.30967
c -0.0991,-0.0928 -0.0991,0.0928 0,0
z

m -27.54398,-11.53454
c 1.9533,-0.700625 3.81029,-1.805192 4.25732,-3.96673 1.18482,-1.969933 1.07312,-4.425543 0.3953,-6.54281 -1.68811,-1.46776 -4.36319,-0.819109 -6.38099,-0.52528 -0.910367,0.34033 -1.961494,0.696105 -2.75911,1.06819 -0.98783,2.440763 -1.479979,5.246847 -1.3199,7.80392 0.692213,2.72991 3.744793,1.837846 5.80738,2.16271
z

m 2.97742,-1.81782
c 0.11132,-0.03632 0.0111,0.04876 0,0
z

m -0.55404,-9.48375
c 0.0732,-0.0484 0.0593,0.08725 0,0
z

m -6.7818,10.9235
c -0.0649,-0.09112 -0.0649,0.09112 0,0
z

m 9.398,-5.1308
c -0.0307,-0.09287 -0.0626,0.09048 0,0
z

m 1.74481,-1.94897
c -0.042,0.03258 0.0376,0.167396 0,0
z

m 0.0586,-0.13383
c -0.11779,-0.179436 -0.0919,0.182082 0,0
z

m 0.0127,-0.1524
c -0.1415,-0.03352 0.0101,0.161405 0,0
z

m -0.0713,-0.19637
c -0.042,0.03258 0.0376,0.167396 0,0
z

M 0.57495357,43.937882
c 0.03681,-0.0676 0.01135,0.10968 0,0
z

m -0.11285,-3.07142
c 0.02028,-0.13101 0.07666,0.10826 0,0
z

M 89.587244,39.736302
c 0.0627,-0.0905 0.0307,0.0929 0,0
z

m -10.94631,-0.0236
c -0.0286,-0.098 0.0985,0.0159 0,0
z

m 44.029806,-0.16536
c 0.0482,-0.1279 0.0789,0.0921 0,0
z

m -18.3134,-3.09462
c -0.91666,-0.62639 -2.6079,-1.11644 -2.82625,-1.95746 1.17764,0.43909 2.6978,1.21344 3.4172,1.74079
l -0.0718,0.0827 -0.51874,0.13357
z

m 20.52521,-1.2778
c 0.0368,-0.0676 0.0113,0.10968 0,0
z

m -77.527946,-2.14692
c -4.881984,-0.0362 -9.732829,-0.082 -14.59216,-0.55033 -7.256643,-0.34934 -14.487823,-0.41085 -21.80324,-0.292 -1.0670294,-0.23459 -3.9954864,0.31683 -3.3066104,-1.5784 0.730279,-2.15844 -0.04469,-4.56529 -0.30937,-6.86454 -0.211403,-1.00671 -0.83926,-2.8711 0.53293,-3.1047 1.197183,1.26825 2.9566724,-0.0871 4.4950404,0.0702 3.525042,-0.10124 7.05023,-0.64758 10.59071,-0.12482 7.067109,-0.27622 14.327565,-0.695199 21.46436,-0.45775 8.082965,0.57638 16.069109,0.65791 24.19326,0.4836 3.58687,-0.15589 7.24825,-0.3193 10.79384,0.22519 0.32723,2.52128 0.12865,5.38577 1.04583,7.92501 -0.17517,1.15771 1.58148,3.00678 -0.48634,3.22365 -4.24412,0.59646 -8.68609,0.0317 -12.73754,0.4607 -5.027247,0.44689 -10.333288,0.19661 -15.4882,0.47985 -1.479473,0.0861 -2.993294,-0.003 -4.39251,0.10435
z

m -5.58286,-1.36846
c 4.886843,-0.0954 9.480554,-0.0415 14.32582,-0.30448 4.176485,0.0177 8.62715,-0.0225 12.9288,-0.381 3.42543,-0.28977 6.943,0.1372 10.23815,-0.40291 -0.60052,-2.83337 -1.04902,-5.73206 -1.05315,-8.66561 -5.99039,-0.39041 -11.91355,0.32772 -17.7918,0.0252 -6.793734,0.0859 -13.497293,-0.5806 -20.28071,-0.74865 -6.087655,-0.0593 -12.225575,0.3873 -18.31966,0.36252 -3.806564,-0.37736 -7.614955,0.27525 -11.39722,0.30133 -1.5072184,-0.12334 -2.2782024,0.28691 -1.5917604,1.78866 0.343582,2.272 0.964118,4.70543 0.5575,6.85743 0.135425,0.83956 2.5571184,0.31156 3.4903104,0.468 8.913963,-0.31791 17.891936,-0.0598 26.66706,0.6294 0.718872,-0.0968 1.492405,0.10959 2.22666,0.0701
z

m 14.8717,-9.7032
c 0.03072,-0.0929 0.06265,0.0905 0,0
z

m -49.3776004,-0.9652
c -0.02934,-0.094 -0.129956,0.0728 0,0
z

M 108.36918,32.648362
c -2.21854,-0.51403 -4.77632,-1.31228 -5.9172,-3.44827 -0.30023,-0.70336 -0.18003,-1.79975 -0.12679,-2.62861 2.30909,-0.50722 4.84272,0.63355 6.81818,1.8752 1.50121,0.75538 2.97765,3.29115 0.57208,3.92911 -0.44789,0.10852 -0.87772,0.26455 -1.34627,0.27257
z

m -5.14421,-4.63684
c 0.8113,-0.72889 -0.53638,-0.36044 0,0
z

m -11.669226,-0.70576
c 0.0116,-0.0682 0.15013,0.0228 0,0
z

m 27.696766,-0.41408
c -1.77086,-0.16571 -0.57595,-0.99412 0.25745,-1.68407 1.65746,-0.32336 1.07434,2.17641 -0.25745,1.68407
z

m 12.46063,-3.46325
c -1.46043,-0.88317 0.26198,-2.66595 0.68702,-3.75204 0.95507,-1.792975 2.45404,-3.802268 2.70114,-5.67467 -3.12563,0.911051 -6.29564,2.22727 -8.96425,4.25336 -0.62558,0.921131 -2.36066,1.307223 -2.56628,-0.13419 -3.56813,-2.824124 -7.27337,-6.045526 -11.88142,-7.13235 -1.23572,-0.374644 -3.18888,0.189127 -3.87737,-0.62587 1.29189,-0.382468 3.1103,0.14454 2.88762,-1.85736 0.70929,-2.299833 1.32301,-4.654815 1.65911,-6.99559 -3.78785,1.060532 -5.12605,5.077462 -7.45826,7.76963 -0.22299,0.998708 -2.15808,2.170911 -2.14298,0.5412 1.62527,-2.531048 3.37903,-5.068466 5.4025,-7.40439 1.24051,-1.248522 3.04167,-2.55052098 4.87777,-2.40498998 1.65473,1.19819998 0.0871,3.46736798 -0.0825,5.05455998 -0.46552,1.732068 -1.18261,3.321666 -1.711,5.03091 3.76476,0.406174 7.13787,2.515257 10.23428,4.58089 1.26145,1.003398 2.72557,1.67268 3.71628,2.9562 2.52312,-2.227166 5.56741,-3.956276 8.77699,-4.91648 1.29371,-1.065118 3.82841,-0.357735 2.82227,1.68203 -0.77228,3.202362 -2.99386,5.78964 -4.24686,8.77572 -0.14667,0.24 -0.75341,0.37665 -0.83405,0.25343
z

m -0.42444,-0.53229
c 0.004,-0.16826 -0.16116,0.14407 0,0
z

m 0.0895,0.33825
c 0.11132,-0.0363 0.0111,0.0488 0,0
z

m -0.18228,-0.0463
c 0.0203,-0.13101 0.0767,0.10826 0,0
z

m -25.65648,-2.92788
c -1.22138,-0.975887 1.02555,-2.319289 1.30696,-0.79267 0.13727,0.446386 -0.74108,0.96861 -1.30696,0.79267
z

m -15.480266,-1.7477
c 0.0366,-0.06752 0.0112,0.109655 0,0
z

m 3.07127,-1.05223
c -1.66458,-1.266633 1.13942,-2.824031 2.31139,-3.15635 1.7916,-0.20439 0.93974,-0.630706 -0.17306,-1.30286 -0.37753,-2.355323 3.29153,-2.665576 4.933756,-2.46548 0.57419,0.266743 2.76792,-0.349483 2.24974,0.77023 -1.96814,0.49082 -4.440076,-0.381938 -6.044336,1.15851 1.09062,0.24519 3.15672,1.88143 1.19283,2.47857 -1.60471,0.406174 -3.3391,1.089949 -4.29483,2.4576 0.0521,0.09546 -0.18362,-0.0025 -0.17549,0.05978
z

m 29.540316,2.5e-4
c 0.0649,-0.09112 0.0649,0.09112 0,0
z

m -30.695896,-2.7432
c 0.0627,-0.09048 0.0307,0.09287 0,0
z

m -50.56348,-7.07858
c 0.111411,-0.03646 0.01092,0.04903 0,0
z

m 71.378756,-1.92575
c 0.0971,-0.138581 0.026,0.141659 0,0
z

m -47.015396,-3.7734
c 0.0732,-0.0484 0.0593,0.08725 0,0
z"/>
</svg>