<svg
   viewBox="0 0 160.9015 38.608665"
   version="1.1"
   id="svg1"
   xml:space="preserve"
   inkscape:version="1.3.1 (9b9bdc1480, 2023-11-25, custom)"
   sodipodi:docname="thanksForVisiting.svg"
   xmlns:inkscape="http://www.inkscape.org/namespaces/inkscape"
   xmlns:sodipodi="http://sodipodi.sourceforge.net/DTD/sodipodi-0.dtd"
   xmlns="http://www.w3.org/2000/svg"
   xmlns:svg="http://www.w3.org/2000/svg"><sodipodi:namedview
     id="namedview1"
     pagecolor="#ffffff"
     bordercolor="#000000"
     borderopacity="0.25"
     inkscape:showpageshadow="2"
     inkscape:pageopacity="0.0"
     inkscape:pagecheckerboard="0"
     inkscape:deskcolor="#d1d1d1"
     inkscape:document-units="px"
     inkscape:zoom="1.4425355"
     inkscape:cx="365.67557"
     inkscape:cy="180.58481"
     inkscape:window-width="2490"
     inkscape:window-height="1369"
     inkscape:window-x="70"
     inkscape:window-y="34"
     inkscape:window-maximized="1"
     inkscape:current-layer="layer1" /><defs
     id="defs1" /><g
     inkscape:label="Layer 1"
     inkscape:groupmode="layer"
     id="layer1"
     transform="translate(-26.7356,-96.308782)"><path
       style="fill:#000000"
       d="m 166.04961,134.85002 c -1.18018,-1.85571 -0.54329,-6.00696 -3.57778,-6.12577 -2.44734,0.97284 -1.08588,4.77748 -2.76514,5.87876 -1.02519,-3.38023 -0.0573,-7.32875 -0.4046,-10.91135 -0.56407,-1.47152 -0.12745,-6.087 0.81344,-2.36229 0.58368,2.35496 -0.27971,6.40893 0.37254,7.98381 1.25027,-3.00871 4.97476,-1.17299 5.32399,1.42692 0.21656,1.3186 1.16505,2.98332 0.75734,4.11862 -0.17164,0.0471 -0.34821,0.009 -0.51979,-0.009 z m -27.18092,-0.25361 c -2.69249,0.39785 -3.41514,-2.98744 -1.81597,-4.67192 1.27227,-2.4748 4.30196,-4.57706 7.01217,-2.84212 0.31952,-2.54808 -2.78156,-6.40882 -5.02655,-3.3409 -2.46071,-0.56717 1.77442,-3.16869 3.19905,-1.99403 3.44062,1.79505 2.50735,6.31038 4.17482,9.2729 0.92687,1.98652 -1.54927,3.22011 -1.4928,0.69887 -0.15385,-1.88027 -0.65685,-4.25089 -3.01129,-4.27857 -2.57524,0.14514 -4.72653,2.98264 -4.76521,5.45382 1.35607,1.77969 4.0755,0.0941 5.96134,0.19436 4.75442,0.0986 -2.0249,1.68501 -3.84243,1.48487 0.35022,0.0885 -0.52695,0.018 -0.39313,0.0227 z m 13.50016,-0.54373 c -1.81472,0.401 -4.28049,-2.03223 -3.04691,-3.55063 0.68147,2.05048 2.61992,3.55979 4.97832,2.47279 1.65648,-0.27259 3.26623,-2.2216 1.26194,-3.35476 -2.28102,-1.7733 -5.62269,-0.97313 -7.85441,-2.59645 0.56921,-2.32598 3.56536,-3.16034 5.63638,-3.66096 4.64534,0.50502 0.0475,1.18675 -2.01465,1.67491 -1.71684,0.49079 -3.56207,2.26309 -0.50686,2.11334 2.54226,0.46342 6.87372,1.10608 6.53601,4.55417 -0.926,1.69808 -3.15513,2.44363 -4.98982,2.34759 z m 28.24092,-0.15541 c -0.71089,-2.56738 0.38218,-5.64844 -1.15158,-8.10069 1.1488,-1.96272 1.43677,3.03445 2.17879,-0.0903 1.02034,-2.81694 5.9475,-1.92215 5.68215,1.01104 -1.13001,-0.22062 -3.16297,-3.60402 -4.77376,-0.83439 -1.86127,2.31404 -0.47246,5.59853 -1.51371,8.03005 -0.12113,0.13767 -0.30297,-0.0931 -0.42189,-0.0157 z m -9.49015,-0.25171 c -3.61169,0.0417 -3.68961,-5.02915 -1.37464,-6.86799 1.72616,-2.62628 5.75443,-2.05956 7.48346,0.13747 -0.71417,2.22881 -3.73661,2.64948 -5.76415,3.25696 -3.30409,-0.86643 -2.52867,3.42241 0.47159,2.52382 2.21471,-0.40686 4.14555,-1.78566 6.30697,-2.30294 0.61888,1.54663 -2.57696,1.58767 -3.67823,2.43007 -1.09451,0.43645 -2.25366,0.83592 -3.445,0.82261 z m -0.46283,-4.37381 c 1.95034,-0.22485 3.92928,-0.91714 5.48176,-2.1208 -1.87585,-1.72114 -4.85471,-1.40542 -6.15486,0.83123 -0.64936,1.06997 -1.44565,1.61524 0.6731,1.28957 z m -44.6659,0.3346 c -0.82557,-0.98028 1.49991,-1.02613 2.12619,-1.13722 1.16076,-0.0198 2.74827,-0.89106 3.61398,-0.3965 0.31568,1.16989 -1.4913,0.97351 -2.17542,1.10498 -1.19836,0.18793 -2.35924,0.23307 -3.56475,0.42874 z m 58.32129,-16.09668 c -1.20559,-0.19732 -3.76854,-1.46781 -3.75779,-3.01123 -0.5444,-0.9269 0.74712,-1.92258 0.94525,-0.71454 0.17237,1.49788 1.33376,2.05787 2.57837,2.4058 1.6684,0.50342 2.36138,-1.68723 2.42499,-2.93853 0.0924,-0.93835 0.17199,-2.33051 -0.0701,-3.03659 -0.67639,1.84921 -3.21892,2.95061 -5.13928,1.82965 -2.0903,-1.58085 -2.09881,-5.3664 0.40815,-6.56116 1.73393,-0.70788 3.59246,-0.91207 5.24522,0.22365 0.85256,0.81236 -0.0302,1.67321 0.42571,2.45847 0.1598,2.76319 0.78284,5.97511 -0.94995,8.35577 -0.56302,0.60639 -1.26489,1.08634 -2.11057,0.98871 z m -0.25689,-0.0274 c -0.0593,-0.0872 -0.0732,0.0484 0,0 z m -0.71866,-6.06516 c 2.40106,-0.1176 3.02999,-3.2088 2.79072,-5.07408 0.0328,-0.30856 -1.31862,-0.46451 -1.93677,-0.4544 -1.57299,0.18137 -3.32207,0.92009 -3.44389,2.45456 -0.3784,1.39479 0.86376,3.61784 2.58994,3.07392 z m 4.22386,-0.62924 c -0.0307,-0.0929 -0.0626,0.0905 0,0 z m -1.016,-0.68157 c -0.0943,-0.0766 -0.0636,0.079 0,0 z m -105.551551,6.47071 c -0.688676,-1.0063 0.875665,-2.78533 0.69521,-3.44942 0.542556,-0.59142 0.06989,-1.25374 -0.22176,-1.84676 -0.699475,-1.92744 -1.45215,-3.67951 -2.47994,-5.66596 -0.770497,-1.24554 0.481975,-1.47987 0.83447,-0.18637 1.187991,1.65376 1.874224,3.51141 2.79561,4.99822 0.85673,-2.09009 1.313298,-4.25548 2.53124,-6.07466 1.314156,-0.0131 0.10797,1.99787 -0.01906,2.78644 -0.697782,2.45507 -1.6939,4.93055 -2.52583,6.98836 -0.510771,0.73316 -0.389826,2.57576 -1.60994,2.45015 z m 0.60601,-5.05294 c -0.04131,-0.19494 -0.08933,0.0496 0,0 z m 2.53274,-5.028 c -0.101803,-0.0451 -0.09916,0.0828 0,0 z m -2.2606,9.6019 c 0.0029,-0.10985 0.0775,0.0231 0,0 z m 85.868991,-2.89015 c -1.27138,-0.14416 -0.67167,-1.87853 -0.89265,-2.72479 0.007,-1.80867 -0.10381,-3.76933 0.13895,-5.73542 1.04573,-0.36908 0.86002,1.70798 1.02066,2.45822 0.0869,1.85346 0.18416,3.64493 0.0748,5.59811 -0.0497,0.20945 -0.28221,0.26704 -0.34176,0.40388 z m -95.433561,-0.0347 c -1.303865,-0.61899 -1.961395,-2.54158 -2.74953,-3.5514 -0.185919,-0.56396 -0.471087,-1.2704 -0.91753,-0.3821 -0.838256,0.80141 -2.088973,1.34622 -1.86737,2.51732 0.352299,1.22881 -1.281541,1.42712 -1.121828,0.16193 0.131267,-2.17378 0.279485,-3.72758 0.05109,-5.93564 0.04027,-1.7241 -0.312176,-3.742013 0.422939,-5.430333 1.005151,0.330177 0.340496,2.093935 0.626417,2.90216 0.244504,1.890173 0.264805,4.097433 0.19184,6.274143 1.645825,-1.77974 2.791213,-3.66297 4.33614,-5.63061 1.348483,-0.730426 1.107156,1.01585 0.45672,1.36948 -0.485731,0.96265 -1.598368,1.74554 -1.93051,2.61493 0.976509,1.50756 2.56236,3.02561 3.08753,4.74561 -0.156757,0.30663 -0.268896,0.33526 -0.585904,0.34451 z m 95.022871,-0.0484 c 0.0627,-0.0905 0.0307,0.0929 0,0 z m -76.979321,-0.0773 c -2.640418,0.26209 -4.126277,-2.65582 -3.71907,-4.82472 -0.149984,-3.79603 5.165852,-5.091746 7.55979,-2.46288 2.136917,2.04819 0.734138,6.02254 -2.00105,6.89592 -0.556586,0.2936 -1.200782,0.37086 -1.83967,0.39168 z m 0.56966,-0.91003 c 2.885455,-0.0876 5.096683,-4.28604 2.31484,-6.01278 -1.94685,-2.02399 -5.77771,-0.68565 -5.82672,2.11196 -0.369228,2.12678 1.197663,4.25795 3.51188,3.90082 z m 1.8233,-6.32683 c -0.09999,-0.0798 0.08848,-0.0121 0,0 z m -44.194736,7.14572 c -2.005901,0.0837 -2.793298,-2.41173 -1.442981,-3.74446 1.279095,-1.54057 3.742328,-1.85016 5.157504,-0.97572 0.18833,-1.60812 -1.036747,-3.74049 -2.891641,-3.01174 -1.009794,0.16546 -1.844229,1.00019 -2.452598,1.71478 -0.406896,-1.8397 2.256408,-3.082047 3.832459,-2.8065 2.155062,0.4504 2.661336,3.1502 2.353635,4.98095 -0.251688,1.11902 0.179784,2.65738 -0.21491,3.50133 -0.843971,0.33743 -0.603179,-0.89095 -1.510932,-0.1502 -0.923007,0.4623 -1.845771,0.46265 -2.830536,0.49156 z m 0.427369,-1.06098 c 1.053883,-0.18287 2.554626,-0.36944 3.150961,-1.20757 0.408033,-1.30226 -0.668494,-2.47596 -1.967413,-2.16734 -1.493176,0.0342 -3.938875,1.76772 -2.438395,3.25879 0.384515,0.17693 0.855473,0.0382 1.254847,0.11612 z m -1.140574,-5.90801 c -0.03072,-0.0929 -0.06265,0.0905 0,0 z m 0.3556,-0.254 c -0.03072,-0.0929 -0.06265,0.0905 0,0 z m 102.698552,7.21818 c -1.23143,-0.26577 -2.49666,-1.23966 -2.32832,-2.56699 1.07455,-0.98763 0.98363,1.48603 2.1146,1.36947 1.13449,0.0527 2.39235,1.7e-4 3.22059,-1.0816 0.10252,-2.04305 -2.59249,-1.60212 -3.95084,-2.29795 -1.85921,-1.20859 -0.82974,-4.1131 1.31382,-4.16656 1.4784,-0.12307 2.5702,0.70299 3.22495,1.87178 -0.14898,1.63891 -1.60782,-0.6639 -2.31305,-0.53002 -1.08847,-0.56834 -3.11869,0.74808 -1.80809,1.8957 1.31008,0.59422 3.04621,-0.006 4.07229,1.45469 1.4207,1.37276 0.34503,3.38653 -1.30708,3.66607 -0.34105,0.33815 -1.63725,0.17019 -2.23887,0.38541 z m 2.33045,-1.63018 c -0.0307,-0.0929 -0.0627,0.0905 0,0 z m 23.99106,1.62437 c -1.02498,-0.62767 -0.37729,-1.82601 -0.47952,-2.89388 0.0724,-1.4509 0.10606,-1.36238 0.1203,-2.97144 0.0657,-1.48103 -1.71423,-2.20187 -2.71378,-1.08864 -1.38342,1.21663 -2.10723,3.05606 -1.96015,4.81639 0.1839,0.6725 -0.14748,2.33145 -0.81726,1.65761 -0.30652,-2.21704 0.0618,-4.47188 -0.28802,-6.71656 -0.19551,-0.60917 0.40356,-1.972091 0.7623,-0.91767 0.18652,0.79294 0.21082,1.95675 0.39973,2.53498 0.64142,-1.83891 3.21424,-3.762557 4.86984,-1.93242 1.3153,1.94866 0.33444,4.64134 0.59511,6.80988 0.0309,0.32596 -0.11947,0.73001 -0.48855,0.70175 z m -58.06296,-0.0714 c -2.75632,0.0526 -4.22164,-3.39503 -3.5589,-5.61717 0.43238,-1.82143 2.23151,-3.02902 3.79458,-2.94438 2.43008,-0.1802 4.01019,2.34963 4.13309,4.31914 0.15545,2.37784 -2.19781,4.16388 -4.36877,4.24241 z m 0.16608,-1.03098 c 2.41044,-0.0336 4.1994,-2.77453 2.70382,-4.84795 -0.36788,-0.44686 -0.89489,-0.9052 -0.9963,-1.55968 -1.4515,-0.34924 -3.41246,0.1269 -4.01838,1.16722 -1.4994,1.63123 -0.18748,5.42316 2.31086,5.24041 z m 18.97061,1.02106 c -0.98536,-0.79658 -1.0838,-2.689 -1.50792,-3.9795 -0.41484,-1.58934 -1.56968,-3.11413 -1.14708,-4.73789 1.0558,0.39889 1.04694,2.19698 1.64791,3.10392 0.50457,1.42777 0.85947,3.227 1.40782,4.78145 1.5296,-2.25488 1.90386,-5.10495 3.66798,-7.31506 1.245,0.0222 -0.005,1.44626 -0.17657,2.08633 -1.12181,2.03252 -1.3027,4.712 -3.31419,5.98162 -0.18826,0.009 -0.38424,0.14778 -0.57795,0.0791 z m 25.104,-0.0254 c -2.27986,-0.50238 -1.1775,-3.05428 -1.53307,-4.62899 -0.12984,-0.84093 0.14158,-2.10143 -0.0834,-2.67618 -0.74592,0.60998 -2.47903,-0.86044 -1.02282,-0.94328 1.49334,0.20337 1.22136,-1.232043 1.39078,-2.26505 0.89918,-0.834415 0.65996,1.502438 0.81912,1.74464 0.7119,-0.0316 2.42351,0.27289 1.4055,1.20962 -0.71422,0.45746 -1.64883,-0.36573 -1.35437,0.70753 0.20123,1.88784 -0.11621,3.7009 0.205,5.52007 0.43988,0.14797 1.9896,-3.5e-4 1.16449,0.98173 -0.28811,0.28041 -0.60022,0.40477 -0.99127,0.34991 z m -132.04426,-0.0199 c -0.808671,-0.554 -0.281972,-2.11573 -0.562364,-2.89641 -0.03768,-2.62823 0.131229,-5.65141 -0.06645,-7.999863 -1.301312,-0.172917 -2.828238,0.360099 -3.948545,-0.3609 0.747617,-0.953999 2.434406,-0.518513 3.61917,-0.83525 1.566181,0.308796 3.462432,-0.42654 4.97758,0.11602 0.765254,1.248119 -1.423705,1.049248 -2.338028,1.06605 -0.700347,0.132965 -1.984472,-0.357169 -1.386746,0.77007 0.251939,2.360813 0.24972,4.573503 0.27677,6.891063 -0.119053,1.15597 0.374261,2.06308 -0.161249,3.21158 -0.09209,0.0756 -0.42502,0.17743 -0.410143,0.0376 z m -0.509782,-2.36617 c -0.04895,0.011 0.03658,0.11123 0,0 z m -0.01735,-3.90684 c -0.06265,-0.0905 -0.03072,0.0929 0,0 z m 81.419702,6.1711 c -0.87682,-0.95161 -0.28765,-2.6871 -0.59042,-3.77218 -0.40767,-1.12324 -0.0726,-2.49947 -0.564,-3.28465 -0.96174,0.21141 -1.16736,-1.12922 -0.0877,-0.93054 0.43466,-0.65116 0.0824,-1.645543 0.75496,-2.49241 0.35049,-0.892873 2.74472,-1.804278 3.24453,-0.45241 -0.88354,0.563496 -2.51722,0.407431 -2.58673,1.96063 -0.1686,1.80856 2.25713,-8.94e-4 2.64124,1.08208 0.11061,1.50819 -1.96869,0.5684 -2.48887,1.07591 0.13678,2.09174 0.41897,4.23779 0.11165,6.56562 -0.0748,0.14554 -0.2758,0.25265 -0.43462,0.24795 z m -49.860201,-0.0249 c -0.864121,-0.90053 -0.0307,-2.57604 -0.348849,-3.8155 0.0701,-1.44905 -0.15068,-3.83633 -2.112418,-3.46255 -2.704944,0.59526 -2.816651,4.41344 -2.759773,6.6014 -0.275667,1.44582 -1.098086,-0.37222 -0.951094,-0.84757 0.0526,-2.19559 -0.230411,-4.18608 0.05142,-6.44309 1.308727,-0.43028 0.413171,2.97793 1.020365,1.94875 0.832229,-2.25964 4.907752,-2.947581 5.295002,-0.05 0.136135,1.98188 0.840547,4.01605 0.232568,5.91012 -0.126008,0.10388 -0.30217,0.0619 -0.427223,0.15841 z m 83.362801,-0.0256 c -0.65244,0.0548 -0.69413,-0.90384 -0.68463,-1.02609 -0.0673,-2.28014 -0.29125,-4.23123 0.0579,-6.38961 -0.33004,-1.650997 0.97696,-1.400583 0.80613,0.0163 0.19,2.081 0.53907,3.65201 0.5531,5.54576 -0.10111,0.80644 0.22354,1.76691 -0.73245,1.85365 z m -107.850047,-0.023 c -1.231804,-0.72835 -0.254268,-2.724 -0.684196,-3.65946 0.109483,-2.58592 -0.274614,-4.6585 0.03859,-7.237953 -0.234048,-0.62586 0.496162,-2.143264 0.884112,-0.93325 0.194261,1.678079 0.215163,3.828573 0.327284,4.881993 1.081965,-1.64171 4.21832,-2.195381 4.641099,0.20224 0.427917,2.10992 0.434635,4.21278 0.63352,6.32411 -0.510462,1.01135 -1.26086,-0.32432 -1.025061,-0.96267 -0.345293,-1.98558 -0.02532,-4.25279 -1.093751,-5.93199 -1.210632,-0.22797 -3.086701,0.5739 -3.165609,1.81661 0.05177,1.59503 -0.19842,3.47598 -0.190405,5.24682 -0.08965,0.17195 -0.105481,0.2329 -0.365585,0.25355 z m 0.369945,-9.910573 c -0.08815,-0.04481 -0.04176,0.118801 0,0 z M 157.82674,108.605 c -0.88755,-1.06554 -0.32287,-2.44633 -0.52647,-3.72833 0.0957,-1.4567 0.043,-3.05851 0.45475,-4.51444 1.16205,0.41743 0.30158,2.54162 0.72022,3.25637 -0.0911,1.62103 0.21272,3.31392 -0.13976,4.88144 -0.16812,0.0421 -0.342,0.057 -0.50874,0.10496 z m -53.864,-0.0246 c -0.86139,-0.45822 -0.4805,-2.21992 -0.69918,-2.74014 -0.37474,2.29381 -3.652466,3.28628 -5.134861,1.91359 -1.60779,-1.63736 -0.580509,-4.08546 -0.48641,-5.9975 -0.23096,-1.48359 0.893277,-1.58963 0.77296,-0.1067 0.36358,1.85868 -1.003074,4.37916 0.90445,5.56759 2.285841,0.71689 3.429561,-1.74026 3.567471,-3.56189 0.51276,-1.00496 -0.2492,-2.80003 0.70496,-3.40756 0.87092,0.75899 0.54192,2.50625 0.76872,3.4878 -0.0405,1.52817 0.22419,2.9103 0.2546,4.40998 -0.0388,0.33645 -0.29402,0.48071 -0.65271,0.43483 z m 22.1869,-0.006 c -0.58797,-1.58979 -0.21585,-3.52558 -0.29687,-5.01337 0.35899,-0.98872 -0.25232,-2.48728 0.72288,-3.02547 0.5007,1.1399 0.099,1.89975 1.1786,0.73334 0.71635,-0.38143 2.5588,-1.07711 2.77017,0.1316 -0.81552,0.75002 -2.34542,0.0728 -2.86696,1.18289 -1.36618,1.86421 -0.19004,4.05751 -0.9791,5.94532 -0.21273,0.14195 -0.3555,-0.097 -0.52872,0.0457 z m 57.51358,-0.1181 c 0.0548,-0.11329 0.0278,0.0639 0,0 z m -62.05807,-0.35973 c 0.0238,-0.0852 0.0538,0.0686 0,0 z m -4.96146,-0.37092 c 0.0732,-0.0484 0.0593,0.0872 0,0 z m 28.33641,-0.97848 c -0.0498,-0.15322 0.0868,0.0128 0,0 z m 8.81109,0.0148 c 0.0626,-0.0905 0.0307,0.0929 0,0 z m -82.118201,-0.20268 c 0.03072,-0.0929 0.06265,0.0905 0,0 z m 91.465401,-0.4826 c 0.0307,-0.0929 0.0627,0.0905 0,0 z m -59.86617,-0.0687 c 0.0277,-0.0639 0.0546,0.11349 0,0 z m -60.733033,-0.007 c 0.09115,-0.0967 0.03154,0.10014 0,0 z m 61.912503,-0.001 c 0.0732,-0.0484 0.0593,0.0872 0,0 z m -67.216869,-0.44723 c -0.07826,-0.1153 0.111759,0.0224 0,0 z m 124.620869,-0.0212 c 0.063,-0.13383 0.063,0.13383 0,0 z M 126.946,105.29449 c 0.0585,-0.0763 0.0585,0.0763 0,0 z m -59.578311,-0.0789 c 0.0029,-0.10985 0.0775,0.0231 0,0 z m 84.983631,-0.22205 c 0.11136,-0.0363 0.0111,0.0487 0,0 z m -121.610433,-0.0614 c 0.07316,-0.0484 0.05927,0.0872 0,0 z m 118.389403,-1.5225 c -0.0518,-0.0719 0.11054,0.035 0,0 z m -110.642403,-0.5603 c 0.07316,-0.0484 0.05927,0.0872 0,0 z m 64.549863,-0.84828 c 0.0238,-0.0852 0.0538,0.0686 0,0 z m -65.916114,-0.15449 c -0.02928,-0.10625 0.116607,0.0547 0,0 z m 76.895764,-1.4045 c 0.0636,-0.079 0.0943,0.0766 0,0 z m -1.61551,-0.28513 c 0.0732,-0.0484 0.0593,0.0872 0,0 z m 54.90769,-1.595523 c -1.09118,-0.323241 -0.72086,-1.887352 0.25117,-1.57809 1.08505,0.286211 0.71751,1.654819 -0.25117,1.57809 z m -9.57287,-0.0788 c -1.15857,-0.289176 -0.64262,-2.180484 0.50844,-1.32042 0.60231,0.514273 0.0292,1.171955 -0.50844,1.32042 z m -12.37783,-0.0513 c -1.26784,-0.37461 -0.007,-2.68573 0.82978,-1.30411 0.21889,0.402601 -0.14774,1.357238 -0.82978,1.30411 z m -78.700391,-0.64993 c 0.03664,-0.06752 0.01121,0.109655 0,0 z"
       id="path1" /></g></svg>
