<svg aria-hidden="true" style="position: absolute; width: 0; height: 0; overflow: hidden;" version="1.1" xmlns="http://www.w3.org/2000/svg" xmlns:xlink="http://www.w3.org/1999/xlink">
    <defs>
    <symbol id="icon-external-link" viewBox="0 0 611.18017 451.86122">
    <path d="M 206.92846,20 C 92.414248,20.58726 -0.29960788,114.02355 7.2761971e-4,228.48438 0.30104822,342.93954 93.508228,435.73242 207.99487,435.73242 c 114.48664,0 207.69382,-92.79289 207.99414,-207.24804 0.11791,-44.93664 -14.10609,-86.62881 -38.35156,-120.73829 12.51258,-6.54835 30.30613,-13.502954 51.3125,-14.992184 18.93182,-1.342156 41.10594,3.969967 59.39258,10.025394 -31.17988,47.51575 -34.23522,36.33217 28.89062,38.93164 66.17936,2.72523 58.64363,14.62092 27.91406,-44.05469 -29.01987,-55.411084 -18.10866,-57.948995 -46.6582,-10.941406 -17.64477,-6.183758 -39.84783,-11.982998 -61.48828,-12.191406 -3.1247,-0.03009 -6.23893,0.05666 -9.32422,0.27539 C 402.11069,76.611296 380.79923,85.444396 366.4187,93.341797 328.47286,48.762569 272.07063,20.323129 209.06128,20 h -0.0332 -2.0664 z m -7.93359,26.228516 V 147.01367 c -22.56526,-0.80866 -45.04819,-4.48133 -66.79883,-11.37109 14.2987,-34.01589 36.31538,-64.706868 64.91797,-89.320314 0.62561,-0.03678 1.25354,-0.06327 1.88086,-0.09375 z m 18,0 c 0.62732,0.03048 1.25525,0.05697 1.88086,0.09375 28.60259,24.613446 50.61927,55.304424 64.91797,89.320314 -21.75064,6.88976 -44.23357,10.56243 -66.79883,11.37109 z m -50.58984,4.53125 C 144.55291,73.821279 127.28835,100.57116 115.23315,129.54688 100.23878,123.57908 85.67941,116.13564 71.793696,107.17188 96.312522,79.54534 129.12979,59.442672 166.40503,50.759766 Z m 83.17968,0 c 37.27524,8.682906 70.09251,28.785574 94.61133,56.412114 -13.88571,8.96376 -28.44508,16.4072 -43.43945,22.375 -12.0552,-28.97572 -29.31976,-55.725601 -51.17188,-78.787114 z M 60.47729,121.27344 c 15.427755,10.10802 31.647664,18.45176 48.37696,25.08398 C 101.02607,169.60215 96.536957,194.05 95.572993,219 H 26.215571 c 1.754242,-36.42075 14.19586,-70.01474 34.261719,-97.72656 z m 295.03516,0 c 20.06586,27.71182 32.50748,61.30581 34.26172,97.72656 h -69.35742 c -0.96398,-24.95 -5.45308,-49.39785 -13.28126,-72.64258 16.7293,-6.63222 32.9492,-14.97596 48.37696,-25.08398 z m -229.70899,31.16992 c 23.81496,7.63612 48.45547,11.71677 73.19141,12.54297 V 219 h -85.42188 c 0.94851,-22.85657 5.08949,-45.24561 12.23047,-66.55664 z m 164.38282,0 c 7.14098,21.31103 11.28196,43.70007 12.23047,66.55664 h -85.42188 v -54.01367 c 24.73594,-0.8262 49.37645,-4.90685 73.19141,-12.54297 z M 26.229243,237 h 69.289063 c 0.772934,25.00435 5.110234,49.51246 12.779294,72.84375 -16.504122,6.58528 -32.506062,14.85166 -47.738279,24.82813 C 40.475514,307.00688 28.012005,273.44057 26.229243,237 Z m 87.289067,0 h 85.47656 v 54.01367 c -24.93038,0.83269 -49.75911,4.99209 -73.74805,12.74219 C 118.263,282.36005 114.27896,259.91016 113.51831,237 Z m 103.47656,0 h 85.47656 c -0.76065,22.91016 -4.74469,45.36005 -11.72851,66.75586 -23.98894,-7.7501 -48.81767,-11.9095 -73.74805,-12.74219 z m 103.47656,0 h 69.28906 c -1.78276,36.44057 -14.24627,70.00688 -34.33007,97.67188 C 340.1982,324.69541 324.19626,316.42903 307.69214,309.84375 315.3612,286.51246 319.6985,262.00435 320.47143,237 Z m -121.47656,71.98633 v 100.52539 c -1.56668,-0.0758 -3.12961,-0.17214 -4.68555,-0.28711 -27.72187,-24.61223 -49.05118,-55.01109 -62.86133,-88.59766 21.98544,-7.04084 44.72022,-10.82259 67.54688,-11.64062 z m 18,0 c 22.82666,0.81803 45.56143,4.59978 67.54688,11.64062 -13.81015,33.58657 -35.13946,63.98543 -62.86133,88.59766 -1.55594,0.11497 -3.11887,0.21128 -4.68555,0.28711 z M 114.4851,326.72266 c 11.58417,28.42499 28.18226,54.74082 49.1836,77.59179 -36.07728,-8.98316 -67.858069,-28.68611 -91.771488,-55.55468 13.624037,-8.79291 27.892116,-16.13383 42.587888,-22.03711 z m 187.01954,0 c 14.69576,5.90328 28.96385,13.2442 42.58789,22.03711 -23.91342,26.86857 -55.69421,46.57152 -91.77149,55.55468 21.00134,-22.85097 37.59943,-49.1668 49.1836,-77.59179 z"></path>
    </symbol>
    <symbol id="icon-butter-arrow" viewBox="0 0 43.211 57.673"><path class="arrowPath" d="M26.236 52.57a3.5 3.5 0 003.507-3.508V35.617c0-.104-.02-.2-.029-.301 4.377-.32 7.738-.929 8.262-1.832C39.617 30.65 24.924 5.108 21.65 5.103 18.375 5.098 3.6 30.595 5.234 33.433c.52.906 3.885 1.523 8.265 1.858-.01.109-.033.214-.033.326v13.445a3.5 3.5 0 003.508 3.508z"/></symbol>
    </defs>
</svg>