<svg xmlns="http://www.w3.org/2000/svg"  aria-label="Chicago Reader logo"  viewBox="0 0 257 59"><path d="M1.84 56.947c.415-.687 3.6-5.195 7.078-10.017l6.323-8.768-2.766-1.052C-.405 32.213-1.235 12.708 11.17 6.447c3.838-1.937 6.027-2.25 15.746-2.25h11.288v27c0 23.334-.204 27-1.5 27-1.294 0-1.5-3.5-1.5-25.5v-25.5h-9.032c-14.054 0-19.839 3.6-20.733 12.904-.74 7.708 3.99 13.685 12.068 15.248.992.191 1.71.798 1.595 1.348-.114.55-3.4 5.589-7.303 11.197-4.445 6.388-7.77 10.216-8.904 10.25-1.19.035-1.55-.375-1.055-1.197zm5.364.788c0-.603 11.769-17.517 13.769-19.788 1.106-1.256 3.05-1.75 6.886-1.75h5.345v11c0 9.111-.257 11-1.5 11-1.233 0-1.5-1.778-1.5-10 0-9.975-.006-10-2.477-10-2.58 0-6.265 4.026-13.523 14.768-1.948 2.884-4.276 5.192-5.25 5.206-.962.015-1.75-.182-1.75-.436zm35-26.538v-27h17.5c14.889 0 17.5.224 17.5 1.5 0 1.271-2.443 1.5-15.989 1.5H45.227l.016 24 .017 24h16.472c13.975 0 16.472.228 16.472 1.5 0 1.278-2.667 1.5-18 1.5h-18zm39.167 26.14c3.102-8.01 23.503-54.122 23.949-54.13.9-.015 24.142 54.066 23.507 54.7-1.949 1.95-4.578-3.282-21.47-42.71l-1.928-4.5-2.934 6.5c-1.613 3.575-6.22 14.263-10.238 23.75-5.916 13.97-7.677 17.25-9.262 17.25-1.077 0-1.808-.387-1.624-.86zm5.833.443c0-.23.884-2.48 1.965-5l1.964-4.583h28.804l2.078 5c1.933 4.652 1.956 5 .319 5-1.026 0-2.455-1.458-3.428-3.5l-1.67-3.5h-24.63l-1.266 3.5c-.696 1.925-1.911 3.5-2.7 3.5-.79 0-1.436-.187-1.436-.417zm45-26.583v-27h11.322c12.922 0 18.245 1.37 24.113 6.207 11.683 9.63 11.565 32.053-.22 41.767-5.643 4.652-11.092 6.026-23.893 6.026h-11.322zm25.447 22.364c6.232-2.124 13.004-8.624 14.443-13.864 1.905-6.935 1.38-14.564-1.383-20.11-4.445-8.92-11.625-12.39-25.633-12.39h-8.874v48h8.322c5.083 0 10.191-.637 13.125-1.636zm-19.945-.497c-.298-.779-.421-11.08-.272-22.891l.27-21.476 8.63.086c7.012.07 9.533.539 13.449 2.5 9.144 4.581 13.351 13.63 11.333 24.38-2.116 11.27-10.271 17.268-24.835 18.266-6.378.438-8.143.26-8.575-.865zm20.998-5.137c10.277-5.75 11.516-25.066 2.085-32.484-2.846-2.24-10.472-4.246-16.134-4.246h-3.45v39l6.75-.016c5.108-.013 7.722-.56 10.75-2.254zm21.5-16.73v-27h17.5c14.889 0 17.5.224 17.5 1.5 0 1.27-2.389 1.5-15.5 1.5h-15.5v48h16c13.556 0 16 .23 16 1.5 0 1.278-2.667 1.5-18 1.5h-18zm39 0v-27h11.532c13.218 0 16.484.976 21.184 6.33 3.483 3.966 4.875 8.967 3.88 13.94-1.01 5.055-5.117 10.428-9.058 11.853-1.946.703-3.538 1.559-3.538 1.901 0 .516 9.86 14.447 13.254 18.726.723.913.458 1.25-.984 1.25-1.378 0-4.283-3.295-9.622-10.916-4.206-6.005-7.648-11.18-7.648-11.5 0-.321 1.013-.585 2.25-.587 3.266-.006 8.454-3.478 10.814-7.238 2.48-3.95 2.14-10.67-.736-14.522-3.53-4.726-7.903-6.237-18.062-6.237h-9.266v25.5c0 24.834-.052 25.5-2 25.5-1.95 0-2-.666-2-27zm5 15.953V36.102l6.144.298 6.145.297 7.493 10.838c6.127 8.862 7.105 10.776 5.367 10.5-1.348-.214-4.623-3.817-8.944-9.838-5.341-7.443-7.4-9.568-9.51-9.816l-2.695-.317v10.067c0 9.4-.132 10.066-2 10.066-1.88 0-2-.666-2-11.047zM47.871 53.53c-.367-.366-.667-4.416-.667-9v-8.333h13.5c8.333 0 13.5.383 13.5 1 0 .609-4.5 1-11.5 1h-11.5v12h13.5c12.833 0 13.5.099 13.5 2 0 1.91-.667 2-14.833 2-8.159 0-15.134-.3-15.5-.666zm138 0c-.367-.366-.667-4.416-.667-9v-8.333h13.5c8.333 0 13.5.383 13.5 1 0 .609-4.5 1-11.5 1h-11.5v12h13.5c12.833 0 13.5.099 13.5 2 0 1.91-.667 2-14.833 2-8.159 0-15.134-.3-15.5-.666zm-93.238-9.01c2.93-7.636 12.2-28.307 12.698-28.314.63-.009 12.893 27.834 12.88 29.241-.004.413-5.905.75-13.114.75-11.853 0-13.045-.16-12.464-1.676zm20.571-2.345c0-1.676-7.288-18.978-7.994-18.978-.358 0-1.819 2.813-3.246 6.25a1591.467 1591.467 0 01-4.191 10l-1.596 3.75h8.514c5.133 0 8.513-.406 8.513-1.022zM15.537 33.1c-8.16-2.363-11.384-14.006-5.504-19.885C13.49 9.756 18.71 8.21 26.954 8.203l6.25-.006v26l-7.25-.09c-3.987-.05-8.675-.503-10.417-1.007zM29.99 20.947l.287-9.75-4.787.006c-6.6.008-11.938 1.659-13.756 4.256-2.055 2.932-1.939 9.026.22 11.617 2.008 2.41 7.935 4.045 13.75 3.794l4-.173zm17.214.25v-13h15c12.667 0 15 .234 15 1.5 0 1.257-2.111 1.5-13 1.5h-13v20h11.5c9.556 0 11.5.254 11.5 1.5 0 1.26-2.167 1.5-13.5 1.5h-13.5zm138.434 11.69c-.276-.722-.375-6.46-.218-12.75l.284-11.44 14.75-.276c12.68-.238 14.75-.063 14.75 1.25 0 1.29-2.01 1.526-13 1.526h-13v19h11.5c10.833 0 11.5.116 11.5 2 0 1.898-.667 2-13.031 2-9.827 0-13.155-.322-13.535-1.31zm38.786-11.44l.28-12.75 8 .053c9.705.065 14.622 2.077 16.923 6.926 5.138 10.828-2.16 18.455-17.703 18.5l-7.78.021zm14.751 8.8c7.353-1.418 10.77-7.133 7.958-13.307-1.635-3.588-4.731-4.996-12.155-5.527l-6.774-.484v20.268l3.25-.043c1.788-.024 5.262-.432 7.721-.906z"/><path d="M3.4 54.947c5.798-7.744 12.016-16.864 11.675-17.123-.204-.155-1.894-.889-3.755-1.631-4.542-1.811-9.116-9.025-9.116-14.376 0-5.61 3.42-12.095 7.821-14.832 3.201-1.99 5.27-2.334 15.93-2.64l12.25-.353v27.102c0 23.288-.21 27.103-1.484 27.103-1.266 0-1.522-3.778-1.75-25.75l-.267-25.75-8.733.09c-14.268.149-20.772 4.699-20.763 14.528.006 6.955 5.688 13.882 11.387 13.882 3.848 0 2.973 1.706-10.132 19.75-1.298 1.788-3.066 3.25-3.928 3.25-1.247 0-1.07-.666.865-3.25zm5.34.5c.971-1.512 4.428-6.462 7.683-11l5.917-8.25h10.864v11c0 9.111-.257 11-1.5 11-1.233 0-1.5-1.778-1.5-10v-10h-2.827c-2.43 0-3.842 1.4-10.074 10-3.986 5.5-7.941 10-8.788 10-1.333 0-1.303-.37.225-2.75zm33.464-24.25v-27h17.5c22.38 0 23.827 1.839 1.75 2.225l-15.75.275v48.647l15.916.176c11.713.13 16.026.507 16.333 1.427.324.97-3.643 1.25-17.666 1.25H42.204zm39.938 24.75c3.008-7.619 22.233-51.32 22.847-51.934.54-.541 20.527 43.77 24.08 53.387.201.543-.374.833-1.277.643-1.57-.33-6.652-10.927-17.554-36.596-2.394-5.637-4.619-10.243-4.943-10.234-.325.008-5.08 10.583-10.566 23.5-7.603 17.899-10.392 23.484-11.725 23.484-1.412 0-1.578-.435-.862-2.25zm5.062 1.877c0-.205.921-2.455 2.047-5l2.047-4.627h28.509l2.113 5c1.988 4.707 2.006 5 .307 5-1.173 0-2.366-1.401-3.406-4l-1.6-4H93.042l-1.571 4c-.864 2.2-2.178 4-2.92 4-.741 0-1.348-.168-1.348-.373zm45-26.526v-27.1l10.75.005c12.32.006 15.987.807 22.447 4.904 6.669 4.23 9.994 10.388 10.586 19.603.794 12.38-3.385 20.741-13.029 26.066-4.883 2.697-6.154 2.927-18.004 3.262l-12.75.36zm28.595 21.16c5.098-2.668 9.816-7.947 11.404-12.758.682-2.067 1.05-6.882.84-11.023-.476-9.432-3.76-14.597-11.944-18.782-4.854-2.482-6.738-2.85-15.461-3.012l-9.934-.186-.269 23.48c-.148 12.913-.093 23.938.122 24.5.25.653 4.128.823 10.769.473 7.901-.417 11.355-1.06 14.473-2.691zm-22.884-21.41l.21-22.149 8.29.217c12.46.325 19.336 3.8 22.908 11.581 2.217 4.827 2.482 15.126.511 19.843-1.749 4.186-8.95 10.374-13.565 11.656-1.96.544-6.94.993-11.065.996l-7.5.005.21-22.149zm15.27 19.06c9.503-2.038 14.02-8.13 14.02-18.91 0-7.348-1.69-11.72-5.896-15.259-3.757-3.161-8.838-4.729-15.355-4.736l-4.75-.006v40h3.45c1.899 0 5.737-.49 8.53-1.089zm27.02-18.91v-27h17.5c22.38 0 23.826 1.838 1.75 2.224l-15.75.275v48.647l15.915.176c11.713.13 16.026.507 16.333 1.427.324.97-3.643 1.25-17.666 1.25h-18.083zm40 0v-27l10.75.021c8.294.017 11.68.445 14.828 1.875 11.274 5.12 13.477 19.302 4.288 27.605-2.13 1.924-4.546 3.498-5.37 3.498-2.548 0-1.733 1.703 5.511 11.511 5.182 7.016 6.55 9.483 5.25 9.465-1.089-.014-4.686-4.193-9.45-10.977l-7.692-10.953 3.882-1.163c9.365-2.806 13.849-13.413 8.828-20.883-3.647-5.426-8.631-7.347-19.28-7.43l-9.046-.07-.267 25.75c-.166 16.024-.638 25.75-1.25 25.75-.62 0-.983-9.976-.983-27zm5 16v-11h5.366c5.087 0 5.5.195 7.891 3.75 1.388 2.062 4.835 7.012 7.659 11 4.012 5.664 4.747 7.246 3.36 7.233-1.062-.01-3.79-2.9-6.777-7.183-7.56-10.836-9.415-12.8-12.089-12.8-2.387 0-2.41.098-2.41 10 0 8.221-.268 10-1.5 10-1.243 0-1.5-1.89-1.5-11zm-178-2.5v-8.5h13.5c16.866 0 18.303 1.82 1.75 2.218l-11.75.281v12l13.75.278c19.314.391 17.872 2.222-1.75 2.222h-15.5zm139 0v-8.5h13c8 0 13 .384 13 1 0 .608-4.5 1-11.5 1h-11.5v13h13.5c8.332 0 13.5.382 13.5 1 0 .621-5.668 1-15 1h-15zm-93.834.709c9.76-23.136 12.43-29.192 12.874-29.2.523-.01 12.96 28.206 12.96 29.4 0 .325-5.888.59-13.084.59s-12.934-.355-12.75-.79zm19.921-6.96c-4.61-11.633-6.623-16.247-7.088-16.248-.403 0-3.068 6.09-8.833 20.183-.184.449 3.747.815 8.735.815h9.069zm-96.588-5.753c-5.55-1.964-8.5-5.642-8.5-10.602 0-9.047 4.805-12.613 17.5-12.985l8-.235.28 12.663.28 12.662-6.78-.044c-3.729-.024-8.58-.68-10.78-1.459zm14.5-11.628V10.934l-7.582.487c-9.04.58-12.539 3.065-12.708 9.023-.204 7.21 4.41 10.48 15.04 10.663l5.25.09zm17.434 11.82c-.276-.721-.375-6.374-.218-12.562l.284-11.251 14.48.001c9.054.001 14.609.388 14.823 1.033.222.665-4.39 1.13-12.98 1.31l-13.323.28v19l11.75.282c9.537.229 11.75.558 11.75 1.75 0 2.04-25.784 2.193-26.566.157zm138.566-11.439V8.697l14.23.193c8.95.12 14.363.584 14.584 1.25.236.707-3.977 1.057-12.73 1.057h-13.084v9.75l-.002 9.75h11.236c9.904 0 11.275.208 11.574 1.75.31 1.595-.82 1.75-12.734 1.75h-13.074zm38.999.141l-.001-12.89 8.751.511c4.813.281 9.657 1.027 10.763 1.657 5.72 3.259 7.832 9.697 5.082 15.493-2.421 5.103-6.44 6.988-16.196 7.596l-8.398.524V21.59zm18.838 7.479c3.805-2.376 5.33-8.82 3.083-13.02-1.543-2.883-6.972-4.85-13.388-4.85h-5.532v20.29l6.908-.579c3.8-.318 7.818-1.147 8.929-1.841z"/><path d="M7.759 49.122c8.026-11.094 8.203-11.518 5.133-12.288-3.502-.88-9.46-7.904-10.243-12.077-1.501-8.005 2.356-15.202 10.014-18.68 3.105-1.41 6.531-1.84 14.791-1.858l10.75-.022v27c0 23.334-.204 27-1.5 27-1.295 0-1.5-3.569-1.5-26.119V5.958l-9.25.427C10.89 7.08 5.216 11.3 5.208 21.812c-.005 6.38 2.46 9.82 9.148 12.772L19.15 36.7l-7.57 10.748c-4.163 5.912-8.204 10.75-8.979 10.75-.833 0 1.275-3.71 5.158-9.076zm5.039.825c10.392-14.884 9.146-13.75 15.094-13.75h5.312v11c0 9.111-.257 11-1.5 11-1.233 0-1.5-1.778-1.5-10v-10H27.3c-2.534 0-3.824 1.278-10.095 10-3.954 5.5-7.859 10-8.678 10-.973 0 .507-2.857 4.272-8.25zm29.406-18.75v-27h17.5c11 0 17.5.372 17.5 1 0 .625-6.006 1-16.017 1H45.169l.268 24.75.267 24.75 16.25.275c9.704.164 16.25.668 16.25 1.25 0 .598-6.971.975-18 .975h-18zm49.658 2.804A29414.4 29414.4 0 00103.81 6.21l1.49-3.488 11.25 25.988c13.778 31.832 12.882 29.487 11.272 29.487-.764 0-5.649-9.899-11.597-23.5-5.652-12.925-10.578-23.5-10.947-23.5-.369 0-5.149 10.46-10.622 23.244C88 49.984 84.157 57.787 83.054 57.995c-1.221.23 1.07-6.009 8.808-23.994zm-3.08 20.446a667.453 667.453 0 002.12-5c.379-.917 4.284-1.249 14.66-1.246l14.142.004 1.75 4.256c2.083 5.067 2.142 5.74.5 5.726-.687-.006-2.004-1.806-2.926-4l-1.675-3.99H93.056l-1.676 3.99c-.922 2.194-2.244 3.994-2.94 4-.956.008-.873-.9.342-3.74zm43.422-23.129V4.198h10.341c16.608 0 24.933 3.654 30.273 13.29 2.55 4.604 2.885 6.196 2.874 13.71-.013 9.579-1.745 14.038-7.65 19.699-5.477 5.25-9.925 6.587-23.588 7.09l-12.25.452zm26 22.432c5.525-2.008 12.565-8.718 14.162-13.498 1.715-5.133 1.436-14.884-.56-19.555-4.087-9.569-12.155-13.79-26.602-13.916l-9.5-.084-.269 23.48c-.148 12.913-.026 24.113.272 24.887.724 1.887 16.174.985 22.497-1.314zm-20-22.672V8.958l9.396.412c8.274.362 9.966.764 14.172 3.369 6.354 3.935 9.432 9.695 9.432 17.648 0 14.55-9.113 22.78-25.25 22.8l-7.75.01zm19.2 18.057c7.04-3.633 10.16-9.144 10.19-17.999.018-5.332-.479-7.414-2.65-11.12-3.428-5.85-8.01-8.112-17.49-8.636l-7.25-.401V30.42c0 10.694.338 19.793.75 20.22 1.05 1.087 13.661-.068 16.45-1.506zm22.8-17.938v-27h17.5c22.38 0 23.827 1.839 1.75 2.225l-15.75.275v49l16.25.275c9.704.164 16.25.668 16.25 1.25 0 .598-6.971.975-18 .975h-18zm40-.105V3.987l11.75.355c9.624.291 12.383.727 15.247 2.41 5.499 3.23 8.003 7.75 8.003 14.445 0 8.385-2.486 11.614-12.825 16.66-.18.086 2.858 4.469 6.75 9.738 3.891 5.27 7.075 9.81 7.075 10.091 0 .281-.562.487-1.25.458-1.166-.05-16.308-20.816-15.582-21.37.183-.14 2.453-1.258 5.044-2.486 6.517-3.088 9.188-7.575 8.538-14.343-.903-9.395-8.923-14.113-23.018-13.541l-7.232.293-.267 25.75c-.166 16.024-.638 25.75-1.25 25.75-.62 0-.983-10.012-.983-27.105zm5 16.105v-11l5.25.009 5.25.009 7.25 10.369c3.988 5.703 7.25 10.65 7.25 10.991 0 .342-.562.6-1.25.574-.687-.026-4.4-4.535-8.25-10.02-6.443-9.181-7.238-9.952-10-9.703l-3 .271-.286 9.75c-.397 13.505-2.214 12.479-2.214-1.25zm-177-2.5v-8.5h13c8 0 13 .385 13 1 0 .611-4.667 1-12 1h-12v13h14c8.667 0 14 .381 14 1 0 .622-5.667 1-15 1h-15zm138 0v-8.5h13.06c8.45 0 12.84.353 12.44 1-.354.573-5.526 1-12.107 1H188.11l.297 6.25.298 6.25 13.75.278c19.024.385 17.99 2.222-1.25 2.222h-15zm-93 .45c0-.964 4.674-12.296 10.04-24.342l2.18-4.893 6.39 14.847c3.515 8.166 6.39 14.98 6.39 15.143 0 .162-5.625.295-12.5.295-8.07 0-12.5-.372-12.5-1.05zm20.727-3.2c-3.895-9.984-8.21-19.75-8.727-19.75-.517 0-4.832 9.766-8.726 19.75-.369.945 1.762 1.25 8.726 1.25 6.965 0 9.095-.305 8.727-1.25zm-95.727-8.68c-5.074-1.014-7.777-2.737-9.49-6.05-3.036-5.87-1.362-11.855 4.403-15.74 2.85-1.921 4.697-2.28 11.735-2.28h8.352v25l-5.75-.115c-3.162-.063-7.325-.43-9.25-.815zm12-12.18V10.98l-7.437.375c-8.312.42-11.912 2.603-13.083 7.933-1.497 6.817 4.815 11.906 14.77 11.909l5.75.001zm18 .64V9.197h14.5c9 0 14.5.38 14.5 1 0 .618-5.167 1-13.5 1h-13.5v20h12.083c9.222 0 11.985.296 11.669 1.25-.297.892-4.044 1.33-13.084 1.53l-12.668.28zm138 0V9.197h14.5c9 0 14.5.38 14.5 1 0 .618-5.179 1-13.536 1h-13.536l.286 9.75.286 9.75 11.823.283c8.746.208 11.717.599 11.418 1.5-.283.85-4.218 1.301-13.073 1.497l-12.668.28zm39-.03v-12.5h7.532c12.544 0 17.801 3.722 17.801 12.6 0 8.14-7.001 12.4-20.382 12.4h-4.95zm17.452 8.085c1.863-.779 3.873-2.324 4.468-3.434 1.877-3.508 1.281-8.805-1.332-11.845-2.262-2.63-2.902-2.806-10.25-2.806h-7.838l-.293 8.417c-.161 4.629-.063 9.016.219 9.75.695 1.812 10.622 1.758 15.026-.082z"/></svg>