<svg xmlns="http://www.w3.org/2000/svg"  viewBox="0 0 124.88334 27.0049">
    <title>Chicago Reader logo</title>
    <path d="m 0.00467011,26.770406 c 0,-0.092 1.50812499,-2.23923 3.35138899,-4.7716 1.843264,-2.53237 3.351389,-4.72708 3.351389,-4.87712 0,-0.15005 -0.555681,-0.47375 -1.234846,-0.71934 -3.154218,-1.14058 -4.91229601,-3.86341 -4.92828801,-7.6327101 -0.0088,-2.07087 0.146326,-2.73619 0.96102201,-4.12208 1.987951,-3.38175 4.109376,-4.16820005 11.2436879,-4.16820005 h 5.247313 V 13.708526 c 0,12.99398 -0.01254,13.22917 -0.705556,13.22917 -0.692305,0 -0.705555,-0.23519 -0.705555,-12.52361 V 1.8904659 l -4.497917,0.003 c -3.9802329,0.003 -4.7009299,0.0988 -6.2618059,0.83194 -0.970139,0.45568 -2.035647,1.13462 -2.367796,1.50877 -1.585587,1.7861 -2.133891,5.08075 -1.21253,7.2858801 0.655052,1.56776 2.737333,3.30882 4.544616,3.7999 0.827835,0.22493 1.709605,0.46755 1.959489,0.53913 0.296684,0.085 -0.174445,1.0197 -1.357748,2.69374 -0.996646,1.40997 -2.709221,3.86691 -3.805724,5.45987 -1.481685,2.15254 -2.197471,2.89992 -2.78739001,2.91042 -0.436563,0.008 -0.79374998,-0.0611 -0.79374998,-0.15316 z m 2.67170099,-0.24663 c 0.152537,-0.25742 1.86869,-2.73022 3.813674,-5.49511 l 3.5363349,-5.02708 h 2.750256 2.750256 v 5.46805 c 0,5.23287 -0.03035,5.46806 -0.705555,5.46806 -0.672095,0 -0.705556,-0.23519 -0.705556,-4.95918 v -4.95917 l -1.497297,0.10848 c -1.486557,0.1077 -1.521824,0.14264 -4.9163039,4.87098 -2.743451,3.82148 -3.605149,4.78527 -4.361077,4.87775 -0.704829,0.0862 -0.872228,-0.003 -0.664732,-0.35278 z M 20.113004,13.708526 V 0.47935585 h 8.466667 c 8.231481,0 8.466667,0.0196 8.466667,0.70556005 0,0.68417 -0.235186,0.70555 -7.761112,0.70555 h -7.761111 v 11.8180601 11.81806 h 7.9375 c 7.702314,0 7.937501,0.0209 7.937501,0.70555 0,0.68636 -0.235187,0.70556 -8.643056,0.70556 h -8.643056 z m 19.512062,12.10753 c 1.762132,-4.19272 10.943079,-25.56783013 11.085351,-25.80896013 0.143167,-0.24265 10.93744,24.27005013 11.58715,26.31324013 0.14884,0.46806 -10e-4,0.61536 -0.62121,0.60912 -0.73503,-0.007 -1.31507,-1.1633 -5.74848,-11.45557 C 53.215848,9.1778559 50.882854,4.1412559 50.743447,4.2814259 50.60404,4.4216159 48.355674,9.5369262 45.74708,15.648806 c -4.411857,10.33688 -4.808206,11.12039 -5.678622,11.22558 -0.929996,0.1124 -0.932712,0.10592 -0.443392,-1.05833 z m 3.07758,-1.25961 1.004369,-2.38125 7.187527,-0.0952 7.187519,-0.0951 0.94742,2.307 c 0.52108,1.26885 0.947406,2.38323 0.947406,2.4764 0,0.0932 -0.375606,0.16941 -0.834696,0.16941 -0.68239,0 -0.96311,-0.33796 -1.53843,-1.85209 l -0.703738,-1.85208 h -6.122088 -6.122088 l -0.715508,1.85208 c -0.557512,1.44312 -0.884047,1.85209 -1.478784,1.85209 -0.758705,0 -0.757259,-0.0143 0.241091,-2.38125 z M 64.210227,13.744786 V 0.47935585 h 5.30279 c 5.80134,0 8.16081,0.50569 10.93958,2.34459005 3.47045,2.29663 5.65039,7.5084901 5.11604,12.2315401 -0.40069,3.54154 -1.45203,5.82632 -3.69997,8.04076 -3.07429,3.02848 -4.81953,3.57939 -11.9258,3.76457 l -5.73264,0.14939 z m 11.31305,11.21413 c 3.91635,-1.16024 6.06478,-2.93998 7.59941,-6.29525 0.81214,-1.77563 0.96068,-2.57697 0.96068,-5.18241 0,-2.75465 -0.11996,-3.32568 -1.12944,-5.3762201 -1.23175,-2.50205 -2.79849,-3.97574 -5.57468,-5.24364 -1.4299,-0.65304 -2.4834,-0.79904 -6.55444,-0.90835 l -4.85069,-0.13024 v 11.8518901 11.85189 h 3.81652 c 2.47846,0 4.48831,-0.19903 5.73264,-0.56767 z m -8.84361,-11.21323 V 2.5960259 h 3.82533 c 4.27111,0 6.98707,0.69485 9.14279,2.3391 2.89833,2.21067 4.3592,6.5955101 3.59727,10.7973101 -0.72203,3.98177 -2.44214,6.19241 -6.15844,7.91465 -1.85159,0.85808 -2.63578,0.99766 -6.26181,1.11459 l -4.14514,0.13366 z m 8.78806,9.1117 c 7.38327,-2.1926 8.25947,-14.2495101 1.29951,-17.8817901 -1.12013,-0.58458 -2.25653,-0.78695 -5.06048,-0.90118 l -3.61598,-0.1473 v 9.7414001 9.7414 h 2.7582 c 1.517,0 3.59544,-0.24864 4.61875,-0.55253 z m 12.37861,-9.14886 V 0.47935585 h 8.29028 c 8.055093,0 8.290283,0.02 8.290283,0.70556005 0,0.68368 -0.23519,0.70555 -7.584733,0.70555 h -7.58472 v 11.8180601 11.81806 h 7.9375 c 7.702313,0 7.937503,0.0209 7.937503,0.70555 0,0.68636 -0.23519,0.70556 -8.643053,0.70556 h -8.64306 z m 19.050003,0 V 0.47935585 h 5.27843 c 7.53329,0 9.8329,0.97688005 11.62636,4.93889005 1.85205,4.0914503 -0.0415,9.1758801 -4.0265,10.8114201 -0.92039,0.37776 -1.52518,0.83311 -1.43226,1.07836 0.0885,0.23347 1.59743,2.40433 3.35325,4.82413 1.75581,2.4198 3.19239,4.49096 3.19239,4.60258 0,0.11163 -0.35719,0.19461 -0.79375,0.18442 -0.61746,-0.0144 -1.58582,-1.17011 -4.36002,-5.20347 -1.96145,-2.85172 -3.55913,-5.34369 -3.55041,-5.53772 0.009,-0.19402 0.66888,-0.51859 1.46704,-0.72125 4.4445,-1.1285 6.61839,-5.20375 4.93063,-9.2431401 -0.75825,-1.81475 -1.48222,-2.53324 -3.51433,-3.48772 -1.549,-0.72756 -2.29034,-0.82891 -6.08541,-0.83194 l -4.32153,-0.003 v 12.5236201 12.52361 h -0.88195 -0.88194 z m 2.46944,7.76111 v -5.46805 h 2.77226 2.77224 l 3.52121,5.02708 c 4.42164,6.31259 4.20293,5.90903 3.20222,5.90903 -0.65965,0 -1.53627,-0.9952 -4.34235,-4.92972 l -3.51585,-4.92973 -1.49931,-0.009 -1.4993,-0.009 v 4.93889 c 0,4.7037 -0.0336,4.93889 -0.70556,4.93889 -0.67521,0 -0.70556,-0.23519 -0.70556,-5.46806 z m -87.136109,-1.05833 v -4.40972 h 6.526389 c 5.566049,0 6.526389,0.0779 6.526389,0.52916 0,0.44832 -0.862346,0.52917 -5.644445,0.52917 H 23.99356 v 3.175 3.175 h 6.702778 c 6.467591,0 6.702778,0.0248 6.702778,0.70555 0,0.68368 -0.235187,0.70556 -7.584723,0.70556 h -7.584722 z m 67.733336,0 v -4.40972 h 6.52639 c 5.566053,0 6.526383,0.0779 6.526383,0.52916 0,0.44832 -0.86234,0.52917 -5.644443,0.52917 h -5.64445 v 3.175 3.175 h 6.70278 c 6.467593,0 6.702783,0.0248 6.702783,0.70555 0,0.68368 -0.23519,0.70556 -7.584723,0.70556 h -7.58472 z m -45.533153,0.0882 c 1.003952,-2.56647 6.108118,-14.2421501 6.320606,-14.4582601 0.216338,-0.22002 6.756991,14.3065101 6.756991,15.0070101 0,0.13475 -3.012321,0.245 -6.694048,0.245 h -6.694047 z m 8.712687,-6.25595 c -1.188815,-2.9072 -2.246302,-5.2884501 -2.349969,-5.2916701 -0.103671,-0.003 -0.446173,0.6688403 -0.761119,1.4934601 -0.314945,0.82461 -1.295495,3.20586 -2.179002,5.29166 l -1.606374,3.79236 h 4.528972 4.528972 z m -45.5216479,0.658 c -2.158415,-0.50629 -3.613267,-1.59936 -4.461859,-3.35231 -1.43487,-2.9640501 -0.273517,-6.6084901 2.596511,-8.1481101 0.837094,-0.44906 2.243622,-0.64042 5.4498199,-0.74146 l 4.321527,-0.13619 v 6.38627 6.3862801 l -3.263194,-0.0354 c -1.794757,-0.0195 -3.8840189,-0.18106 -4.6428049,-0.35904 z M 14.115781,8.7696459 v -4.7625 l -3.263194,5.7e-4 c -3.8650279,6.3e-4 -5.4042789,0.59728 -6.3692449,2.46888 -0.774999,1.50314 -0.630872,3.7539101 0.323968,5.0592701 1.029795,1.40784 2.759298,1.95771 6.2216659,1.9781 l 3.086805,0.0182 z m 8.11389,0.17639 v -6.35 h 7.4342 c 6.89019,0 7.425523,0.0452 7.315594,0.61736 -0.106976,0.55683 -0.750429,0.62679 -6.562159,0.71355 l -6.443553,0.0962 0.0981,4.8427 0.0981,4.8427001 5.556251,0.0971 c 5.264446,0.0921 5.55625,0.13374 5.55625,0.79375 0,0.66851 -0.263162,0.6966 -6.526389,0.6966 h -6.526394 z m 67.733336,0 v -6.35 h 7.23194 c 6.996763,0 7.231953,0.0229 7.231953,0.70556 0,0.67942 -0.23519,0.70555 -6.350003,0.70555 h -6.35001 v 4.7625 4.7625001 h 5.64445 5.644443 v 0.88195 0.88194 h -6.526383 -6.52639 z m 19.402773,0.0444 v -6.39439 l 3.61598,0.002 c 4.29595,0.002 5.86921,0.38044 7.48463,1.7988 1.46769,1.28865 2.08677,3.02435 1.87283,5.2508403 -0.36546,3.8034498 -2.83504,5.3335598 -9.00469,5.5791798 l -3.96875,0.15799 z m 9.06064,3.8561401 c 2.49636,-1.13339 3.35863,-4.2082901 1.86643,-6.6557901 -1.00429,-1.64724 -2.5591,-2.18363 -6.32962,-2.18363 h -3.18633 v 4.7625 4.7625001 l 3.0868,-0.008 c 2.2662,-0.006 3.47917,-0.18588 4.56272,-0.67783 z"/>
</svg>