<svg
   xmlns:dc="http://purl.org/dc/elements/1.1/"
   xmlns:cc="http://creativecommons.org/ns#"
   xmlns:rdf="http://www.w3.org/1999/02/22-rdf-syntax-ns#"
   xmlns:svg="http://www.w3.org/2000/svg"
   xmlns="http://www.w3.org/2000/svg"
   xmlns:sodipodi="http://sodipodi.sourceforge.net/DTD/sodipodi-0.dtd"
   xmlns:inkscape="http://www.inkscape.org/namespaces/inkscape"
   viewBox="0 0 300.89999 75.099998"
   role="img"
   aria-label="New Yorker"
   version="1.1"
   id="svg52"
   sodipodi:docname="newyorker.svg"
   width="300.9" height="75.01"
   height="75.099998"
   inkscape:version="0.92.3 (2405546, 2018-03-11)">
  <metadata
     id="metadata58">
    <rdf:RDF>
      <cc:Work
         rdf:about="">
        <dc:format>image/svg+xml</dc:format>
        <dc:type
           rdf:resource="http://purl.org/dc/dcmitype/StillImage" />
        <dc:title>The New Yorker</dc:title>
      </cc:Work>
    </rdf:RDF>
  </metadata>
  <defs
     id="defs56" />
  <sodipodi:namedview
     pagecolor="#ffffff"
     bordercolor="#666666"
     borderopacity="1"
     objecttolerance="10"
     gridtolerance="10"
     guidetolerance="10"
     inkscape:pageopacity="0"
     inkscape:pageshadow="2"
     inkscape:window-width="640"
     inkscape:window-height="480"
     id="namedview54"
     showgrid="false"
     fit-margin-top="5"
     fit-margin-left="10"
     fit-margin-right="10"
     fit-margin-bottom="5"
     inkscape:zoom="1.4868406"
     inkscape:cx="150.6"
     inkscape:cy="37.4"
     inkscape:window-x="67"
     inkscape:window-y="27"
     inkscape:window-maximized="0"
     inkscape:current-layer="svg52" />
  <title
     id="tnyLogo">The New Yorker</title>
  <g
     id="g50"
     style="fill:none;fill-rule:evenodd"
     transform="translate(9.6,4.7)">
    <path
       d="M 0.4,24.6 H 5.2 L 25.4,50 V 24.5 h 3 V 64 L 3.4,32.2 v 31.4 h -3 z m 33.4,0 h 14.5 l 2,4.5 c 0,0 -2.4,-2.3 -7,-2.3 H 40 v 13.8 h 5.7 c 3,0 3.5,-0.4 4.6,-1.5 v 5.8 c 0,0 -1.3,-2 -4.6,-2 H 40 v 18 h 8 c 8,0 12,-3 12,-3 l -3,5.8 H 33.8 v -39 z m 200.5,0 h 16 l 2,4.5 c 0,0 -2.2,-2.3 -7,-2.3 h -5.4 v 13.8 h 6.2 c 2.4,0 3,-0.2 4,-1 V 44 c 0,0 -0.7,-1.4 -4,-1.4 H 240 V 61 h 3.8 c 7,0 9.6,-2 9.6,-2 l -3.5,4.6 h -15.7 v -39 z M 52,24.6 h 6.2 L 71.4,53 74.1,47.2 64.1,24.6 h 5.8 L 77,39.8 84,24.6 h 3 L 79,44 83.3,53 96,24.7 h 3.5 L 81.8,64 l -6,-13 -6,13 z m 102.3,-1.4 c 13.7,0 22,9.5 22,20 0,13.6 -7.5,22.2 -21.6,22.2 -14.2,0 -22.6,-10.5 -22.6,-21 0,-11.8 9,-21.2 22.3,-21.2 z M 138,43.5 c 0,9.2 5.2,19.2 17,19.2 11,0 15.3,-9 15.3,-19 0,-8 -5.5,-18.2 -16.3,-18.2 -7.4,0 -16,5.8 -16,18 z m 43,-19 h 9 c 5,0 9,2.8 9,8 0,6 -4.4,7.7 -7.5,8.7 5.6,1 7.7,3.6 7.7,11 0,7.5 2,10.2 3.6,10.2 1.3,0 2.4,-0.8 2.7,-1.4 l 0.8,0.5 c -0.3,0.4 -1.8,2.8 -5.4,2.8 -3.6,0 -6.5,-3.3 -6.5,-11 0,-11.3 -3,-11.5 -5.5,-11.5 V 41 c 0,0 5.2,-1.2 5.2,-7.5 0,-6 -3.6,-6.8 -5,-6.8 h -2.7 v 37 h -5.8 l 0.2,-39 z m 75,0 h 9.2 c 5,0 9,2.8 9,8 0,6 -4.5,7.7 -7.6,8.7 5.6,1 7.7,3.6 7.7,11 0,7.5 2,10.2 3.6,10.2 1.2,0 2.3,-0.8 2.6,-1.4 l 0.8,0.5 c -0.3,0.4 -1.8,2.8 -5.4,2.8 -3.6,0 -6.4,-3.3 -6.4,-11 0,-11.3 -3,-11.5 -5.5,-11.5 V 41 c 0.2,0 5.3,-1.2 5.3,-7.5 0,-6 -3.6,-6.8 -5,-6.8 h -2.7 v 37 h -5.8 l 0.2,-39 z m -31,27.6 c 0,7.6 1.8,10.3 3.6,10.3 1.3,0 2.3,-1 2.7,-1.4 l 0.8,0.4 c -0.2,0.3 -1.7,2.7 -5.4,2.7 -3.6,0 -6.3,-3 -6.3,-11 v -1.5 c 0,-4.6 -0.3,-8.2 -1,-10.5 -0.7,-2 -3,-3.3 -4,-3.3 h -1 v 25.8 h -5.8 v -39 h 5.7 V 36 l 10.3,-11.6 h 3.7 l -11,12.2 c 5.7,1 7.7,5 7.7,14 V 52 Z M 135.5,0.4 h 3 v 7 h 7 v -7 h 3 v 16.3 h -3 v -8 h -7 v 8 h -3 z m 18.6,0 h 7.6 l 1,2.4 c 0,0 -1.6,-1 -3,-1 H 157 v 5.6 h 2.6 c 1.4,0 1.8,-0.6 1.8,-0.6 v 2.6 c 0,0 -0.4,-0.8 -1.8,-0.8 H 157 v 7 h 3.6 c 2.7,0 3.8,-1.4 3.8,-1.4 l -1.3,2.7 h -9 V 0.3 h 0.2 z M 126,1.6 h 1.4 c 2.5,0 4.5,1.7 4.5,1.7 l -1,-3 h -13.5 l -1,3 c 0,0 2,-1.7 4.6,-1.7 h 1.7 v 15 h 3 v -15 h 0.2 z"
       id="path46"
       inkscape:connector-curvature="0"
       style="fill:currentColor" />
    <path
       d="M 124,63.6 V 43.4 l 11,-18.8 h -3.6 l -10.4,18 -10.5,-18 H 107 l 11,18.8 v 20.2 z"
       id="path48"
       inkscape:connector-curvature="0"
       style="fill:currentColor" />
  </g>
</svg>
