<svg version="1.1" viewBox="0 0 72.495834 24.077089"  width="300.9" height="75.01" xml:space="preserve" xmlns="http://www.w3.org/2000/svg" xmlns:xlink="http://www.w3.org/1999/xlink">
    <title>National Public Radio logo</title>
    <style type="text/css">
        fill: red;
    </style>
    <g id="npr_svg_logo"/>
        <path d="M 0.00184474,-0.00141273 V 12.037128 24.075668 H 36.249762 72.497678 V 12.037128 -0.00141273 H 36.249762 Z M 1.3247618,1.0569173 H 12.30497 23.285178 V 12.037128 23.017338 H 12.30497 1.3247618 v -10.98021 z m 23.2833332,0 H 36.249762 47.891428 V 12.037128 23.017338 H 36.249762 24.608095 v -10.98021 z m 24.60625,0 H 60.194553 71.174758 V 12.037128 23.017338 H 60.194553 49.214345 v -10.98021 z m -36.05258,5.02709 c -1.094564,0 -1.674514,0.1562 -2.394686,0.64492 -0.9146032,0.62067 -0.9565252,0.62565 -1.1131102,0.13229 -0.124624,-0.39265 -0.406588,-0.51263 -1.203544,-0.51263 h -1.040247 v 6.0854207 6.08541 h 1.322917 1.3229172 v -4.37802 c 0,-4.3368807 0.0061,-4.3843807 0.665075,-4.9950507 0.884632,-0.81986 2.063988,-1.02847 3.178618,-0.56275 1.192054,0.49807 1.315682,1.04099 1.315682,5.7686407 v 3.90208 l 1.419034,5.2e-4 h 1.419035 l -0.100252,-4.58938 c -0.09681,-4.4392607 -0.122779,-4.6239407 -0.799951,-5.6472007 -0.877108,-1.3254 -2.133615,-1.93425 -3.991488,-1.93425 z m 23.37015,0.0672 c -0.649514,-0.0101 -1.088646,0.11083 -1.671216,0.41547 -0.775735,0.40565 -0.992187,0.43837 -0.992187,0.15038 0,-0.27006 -0.38816,-0.36845 -1.455209,-0.36845 h -1.455208 v 7.6729207 7.67291 h 1.455208 1.455209 v -1.68465 -1.68413 l 1.814876,0.1297 c 4.204386,0.30082 6.369303,-1.76707 6.381523,-6.09575 0.01095,-3.8792707 -1.479475,-5.7910307 -4.800224,-6.1567307 -0.276327,-0.0304 -0.516267,-0.0483 -0.732772,-0.0517 z m 25.984977,0.0295 c -1.114561,2.3e-4 -2.150737,0.31481 -2.755904,0.86248 -0.466068,0.42179 -0.492476,0.41481 -0.492476,-0.12454 0,-0.50778 -0.144677,-0.56999 -1.322917,-0.56999 h -1.322917 v 6.0854207 6.08541 h 1.322917 1.322917 v -3.98167 c 0,-3.09515 0.09212,-4.16035 0.413928,-4.7826507 0.527336,-1.01976 1.776079,-1.57228 2.854606,-1.26297 0.43851,0.12574 0.820397,0.20081 0.848527,0.16691 0.02813,-0.0339 0.300981,-0.55687 0.606165,-1.1622 l 0.555,-1.10071 -1.250048,-0.16433 c -0.261278,-0.0344 -0.522591,-0.0512 -0.779798,-0.0512 z m -26.70483,2.29495 c 0.734021,-0.003 1.529936,0.13034 2.030367,0.38913 1.106512,0.57218 1.42237,1.3331007 1.42937,3.4457807 0.0075,2.2665 -0.631581,3.38858 -2.17351,3.81682 -1.167205,0.32415 -1.539615,0.31952 -2.502173,-0.032 l -0.727604,-0.26561 v -3.40858 c 0,-3.0988207 0.04628,-3.4329207 0.511596,-3.6819507 0.327461,-0.17525 0.861051,-0.26089 1.431954,-0.26355 z"></path>
    </g>
</svg>