<svg
   xmlns:dc="http://purl.org/dc/elements/1.1/"
   xmlns:cc="http://creativecommons.org/ns#"
   xmlns:rdf="http://www.w3.org/1999/02/22-rdf-syntax-ns#"
   xmlns:svg="http://www.w3.org/2000/svg"
   xmlns="http://www.w3.org/2000/svg"
   xmlns:sodipodi="http://sodipodi.sourceforge.net/DTD/sodipodi-0.dtd"
   xmlns:inkscape="http://www.inkscape.org/namespaces/inkscape"
   viewBox="0 0 495 82"
   id="ct-full"
   aria-label="Chicago Tribune"
   role="img"
   version="1.1"
   sodipodi:docname="tribune.svg"
   width="495"
   height="82"
   inkscape:version="0.92.3 (2405546, 2018-03-11)">
  <metadata
     id="metadata71">
    <rdf:RDF>
      <cc:Work
         rdf:about="">
        <dc:format>image/svg+xml</dc:format>
        <dc:type
           rdf:resource="http://purl.org/dc/dcmitype/StillImage" />
        <dc:title></dc:title>
      </cc:Work>
    </rdf:RDF>
  </metadata>
  <defs
     id="defs69" />
  <sodipodi:namedview
     pagecolor="#ffffff"
     bordercolor="#666666"
     borderopacity="1"
     objecttolerance="10"
     gridtolerance="10"
     guidetolerance="10"
     inkscape:pageopacity="0"
     inkscape:pageshadow="2"
     inkscape:window-width="640"
     inkscape:window-height="480"
     id="namedview67"
     showgrid="false"
     fit-margin-top="5"
     fit-margin-left="10"
     fit-margin-right="10"
     fit-margin-bottom="5"
     inkscape:zoom="0.88085938"
     inkscape:cx="248"
     inkscape:cy="41"
     inkscape:window-x="67"
     inkscape:window-y="27"
     inkscape:window-maximized="0"
     inkscape:current-layer="ct-full" />
  <g
     id="g64"
     transform="translate(10,5)">
    <path
       d="m 475,31 -16,11 v 9 l 8,4 4,-5 1,1 -10,10 -14,-8 c 1,-1 2,-2 2,-5 V 29 l 16,-10 z m -8,4 -8,-11 v 16 z m -20,18 -8,8 c -5,-1 -7,-4 -7,-9 V 29 l -4,-3 -4,3 v 25 l 3,2 -7,5 -7,-6 c 1,-1 2,-2 2,-5 V 30 c 0,-3 -1,-4 -4,-5 l -2,3 -1,-1 8,-8 c 5,1 8,4 8,9 l 9,-9 10,7 c -2,1 -2,2 -2,4 v 20 c 0,3 1,4 3,5 l 2,-2 h 1 m -37,0 -7,8 c -4,0 -8,-4 -8,-8 l -9,8 -10,-6 c 2,-1 2,-2 2,-5 V 29 c 0,-2 -1,-3 -3,-4 l -2,3 v -1 l 7,-8 c 4,1 7,4 7,9 v 24 l 5,3 3,-3 V 27 l -2,-2 6,-6 7,6 c -1,1 -2,1 -2,4 v 20 c 0,4 1,5 4,6 l 2,-2 M 372,27 c -2,0 -2,2 -2,4 v 21 l -17,9 -12,-7 v -1 c 2,0 2,-1 2,-5 V 8 l -1,-6 h 1 l 2,4 c 2,-3 5,-5 10,-6 v 1 c -2,1 -2,3 -2,6 v 20 l 7,-8 z M 360,55 V 29 l -5,-4 -2,3 v 23 l 7,5 z m -26,-47 -5,5 -6,-5 6,-6 5,6 m 6,45 -8,8 c -5,-1 -7,-4 -7,-9 V 27 l -3,-2 -2,3 v -1 l 7,-8 9,6 c -1,0 -2,1 -2,3 v 23 c 0,2 1,3 3,4 l 2,-3 1,1 M 320,22 c 0,3 -2,7 -7,7 -2,0 -4,-2 -5,-3 h -1 v 25 l 7,4 2,-3 1,1 -8,8 -13,-8 c 2,-1 2,-1 2,-4 V 30 c 0,-3 -1,-4 -3,-5 l -3,3 v -1 l 8,-8 c 4,1 6,3 7,6 l 6,-6 4,3 3,-1 v 1"
       id="path60"
       inkscape:connector-curvature="0" />
    <path
       d="m 297,2 c -1,7 -4,13 -11,13 h -3 v 41 l 12,-5 v 1 c -4,5 -13,12 -24,12 -15,0 -26,-9 -26,-25 0,-13 11,-22 18,-25 h 1 c -5,5 -9,11 -9,21 0,8 3,13 8,17 l 3,-1 V 26 c 0,-3 -1,-4 -2,-4 l 12,-7 v 31 l -12,7 c 3,2 8,3 13,3 h 5 V 15 c -9,-1 -19,-5 -26,-5 -6,0 -9,2 -9,6 0,3 1,4 3,4 l -1,1 c -3,-1 -5,-4 -5,-9 0,-7 6,-12 14,-12 11,0 21,6 31,6 3,0 6,-2 7,-5 l 1,1 m -68,25 c -1,0 -2,1 -2,4 v 20 l -16,10 -12,-8 c 1,0 2,-1 2,-4 V 29 l 16,-10 12,7 z M 218,55 V 29 l -7,-5 -1,1 v 26 l 7,5 z m -22,3 c 0,3 -3,5 -7,8 l -7,6 -8,-2 -10,2 a 17,17 0 0 1 24,-6 l 3,-3 c 0,-3 -6,-3 -7,-9 l -7,7 -12,-8 1,-5 V 29 l 17,-10 12,7 v 1 c -2,0 -2,1 -2,5 v 17 c 0,5 3,5 3,9 z M 184,53 V 29 l -7,-5 -1,1 v 25 l 6,5 z m -21,0 -8,8 c -4,-1 -7,-3 -7,-8 l -9,8 c -5,-2 -8,-6 -8,-11 0,-7 6,-10 11,-12 -5,-2 -8,-6 -9,-11 l 14,-8 12,8 -2,4 v 19 c 0,2 1,4 3,5 l 2,-3 z M 148,37 v -8 l -8,-5 -1,1 c 0,4 1,10 4,13 z m 0,15 V 38 c -6,0 -9,4 -9,9 0,4 2,6 5,8 z M 133,21 c 0,4 -3,8 -7,8 -4,0 -6,-3 -7,-5 h -1 v 26 l 7,5 4,-5 1,1 -10,10 -13,-8 2,-4 V 28 c 6,-3 12,-6 15,-9 1,1 3,3 5,3 l 4,-1 m -33,-14 -6,6 -5,-5 5,-6 6,5 m 6,46 -8,8 C 93,59 91,57 91,52 V 27 l -3,-2 -2,3 -1,-1 8,-8 9,5 c -2,1 -2,2 -2,5 v 22 l 3,4 2,-3 1,1 m -19,0 -8,8 C 75,60 72,57 72,52 V 29 l -5,-4 -3,3 v 26 l 3,1 -6,6 -8,-6 c 1,-1 2,-2 2,-5 V 7 L 54,2 c 2,1 3,2 3,4 2,-3 5,-5 10,-6 -2,2 -3,4 -3,7 v 20 l 8,-8 11,7 v 1 c -1,0 -2,1 -2,4 v 19 c 0,3 1,4 3,5 l 3,-3 v 1 M 53,2 C 52,8 49,13 42,13 l -3,-1 v 44 l 12,-5 1,1 C 48,56 40,64 28,64 12,64 0,53 0,34 0,17 14,8 23,4 h 1 c -9,6 -13,13 -13,25 0,11 4,19 9,23 l 2,-1 V 17 c 0,-3 0,-4 -2,-4 L 41,1 c 1,2 3,3 6,3 L 52,2 Z M 38,56 V 12 L 33,7 v 38 l -12,8 c 4,2 10,3 16,3 z"
       id="path62"
       inkscape:connector-curvature="0" />
  </g>
</svg>
