<svg xmlns="http://www.w3.org/2000/svg" aria-label="Chicago Tribune logo" viewBox="0 0 495 82"><path d="M485 36l-16 11v9l8 4 4-5 1 1-10 10-14-8c1-1 2-2 2-5V34l16-10zm-8 4l-8-11v16zm-20 18l-8 8c-5-1-7-4-7-9V34l-4-3-4 3v25l3 2-7 5-7-6c1-1 2-2 2-5V35c0-3-1-4-4-5l-2 3-1-1 8-8c5 1 8 4 8 9l9-9 10 7c-2 1-2 2-2 4v20c0 3 1 4 3 5l2-2h1m-37 0l-7 8c-4 0-8-4-8-8l-9 8-10-6c2-1 2-2 2-5V34c0-2-1-3-3-4l-2 3v-1l7-8c4 1 7 4 7 9v24l5 3 3-3V32l-2-2 6-6 7 6c-1 1-2 1-2 4v20c0 4 1 5 4 6l2-2m-38-26c-2 0-2 2-2 4v21l-17 9-12-7v-1c2 0 2-1 2-5V13l-1-6h1l2 4c2-3 5-5 10-6v1c-2 1-2 3-2 6v20l7-8zm-12 28V34l-5-4-2 3v23l7 5zm-26-47l-5 5-6-5 6-6 5 6m6 45l-8 8c-5-1-7-4-7-9V32l-3-2-2 3v-1l7-8 9 6c-1 0-2 1-2 3v23c0 2 1 3 3 4l2-3 1 1m-20-31c0 3-2 7-7 7-2 0-4-2-5-3h-1v25l7 4 2-3 1 1-8 8-13-8c2-1 2-1 2-4V35c0-3-1-4-3-5l-3 3v-1l8-8c4 1 6 3 7 6l6-6 4 3 3-1v1"/><path d="M307 7c-1 7-4 13-11 13h-3v41l12-5v1c-4 5-13 12-24 12-15 0-26-9-26-25 0-13 11-22 18-25h1c-5 5-9 11-9 21 0 8 3 13 8 17l3-1V31c0-3-1-4-2-4l12-7v31l-12 7c3 2 8 3 13 3h5V20c-9-1-19-5-26-5-6 0-9 2-9 6 0 3 1 4 3 4l-1 1c-3-1-5-4-5-9 0-7 6-12 14-12 11 0 21 6 31 6 3 0 6-2 7-5l1 1m-68 25c-1 0-2 1-2 4v20l-16 10-12-8c1 0 2-1 2-4V34l16-10 12 7zm-11 28V34l-7-5-1 1v26l7 5zm-22 3c0 3-3 5-7 8l-7 6-8-2-10 2a17 17 0 0124-6l3-3c0-3-6-3-7-9l-7 7-12-8 1-5V34l17-10 12 7v1c-2 0-2 1-2 5v17c0 5 3 5 3 9zm-12-5V34l-7-5-1 1v25l6 5zm-21 0l-8 8c-4-1-7-3-7-8l-9 8c-5-2-8-6-8-11 0-7 6-10 11-12-5-2-8-6-9-11l14-8 12 8-2 4v19c0 2 1 4 3 5l2-3zm-15-16v-8l-8-5-1 1c0 4 1 10 4 13zm0 15V43c-6 0-9 4-9 9 0 4 2 6 5 8zm-15-31c0 4-3 8-7 8s-6-3-7-5h-1v26l7 5 4-5 1 1-10 10-13-8 2-4V33c6-3 12-6 15-9 1 1 3 3 5 3l4-1m-33-14l-6 6-5-5 5-6 6 5m6 46l-8 8c-5-2-7-4-7-9V32l-3-2-2 3-1-1 8-8 9 5c-2 1-2 2-2 5v22l3 4 2-3 1 1m-19 0l-8 8c-4-1-7-4-7-9V34l-5-4-3 3v26l3 1-6 6-8-6c1-1 2-2 2-5V12l-1-5c2 1 3 2 3 4 2-3 5-5 10-6-2 2-3 4-3 7v20l8-8 11 7v1c-1 0-2 1-2 4v19c0 3 1 4 3 5l3-3v1M63 7c-1 6-4 11-11 11l-3-1v44l12-5 1 1c-4 4-12 12-24 12-16 0-28-11-28-30 0-17 14-26 23-30h1c-9 6-13 13-13 25 0 11 4 19 9 23l2-1V22c0-3 0-4-2-4L51 6c1 2 3 3 6 3l5-2zM48 61V17l-5-5v38l-12 8c4 2 10 3 16 3z"/></svg>