<?xml version="1.0" encoding="UTF-8" standalone="no"?>
<svg
   xmlns:dc="http://purl.org/dc/elements/1.1/"
   xmlns:cc="http://creativecommons.org/ns#"
   xmlns:rdf="http://www.w3.org/1999/02/22-rdf-syntax-ns#"
   xmlns:svg="http://www.w3.org/2000/svg"
   xmlns="http://www.w3.org/2000/svg"
   xmlns:sodipodi="http://sodipodi.sourceforge.net/DTD/sodipodi-0.dtd"
   xmlns:inkscape="http://www.inkscape.org/namespaces/inkscape"
   viewBox="0 0 520.03882 124.82529"
   aria-label="Vulture"
   role="img"
   version="1.1"
   id="svg89"
   sodipodi:docname="vulture.svg"
   width="300.9" height="75.01"
   inkscape:version="0.92.3 (2405546, 2018-03-11)">
  <metadata
     id="metadata95">
    <rdf:RDF>
      <cc:Work
         rdf:about="">
        <dc:format>image/svg+xml</dc:format>
        <dc:type
           rdf:resource="http://purl.org/dc/dcmitype/StillImage" />
        <dc:title></dc:title>
      </cc:Work>
    </rdf:RDF>
  </metadata>
  <defs
     id="defs93" />
  <sodipodi:namedview
     pagecolor="#ffffff"
     bordercolor="#666666"
     borderopacity="1"
     objecttolerance="10"
     gridtolerance="10"
     guidetolerance="10"
     inkscape:pageopacity="0"
     inkscape:pageshadow="2"
     inkscape:window-width="640"
     inkscape:window-height="480"
     id="namedview91"
     showgrid="false"
     fit-margin-top="5"
     fit-margin-left="10"
     fit-margin-right="10"
     fit-margin-bottom="5"
     inkscape:zoom="0.83857813"
     inkscape:cx="259.93521"
     inkscape:cy="62.2"
     inkscape:window-x="67"
     inkscape:window-y="27"
     inkscape:window-maximized="0"
     inkscape:current-layer="svg89" />
  <path
     d="m 73.735206,20.72529 c -2.5,-0.5 -5.4,1 -6.3,3.4 l -18.8,46.2 -15.6,-55 c -0.6,-2.5 -3.2,-5.1 -5.6,-5.8999999 l -14.2,-4.2 c -2.5,-0.8 -3.7999998,0.6 -3,3.1 l 33.2,106.2999999 c 0.8,2.4 1.6,4.4 3.5,4.4 2,0 2.9,-2 3.9,-4.3 l 35.6,-86.9 c 1,-2.4 -0.2,-4.7 -2.8,-5.2 z m 435.700004,78.8 c -0.1,-2.6 -2.3,-4.6 -4.8,-4.5 l -30.8,1.1 c -2.6,0.1 -3.5,-0.8 -3.6,-3.4 l -0.1,-11 c 0,-2.6 0.7,-3.5 3.2,-3.7 l 28.1,-2.7 c 2.6,-0.2 4.6,-2.5 4.5,-5.1 l -0.4,-13.4 c -0.1,-2.6 -2.2,-4.4 -4.8,-4 l -27,4 c -2.5,0.4 -3.8,-0.8 -3.9,-3.4 l -0.2,-10.3 c -0.1,-2.6 0.8,-4 3.3,-4.6 l 29.8,-6.3 c 2.5,-0.6 4.5,-3.1 4.5,-5.7 l -0.2,-17.2999999 c 0,-2.6 -2.1,-4.1 -4.6,-3.4 0,0 -8.3,2.7 -22.1,6.3999999 -13.8,3.7 -25,6.2 -25,6.2 -2.5,0.7 -4.5,3.3 -4.4,5.9 l 1.8,89.9 c 0.1,2.6 2.2,4.7 4.8,4.8 l 48,0.8 c 2.6,0 4.6,-2 4.5,-4.6 z"
     style="clip-rule:evenodd;fill:#010101;fill-rule:evenodd"
     id="path85"
     inkscape:connector-curvature="0" />
  <path
     d="m 145.73521,32.12529 c -2.6,-0.3 -4.7,1.6 -4.7,4.1 l -0.4,37.7 c -0.1,5 1.7,24.6 -12.3,24.2 -14.5,-0.4 -12.2,-22 -12.2,-30.2 l 0.6,-35 c 0,-2.6 -2,-5 -4.5,-5.4 l -9.4,-1.6 c -2.5,-0.4 -4.600004,1.4 -4.700004,3.9 l -0.7,47.5 c 0,28 10.900004,41.3 29.200004,41.3 21.3,0 33,-12.4 33,-39 l 0.4,-41.3 c 0,-2.6 -2,-4.9 -4.6,-5.2 z m 253.9,16.2 c 1.7,-1.3 16.9,-3.9 16.9,7.7 0,10.8 -8.6,13.6 -16.7,13.6 z m 24.5,33.2 c -0.5,-1.2 0.2,-1.8 1.7,-3.4 3.4,-3.7 8.9,-11.9 8.9,-23.9 0,-12 -4.3,-20.6 -13.6,-24.2 -6.4,-2.5 -11.3,-2.5 -19.6,-1.2 -5.4,0.9 -15.7,2.1 -15.7,2.1 -2.5,0.3 -4.6,2.7 -4.6,5.3 l 0.9,77.1 c 0,2.6 2.2,4.7 4.7,4.7 l 9.1,0.1 c 2.6,0 4.7,-2.1 4.6,-4.6 l -0.1,-25.1 c 0,0 2.8,0.1 5.2,-0.2 1.9,-0.3 2.2,1 3.2,3.4 l 10.1,22.6 c 1.1,2.3 4,4.3 6.6,4.3 l 11.1,0.1 c 2.6,0 3.8,-1.9 2.7,-4.2 z m -60.9,-43.3 c 0,-2.6 -2.1,-4.5 -4.7,-4.2 l -9.2,0.9 c -2.6,0.2 -4.6,2.5 -4.6,5.1 0,0 0.1,33.5 0.1,42 0,6.4 -2.3,16.8 -12.5,16.8 -11.2,-0.1 -13.2,-11.2 -13.1,-18.5 0.1,-7.2 0,-38.6 0,-38.6 0,-2.6 -2.1,-4.6 -4.7,-4.5 l -10,0.5 c -2.6,0.1 -4.7,2.3 -4.7,4.9 l 0.2,37.7 c -0.1,28.2 11.1,37.8 29.8,38.4 23.4,0.8 34.6,-13.2 33.7,-40.8 z m -137.2,65.5 c 0,-2.6 -2.1,-4.7 -4.6,-4.7 l -25.7,-0.4 0.4,-57.2 c 0,-2.6 -2.1,-4.8 -4.6,-5 l -9.7,-0.7 c -2.6,-0.2 -4.7,1.8 -4.7,4.3 l -0.6,73.1 c 0,2.6 2.1,4.7 4.6,4.7 l 40.1,-0.1 c 2.6,0 4.7,-2.1 4.7,-4.7 z m 61.8,-60.6 c 0,-2.6 -2.1,-4.7 -4.6,-4.7 0,0 -10.1,0.3 -27,0.3 -16.9,0 -28.1,-0.6 -28.1,-0.6 -2.6,0 -4.7,2.1 -4.6,4.7 v 10.4 c 0,2.6 2.1,4.7 4.7,4.8 l 14.1,0.1 c 2.6,0 2.9,0.5 2.9,3 v 51.8 c 0,2.6 2.1,4.7 4.7,4.7 h 10.7 c 2.6,0 4.7,-2.1 4.7,-4.7 v -51.8 c 0,-2.6 0.5,-2.8 3,-2.8 l 14.9,-0.1 c 2.6,0 4.7,-2.1 4.7,-4.7 z"
     style="clip-rule:evenodd;fill:#010101;fill-rule:evenodd"
     id="path87"
     inkscape:connector-curvature="0" />
</svg>
