<?xml version="1.0" encoding="UTF-8" standalone="no"?>
<svg
   xmlns:dc="http://purl.org/dc/elements/1.1/"
   xmlns:cc="http://creativecommons.org/ns#"
   xmlns:rdf="http://www.w3.org/1999/02/22-rdf-syntax-ns#"
   xmlns:svg="http://www.w3.org/2000/svg"
   xmlns="http://www.w3.org/2000/svg"
   xmlns:sodipodi="http://sodipodi.sourceforge.net/DTD/sodipodi-0.dtd"
   xmlns:inkscape="http://www.inkscape.org/namespaces/inkscape"
   viewBox="0 0 148.02 49.550175"
   preserveAspectRatio="xMidYMid meet"
   focusable="false"
   version="1.1"
   id="svg122"
   sodipodi:docname="youtube.svg"
   width="300.9" height="75.01"
   inkscape:version="0.92.3 (2405546, 2018-03-11)">
  <metadata
     id="metadata128">
    <rdf:RDF>
      <cc:Work
         rdf:about="">
        <dc:format>image/svg+xml</dc:format>
        <dc:type
           rdf:resource="http://purl.org/dc/dcmitype/StillImage" />
        <dc:title></dc:title>
      </cc:Work>
    </rdf:RDF>
  </metadata>
  <defs
     id="defs126" />
  <sodipodi:namedview
     pagecolor="#ffffff"
     bordercolor="#666666"
     borderopacity="1"
     objecttolerance="10"
     gridtolerance="10"
     guidetolerance="10"
     inkscape:pageopacity="0"
     inkscape:pageshadow="2"
     inkscape:window-width="640"
     inkscape:window-height="480"
     id="namedview124"
     showgrid="false"
     fit-margin-top="5"
     fit-margin-right="10"
     fit-margin-left="10"
     fit-margin-bottom="5"
     inkscape:zoom="2.0964453"
     inkscape:cx="39.47"
     inkscape:cy="24.280174"
     inkscape:window-x="67"
     inkscape:window-y="27"
     inkscape:window-maximized="0"
     inkscape:current-layer="g120" />
  <g
     viewBox="0 0 200 60"
     preserveAspectRatio="xMidYMid meet"
     class="style-scope yt-icon"
     id="g120"
     transform="translate(-60.53,-4.73)">
    <g
       class="style-scope yt-icon"
       id="g101">
      <polygon
         points="26.6,20.57 26.6,39.43 42.93,30 "
         class="style-scope yt-icon"
         id="polygon99"
         style="fill:#ffffff" />
    </g>
    <g
       class="style-scope yt-icon"
       id="g118">
      <g
         id="youtube-paths"
         class="style-scope yt-icon">
        <path
           d="M 92.69,48.03 C 91.45,47.19 90.56,45.89 90.04,44.12 89.52,42.35 89.25,40 89.25,37.06 v -4 c 0,-2.97 0.3,-5.35 0.9,-7.15 0.6,-1.8 1.54,-3.11 2.81,-3.93 1.27,-0.82 2.94,-1.24 5.01,-1.24 2.04,0 3.67,0.42 4.9,1.26 1.23,0.84 2.13,2.15 2.7,3.93 0.57,1.78 0.85,4.16 0.85,7.12 v 4 c 0,2.94 -0.28,5.3 -0.83,7.08 -0.55,1.78 -1.45,3.09 -2.7,3.91 -1.24,0.82 -2.93,1.24 -5.06,1.24 -2.18,0.01 -3.9,-0.41 -5.14,-1.25 z m 6.97,-4.32 c 0.34,-0.9 0.52,-2.37 0.52,-4.4 v -8.59 c 0,-1.98 -0.17,-3.42 -0.52,-4.34 -0.34,-0.91 -0.95,-1.37 -1.82,-1.37 -0.84,0 -1.43,0.46 -1.78,1.37 -0.34,0.91 -0.52,2.36 -0.52,4.34 v 8.59 c 0,2.04 0.16,3.51 0.49,4.4 0.33,0.9 0.93,1.35 1.8,1.35 0.88,0 1.48,-0.45 1.83,-1.35 z"
           class="style-scope yt-icon"
           id="path103"
           inkscape:connector-curvature="0" />
        <path
           d="m 188.16,37.13 v 1.39 c 0,1.77 0.05,3.09 0.16,3.98 0.1,0.88 0.32,1.53 0.65,1.93 0.33,0.4 0.84,0.61 1.53,0.61 0.93,0 1.57,-0.36 1.91,-1.08 0.34,-0.72 0.53,-1.92 0.56,-3.6 l 5.35,0.31 c 0.03,0.24 0.04,0.57 0.04,0.99 0,2.55 -0.7,4.45 -2.09,5.71 -1.39,1.26 -3.36,1.89 -5.91,1.89 -3.06,0 -5.2,-0.96 -6.43,-2.88 -1.23,-1.92 -1.84,-4.88 -1.84,-8.9 v -4.81 c 0,-4.14 0.64,-7.15 1.91,-9.06 1.27,-1.9 3.45,-2.85 6.54,-2.85 2.13,0 3.76,0.39 4.9,1.17 1.14,0.78 1.94,1.99 2.41,3.64 0.46,1.65 0.7,3.93 0.7,6.83 v 4.72 h -10.39 z m 0.79,-11.6 c -0.31,0.39 -0.52,1.03 -0.63,1.91 -0.11,0.88 -0.16,2.23 -0.16,4.02 v 1.98 h 4.54 v -1.98 c 0,-1.77 -0.06,-3.11 -0.18,-4.02 -0.12,-0.91 -0.34,-1.56 -0.65,-1.93 -0.31,-0.37 -0.8,-0.56 -1.46,-0.56 -0.66,-0.01 -1.15,0.19 -1.46,0.58 z"
           class="style-scope yt-icon"
           id="path105"
           inkscape:connector-curvature="0" />
        <path
           d="M 77.59,36.61 70.53,11.12 h 6.16 l 2.47,11.55 c 0.63,2.85 1.09,5.27 1.39,7.28 h 0.18 c 0.21,-1.44 0.67,-3.85 1.39,-7.24 l 2.56,-11.6 h 6.16 l -7.14,25.5 v 12.23 h -6.11 z"
           class="style-scope yt-icon"
           id="path107"
           inkscape:connector-curvature="0" />
        <path
           d="m 126.45,21.28 v 27.55 h -4.85 l -0.54,-3.37 h -0.13 c -1.32,2.55 -3.3,3.82 -5.93,3.82 -1.83,0 -3.18,-0.6 -4.05,-1.8 -0.87,-1.2 -1.3,-3.07 -1.3,-5.62 V 21.28 h 6.2 v 20.23 c 0,1.23 0.13,2.11 0.4,2.63 0.27,0.52 0.72,0.79 1.35,0.79 0.54,0 1.06,-0.16 1.55,-0.49 0.49,-0.33 0.86,-0.75 1.1,-1.26 v -21.9 z"
           class="style-scope yt-icon"
           id="path109"
           inkscape:connector-curvature="0" />
        <path
           d="m 158.27,21.28 v 27.55 h -4.85 l -0.54,-3.37 h -0.13 c -1.32,2.55 -3.3,3.82 -5.93,3.82 -1.83,0 -3.18,-0.6 -4.05,-1.8 -0.87,-1.2 -1.3,-3.07 -1.3,-5.62 V 21.28 h 6.2 v 20.23 c 0,1.23 0.13,2.11 0.4,2.63 0.27,0.52 0.72,0.79 1.35,0.79 0.54,0 1.06,-0.16 1.55,-0.49 0.49,-0.33 0.86,-0.75 1.1,-1.26 v -21.9 z"
           class="style-scope yt-icon"
           id="path111"
           inkscape:connector-curvature="0" />
        <path
           d="m 143.31,16.11 h -6.16 v 32.72 h -6.07 V 16.11 h -6.16 v -4.99 h 18.38 v 4.99 z"
           class="style-scope yt-icon"
           id="path113"
           inkscape:connector-curvature="0" />
        <path
           d="m 178.8,25.69 c -0.38,-1.74 -0.98,-3 -1.82,-3.78 -0.84,-0.78 -1.99,-1.17 -3.46,-1.17 -1.14,0 -2.2,0.32 -3.19,0.97 -0.99,0.64 -1.75,1.49 -2.29,2.54 h -0.05 V 9.73 h -5.98 v 39.11 h 5.12 l 0.63,-2.61 h 0.13 c 0.48,0.93 1.2,1.66 2.16,2.2 0.96,0.54 2.02,0.81 3.19,0.81 2.1,0 3.64,-0.97 4.63,-2.9 0.99,-1.93 1.48,-4.95 1.48,-9.06 v -4.36 c 0.01,-3.08 -0.18,-5.49 -0.55,-7.23 z m -5.69,11.24 c 0,2.01 -0.08,3.58 -0.25,4.72 -0.16,1.14 -0.44,1.95 -0.83,2.43 -0.39,0.48 -0.91,0.72 -1.57,0.72 -0.51,0 -0.98,-0.12 -1.42,-0.36 -0.43,-0.24 -0.79,-0.6 -1.06,-1.08 V 27.71 c 0.21,-0.75 0.57,-1.36 1.08,-1.84 0.51,-0.48 1.06,-0.72 1.66,-0.72 0.63,0 1.12,0.25 1.46,0.74 0.34,0.49 0.58,1.33 0.72,2.49 0.13,1.17 0.2,2.83 0.2,4.99 v 3.56 z"
           class="style-scope yt-icon"
           id="path115"
           inkscape:connector-curvature="0" />
      </g>
    </g>
  </g>
</svg>
